<?xml version="1.0" encoding="UTF-8"?>
<!DOCTYPE svg PUBLIC "-//W3C//DTD SVG 1.1//EN" "http://www.w3.org/Graphics/SVG/1.1/DTD/svg11.dtd">
<!-- Creator: CorelDRAW -->
<svg xmlns="http://www.w3.org/2000/svg" xml:space="preserve" width="945px" height="244px" version="1.1" style="shape-rendering:geometricPrecision; text-rendering:geometricPrecision; image-rendering:optimizeQuality; fill-rule:evenodd; clip-rule:evenodd"
viewBox="0 0 514.98 133.11"
 xmlns:xlink="http://www.w3.org/1999/xlink"
 xmlns:xodm="http://www.corel.com/coreldraw/odm/2003">
 <defs>
  <style type="text/css">
   <![CDATA[
    .str0 {stroke:black;stroke-width:1.09;stroke-miterlimit:22.9256}
    .fil0 {fill:white}
    .fil2 {fill:black;fill-rule:nonzero}
    .fil1 {fill:black;fill-rule:nonzero}
   ]]>
  </style>
 </defs>
 <g id="Capa_x0020_1">
  <metadata id="CorelCorpID_0Corel-Layer"/>
  <g>
   <path class="fil0" d="M56.89 4.56l431.9 0c16.16,0 26.11,13.23 22.11,29.39l-16.15 65.21c-4,16.16 -20.5,29.39 -36.67,29.39l-431.89 0c-16.17,0 -26.12,-13.23 -22.11,-29.39l16.15 -65.21c4,-16.16 20.5,-29.39 36.66,-29.39z"/>
   <path id="_1" class="fil1" d="M488.79 9.12l-431.9 0 0.01 -9.12 431.89 0 0 0 0 9.12zm25.12 26.35l-6.02 -3.04 0 0 0.27 -1.21 0.2 -1.19 0.14 -1.14 0.08 -1.11 0.01 -1.08 -0.04 -1.04 -0.09 -1.01 -0.15 -0.99 -0.2 -0.96 -0.25 -0.94 -0.3 -0.92 -0.36 -0.9 -0.41 -0.89 -0.46 -0.86 -0.52 -0.84 -0.58 -0.82 -0.63 -0.79 -0.69 -0.76 -0.75 -0.73 -0.8 -0.69 -0.85 -0.65 -0.91 -0.61 -0.97 -0.57 -1.01 -0.52 -1.07 -0.47 -1.11 -0.41 -1.17 -0.36 -1.21 -0.3 -1.25 -0.24 -1.3 -0.17 -1.34 -0.1 -1.38 -0.04 0 -9.12 1.62 0.04 1.57 0.12 1.55 0.21 1.5 0.28 1.46 0.36 1.43 0.44 1.38 0.51 1.34 0.59 1.29 0.66 1.25 0.74 1.2 0.81 1.15 0.87 1.1 0.95 1.04 1.02 0.99 1.09 0.93 1.16 0.86 1.23 0.8 1.3 0.74 1.36 0.66 1.42 0.58 1.48 0.51 1.54 0.42 1.6 0.34 1.63 0.25 1.68 0.16 1.72 0.07 1.74 -0.03 1.76 -0.12 1.78 -0.21 1.79 -0.31 1.79 -0.4 1.8 0 0zm-22.17 62.17l16.15 -65.21 6.02 3.04 -16.15 65.2 -6.02 -3.03zm-33.66 35.47l0.01 -9.12 0 0 1.4 -0.04 1.41 -0.1 1.4 -0.18 1.41 -0.24 1.39 -0.31 1.4 -0.37 1.38 -0.43 1.36 -0.49 1.36 -0.56 1.33 -0.61 1.32 -0.66 1.29 -0.71 1.26 -0.77 1.24 -0.81 1.21 -0.87 1.17 -0.9 1.14 -0.95 1.1 -0.98 1.05 -1.03 1.02 -1.05 0.97 -1.09 0.92 -1.12 0.87 -1.14 0.81 -1.17 0.77 -1.18 0.7 -1.2 0.65 -1.22 0.59 -1.22 0.53 -1.24 0.46 -1.23 0.4 -1.24 0.34 -1.24 6.02 3.03 -0.48 1.78 -0.57 1.74 -0.63 1.69 -0.71 1.66 -0.77 1.61 -0.84 1.57 -0.9 1.53 -0.95 1.48 -1.01 1.43 -1.06 1.39 -1.11 1.35 -1.15 1.3 -1.2 1.25 -1.24 1.2 -1.28 1.14 -1.32 1.1 -1.36 1.05 -1.38 0.99 -1.42 0.93 -1.45 0.88 -1.47 0.81 -1.5 0.76 -1.52 0.69 -1.54 0.63 -1.56 0.57 -1.58 0.49 -1.59 0.42 -1.6 0.36 -1.62 0.27 -1.62 0.21 -1.62 0.12 -1.63 0.04 0 0zm-431.89 -9.12l431.9 0 -0.01 9.12 -431.9 0 0 0 0.01 -9.12zm-25.12 -26.35l6.02 3.03 0 0 -0.27 1.22 -0.21 1.18 -0.13 1.15 -0.08 1.11 -0.02 1.07 0.04 1.05 0.1 1.01 0.14 0.99 0.2 0.96 0.25 0.94 0.31 0.92 0.35 0.9 0.41 0.89 0.47 0.86 0.52 0.84 0.58 0.81 0.63 0.79 0.69 0.77 0.74 0.72 0.8 0.7 0.86 0.65 0.91 0.61 0.97 0.57 1.01 0.52 1.07 0.47 1.11 0.41 1.17 0.36 1.21 0.3 1.25 0.24 1.3 0.17 1.34 0.1 1.38 0.04 -0.01 9.12 -1.61 -0.04 -1.58 -0.13 -1.54 -0.2 -1.5 -0.28 -1.47 -0.36 -1.42 -0.44 -1.38 -0.51 -1.34 -0.59 -1.29 -0.66 -1.25 -0.74 -1.2 -0.81 -1.15 -0.87 -1.1 -0.95 -1.04 -1.02 -0.99 -1.09 -0.93 -1.16 -0.86 -1.23 -0.81 -1.3 -0.73 -1.36 -0.66 -1.42 -0.59 -1.48 -0.5 -1.54 -0.43 -1.6 -0.34 -1.64 -0.25 -1.68 -0.15 -1.71 -0.07 -1.74 0.03 -1.76 0.12 -1.78 0.21 -1.79 0.31 -1.79 0.4 -1.8 0 0zm22.17 -62.17l-16.15 65.2 -6.02 -3.03 16.15 -65.21 0 0 6.02 3.04zm33.66 -35.47l-0.01 9.12 0 0 -1.4 0.04 -1.41 0.1 -1.41 0.18 -1.4 0.24 -1.4 0.31 -1.39 0.37 -1.38 0.43 -1.37 0.49 -1.35 0.56 -1.33 0.6 -1.32 0.67 -1.29 0.71 -1.26 0.77 -1.24 0.81 -1.21 0.87 -1.17 0.9 -1.14 0.95 -1.1 0.98 -1.06 1.03 -1.01 1.05 -0.97 1.09 -0.92 1.12 -0.87 1.14 -0.82 1.16 -0.76 1.19 -0.71 1.2 -0.65 1.22 -0.58 1.22 -0.53 1.23 -0.46 1.24 -0.41 1.24 -0.33 1.24 -6.02 -3.04 0.48 -1.77 0.56 -1.74 0.64 -1.7 0.71 -1.65 0.77 -1.61 0.84 -1.57 0.9 -1.53 0.95 -1.48 1.01 -1.43 1.06 -1.4 1.1 -1.34 1.16 -1.3 1.2 -1.25 1.24 -1.2 1.28 -1.15 1.32 -1.09 1.35 -1.05 1.39 -0.99 1.42 -0.93 1.45 -0.88 1.47 -0.82 1.5 -0.75 1.52 -0.7 1.54 -0.62 1.56 -0.57 1.58 -0.49 1.59 -0.43 1.6 -0.35 1.61 -0.28 1.62 -0.2 1.63 -0.12 1.63 -0.04 0 0z"/>
  </g>
  <path class="fil2 str0" d="M115.92 57.75c-1.33,-0.99 -3.05,-1.47 -5.15,-1.47 -1.51,0 -2.84,0.29 -3.99,0.86 -1.17,0.58 -2.17,1.35 -3.05,2.34 -0.88,0.97 -1.61,2.11 -2.21,3.39 -0.63,1.29 -1.11,2.63 -1.48,4.02 -0.37,1.4 -0.63,2.81 -0.8,4.22 -0.17,1.42 -0.24,2.77 -0.24,4.05l0 22.24 -5.64 0 0 -45.49 5.64 0 0 9.75 0.18 0c0.53,-1.65 1.2,-3.15 2.02,-4.46 0.82,-1.32 1.76,-2.44 2.82,-3.33 1.06,-0.91 2.23,-1.59 3.48,-2.06 1.26,-0.48 2.58,-0.72 3.98,-0.72 0.92,0 1.74,0.06 2.47,0.18 0.71,0.11 1.38,0.29 1.97,0.54l0 5.94zm37.32 37.59c-3.38,2.05 -7.46,3.09 -12.27,3.15 -3.26,0.03 -6.2,-0.53 -8.81,-1.68 -2.61,-1.17 -4.82,-2.77 -6.67,-4.82 -1.84,-2.06 -3.25,-4.49 -4.22,-7.29 -0.98,-2.79 -1.47,-5.84 -1.47,-9.13 0,-3.42 0.52,-6.61 1.56,-9.62 1.04,-3.01 2.55,-5.62 4.54,-7.87 1.98,-2.23 4.41,-4 7.29,-5.3 2.87,-1.31 6.16,-1.96 9.87,-1.96 3.76,0 7.21,0.73 10.32,2.18l0 6.04c-3.33,-2.2 -6.92,-3.31 -10.79,-3.31 -2.7,0 -5.11,0.52 -7.21,1.53 -2.11,1.04 -3.89,2.43 -5.33,4.19 -1.44,1.76 -2.53,3.82 -3.29,6.19 -0.76,2.35 -1.13,4.85 -1.13,7.49 0,2.42 0.31,4.76 0.95,6.97 0.64,2.23 1.62,4.19 2.94,5.9 1.32,1.7 2.99,3.06 5.01,4.07 2.03,1.01 4.39,1.51 7.14,1.51 4.27,0 8.13,-1.27 11.57,-3.83l0 5.59zm32.04 -59.93c-1.27,-0.83 -2.91,-1.24 -4.93,-1.24 -5.32,0 -7.99,3.49 -7.99,10.45l0 7.29 11.28 0 0 5.01 -11.28 0 0 40.48 -5.73 0 0 -40.48 -7.92 0 0 -5.01 7.92 0 0 -7.66c0,-2.29 0.29,-4.35 0.86,-6.2 0.58,-1.86 1.44,-3.44 2.57,-4.76 1.12,-1.33 2.54,-2.35 4.24,-3.06 1.72,-0.72 3.69,-1.06 5.9,-1.06 2.14,0 3.84,0.28 5.08,0.85l0 5.39zm37.53 61.99l0 -7.97 -0.18 0c-1.5,2.86 -3.67,5.11 -6.46,6.68 -2.81,1.6 -5.99,2.38 -9.54,2.38 -2.85,0 -5.43,-0.53 -7.76,-1.57 -2.32,-1.06 -4.33,-2.58 -5.98,-4.57 -1.65,-1.98 -2.94,-4.38 -3.85,-7.2 -0.89,-2.82 -1.35,-6 -1.35,-9.55 0,-3.69 0.5,-7.04 1.49,-10.09 1,-3.03 2.41,-5.64 4.23,-7.82 1.82,-2.18 4.02,-3.87 6.58,-5.07 2.56,-1.19 5.41,-1.8 8.55,-1.8 6.55,0 11.25,2.62 14.09,7.87l0.18 0 0 -28.61 5.73 0 0 67.32 -5.73 0zm0 -27.47c0,-1.99 -0.35,-3.86 -1.03,-5.57 -0.68,-1.71 -1.62,-3.21 -2.84,-4.49 -1.23,-1.27 -2.68,-2.29 -4.39,-3.03 -1.7,-0.74 -3.58,-1.11 -5.63,-1.11 -2.26,0 -4.34,0.44 -6.23,1.34 -1.9,0.89 -3.54,2.17 -4.89,3.85 -1.35,1.67 -2.39,3.71 -3.15,6.11 -0.76,2.4 -1.14,5.12 -1.14,8.19 0,2.86 0.35,5.44 1.03,7.73 0.69,2.29 1.66,4.22 2.92,5.78 1.25,1.58 2.76,2.77 4.51,3.61 1.75,0.83 3.7,1.24 5.83,1.24 2.32,0 4.41,-0.41 6.26,-1.24 1.85,-0.84 3.43,-1.97 4.72,-3.43 1.29,-1.45 2.29,-3.15 2.98,-5.11 0.7,-1.96 1.05,-4.05 1.05,-6.28l0 -7.59zm39.87 26.91c-1.96,0.99 -4.08,1.47 -6.39,1.47 -7.32,0 -10.99,-4.23 -10.99,-12.69l0 -28.7 -8.01 0 0 -5.01 8.01 0 0 -11.42 5.73 -1.86 0 13.28 11.65 0 0 5.01 -11.65 0 0 27.79c0,3.08 0.5,5.29 1.5,6.66 1,1.35 2.68,2.03 5.08,2.03 1.76,0 3.44,-0.53 5.07,-1.59l0 5.03zm27.24 1.65c-3.36,0 -6.39,-0.56 -9.06,-1.68 -2.69,-1.14 -4.98,-2.73 -6.87,-4.79 -1.9,-2.06 -3.34,-4.52 -4.34,-7.4 -1.02,-2.88 -1.52,-6.07 -1.52,-9.57 0,-3.79 0.53,-7.19 1.6,-10.17 1.07,-3.01 2.59,-5.54 4.55,-7.63 1.97,-2.09 4.35,-3.69 7.12,-4.78 2.79,-1.1 5.9,-1.65 9.33,-1.65 3.29,0 6.24,0.55 8.87,1.62 2.64,1.08 4.87,2.66 6.7,4.69 1.84,2.04 3.25,4.55 4.22,7.47 0.98,2.95 1.47,6.28 1.47,10.01 0,3.57 -0.52,6.79 -1.53,9.72 -1.02,2.93 -2.48,5.43 -4.37,7.54 -1.9,2.11 -4.2,3.73 -6.93,4.9 -2.72,1.15 -5.79,1.72 -9.24,1.72zm0.46 -42.76c-2.5,0 -4.75,0.43 -6.76,1.29 -2.02,0.87 -3.75,2.11 -5.19,3.76 -1.44,1.64 -2.55,3.66 -3.32,6.05 -0.77,2.38 -1.15,5.1 -1.15,8.12 0,2.85 0.38,5.41 1.15,7.68 0.77,2.29 1.86,4.25 3.27,5.89 1.41,1.62 3.13,2.88 5.15,3.74 2.01,0.88 4.26,1.32 6.76,1.32 2.54,0 4.8,-0.42 6.76,-1.27 1.96,-0.84 3.61,-2.06 4.97,-3.69 1.37,-1.62 2.4,-3.59 3.1,-5.94 0.7,-2.34 1.04,-5.01 1.04,-8.01 0,-6.12 -1.36,-10.82 -4.09,-14.07 -2.73,-3.24 -6.63,-4.87 -11.69,-4.87zm51.69 42.76c-3.36,0 -6.4,-0.56 -9.07,-1.68 -2.68,-1.14 -4.97,-2.73 -6.87,-4.79 -1.89,-2.06 -3.33,-4.52 -4.33,-7.4 -1.02,-2.88 -1.52,-6.07 -1.52,-9.57 0,-3.79 0.53,-7.19 1.59,-10.17 1.08,-3.01 2.6,-5.54 4.55,-7.63 1.97,-2.09 4.35,-3.69 7.13,-4.78 2.79,-1.1 5.9,-1.65 9.33,-1.65 3.29,0 6.24,0.55 8.87,1.62 2.63,1.08 4.86,2.66 6.7,4.69 1.83,2.04 3.24,4.55 4.21,7.47 0.99,2.95 1.47,6.28 1.47,10.01 0,3.57 -0.51,6.79 -1.53,9.72 -1.01,2.93 -2.47,5.43 -4.36,7.54 -1.9,2.11 -4.2,3.73 -6.93,4.9 -2.72,1.15 -5.8,1.72 -9.24,1.72zm0.46 -42.76c-2.51,0 -4.75,0.43 -6.77,1.29 -2.01,0.87 -3.74,2.11 -5.18,3.76 -1.44,1.64 -2.55,3.66 -3.32,6.05 -0.78,2.38 -1.16,5.1 -1.16,8.12 0,2.85 0.38,5.41 1.16,7.68 0.77,2.29 1.86,4.25 3.27,5.89 1.41,1.62 3.13,2.88 5.14,3.74 2.02,0.88 4.26,1.32 6.77,1.32 2.54,0 4.8,-0.42 6.76,-1.27 1.95,-0.84 3.61,-2.06 4.97,-3.69 1.37,-1.62 2.4,-3.59 3.1,-5.94 0.69,-2.34 1.04,-5.01 1.04,-8.01 0,-6.12 -1.36,-10.82 -4.09,-14.07 -2.73,-3.24 -6.63,-4.87 -11.69,-4.87zm33.17 41.67l0 -67.32 5.74 0 0 67.32 -5.74 0zm17.81 -8.17c0.86,0.68 1.79,1.29 2.79,1.82 1,0.53 2.04,0.98 3.11,1.38 1.06,0.38 2.12,0.67 3.21,0.86 1.08,0.2 2.09,0.29 3.08,0.29 6.73,0 10.1,-2.53 10.1,-7.58 0,-1.15 -0.25,-2.15 -0.72,-3 -0.47,-0.85 -1.15,-1.63 -2.03,-2.32 -0.89,-0.7 -1.95,-1.34 -3.2,-1.93 -1.24,-0.59 -2.65,-1.21 -4.21,-1.86 -2.11,-0.87 -3.91,-1.75 -5.43,-2.63 -1.5,-0.89 -2.75,-1.86 -3.73,-2.91 -0.97,-1.06 -1.7,-2.21 -2.17,-3.47 -0.47,-1.26 -0.71,-2.7 -0.71,-4.29 0,-2.02 0.44,-3.82 1.3,-5.39 0.88,-1.57 2.05,-2.91 3.52,-4 1.49,-1.09 3.18,-1.94 5.11,-2.52 1.94,-0.57 3.97,-0.86 6.1,-0.86 3.92,0 7.34,0.74 10.26,2.21l0 5.99c-3.4,-2.2 -7.07,-3.29 -10.99,-3.29 -1.41,0 -2.7,0.18 -3.87,0.53 -1.17,0.37 -2.17,0.87 -3,1.52 -0.82,0.65 -1.47,1.44 -1.93,2.35 -0.45,0.91 -0.68,1.91 -0.68,3 0,1.14 0.18,2.13 0.53,2.96 0.36,0.85 0.91,1.62 1.67,2.3 0.76,0.67 1.73,1.32 2.93,1.96 1.19,0.62 2.65,1.29 4.38,2 2.18,0.88 4.08,1.76 5.67,2.64 1.61,0.88 2.93,1.82 3.96,2.85 1.03,1.02 1.8,2.15 2.3,3.43 0.5,1.26 0.76,2.71 0.76,4.37 0,2.04 -0.42,3.88 -1.26,5.47 -0.85,1.61 -2.02,2.96 -3.5,4.05 -1.49,1.09 -3.25,1.92 -5.25,2.49 -2,0.56 -4.18,0.84 -6.55,0.84 -4.58,0 -8.43,-0.97 -11.55,-2.89l0 -6.37z"/>
 </g>
</svg>
