<?xml version="1.0" encoding="UTF-8"?>
<!DOCTYPE svg PUBLIC "-//W3C//DTD SVG 1.1//EN" "http://www.w3.org/Graphics/SVG/1.1/DTD/svg11.dtd">
<!-- Creator: CorelDRAW -->
<svg xmlns="http://www.w3.org/2000/svg" xml:space="preserve" width="817px" height="244px" version="1.1" style="shape-rendering:geometricPrecision; text-rendering:geometricPrecision; image-rendering:optimizeQuality; fill-rule:evenodd; clip-rule:evenodd"
viewBox="0 0 385.03 115.21"
 xmlns:xlink="http://www.w3.org/1999/xlink"
 xmlns:xodm="http://www.corel.com/coreldraw/odm/2003">
 <defs>
  <style type="text/css">
   <![CDATA[
    .fil0 {fill:white}
    .fil2 {fill:black;fill-rule:nonzero}
    .fil1 {fill:black;fill-rule:nonzero}
   ]]>
  </style>
 </defs>
 <g id="Capa_x0020_1">
  <metadata id="CorelCorpID_0Corel-Layer"/>
  <g>
   <path class="fil0" d="M45.92 3.95l316.15 0c14,0 22.99,11.44 20,25.44l-12.08 56.44c-3,13.99 -16.89,25.44 -30.88,25.44l-316.15 0c-13.99,0 -22.99,-11.45 -20,-25.44l12.08 -56.44c3,-14 16.89,-25.44 30.88,-25.44z"/>
   <path id="_1" class="fil1" d="M362.07 7.9l-316.15 0 0.01 -7.9 316.15 0 0 0 -0.01 7.9zm22.25 22.8l-4.5 -2.63 0 0 0.19 -1.01 0.13 -0.98 0.08 -0.94 0.04 -0.91 -0.02 -0.89 -0.06 -0.86 -0.11 -0.84 -0.15 -0.83 -0.2 -0.82 -0.24 -0.81 -0.29 -0.8 -0.34 -0.79 -0.39 -0.78 -0.44 -0.77 -0.49 -0.76 -0.55 -0.73 -0.59 -0.71 -0.65 -0.69 -0.69 -0.66 -0.74 -0.62 -0.8 -0.59 -0.83 -0.55 -0.88 -0.51 -0.93 -0.47 -0.97 -0.41 -1.01 -0.37 -1.04 -0.32 -1.09 -0.27 -1.12 -0.21 -1.16 -0.15 -1.19 -0.09 -1.22 -0.03 0.01 -7.9 1.37 0.04 1.34 0.1 1.31 0.17 1.29 0.24 1.24 0.31 1.22 0.37 1.18 0.43 1.14 0.5 1.11 0.55 1.07 0.62 1.03 0.68 0.99 0.74 0.95 0.79 0.91 0.86 0.86 0.92 0.81 0.97 0.76 1.04 0.72 1.09 0.66 1.15 0.6 1.22 0.55 1.27 0.48 1.33 0.42 1.38 0.34 1.43 0.27 1.49 0.19 1.51 0.11 1.55 0.03 1.57 -0.05 1.59 -0.14 1.6 -0.22 1.59 -0.3 1.6 0 0zm-16.58 53.82l12.08 -56.45 4.5 2.63 -12.08 56.44 -4.5 -2.62zm-28.64 30.69l0.01 -7.89 0 0 1.24 -0.03 1.24 -0.1 1.23 -0.15 1.23 -0.21 1.22 -0.27 1.21 -0.33 1.2 -0.38 1.19 -0.43 1.17 -0.49 1.15 -0.53 1.13 -0.58 1.11 -0.63 1.09 -0.67 1.06 -0.71 1.03 -0.76 1 -0.79 0.96 -0.83 0.93 -0.86 0.9 -0.89 0.85 -0.92 0.81 -0.95 0.77 -0.97 0.72 -0.99 0.68 -1.01 0.62 -1.02 0.58 -1.04 0.52 -1.04 0.46 -1.05 0.42 -1.05 0.36 -1.05 0.3 -1.04 0.25 -1.03 4.5 2.62 -0.38 1.57 -0.44 1.53 -0.51 1.5 -0.57 1.44 -0.63 1.41 -0.68 1.37 -0.74 1.33 -0.78 1.28 -0.83 1.24 -0.88 1.2 -0.91 1.16 -0.96 1.12 -1 1.07 -1.03 1.04 -1.06 0.98 -1.11 0.95 -1.13 0.89 -1.16 0.85 -1.19 0.8 -1.21 0.75 -1.24 0.7 -1.26 0.65 -1.28 0.59 -1.3 0.54 -1.32 0.48 -1.33 0.42 -1.35 0.37 -1.35 0.3 -1.37 0.23 -1.37 0.17 -1.38 0.11 -1.39 0.03 0 0zm-316.14 -7.89l316.15 0 -0.01 7.89 -316.15 0 0 0 0.01 -7.89zm-22.25 -22.8l4.5 2.62 0 0 -0.19 1.01 -0.13 0.98 -0.08 0.94 -0.03 0.91 0.01 0.89 0.06 0.86 0.11 0.84 0.15 0.83 0.2 0.82 0.24 0.81 0.29 0.8 0.34 0.79 0.39 0.79 0.44 0.76 0.49 0.76 0.55 0.73 0.59 0.72 0.65 0.68 0.69 0.66 0.75 0.63 0.79 0.58 0.83 0.56 0.89 0.5 0.92 0.47 0.97 0.42 1.01 0.37 1.04 0.32 1.09 0.26 1.12 0.21 1.16 0.15 1.19 0.1 1.22 0.03 -0.01 7.89 -1.37 -0.03 -1.34 -0.11 -1.31 -0.17 -1.28 -0.24 -1.25 -0.3 -1.22 -0.37 -1.18 -0.44 -1.14 -0.49 -1.11 -0.56 -1.07 -0.62 -1.03 -0.68 -0.99 -0.73 -0.95 -0.8 -0.9 -0.86 -0.87 -0.91 -0.81 -0.98 -0.76 -1.03 -0.72 -1.1 -0.66 -1.15 -0.6 -1.21 -0.55 -1.28 -0.48 -1.33 -0.42 -1.38 -0.34 -1.43 -0.27 -1.48 -0.19 -1.52 -0.11 -1.55 -0.03 -1.57 0.05 -1.59 0.14 -1.59 0.22 -1.6 0.3 -1.59 0 0zm16.58 -53.82l-12.08 56.44 -4.5 -2.62 12.08 -56.45 0 0 4.5 2.63zm28.64 -30.7l-0.01 7.9 0 0 -1.24 0.03 -1.23 0.09 -1.24 0.15 -1.23 0.22 -1.22 0.27 -1.21 0.32 -1.2 0.38 -1.19 0.44 -1.17 0.48 -1.15 0.54 -1.13 0.58 -1.11 0.62 -1.09 0.68 -1.06 0.71 -1.03 0.75 -1 0.79 -0.96 0.83 -0.93 0.86 -0.9 0.89 -0.85 0.92 -0.81 0.95 -0.77 0.97 -0.72 0.99 -0.68 1.01 -0.62 1.03 -0.57 1.03 -0.53 1.04 -0.46 1.05 -0.42 1.05 -0.35 1.05 -0.31 1.04 -0.25 1.04 -4.5 -2.63 0.38 -1.57 0.44 -1.53 0.51 -1.49 0.57 -1.45 0.63 -1.41 0.68 -1.37 0.74 -1.32 0.78 -1.29 0.83 -1.24 0.88 -1.2 0.91 -1.16 0.96 -1.12 1 -1.07 1.03 -1.03 1.07 -0.99 1.1 -0.94 1.13 -0.9 1.16 -0.85 1.19 -0.8 1.21 -0.75 1.24 -0.7 1.26 -0.65 1.28 -0.59 1.3 -0.54 1.32 -0.48 1.33 -0.42 1.35 -0.36 1.35 -0.3 1.37 -0.24 1.37 -0.17 1.38 -0.1 1.39 -0.04 0 0z"/>
  </g>
  <path class="fil2" d="M78.76 46.36c-1.16,-0.85 -2.64,-1.27 -4.47,-1.27 -1.3,0 -2.45,0.25 -3.45,0.74 -1.01,0.5 -1.88,1.17 -2.64,2.03 -0.76,0.84 -1.39,1.82 -1.91,2.94 -0.54,1.11 -0.96,2.27 -1.28,3.47 -0.32,1.21 -0.55,2.43 -0.69,3.65 -0.15,1.24 -0.21,2.4 -0.21,3.51l0 19.25 -4.89 0 0 -39.37 4.89 0 0 8.44 0.16 0c0.45,-1.44 1.03,-2.73 1.74,-3.86 0.71,-1.15 1.52,-2.12 2.44,-2.89 0.92,-0.79 1.93,-1.38 3.02,-1.79 1.09,-0.4 2.23,-0.61 3.44,-0.61 0.8,0 1.51,0.05 2.14,0.15 0.62,0.1 1.19,0.25 1.71,0.46l0 5.15zm32.3 32.54c-2.93,1.77 -6.46,2.67 -10.62,2.73 -2.82,0.02 -5.37,-0.46 -7.63,-1.46 -2.26,-1.01 -4.17,-2.4 -5.77,-4.17 -1.59,-1.79 -2.81,-3.89 -3.65,-6.32 -0.86,-2.41 -1.28,-5.05 -1.28,-7.9 0,-2.95 0.45,-5.72 1.36,-8.32 0.89,-2.61 2.2,-4.87 3.92,-6.81 1.72,-1.93 3.82,-3.47 6.31,-4.6 2.49,-1.12 5.33,-1.69 8.55,-1.69 3.25,0 6.23,0.63 8.92,1.89l0 5.22c-2.87,-1.9 -5.98,-2.86 -9.33,-2.86 -2.33,0 -4.42,0.45 -6.25,1.33 -1.82,0.89 -3.36,2.1 -4.6,3.62 -1.25,1.52 -2.19,3.31 -2.85,5.36 -0.66,2.03 -0.99,4.2 -0.99,6.48 0,2.1 0.28,4.12 0.83,6.04 0.55,1.93 1.41,3.62 2.55,5.1 1.14,1.47 2.58,2.65 4.33,3.52 1.76,0.88 3.81,1.31 6.18,1.31 3.7,0 7.04,-1.1 10.02,-3.32l0 4.85zm27.73 -51.87c-1.1,-0.73 -2.52,-1.08 -4.27,-1.08 -4.6,0 -6.91,3.02 -6.91,9.04l0 6.32 9.76 0 0 4.33 -9.76 0 0 35.04 -4.96 0 0 -35.04 -6.86 0 0 -4.33 6.86 0 0 -6.63c0,-1.98 0.24,-3.77 0.74,-5.37 0.5,-1.61 1.25,-2.98 2.22,-4.12 0.97,-1.16 2.21,-2.04 3.68,-2.65 1.48,-0.62 3.19,-0.92 5.1,-0.92 1.85,0 3.32,0.25 4.4,0.73l0 4.68zm32.48 53.65l0 -6.9 -0.15 0c-1.3,2.48 -3.18,4.42 -5.6,5.79 -2.42,1.37 -5.18,2.06 -8.25,2.06 -2.47,0 -4.7,-0.46 -6.72,-1.37 -2.01,-0.92 -3.74,-2.23 -5.17,-3.95 -1.43,-1.72 -2.55,-3.79 -3.34,-6.23 -0.77,-2.45 -1.16,-5.2 -1.16,-8.27 0,-3.19 0.43,-6.09 1.28,-8.73 0.87,-2.63 2.09,-4.88 3.66,-6.77 1.58,-1.89 3.48,-3.35 5.7,-4.39 2.22,-1.03 4.69,-1.56 7.4,-1.56 5.67,0 9.74,2.27 12.2,6.81l0.15 0 0 -24.76 4.96 0 0 58.27 -4.96 0zm0 -23.78c0,-1.72 -0.3,-3.34 -0.89,-4.82 -0.59,-1.48 -1.4,-2.78 -2.45,-3.88 -1.07,-1.11 -2.33,-1.99 -3.81,-2.63 -1.47,-0.64 -3.1,-0.96 -4.87,-0.96 -1.95,0 -3.75,0.38 -5.39,1.16 -1.64,0.77 -3.06,1.88 -4.23,3.33 -1.17,1.45 -2.07,3.22 -2.73,5.29 -0.66,2.08 -0.98,4.44 -0.98,7.09 0,2.48 0.3,4.71 0.89,6.69 0.59,1.98 1.43,3.65 2.52,5 1.09,1.37 2.39,2.41 3.91,3.13 1.51,0.72 3.2,1.07 5.04,1.07 2.01,0 3.82,-0.35 5.42,-1.07 1.6,-0.72 2.97,-1.71 4.08,-2.97 1.12,-1.26 1.98,-2.73 2.59,-4.42 0.6,-1.7 0.9,-3.51 0.9,-5.44l0 -6.57zm34.51 23.3c-1.69,0.85 -3.53,1.27 -5.53,1.27 -6.34,0 -9.51,-3.66 -9.51,-10.99l0 -24.84 -6.93 0 0 -4.33 6.93 0 0 -9.89 4.96 -1.61 0 11.5 10.08 0 0 4.33 -10.08 0 0 24.06c0,2.66 0.43,4.58 1.3,5.76 0.86,1.17 2.32,1.76 4.4,1.76 1.52,0 2.97,-0.46 4.38,-1.38l0 4.36zm23.58 1.43c-2.91,0 -5.53,-0.49 -7.84,-1.46 -2.33,-0.99 -4.31,-2.36 -5.95,-4.15 -1.64,-1.78 -2.89,-3.91 -3.75,-6.4 -0.88,-2.5 -1.32,-5.25 -1.32,-8.29 0,-3.28 0.46,-6.22 1.38,-8.8 0.93,-2.6 2.25,-4.79 3.94,-6.6 1.71,-1.82 3.77,-3.19 6.17,-4.14 2.41,-0.96 5.1,-1.43 8.07,-1.43 2.85,0 5.41,0.47 7.68,1.41 2.28,0.93 4.21,2.29 5.8,4.05 1.59,1.77 2.81,3.94 3.65,6.47 0.85,2.55 1.27,5.44 1.27,8.66 0,3.09 -0.44,5.88 -1.32,8.42 -0.88,2.53 -2.14,4.7 -3.78,6.52 -1.64,1.82 -3.64,3.23 -6,4.24 -2.35,1 -5.02,1.5 -8,1.5zm0.4 -37.02c-2.17,0 -4.11,0.37 -5.86,1.12 -1.74,0.75 -3.24,1.82 -4.48,3.25 -1.25,1.42 -2.21,3.17 -2.88,5.24 -0.67,2.06 -1,4.41 -1,7.02 0,2.47 0.33,4.69 1,6.66 0.67,1.98 1.62,3.67 2.84,5.09 1.22,1.4 2.7,2.49 4.45,3.24 1.74,0.76 3.68,1.14 5.85,1.14 2.2,0 4.16,-0.36 5.85,-1.1 1.7,-0.72 3.13,-1.78 4.31,-3.19 1.18,-1.4 2.07,-3.11 2.68,-5.14 0.6,-2.02 0.9,-4.33 0.9,-6.93 0,-5.31 -1.18,-9.37 -3.54,-12.18 -2.37,-2.81 -5.74,-4.22 -10.12,-4.22zm44.74 37.02c-2.91,0 -5.54,-0.49 -7.85,-1.46 -2.32,-0.99 -4.3,-2.36 -5.94,-4.15 -1.64,-1.78 -2.89,-3.91 -3.76,-6.4 -0.88,-2.5 -1.31,-5.25 -1.31,-8.29 0,-3.28 0.46,-6.22 1.38,-8.8 0.93,-2.6 2.24,-4.79 3.94,-6.6 1.7,-1.82 3.76,-3.19 6.17,-4.14 2.41,-0.96 5.1,-1.43 8.07,-1.43 2.85,0 5.4,0.47 7.68,1.41 2.28,0.93 4.21,2.29 5.8,4.05 1.58,1.77 2.81,3.94 3.65,6.47 0.85,2.55 1.27,5.44 1.27,8.66 0,3.09 -0.45,5.88 -1.33,8.42 -0.88,2.53 -2.14,4.7 -3.78,6.52 -1.64,1.82 -3.63,3.23 -6,4.24 -2.34,1 -5.01,1.5 -7.99,1.5zm0.4 -37.02c-2.17,0 -4.11,0.37 -5.86,1.12 -1.74,0.75 -3.24,1.82 -4.49,3.25 -1.24,1.42 -2.2,3.17 -2.87,5.24 -0.67,2.06 -1,4.41 -1,7.02 0,2.47 0.33,4.69 1,6.66 0.67,1.98 1.61,3.67 2.83,5.09 1.22,1.4 2.71,2.49 4.45,3.24 1.75,0.76 3.69,1.14 5.86,1.14 2.2,0 4.16,-0.36 5.85,-1.1 1.69,-0.72 3.12,-1.78 4.31,-3.19 1.18,-1.4 2.07,-3.11 2.67,-5.14 0.61,-2.02 0.91,-4.33 0.91,-6.93 0,-5.31 -1.18,-9.37 -3.55,-12.18 -2.36,-2.81 -5.73,-4.22 -10.11,-4.22zm28.71 36.07l0 -58.27 4.96 0 0 58.27 -4.96 0zm15.41 -7.07c0.75,0.59 1.55,1.11 2.42,1.57 0.86,0.46 1.77,0.85 2.69,1.2 0.92,0.32 1.83,0.57 2.78,0.74 0.93,0.17 1.81,0.25 2.66,0.25 5.83,0 8.75,-2.19 8.75,-6.56 0,-1 -0.21,-1.86 -0.62,-2.6 -0.41,-0.73 -1,-1.4 -1.76,-2.01 -0.78,-0.6 -1.69,-1.15 -2.77,-1.66 -1.08,-0.51 -2.3,-1.05 -3.65,-1.62 -1.82,-0.75 -3.39,-1.51 -4.7,-2.27 -1.3,-0.77 -2.37,-1.61 -3.23,-2.52 -0.84,-0.92 -1.47,-1.91 -1.87,-3 -0.41,-1.09 -0.62,-2.34 -0.62,-3.72 0,-1.74 0.38,-3.31 1.13,-4.66 0.76,-1.36 1.77,-2.52 3.04,-3.46 1.29,-0.95 2.76,-1.68 4.43,-2.18 1.68,-0.5 3.44,-0.75 5.27,-0.75 3.4,0 6.36,0.64 8.89,1.92l0 5.18c-2.94,-1.9 -6.12,-2.85 -9.52,-2.85 -1.22,0 -2.33,0.16 -3.34,0.46 -1.01,0.32 -1.88,0.75 -2.6,1.32 -0.71,0.56 -1.28,1.24 -1.67,2.03 -0.39,0.79 -0.59,1.65 -0.59,2.6 0,0.98 0.16,1.84 0.46,2.56 0.31,0.73 0.79,1.4 1.44,1.99 0.66,0.58 1.5,1.14 2.54,1.7 1.03,0.53 2.29,1.11 3.79,1.73 1.89,0.76 3.53,1.52 4.91,2.28 1.39,0.76 2.53,1.58 3.42,2.47 0.9,0.88 1.57,1.86 2,2.97 0.43,1.09 0.65,2.35 0.65,3.78 0,1.77 -0.36,3.36 -1.08,4.73 -0.74,1.4 -1.75,2.56 -3.04,3.51 -1.28,0.94 -2.8,1.67 -4.54,2.15 -1.73,0.49 -3.62,0.74 -5.67,0.74 -3.96,0 -7.3,-0.84 -10,-2.51l0 -5.51z"/>
 </g>
</svg>
