<?xml version="1.0" encoding="UTF-8"?>
<!DOCTYPE svg PUBLIC "-//W3C//DTD SVG 1.1//EN" "http://www.w3.org/Graphics/SVG/1.1/DTD/svg11.dtd">
<!-- Creator: CorelDRAW -->
<svg xmlns="http://www.w3.org/2000/svg" xml:space="preserve" width="950px" height="742px" version="1.1" style="shape-rendering:geometricPrecision; text-rendering:geometricPrecision; image-rendering:optimizeQuality; fill-rule:evenodd; clip-rule:evenodd"
viewBox="0 0 209.15 163.34"
 xmlns:xlink="http://www.w3.org/1999/xlink"
 xmlns:xodm="http://www.corel.com/coreldraw/odm/2003">
 <defs>
  <style type="text/css">
   <![CDATA[
    .str0 {stroke:black;stroke-width:0.44;stroke-miterlimit:22.9256}
    .fil0 {fill:white}
    .fil2 {fill:black;fill-rule:nonzero}
    .fil1 {fill:black;fill-rule:nonzero}
   ]]>
  </style>
 </defs>
 <g id="Capa_x0020_1">
  <metadata id="CorelCorpID_0Corel-Layer"/>
  <g>
   <path class="fil0" d="M104.58 1.84c44.08,0 79.83,35.74 79.83,79.83 0,44.09 -35.75,79.83 -79.83,79.83 -44.09,0 -79.83,-35.74 -79.83,-79.83 0,-44.09 35.74,-79.83 79.83,-79.83z"/>
   <path id="_1" class="fil1" d="M185.7 81.67l-2.58 0 0 0 -0.11 -3.97 -0.29 -3.92 -0.49 -3.87 -0.68 -3.81 -0.87 -3.74 -1.04 -3.68 -1.22 -3.6 -1.39 -3.53 -1.56 -3.44 -1.72 -3.36 -1.88 -3.26 -2.03 -3.17 -2.18 -3.07 -2.32 -2.95 -2.46 -2.84 -2.6 -2.73 -2.72 -2.59 -2.85 -2.47 -2.97 -2.33 -3.08 -2.2 -3.2 -2.04 -3.29 -1.9 -3.4 -1.74 -3.49 -1.58 -3.58 -1.41 -3.66 -1.24 -3.74 -1.06 -3.82 -0.88 -3.89 -0.69 -3.94 -0.51 -4.01 -0.3 -4.07 -0.1 0.01 -3.69 4.15 0.11 4.1 0.31 4.04 0.51 3.98 0.71 3.91 0.9 3.83 1.09 3.76 1.27 3.67 1.45 3.58 1.62 3.49 1.78 3.39 1.95 3.28 2.11 3.18 2.26 3.06 2.41 2.95 2.55 2.81 2.68 2.7 2.83 2.55 2.95 2.42 3.07 2.27 3.2 2.12 3.31 1.97 3.42 1.81 3.53 1.64 3.62 1.46 3.73 1.3 3.81 1.1 3.9 0.92 3.98 0.73 4.06 0.52 4.12 0.32 4.19 0.11 4.24 0 0zm-81.13 81.67l0.01 -3.68 0 0 4.06 -0.1 4.01 -0.31 3.95 -0.5 3.88 -0.7 3.82 -0.88 3.74 -1.06 3.67 -1.24 3.57 -1.41 3.49 -1.58 3.4 -1.74 3.3 -1.89 3.19 -2.05 3.08 -2.19 2.97 -2.33 2.85 -2.47 2.73 -2.6 2.59 -2.72 2.46 -2.84 2.33 -2.96 2.17 -3.06 2.03 -3.17 1.88 -3.27 1.72 -3.35 1.56 -3.45 1.39 -3.52 1.22 -3.61 1.04 -3.67 0.87 -3.74 0.68 -3.81 0.49 -3.87 0.29 -3.92 0.11 -3.98 2.58 0 -0.11 4.24 -0.32 4.19 -0.52 4.12 -0.73 4.05 -0.92 3.99 -1.1 3.9 -1.3 3.81 -1.46 3.73 -1.64 3.62 -1.81 3.53 -1.97 3.42 -2.12 3.31 -2.27 3.2 -2.42 3.08 -2.56 2.95 -2.69 2.82 -2.82 2.69 -2.94 2.55 -3.06 2.4 -3.18 2.26 -3.29 2.11 -3.39 1.95 -3.48 1.78 -3.59 1.62 -3.67 1.45 -3.75 1.27 -3.84 1.09 -3.9 0.9 -3.98 0.71 -4.04 0.52 -4.1 0.31 -4.16 0.1 0 0zm-81.11 -81.67l2.58 0 0 0 0.1 3.97 0.3 3.93 0.49 3.86 0.68 3.81 0.86 3.75 1.05 3.67 1.21 3.6 1.4 3.53 1.55 3.45 1.72 3.35 1.88 3.27 2.03 3.16 2.18 3.07 2.32 2.95 2.46 2.85 2.6 2.72 2.72 2.6 2.85 2.47 2.97 2.33 3.09 2.19 3.19 2.05 3.29 1.89 3.4 1.74 3.49 1.58 3.58 1.41 3.66 1.24 3.75 1.06 3.81 0.88 3.89 0.7 3.95 0.5 4.01 0.31 4.06 0.1 -0.01 3.68 -4.15 -0.1 -4.1 -0.31 -4.04 -0.52 -3.98 -0.71 -3.9 -0.9 -3.84 -1.09 -3.75 -1.27 -3.67 -1.45 -3.59 -1.61 -3.49 -1.79 -3.38 -1.95 -3.29 -2.11 -3.18 -2.26 -3.06 -2.4 -2.94 -2.55 -2.82 -2.69 -2.69 -2.82 -2.56 -2.95 -2.42 -3.08 -2.27 -3.19 -2.12 -3.31 -1.97 -3.43 -1.8 -3.52 -1.64 -3.63 -1.47 -3.72 -1.29 -3.82 -1.11 -3.9 -0.92 -3.98 -0.72 -4.06 -0.53 -4.12 -0.32 -4.19 -0.1 -4.24 0 0zm81.12 -81.67l-0.01 3.69 0 0 -4.06 0.1 -4.01 0.3 -3.95 0.51 -3.88 0.69 -3.82 0.88 -3.74 1.06 -3.66 1.24 -3.58 1.41 -3.49 1.58 -3.4 1.74 -3.29 1.9 -3.2 2.04 -3.08 2.19 -2.97 2.34 -2.85 2.47 -2.72 2.59 -2.6 2.73 -2.46 2.84 -2.32 2.95 -2.18 3.07 -2.03 3.16 -1.88 3.27 -1.72 3.36 -1.56 3.44 -1.39 3.53 -1.21 3.6 -1.05 3.67 -0.86 3.75 -0.68 3.8 -0.49 3.87 -0.3 3.92 -0.1 3.98 -2.58 0 0.1 -4.24 0.32 -4.18 0.53 -4.13 0.72 -4.05 0.92 -3.98 1.11 -3.9 1.29 -3.82 1.47 -3.72 1.64 -3.63 1.8 -3.53 1.97 -3.42 2.12 -3.31 2.28 -3.2 2.41 -3.07 2.56 -2.95 2.69 -2.83 2.82 -2.68 2.94 -2.55 3.07 -2.41 3.17 -2.26 3.29 -2.11 3.39 -1.94 3.49 -1.79 3.58 -1.62 3.67 -1.45 3.75 -1.27 3.84 -1.09 3.91 -0.9 3.97 -0.71 4.04 -0.51 4.1 -0.31 4.16 -0.11 0 0z"/>
  </g>
  <path class="fil2" d="M51.44 37.67l0.99 -0.77c0.63,0.82 0.95,1.64 0.95,2.49 0.01,0.84 -0.28,1.64 -0.87,2.39 -0.61,0.78 -1.27,1.29 -1.97,1.53 -0.7,0.24 -1.45,0.25 -2.25,0.04 -0.8,-0.22 -1.55,-0.6 -2.24,-1.14 -0.75,-0.59 -1.3,-1.25 -1.63,-1.97 -0.34,-0.73 -0.44,-1.47 -0.32,-2.23 0.13,-0.76 0.44,-1.46 0.94,-2.1 0.56,-0.72 1.22,-1.19 1.98,-1.39 0.75,-0.2 1.54,-0.14 2.36,0.19l-0.51 1.11c-0.66,-0.24 -1.24,-0.3 -1.72,-0.17 -0.5,0.13 -0.93,0.44 -1.31,0.92 -0.43,0.56 -0.66,1.12 -0.69,1.71 -0.02,0.58 0.13,1.12 0.46,1.62 0.33,0.5 0.74,0.94 1.21,1.32 0.62,0.48 1.23,0.81 1.82,0.99 0.6,0.18 1.16,0.17 1.69,-0.03 0.52,-0.2 0.95,-0.52 1.3,-0.96 0.42,-0.53 0.61,-1.11 0.6,-1.72 -0.02,-0.61 -0.29,-1.22 -0.79,-1.83zm1.54 -1.93c-0.9,-0.84 -1.32,-1.72 -1.28,-2.62 0.03,-0.76 0.33,-1.43 0.9,-2.03 0.63,-0.67 1.36,-1 2.19,-1.02 0.84,-0.01 1.64,0.35 2.4,1.07 0.63,0.59 1.03,1.15 1.21,1.67 0.18,0.52 0.2,1.06 0.06,1.6 -0.14,0.54 -0.41,1.03 -0.81,1.45 -0.64,0.68 -1.38,1.02 -2.21,1.03 -0.82,0.01 -1.65,-0.38 -2.46,-1.15zm0.79 -0.83c0.62,0.58 1.21,0.88 1.78,0.9 0.56,0.02 1.04,-0.17 1.43,-0.59 0.38,-0.4 0.55,-0.89 0.49,-1.45 -0.05,-0.57 -0.39,-1.15 -1.03,-1.75 -0.59,-0.56 -1.17,-0.85 -1.74,-0.87 -0.56,-0.02 -1.04,0.18 -1.42,0.58 -0.39,0.41 -0.56,0.9 -0.51,1.46 0.05,0.56 0.39,1.13 1,1.72zm10.31 -5.02l-0.61 -0.78c0.05,0.91 -0.27,1.64 -0.97,2.19 -0.3,0.24 -0.64,0.4 -1,0.5 -0.36,0.09 -0.68,0.09 -0.95,0.02 -0.27,-0.08 -0.53,-0.23 -0.78,-0.45 -0.18,-0.15 -0.41,-0.41 -0.71,-0.79l-2.54 -3.24 0.89 -0.7 2.27 2.9c0.37,0.47 0.63,0.77 0.79,0.9 0.24,0.19 0.5,0.28 0.79,0.27 0.28,-0.01 0.56,-0.11 0.82,-0.32 0.27,-0.21 0.47,-0.47 0.59,-0.79 0.13,-0.32 0.15,-0.64 0.06,-0.95 -0.09,-0.31 -0.31,-0.69 -0.66,-1.13l-2.19 -2.81 0.89 -0.7 4.11 5.25 -0.8 0.63zm2.22 -1.66l-3.81 -5.46 0.83 -0.58 0.58 0.84c-0.05,-0.54 -0.04,-0.93 0.06,-1.18 0.09,-0.25 0.25,-0.45 0.46,-0.6 0.32,-0.22 0.7,-0.35 1.16,-0.38l0.27 1.09c-0.32,0.03 -0.58,0.12 -0.81,0.28 -0.2,0.14 -0.34,0.33 -0.41,0.56 -0.08,0.23 -0.07,0.48 0.01,0.75 0.12,0.4 0.32,0.79 0.6,1.18l1.99 2.86 -0.93 0.64zm2.17 -3.95l0.89 -0.7c0.27,0.36 0.59,0.57 0.96,0.64 0.36,0.07 0.77,-0.03 1.22,-0.28 0.46,-0.25 0.74,-0.53 0.86,-0.84 0.11,-0.31 0.1,-0.58 -0.04,-0.83 -0.12,-0.22 -0.32,-0.34 -0.59,-0.36 -0.19,-0.01 -0.58,0.07 -1.19,0.23 -0.82,0.22 -1.41,0.35 -1.77,0.37 -0.35,0.02 -0.66,-0.04 -0.94,-0.2 -0.27,-0.15 -0.49,-0.37 -0.65,-0.65 -0.15,-0.26 -0.22,-0.53 -0.23,-0.82 0,-0.28 0.06,-0.56 0.18,-0.82 0.09,-0.2 0.24,-0.41 0.46,-0.63 0.22,-0.23 0.48,-0.43 0.79,-0.6 0.45,-0.25 0.89,-0.41 1.31,-0.47 0.41,-0.07 0.77,-0.03 1.06,0.1 0.29,0.14 0.57,0.37 0.84,0.72l-0.88 0.67c-0.22,-0.28 -0.48,-0.44 -0.78,-0.5 -0.31,-0.05 -0.65,0.03 -1.03,0.25 -0.45,0.25 -0.73,0.51 -0.84,0.76 -0.11,0.26 -0.11,0.49 0.01,0.69 0.07,0.13 0.17,0.22 0.31,0.28 0.14,0.06 0.31,0.08 0.52,0.05 0.12,-0.02 0.46,-0.1 1.01,-0.24 0.8,-0.2 1.37,-0.32 1.71,-0.36 0.35,-0.04 0.66,0.02 0.94,0.15 0.29,0.14 0.52,0.37 0.71,0.71 0.18,0.33 0.26,0.69 0.23,1.09 -0.03,0.39 -0.18,0.77 -0.45,1.13 -0.27,0.36 -0.64,0.67 -1.09,0.93 -0.76,0.42 -1.42,0.59 -1.99,0.5 -0.57,-0.09 -1.08,-0.41 -1.54,-0.97zm10.22 -5.46l1.13 -0.34c0.11,0.69 0.02,1.32 -0.28,1.86 -0.29,0.55 -0.79,0.98 -1.5,1.3 -0.88,0.4 -1.71,0.44 -2.47,0.13 -0.77,-0.31 -1.37,-0.96 -1.82,-1.94 -0.46,-1.02 -0.56,-1.93 -0.28,-2.73 0.27,-0.8 0.82,-1.39 1.66,-1.77 0.81,-0.36 1.59,-0.39 2.35,-0.07 0.77,0.32 1.37,0.98 1.82,1.98 0.03,0.06 0.07,0.16 0.12,0.28l-4.52 2.04c0.34,0.65 0.76,1.08 1.26,1.28 0.49,0.2 1,0.18 1.5,-0.05 0.38,-0.17 0.65,-0.41 0.83,-0.73 0.18,-0.32 0.24,-0.73 0.2,-1.24zm-4.11 -0.13l3.38 -1.52c-0.28,-0.49 -0.58,-0.82 -0.91,-0.98 -0.5,-0.25 -1.02,-0.25 -1.54,-0.02 -0.47,0.22 -0.79,0.55 -0.97,1.01 -0.18,0.46 -0.17,0.97 0.04,1.51zm6.39 -0.62l1.01 -0.51c0.19,0.41 0.46,0.68 0.81,0.82 0.34,0.14 0.76,0.14 1.25,-0.02 0.5,-0.15 0.83,-0.37 1.01,-0.65 0.18,-0.27 0.22,-0.55 0.14,-0.82 -0.08,-0.24 -0.25,-0.4 -0.51,-0.47 -0.18,-0.05 -0.58,-0.05 -1.21,-0.02 -0.85,0.05 -1.45,0.05 -1.81,0 -0.35,-0.05 -0.64,-0.17 -0.88,-0.38 -0.24,-0.21 -0.4,-0.46 -0.5,-0.77 -0.09,-0.29 -0.11,-0.57 -0.06,-0.85 0.06,-0.28 0.17,-0.54 0.34,-0.77 0.13,-0.17 0.33,-0.35 0.59,-0.53 0.26,-0.17 0.55,-0.31 0.89,-0.42 0.49,-0.16 0.95,-0.22 1.37,-0.2 0.43,0.03 0.77,0.14 1.02,0.32 0.26,0.2 0.49,0.48 0.68,0.88l-1 0.47c-0.15,-0.31 -0.38,-0.53 -0.66,-0.64 -0.29,-0.11 -0.64,-0.1 -1.06,0.03 -0.49,0.15 -0.82,0.35 -0.98,0.58 -0.16,0.23 -0.2,0.45 -0.13,0.67 0.04,0.14 0.12,0.25 0.25,0.34 0.12,0.08 0.29,0.14 0.5,0.15 0.12,0.01 0.46,0 1.04,-0.02 0.82,-0.04 1.4,-0.04 1.75,-0.01 0.34,0.04 0.63,0.15 0.88,0.34 0.25,0.19 0.44,0.47 0.55,0.84 0.12,0.36 0.12,0.73 0.01,1.11 -0.11,0.38 -0.34,0.72 -0.68,1.02 -0.34,0.3 -0.76,0.53 -1.26,0.68 -0.82,0.26 -1.5,0.29 -2.04,0.09 -0.55,-0.21 -0.98,-0.63 -1.31,-1.26zm7.45 -0.17l-0.28 -1.26 1.25 -0.28 0.29 1.25c0.1,0.46 0.11,0.85 0.01,1.17 -0.1,0.32 -0.31,0.6 -0.63,0.84l-0.41 -0.41c0.21,-0.15 0.35,-0.34 0.41,-0.56 0.06,-0.23 0.06,-0.52 -0.01,-0.9l-0.63 0.15zm6.7 -1.29l-0.91 -6.6 1.01 -0.14 0.14 1.01c0.19,-0.51 0.38,-0.85 0.58,-1.03 0.2,-0.18 0.43,-0.28 0.69,-0.32 0.38,-0.05 0.78,0.01 1.2,0.19l-0.26 1.09c-0.29,-0.11 -0.57,-0.15 -0.84,-0.11 -0.25,0.03 -0.45,0.13 -0.63,0.31 -0.17,0.17 -0.28,0.39 -0.33,0.66 -0.07,0.42 -0.07,0.86 0,1.33l0.47 3.45 -1.12 0.16zm8.77 -2.83l1.17 0.14c-0.17,0.68 -0.5,1.21 -0.99,1.6 -0.5,0.38 -1.13,0.57 -1.9,0.59 -0.97,0.01 -1.75,-0.28 -2.32,-0.87 -0.58,-0.59 -0.88,-1.43 -0.89,-2.51 -0.02,-1.11 0.26,-1.99 0.82,-2.61 0.57,-0.63 1.31,-0.95 2.23,-0.96 0.89,-0.01 1.62,0.28 2.19,0.88 0.57,0.6 0.86,1.44 0.88,2.54 0,0.07 0,0.17 0,0.3l-4.96 0.07c0.05,0.73 0.26,1.29 0.64,1.67 0.38,0.38 0.84,0.57 1.4,0.56 0.41,0 0.76,-0.12 1.05,-0.34 0.29,-0.22 0.52,-0.58 0.68,-1.06zm-3.72 -1.75l3.71 -0.06c-0.06,-0.56 -0.21,-0.97 -0.45,-1.25 -0.36,-0.43 -0.83,-0.64 -1.4,-0.63 -0.52,0 -0.95,0.18 -1.3,0.53 -0.34,0.36 -0.53,0.82 -0.56,1.41zm6.05 1.82l1.13 -0.1c0.03,0.45 0.18,0.81 0.45,1.07 0.26,0.26 0.66,0.41 1.17,0.44 0.52,0.04 0.91,-0.03 1.18,-0.22 0.26,-0.19 0.41,-0.43 0.43,-0.72 0.02,-0.25 -0.08,-0.46 -0.29,-0.62 -0.15,-0.11 -0.53,-0.27 -1.13,-0.47 -0.81,-0.27 -1.36,-0.49 -1.67,-0.67 -0.31,-0.18 -0.53,-0.4 -0.68,-0.68 -0.14,-0.28 -0.2,-0.59 -0.18,-0.91 0.03,-0.3 0.12,-0.57 0.27,-0.81 0.15,-0.24 0.35,-0.43 0.6,-0.58 0.18,-0.12 0.43,-0.21 0.74,-0.27 0.31,-0.07 0.63,-0.09 0.98,-0.07 0.52,0.04 0.97,0.15 1.35,0.33 0.39,0.18 0.66,0.41 0.83,0.68 0.16,0.27 0.27,0.63 0.31,1.06l-1.12 0.07c-0.02,-0.35 -0.14,-0.63 -0.37,-0.84 -0.22,-0.21 -0.55,-0.33 -0.99,-0.37 -0.51,-0.04 -0.89,0.02 -1.12,0.17 -0.23,0.16 -0.36,0.35 -0.38,0.58 -0.01,0.14 0.03,0.28 0.11,0.4 0.08,0.13 0.22,0.24 0.41,0.34 0.11,0.05 0.43,0.17 0.97,0.36 0.78,0.27 1.32,0.49 1.62,0.65 0.31,0.15 0.54,0.37 0.7,0.64 0.16,0.27 0.23,0.6 0.2,0.98 -0.03,0.38 -0.17,0.72 -0.41,1.04 -0.24,0.31 -0.58,0.54 -1.01,0.69 -0.42,0.15 -0.9,0.21 -1.42,0.17 -0.86,-0.07 -1.51,-0.3 -1.93,-0.69 -0.43,-0.39 -0.67,-0.94 -0.75,-1.65zm11.54 1.17l1.12 0.34c-0.29,0.64 -0.71,1.11 -1.26,1.39 -0.55,0.29 -1.21,0.37 -1.97,0.25 -0.96,-0.16 -1.67,-0.59 -2.13,-1.27 -0.46,-0.68 -0.61,-1.56 -0.43,-2.63 0.19,-1.1 0.61,-1.91 1.28,-2.42 0.67,-0.52 1.46,-0.7 2.36,-0.55 0.88,0.15 1.55,0.57 2,1.26 0.46,0.69 0.59,1.57 0.41,2.66 -0.01,0.06 -0.03,0.16 -0.05,0.29l-4.9 -0.82c-0.07,0.73 0.04,1.32 0.34,1.76 0.3,0.44 0.73,0.71 1.27,0.8 0.41,0.07 0.78,0.02 1.1,-0.15 0.32,-0.16 0.61,-0.47 0.86,-0.91zm-3.35 -2.4l3.66 0.61c0.04,-0.56 -0.03,-0.99 -0.21,-1.31 -0.28,-0.49 -0.71,-0.78 -1.27,-0.87 -0.51,-0.09 -0.97,0.01 -1.38,0.29 -0.4,0.29 -0.67,0.71 -0.8,1.28zm9.96 5.44c-0.51,0.22 -0.96,0.35 -1.38,0.38 -0.41,0.03 -0.83,-0.02 -1.26,-0.15 -0.7,-0.2 -1.19,-0.53 -1.46,-0.99 -0.28,-0.45 -0.34,-0.94 -0.18,-1.48 0.09,-0.31 0.25,-0.57 0.47,-0.79 0.22,-0.21 0.46,-0.36 0.74,-0.45 0.28,-0.09 0.57,-0.13 0.88,-0.13 0.23,0.01 0.57,0.05 1.02,0.13 0.9,0.15 1.58,0.22 2.04,0.2 0.05,-0.15 0.08,-0.24 0.09,-0.28 0.13,-0.44 0.12,-0.78 -0.03,-1.02 -0.21,-0.33 -0.59,-0.57 -1.13,-0.73 -0.51,-0.15 -0.92,-0.17 -1.21,-0.07 -0.3,0.11 -0.57,0.37 -0.82,0.79l-1.02 -0.46c0.23,-0.42 0.5,-0.74 0.8,-0.96 0.31,-0.21 0.69,-0.33 1.16,-0.36 0.46,-0.02 0.97,0.04 1.52,0.21 0.54,0.16 0.97,0.35 1.27,0.59 0.3,0.23 0.51,0.46 0.61,0.7 0.1,0.24 0.14,0.52 0.12,0.84 -0.02,0.2 -0.1,0.53 -0.24,1.01l-0.43 1.44c-0.29,1 -0.46,1.64 -0.49,1.92 -0.04,0.29 -0.03,0.57 0.03,0.85l-1.13 -0.33c-0.04,-0.26 -0.03,-0.55 0.03,-0.86zm0.62 -2.43c-0.44,0.04 -1.07,0 -1.89,-0.12 -0.47,-0.07 -0.8,-0.09 -1.01,-0.06 -0.21,0.02 -0.39,0.1 -0.53,0.22 -0.15,0.12 -0.25,0.28 -0.31,0.47 -0.08,0.28 -0.04,0.55 0.12,0.81 0.16,0.26 0.46,0.45 0.88,0.57 0.41,0.13 0.81,0.14 1.19,0.06 0.38,-0.09 0.69,-0.26 0.94,-0.53 0.19,-0.21 0.35,-0.55 0.49,-1.03l0.12 -0.39zm1.78 4.1l2.37 -6.22 0.95 0.36 -0.36 0.95c0.41,-0.34 0.74,-0.55 1,-0.61 0.26,-0.07 0.51,-0.05 0.76,0.04 0.36,0.14 0.68,0.39 0.96,0.75l-0.75 0.83c-0.2,-0.24 -0.43,-0.41 -0.68,-0.51 -0.23,-0.08 -0.47,-0.09 -0.7,-0.02 -0.24,0.06 -0.44,0.21 -0.61,0.42 -0.26,0.33 -0.48,0.72 -0.65,1.16l-1.24 3.26 -1.05 -0.41zm8.96 1.18l0.94 0.6c-0.43,0.64 -0.96,1.05 -1.59,1.23 -0.63,0.18 -1.28,0.12 -1.94,-0.19 -0.83,-0.38 -1.37,-0.95 -1.62,-1.72 -0.25,-0.78 -0.15,-1.66 0.31,-2.67 0.3,-0.65 0.68,-1.17 1.12,-1.56 0.44,-0.39 0.93,-0.61 1.49,-0.65 0.55,-0.04 1.09,0.06 1.61,0.3 0.66,0.3 1.12,0.71 1.38,1.24 0.27,0.52 0.32,1.12 0.15,1.78l-1.06 -0.3c0.09,-0.45 0.07,-0.84 -0.08,-1.15 -0.15,-0.32 -0.39,-0.56 -0.73,-0.71 -0.52,-0.24 -1.03,-0.25 -1.52,-0.03 -0.49,0.22 -0.92,0.73 -1.29,1.53 -0.38,0.82 -0.49,1.48 -0.35,1.99 0.14,0.51 0.46,0.88 0.96,1.11 0.41,0.19 0.8,0.22 1.18,0.09 0.39,-0.12 0.73,-0.42 1.04,-0.89zm0.83 3.16l4.96 -7.74 0.96 0.61 -1.79 2.79c0.77,-0.23 1.49,-0.13 2.17,0.3 0.41,0.26 0.71,0.57 0.92,0.93 0.19,0.36 0.27,0.73 0.21,1.1 -0.05,0.37 -0.25,0.83 -0.61,1.38l-2.27 3.55 -0.96 -0.61 2.28 -3.55c0.31,-0.47 0.42,-0.88 0.36,-1.23 -0.07,-0.35 -0.29,-0.64 -0.66,-0.88 -0.28,-0.18 -0.59,-0.27 -0.93,-0.29 -0.34,-0.01 -0.64,0.08 -0.91,0.26 -0.26,0.18 -0.53,0.49 -0.82,0.93l-1.96 3.06 -0.95 -0.61zm10.94 4.97l0.82 0.86c-0.57,0.41 -1.17,0.61 -1.79,0.59 -0.62,-0.02 -1.23,-0.27 -1.83,-0.76 -0.76,-0.61 -1.17,-1.32 -1.24,-2.15 -0.07,-0.82 0.24,-1.65 0.91,-2.49 0.71,-0.87 1.47,-1.37 2.31,-1.49 0.83,-0.12 1.61,0.11 2.32,0.68 0.7,0.56 1.07,1.25 1.13,2.08 0.06,0.82 -0.25,1.66 -0.94,2.52 -0.04,0.05 -0.11,0.12 -0.2,0.23l-3.86 -3.12c-0.43,0.6 -0.62,1.16 -0.57,1.7 0.05,0.53 0.29,0.98 0.72,1.32 0.32,0.26 0.66,0.4 1.03,0.41 0.36,0.02 0.76,-0.11 1.19,-0.38zm-1.74 -3.73l2.89 2.33c0.31,-0.47 0.46,-0.88 0.46,-1.25 -0.01,-0.56 -0.24,-1.02 -0.68,-1.38 -0.4,-0.33 -0.85,-0.46 -1.34,-0.41 -0.49,0.04 -0.94,0.28 -1.33,0.71zm3.43 5.31l0.94 0.64c-0.27,0.37 -0.37,0.74 -0.33,1.11 0.05,0.37 0.26,0.73 0.63,1.08 0.38,0.36 0.73,0.55 1.06,0.57 0.32,0.02 0.59,-0.07 0.78,-0.28 0.18,-0.19 0.23,-0.41 0.17,-0.67 -0.05,-0.18 -0.24,-0.54 -0.58,-1.07 -0.46,-0.72 -0.75,-1.24 -0.88,-1.58 -0.12,-0.33 -0.15,-0.64 -0.09,-0.95 0.07,-0.31 0.21,-0.58 0.43,-0.82 0.21,-0.22 0.44,-0.37 0.72,-0.46 0.27,-0.09 0.55,-0.12 0.83,-0.08 0.22,0.03 0.47,0.12 0.75,0.26 0.28,0.14 0.54,0.33 0.8,0.57 0.38,0.36 0.66,0.73 0.84,1.11 0.18,0.38 0.26,0.73 0.22,1.04 -0.05,0.32 -0.19,0.66 -0.43,1.02l-0.91 -0.65c0.2,-0.28 0.28,-0.58 0.24,-0.89 -0.04,-0.3 -0.22,-0.6 -0.54,-0.9 -0.37,-0.36 -0.7,-0.55 -0.98,-0.58 -0.28,-0.02 -0.5,0.05 -0.65,0.21 -0.1,0.11 -0.16,0.23 -0.18,0.38 -0.01,0.15 0.02,0.33 0.11,0.52 0.06,0.11 0.23,0.4 0.53,0.89 0.43,0.7 0.71,1.21 0.85,1.53 0.14,0.31 0.18,0.63 0.14,0.94 -0.05,0.31 -0.2,0.61 -0.47,0.89 -0.25,0.27 -0.58,0.45 -0.96,0.54 -0.39,0.09 -0.8,0.06 -1.22,-0.09 -0.43,-0.16 -0.83,-0.41 -1.21,-0.77 -0.63,-0.59 -0.99,-1.18 -1.07,-1.75 -0.09,-0.57 0.07,-1.16 0.46,-1.76zm9.99 12.42c-0.55,-0.05 -1.04,-0.18 -1.47,-0.41 -0.43,-0.22 -0.8,-0.54 -1.11,-0.94 -0.57,-0.75 -0.78,-1.53 -0.61,-2.36 0.14,-0.67 0.46,-1.2 0.97,-1.58 0.45,-0.35 0.96,-0.51 1.55,-0.5 0.59,0.01 1.24,0.2 1.95,0.57 0.13,-0.62 0.26,-1.08 0.42,-1.37 0.15,-0.29 0.33,-0.52 0.55,-0.69 0.44,-0.33 0.95,-0.45 1.54,-0.36 0.58,0.1 1.08,0.41 1.48,0.93 0.38,0.5 0.54,1.03 0.48,1.58 -0.07,0.55 -0.31,0.99 -0.74,1.32 -0.7,0.53 -1.65,0.52 -2.85,-0.03l-0.64 2.6c0.41,-0.08 0.83,-0.22 1.28,-0.43l0.51 1.08c-0.75,0.33 -1.44,0.51 -2.05,0.55 -0.19,0.67 -0.27,1.34 -0.25,1.99l-1.17 -0.06c-0.05,-0.53 0.01,-1.16 0.16,-1.89zm2.39 -4.74c0.53,0.21 0.92,0.31 1.19,0.3 0.26,-0.02 0.49,-0.11 0.7,-0.27 0.25,-0.19 0.4,-0.43 0.43,-0.71 0.04,-0.28 -0.03,-0.54 -0.21,-0.77 -0.19,-0.25 -0.42,-0.39 -0.7,-0.43 -0.28,-0.04 -0.54,0.02 -0.76,0.2 -0.12,0.08 -0.22,0.2 -0.29,0.36 -0.09,0.15 -0.15,0.34 -0.2,0.56l-0.16 0.76zm-2.12 3.63l0.79 -3.2c-0.66,-0.26 -1.18,-0.39 -1.56,-0.37 -0.37,0.02 -0.68,0.12 -0.92,0.31 -0.3,0.22 -0.51,0.58 -0.65,1.06 -0.14,0.47 -0.04,0.93 0.29,1.36 0.21,0.27 0.5,0.48 0.88,0.64 0.39,0.16 0.78,0.23 1.17,0.2z"/>
  <path class="fil2" d="M58.43 135.89l0.73 0.84c-0.59,0.5 -1.21,0.74 -1.87,0.74 -0.66,-0.01 -1.26,-0.25 -1.81,-0.73 -0.68,-0.6 -1.04,-1.3 -1.06,-2.11 -0.03,-0.82 0.32,-1.64 1.05,-2.47 0.48,-0.55 0.98,-0.94 1.51,-1.19 0.54,-0.25 1.07,-0.31 1.62,-0.19 0.54,0.11 1.03,0.36 1.46,0.74 0.54,0.47 0.87,1 0.97,1.57 0.11,0.58 -0.01,1.17 -0.36,1.76l-0.93 -0.59c0.22,-0.41 0.3,-0.78 0.25,-1.13 -0.05,-0.34 -0.22,-0.64 -0.51,-0.89 -0.42,-0.37 -0.91,-0.52 -1.44,-0.45 -0.54,0.07 -1.09,0.44 -1.67,1.1 -0.59,0.68 -0.89,1.28 -0.9,1.81 -0.01,0.53 0.2,0.97 0.61,1.34 0.34,0.29 0.7,0.43 1.11,0.42 0.4,-0.01 0.81,-0.2 1.24,-0.57zm1.49 0.31c0.71,-1.01 1.52,-1.55 2.42,-1.64 0.75,-0.07 1.47,0.13 2.14,0.61 0.74,0.53 1.18,1.21 1.31,2.03 0.13,0.83 -0.12,1.67 -0.73,2.53 -0.49,0.7 -0.99,1.17 -1.48,1.42 -0.49,0.25 -1.02,0.35 -1.58,0.28 -0.55,-0.06 -1.07,-0.26 -1.54,-0.59 -0.76,-0.54 -1.21,-1.22 -1.33,-2.04 -0.12,-0.82 0.14,-1.69 0.79,-2.6zm0.94 0.67c-0.49,0.69 -0.71,1.32 -0.65,1.88 0.06,0.56 0.32,1 0.78,1.33 0.46,0.33 0.96,0.42 1.51,0.29 0.55,-0.13 1.08,-0.55 1.59,-1.26 0.47,-0.67 0.68,-1.29 0.62,-1.85 -0.06,-0.56 -0.32,-1 -0.77,-1.32 -0.47,-0.33 -0.97,-0.43 -1.52,-0.31 -0.55,0.13 -1.07,0.54 -1.56,1.24zm3.27 6.48l3.31 -5.78 0.88 0.51 -0.47 0.81c0.34,-0.18 0.71,-0.27 1.11,-0.26 0.4,0 0.79,0.11 1.18,0.33 0.42,0.24 0.72,0.53 0.9,0.86 0.17,0.34 0.22,0.7 0.15,1.08 0.84,-0.41 1.63,-0.41 2.37,0.02 0.57,0.33 0.93,0.74 1.05,1.23 0.13,0.5 0.01,1.08 -0.37,1.73l-2.27 3.97 -0.98 -0.56 2.08 -3.64c0.23,-0.39 0.35,-0.69 0.39,-0.9 0.04,-0.21 0,-0.42 -0.11,-0.62 -0.11,-0.2 -0.27,-0.36 -0.5,-0.49 -0.41,-0.24 -0.82,-0.3 -1.24,-0.18 -0.43,0.12 -0.81,0.47 -1.15,1.07l-1.92 3.35 -0.98 -0.56 2.15 -3.75c0.25,-0.44 0.35,-0.81 0.32,-1.12 -0.04,-0.31 -0.24,-0.57 -0.6,-0.77 -0.27,-0.16 -0.57,-0.23 -0.89,-0.22 -0.31,0.01 -0.6,0.12 -0.87,0.34 -0.26,0.22 -0.55,0.59 -0.85,1.12l-1.71 3 -0.98 -0.57zm8.4 7.62l3.35 -8.59 0.96 0.38 -0.32 0.81c0.35,-0.23 0.7,-0.36 1.04,-0.41 0.35,-0.05 0.72,0.01 1.13,0.17 0.53,0.2 0.94,0.52 1.24,0.95 0.3,0.43 0.45,0.93 0.47,1.51 0.01,0.57 -0.1,1.16 -0.33,1.75 -0.24,0.63 -0.58,1.16 -1.01,1.58 -0.42,0.41 -0.9,0.67 -1.44,0.78 -0.54,0.1 -1.05,0.06 -1.53,-0.13 -0.35,-0.14 -0.64,-0.33 -0.85,-0.59 -0.23,-0.26 -0.38,-0.53 -0.47,-0.83l-1.18 3.03 -1.06 -0.41zm3.08 -5.07c-0.31,0.79 -0.37,1.45 -0.2,1.95 0.17,0.51 0.49,0.85 0.95,1.03 0.46,0.18 0.94,0.14 1.42,-0.13 0.49,-0.26 0.89,-0.81 1.22,-1.63 0.3,-0.79 0.37,-1.45 0.2,-1.97 -0.17,-0.52 -0.48,-0.86 -0.93,-1.04 -0.45,-0.17 -0.93,-0.12 -1.43,0.17 -0.51,0.28 -0.92,0.82 -1.23,1.62zm8.66 6.57l0.28 -0.95c-0.71,0.59 -1.49,0.75 -2.34,0.51 -0.38,-0.11 -0.71,-0.28 -1,-0.52 -0.28,-0.24 -0.47,-0.49 -0.57,-0.75 -0.09,-0.27 -0.13,-0.57 -0.1,-0.9 0.02,-0.23 0.09,-0.57 0.22,-1.03l1.14 -3.97 1.09 0.31 -1.02 3.55c-0.16,0.56 -0.25,0.95 -0.26,1.16 -0.02,0.31 0.06,0.57 0.24,0.8 0.17,0.22 0.42,0.38 0.75,0.47 0.32,0.1 0.65,0.1 0.98,0.02 0.33,-0.09 0.6,-0.26 0.8,-0.51 0.2,-0.25 0.38,-0.65 0.54,-1.2l0.98 -3.42 1.08 0.31 -1.83 6.4 -0.98 -0.28zm5.31 0.3l-0.07 1c-0.33,0 -0.61,-0.03 -0.85,-0.09 -0.4,-0.09 -0.7,-0.22 -0.89,-0.4 -0.19,-0.18 -0.3,-0.38 -0.35,-0.61 -0.04,-0.22 0.02,-0.67 0.17,-1.33l0.86 -3.74 -0.82 -0.19 0.2 -0.85 0.81 0.19 0.37 -1.61 1.25 -0.41 -0.52 2.27 1.1 0.25 -0.19 0.85 -1.1 -0.25 -0.88 3.81c-0.07,0.31 -0.1,0.52 -0.08,0.62 0.02,0.1 0.07,0.18 0.14,0.25 0.08,0.08 0.2,0.13 0.36,0.17 0.12,0.03 0.28,0.05 0.49,0.07zm5.3 1.11c-0.47,0.28 -0.92,0.46 -1.32,0.54 -0.41,0.08 -0.83,0.08 -1.27,0 -0.72,-0.12 -1.24,-0.39 -1.57,-0.81 -0.33,-0.42 -0.44,-0.9 -0.35,-1.45 0.06,-0.32 0.18,-0.6 0.37,-0.84 0.2,-0.24 0.43,-0.42 0.69,-0.54 0.27,-0.11 0.55,-0.19 0.86,-0.22 0.23,-0.02 0.57,-0.02 1.02,0 0.92,0.06 1.61,0.04 2.06,-0.03 0.03,-0.15 0.05,-0.25 0.05,-0.29 0.08,-0.45 0.03,-0.79 -0.15,-1.01 -0.24,-0.3 -0.64,-0.5 -1.2,-0.6 -0.53,-0.09 -0.93,-0.06 -1.21,0.08 -0.28,0.14 -0.52,0.43 -0.73,0.88l-1.06 -0.34c0.18,-0.45 0.41,-0.8 0.69,-1.05 0.28,-0.24 0.64,-0.41 1.1,-0.49 0.46,-0.08 0.97,-0.07 1.53,0.03 0.56,0.1 1.01,0.24 1.34,0.44 0.33,0.19 0.56,0.4 0.69,0.63 0.13,0.23 0.2,0.5 0.21,0.82 0.01,0.19 -0.04,0.54 -0.12,1.03l-0.26 1.48c-0.18,1.03 -0.27,1.68 -0.27,1.97 0,0.28 0.04,0.56 0.14,0.84l-1.17 -0.21c-0.07,-0.25 -0.09,-0.54 -0.07,-0.86zm0.34 -2.48c-0.43,0.1 -1.06,0.13 -1.89,0.1 -0.47,-0.01 -0.81,0.01 -1.02,0.05 -0.2,0.05 -0.37,0.15 -0.5,0.29 -0.13,0.14 -0.21,0.3 -0.24,0.5 -0.06,0.29 0.01,0.56 0.2,0.79 0.2,0.24 0.51,0.39 0.94,0.47 0.43,0.07 0.83,0.05 1.19,-0.08 0.37,-0.13 0.66,-0.34 0.87,-0.64 0.17,-0.23 0.29,-0.59 0.37,-1.07l0.08 -0.41zm4.81 2.77l0.08 1c-0.32,0.04 -0.6,0.06 -0.85,0.04 -0.41,-0.03 -0.72,-0.12 -0.94,-0.27 -0.21,-0.14 -0.36,-0.33 -0.43,-0.54 -0.08,-0.22 -0.09,-0.67 -0.04,-1.35l0.29 -3.82 -0.83 -0.07 0.07 -0.87 0.83 0.07 0.12 -1.65 1.18 -0.59 -0.17 2.32 1.12 0.09 -0.06 0.87 -1.13 -0.09 -0.3 3.89c-0.02,0.33 -0.02,0.53 0.02,0.63 0.03,0.09 0.09,0.17 0.17,0.23 0.09,0.06 0.21,0.1 0.38,0.11 0.12,0.01 0.29,0.01 0.49,0zm1.21 -6.84l0.02 -1.28 1.13 0.02 -0.02 1.29 -1.13 -0.03zm-0.17 7.91l0.14 -6.66 1.13 0.02 -0.14 6.66 -1.13 -0.02zm2.36 -3.23c-0.03,-1.23 0.3,-2.15 0.97,-2.76 0.56,-0.5 1.26,-0.76 2.08,-0.78 0.91,-0.02 1.67,0.26 2.26,0.85 0.59,0.58 0.9,1.41 0.93,2.46 0.01,0.86 -0.1,1.53 -0.35,2.03 -0.24,0.49 -0.61,0.88 -1.1,1.16 -0.48,0.28 -1.02,0.43 -1.6,0.44 -0.93,0.02 -1.69,-0.26 -2.28,-0.84 -0.58,-0.59 -0.89,-1.44 -0.91,-2.56zm1.15 -0.03c0.02,0.86 0.22,1.49 0.6,1.9 0.39,0.42 0.86,0.62 1.43,0.61 0.56,-0.01 1.02,-0.24 1.38,-0.67 0.37,-0.43 0.54,-1.08 0.52,-1.95 -0.02,-0.83 -0.22,-1.45 -0.6,-1.86 -0.38,-0.41 -0.85,-0.62 -1.41,-0.6 -0.57,0.01 -1.03,0.23 -1.4,0.66 -0.36,0.43 -0.53,1.06 -0.52,1.91zm6.48 3.11l-0.87 -6.61 1.01 -0.13 0.12 0.94c0.39,-0.78 1.04,-1.23 1.96,-1.35 0.4,-0.06 0.77,-0.03 1.12,0.07 0.36,0.1 0.63,0.25 0.83,0.46 0.19,0.21 0.35,0.47 0.45,0.78 0.07,0.2 0.14,0.56 0.21,1.08l0.53 4.06 -1.12 0.14 -0.53 -4.01c-0.06,-0.46 -0.14,-0.79 -0.26,-1.01 -0.12,-0.21 -0.3,-0.37 -0.53,-0.48 -0.24,-0.1 -0.51,-0.13 -0.81,-0.09 -0.48,0.06 -0.86,0.26 -1.17,0.61 -0.31,0.35 -0.4,0.95 -0.29,1.79l0.47 3.6 -1.12 0.15zm11.13 -2.75c-0.32,0.45 -0.66,0.78 -1.01,1.01 -0.34,0.23 -0.73,0.4 -1.16,0.5 -0.72,0.16 -1.3,0.12 -1.77,-0.14 -0.46,-0.26 -0.76,-0.66 -0.88,-1.2 -0.07,-0.32 -0.07,-0.62 0.02,-0.92 0.08,-0.3 0.22,-0.55 0.42,-0.76 0.2,-0.21 0.43,-0.4 0.71,-0.55 0.2,-0.1 0.52,-0.23 0.94,-0.39 0.86,-0.31 1.49,-0.58 1.88,-0.83 -0.03,-0.15 -0.05,-0.24 -0.06,-0.28 -0.11,-0.45 -0.28,-0.74 -0.53,-0.88 -0.34,-0.18 -0.79,-0.21 -1.34,-0.08 -0.52,0.12 -0.89,0.3 -1.09,0.54 -0.21,0.24 -0.31,0.6 -0.33,1.09l-1.11 0.1c0,-0.48 0.07,-0.89 0.23,-1.23 0.16,-0.33 0.43,-0.63 0.82,-0.88 0.39,-0.25 0.87,-0.44 1.43,-0.57 0.55,-0.13 1.02,-0.17 1.4,-0.12 0.37,0.06 0.67,0.16 0.88,0.32 0.21,0.16 0.38,0.38 0.51,0.67 0.08,0.18 0.18,0.51 0.29,1l0.34 1.46c0.23,1.02 0.41,1.66 0.51,1.92 0.11,0.26 0.26,0.5 0.45,0.72l-1.15 0.27c-0.16,-0.21 -0.29,-0.46 -0.4,-0.77zm-0.65 -2.42c-0.36,0.26 -0.93,0.54 -1.7,0.83 -0.44,0.17 -0.75,0.32 -0.92,0.44 -0.17,0.13 -0.28,0.28 -0.35,0.46 -0.06,0.18 -0.08,0.36 -0.03,0.56 0.06,0.29 0.23,0.5 0.5,0.65 0.27,0.14 0.62,0.16 1.04,0.06 0.43,-0.09 0.78,-0.27 1.07,-0.54 0.29,-0.26 0.47,-0.56 0.55,-0.92 0.07,-0.27 0.04,-0.65 -0.07,-1.13l-0.09 -0.41zm3.51 2.51l-2.54 -8.84 1.09 -0.31 2.53 8.84 -1.08 0.31zm8.01 -3.89l0.51 0.87c-0.27,0.18 -0.52,0.32 -0.75,0.41 -0.38,0.15 -0.7,0.21 -0.96,0.17 -0.25,-0.04 -0.46,-0.14 -0.63,-0.3 -0.16,-0.16 -0.37,-0.56 -0.62,-1.19l-1.41 -3.57 -0.78 0.31 -0.32 -0.81 0.78 -0.31 -0.61 -1.53 0.8 -1.05 0.86 2.16 1.05 -0.41 0.32 0.81 -1.05 0.41 1.44 3.63c0.12,0.3 0.21,0.49 0.28,0.56 0.07,0.07 0.16,0.11 0.26,0.13 0.11,0.02 0.24,0 0.39,-0.06 0.12,-0.05 0.26,-0.12 0.44,-0.23zm-0.47 -2.17c-0.57,-1.09 -0.69,-2.06 -0.35,-2.9 0.28,-0.7 0.78,-1.24 1.51,-1.62 0.81,-0.43 1.62,-0.51 2.41,-0.24 0.79,0.26 1.43,0.86 1.92,1.79 0.39,0.76 0.59,1.42 0.59,1.97 0,0.55 -0.16,1.06 -0.47,1.53 -0.31,0.47 -0.72,0.84 -1.24,1.11 -0.82,0.43 -1.63,0.51 -2.42,0.25 -0.78,-0.27 -1.43,-0.9 -1.95,-1.89zm1.02 -0.53c0.4,0.75 0.86,1.23 1.38,1.43 0.53,0.21 1.04,0.18 1.55,-0.08 0.49,-0.26 0.81,-0.67 0.94,-1.22 0.14,-0.55 0,-1.21 -0.4,-1.98 -0.38,-0.73 -0.83,-1.19 -1.36,-1.4 -0.53,-0.2 -1.04,-0.17 -1.53,0.09 -0.51,0.26 -0.82,0.66 -0.96,1.21 -0.14,0.54 -0.01,1.19 0.38,1.95zm5.11 -2.52c-0.67,-1.03 -0.88,-1.99 -0.62,-2.86 0.21,-0.72 0.67,-1.31 1.36,-1.75 0.77,-0.5 1.56,-0.65 2.37,-0.46 0.81,0.19 1.51,0.72 2.08,1.61 0.46,0.72 0.72,1.36 0.77,1.91 0.05,0.55 -0.06,1.07 -0.33,1.57 -0.26,0.49 -0.64,0.89 -1.13,1.21 -0.78,0.5 -1.58,0.66 -2.38,0.47 -0.81,-0.19 -1.52,-0.76 -2.12,-1.7zm0.97 -0.62c0.46,0.71 0.96,1.15 1.5,1.3 0.55,0.15 1.05,0.08 1.53,-0.23 0.47,-0.3 0.75,-0.73 0.83,-1.29 0.09,-0.56 -0.11,-1.21 -0.58,-1.94 -0.44,-0.69 -0.94,-1.11 -1.48,-1.27 -0.55,-0.15 -1.05,-0.07 -1.52,0.23 -0.48,0.3 -0.76,0.73 -0.85,1.29 -0.08,0.56 0.11,1.19 0.57,1.91zm7.13 -0.71l-5.33 -7.49 0.92 -0.66 5.33 7.49 -0.92 0.66zm0.76 -2.99l0.77 -0.83c0.32,0.32 0.67,0.48 1.04,0.49 0.37,0.02 0.77,-0.14 1.17,-0.45 0.41,-0.32 0.65,-0.64 0.72,-0.96 0.07,-0.32 0.02,-0.6 -0.16,-0.82 -0.15,-0.2 -0.37,-0.29 -0.63,-0.27 -0.19,0.02 -0.57,0.16 -1.15,0.41 -0.78,0.34 -1.34,0.55 -1.69,0.63 -0.35,0.07 -0.66,0.06 -0.96,-0.05 -0.29,-0.11 -0.54,-0.3 -0.74,-0.55 -0.19,-0.24 -0.3,-0.5 -0.35,-0.78 -0.05,-0.28 -0.03,-0.56 0.05,-0.84 0.06,-0.21 0.18,-0.44 0.37,-0.7 0.18,-0.25 0.41,-0.49 0.68,-0.7 0.42,-0.32 0.82,-0.54 1.23,-0.66 0.4,-0.13 0.76,-0.15 1.06,-0.06 0.31,0.09 0.62,0.28 0.95,0.58l-0.78 0.8c-0.25,-0.24 -0.54,-0.37 -0.84,-0.37 -0.31,-0.01 -0.64,0.12 -0.98,0.39 -0.41,0.32 -0.65,0.61 -0.72,0.88 -0.07,0.27 -0.03,0.5 0.11,0.68 0.09,0.12 0.2,0.19 0.35,0.23 0.14,0.04 0.32,0.03 0.52,-0.03 0.12,-0.04 0.44,-0.16 0.97,-0.38 0.75,-0.32 1.3,-0.53 1.63,-0.62 0.34,-0.08 0.66,-0.08 0.95,0.01 0.31,0.1 0.57,0.29 0.81,0.6 0.23,0.29 0.36,0.64 0.39,1.04 0.03,0.39 -0.06,0.79 -0.28,1.19 -0.21,0.4 -0.53,0.75 -0.94,1.08 -0.68,0.53 -1.31,0.79 -1.89,0.79 -0.58,-0.01 -1.13,-0.25 -1.66,-0.73z"/>
  <g>
   <path class="fil0" d="M104.58 21.38c33.3,0 60.29,26.99 60.29,60.29 0,33.3 -26.99,60.3 -60.29,60.3 -33.3,0 -60.3,-27 -60.3,-60.3 0,-33.3 27,-60.29 60.3,-60.29z"/>
   <path id="_1_2" class="fil1" d="M165.85 81.67l-1.95 0 0 0 -0.08 -3 -0.22 -2.96 -0.37 -2.92 -0.52 -2.88 -0.65 -2.83 -0.79 -2.77 -0.92 -2.72 -1.05 -2.67 -1.18 -2.6 -1.3 -2.53 -1.41 -2.47 -1.54 -2.39 -1.64 -2.32 -1.76 -2.23 -1.86 -2.15 -1.96 -2.05 -2.06 -1.97 -2.15 -1.86 -2.24 -1.76 -2.33 -1.66 -2.41 -1.54 -2.49 -1.44 -2.57 -1.31 -2.63 -1.19 -2.71 -1.07 -2.76 -0.93 -2.83 -0.81 -2.88 -0.66 -2.94 -0.53 -2.98 -0.37 -3.03 -0.23 -3.07 -0.08 0.01 -2.79 3.13 0.08 3.1 0.24 3.05 0.39 3.01 0.53 2.95 0.68 2.89 0.83 2.84 0.96 2.77 1.09 2.71 1.22 2.63 1.35 2.56 1.47 2.49 1.6 2.4 1.7 2.31 1.82 2.22 1.93 2.13 2.03 2.03 2.13 1.93 2.23 1.83 2.32 1.72 2.41 1.6 2.5 1.48 2.59 1.37 2.66 1.24 2.74 1.11 2.81 0.97 2.89 0.84 2.94 0.69 3.01 0.55 3.06 0.39 3.12 0.25 3.16 0.08 3.2 0 0zm-61.28 61.69l0.01 -2.78 0 0 3.07 -0.08 3.02 -0.23 2.99 -0.38 2.93 -0.53 2.88 -0.66 2.83 -0.8 2.77 -0.94 2.7 -1.07 2.64 -1.19 2.56 -1.31 2.49 -1.43 2.41 -1.55 2.33 -1.65 2.24 -1.77 2.16 -1.86 2.05 -1.96 1.96 -2.06 1.86 -2.15 1.76 -2.23 1.64 -2.31 1.54 -2.39 1.42 -2.47 1.29 -2.54 1.18 -2.6 1.05 -2.66 0.92 -2.72 0.79 -2.78 0.65 -2.83 0.52 -2.87 0.37 -2.92 0.22 -2.96 0.08 -3.01 1.95 0 -0.08 3.2 -0.25 3.16 -0.39 3.12 -0.55 3.06 -0.69 3.01 -0.84 2.95 -0.97 2.88 -1.11 2.81 -1.24 2.74 -1.37 2.66 -1.48 2.59 -1.61 2.5 -1.71 2.41 -1.83 2.33 -1.93 2.23 -2.03 2.13 -2.13 2.03 -2.22 1.92 -2.32 1.82 -2.4 1.71 -2.48 1.59 -2.56 1.47 -2.63 1.35 -2.71 1.22 -2.77 1.1 -2.84 0.96 -2.89 0.82 -2.96 0.68 -3 0.54 -3.05 0.38 -3.1 0.24 -3.14 0.08 0 0zm-61.26 -61.69l1.94 0 0 0 0.08 3 0.23 2.97 0.37 2.92 0.51 2.87 0.65 2.83 0.79 2.78 0.92 2.72 1.05 2.66 1.18 2.6 1.3 2.54 1.42 2.46 1.53 2.4 1.65 2.31 1.75 2.23 1.86 2.15 1.96 2.06 2.06 1.96 2.15 1.86 2.24 1.77 2.33 1.65 2.41 1.55 2.49 1.43 2.57 1.31 2.63 1.19 2.71 1.07 2.76 0.94 2.83 0.8 2.88 0.66 2.94 0.53 2.98 0.38 3.03 0.23 3.07 0.08 -0.01 2.78 -3.13 -0.08 -3.1 -0.24 -3.05 -0.38 -3 -0.54 -2.96 -0.68 -2.89 -0.82 -2.84 -0.96 -2.77 -1.1 -2.71 -1.22 -2.63 -1.35 -2.56 -1.47 -2.48 -1.59 -2.4 -1.71 -2.32 -1.82 -2.22 -1.92 -2.13 -2.03 -2.03 -2.13 -1.93 -2.23 -1.83 -2.33 -1.71 -2.41 -1.61 -2.5 -1.48 -2.58 -1.37 -2.67 -1.24 -2.74 -1.1 -2.81 -0.98 -2.88 -0.84 -2.95 -0.69 -3 -0.55 -3.07 -0.39 -3.11 -0.24 -3.16 -0.08 -3.21 0 0zm61.27 -61.69l-0.01 2.79 0 0 -3.06 0.08 -3.03 0.23 -2.98 0.37 -2.94 0.53 -2.88 0.66 -2.83 0.81 -2.76 0.93 -2.71 1.07 -2.63 1.19 -2.57 1.31 -2.49 1.44 -2.41 1.54 -2.33 1.66 -2.24 1.76 -2.15 1.86 -2.06 1.97 -1.96 2.05 -1.86 2.15 -1.76 2.23 -1.64 2.32 -1.53 2.39 -1.42 2.46 -1.3 2.54 -1.18 2.6 -1.05 2.66 -0.92 2.73 -0.79 2.77 -0.65 2.83 -0.51 2.87 -0.37 2.92 -0.23 2.97 -0.08 3 -1.94 0 0.08 -3.2 0.24 -3.16 0.39 -3.12 0.55 -3.06 0.69 -3.01 0.84 -2.94 0.98 -2.88 1.11 -2.82 1.23 -2.74 1.37 -2.66 1.48 -2.58 1.61 -2.51 1.71 -2.41 1.83 -2.32 1.93 -2.23 2.03 -2.13 2.13 -2.03 2.23 -1.93 2.31 -1.82 2.4 -1.7 2.48 -1.6 2.56 -1.47 2.64 -1.35 2.7 -1.22 2.77 -1.09 2.84 -0.96 2.9 -0.83 2.95 -0.68 3 -0.53 3.05 -0.39 3.1 -0.24 3.14 -0.08 0 0z"/>
  </g>
  <g id="_2123975096016">
   <g>
    <path class="fil0" d="M23.53 56.62l174.5 0c6.53,0 10.55,5.35 8.94,11.88l-6.53 26.35c-1.62,6.53 -8.28,11.87 -14.81,11.87l-174.51 0c-6.53,0 -10.55,-5.34 -8.94,-11.87l6.53 -26.35c1.62,-6.53 8.28,-11.88 14.82,-11.88z"/>
    <path id="_1_3" class="fil1" d="M198.04 58.47l-174.51 0 -0.01 -3.69 174.51 0 0 0 0.01 3.69zm10.7 10.48l-3.55 -0.9 0 0 0.12 -0.52 0.09 -0.51 0.06 -0.5 0.03 -0.49 0.01 -0.47 -0.02 -0.47 -0.04 -0.45 -0.07 -0.43 -0.08 -0.43 -0.11 -0.41 -0.13 -0.39 -0.15 -0.38 -0.17 -0.37 -0.19 -0.35 -0.21 -0.34 -0.23 -0.32 -0.24 -0.3 -0.27 -0.29 -0.28 -0.28 -0.3 -0.26 -0.32 -0.24 -0.33 -0.23 -0.35 -0.2 -0.37 -0.19 -0.39 -0.17 -0.41 -0.15 -0.42 -0.13 -0.44 -0.11 -0.46 -0.09 -0.48 -0.06 -0.49 -0.04 -0.51 -0.01 -0.01 -3.69 0.7 0.02 0.68 0.05 0.67 0.09 0.66 0.12 0.64 0.16 0.62 0.19 0.6 0.23 0.59 0.25 0.56 0.29 0.54 0.32 0.52 0.35 0.49 0.38 0.47 0.4 0.44 0.43 0.42 0.46 0.38 0.48 0.36 0.5 0.32 0.53 0.3 0.55 0.26 0.56 0.23 0.59 0.2 0.59 0.16 0.62 0.13 0.63 0.1 0.64 0.06 0.65 0.02 0.66 -0.01 0.67 -0.04 0.68 -0.09 0.69 -0.11 0.69 -0.16 0.7 0 0zm-10.07 25.45l6.52 -26.35 3.55 0.9 -6.52 26.35 -3.55 -0.9zm-13.04 14.16l-0.01 -3.68 0 0 0.52 -0.02 0.53 -0.03 0.52 -0.07 0.53 -0.09 0.53 -0.12 0.52 -0.14 0.53 -0.16 0.52 -0.19 0.51 -0.21 0.51 -0.23 0.51 -0.26 0.49 -0.27 0.49 -0.3 0.48 -0.31 0.47 -0.34 0.46 -0.35 0.44 -0.37 0.43 -0.39 0.42 -0.4 0.4 -0.41 0.38 -0.43 0.37 -0.45 0.34 -0.45 0.33 -0.47 0.31 -0.48 0.28 -0.48 0.27 -0.5 0.24 -0.5 0.21 -0.51 0.2 -0.51 0.17 -0.52 0.14 -0.52 3.55 0.9 -0.19 0.69 -0.22 0.68 -0.26 0.67 -0.28 0.66 -0.31 0.65 -0.33 0.63 -0.37 0.61 -0.38 0.6 -0.41 0.59 -0.44 0.57 -0.45 0.55 -0.48 0.53 -0.49 0.52 -0.51 0.49 -0.54 0.48 -0.54 0.46 -0.57 0.43 -0.58 0.41 -0.59 0.4 -0.61 0.36 -0.62 0.35 -0.63 0.32 -0.64 0.29 -0.66 0.27 -0.66 0.23 -0.67 0.22 -0.68 0.18 -0.68 0.15 -0.7 0.12 -0.69 0.08 -0.71 0.06 -0.7 0.01 0 0zm-174.52 -3.68l174.51 0 0.01 3.68 -174.51 0 0 0 -0.01 -3.68zm-10.7 -10.48l3.55 0.9 0 0 -0.12 0.52 -0.08 0.51 -0.06 0.5 -0.04 0.48 0 0.48 0.01 0.46 0.04 0.45 0.07 0.44 0.09 0.42 0.11 0.41 0.13 0.39 0.15 0.38 0.17 0.37 0.19 0.35 0.2 0.34 0.23 0.32 0.25 0.31 0.26 0.29 0.28 0.27 0.3 0.26 0.32 0.25 0.33 0.22 0.36 0.21 0.37 0.19 0.38 0.17 0.41 0.15 0.42 0.13 0.44 0.11 0.46 0.08 0.48 0.07 0.49 0.04 0.51 0.01 0.01 3.68 -0.7 -0.01 -0.68 -0.06 -0.67 -0.09 -0.66 -0.12 -0.64 -0.16 -0.62 -0.19 -0.6 -0.22 -0.59 -0.26 -0.56 -0.29 -0.54 -0.32 -0.52 -0.34 -0.49 -0.38 -0.47 -0.41 -0.44 -0.43 -0.41 -0.46 -0.39 -0.48 -0.36 -0.5 -0.32 -0.53 -0.3 -0.54 -0.26 -0.57 -0.23 -0.58 -0.2 -0.6 -0.16 -0.62 -0.13 -0.62 -0.09 -0.64 -0.07 -0.66 -0.02 -0.66 0.01 -0.67 0.05 -0.68 0.08 -0.69 0.12 -0.69 0.15 -0.69 0 0zm10.07 -25.45l-6.52 26.35 -3.55 -0.9 6.53 -26.35 0 0 3.54 0.9zm13.04 -14.17l0.01 3.69 0 0 -0.52 0.01 -0.53 0.04 -0.52 0.06 -0.53 0.09 -0.52 0.12 -0.53 0.14 -0.52 0.16 -0.52 0.19 -0.52 0.21 -0.51 0.24 -0.5 0.25 -0.5 0.28 -0.49 0.29 -0.48 0.32 -0.47 0.33 -0.46 0.35 -0.44 0.37 -0.43 0.39 -0.42 0.4 -0.4 0.42 -0.38 0.43 -0.36 0.44 -0.35 0.46 -0.33 0.46 -0.3 0.48 -0.29 0.49 -0.26 0.49 -0.24 0.5 -0.22 0.51 -0.2 0.51 -0.16 0.52 -0.15 0.53 -3.54 -0.9 0.19 -0.7 0.22 -0.68 0.25 -0.67 0.28 -0.66 0.31 -0.64 0.34 -0.63 0.36 -0.62 0.38 -0.6 0.42 -0.58 0.43 -0.57 0.45 -0.55 0.48 -0.54 0.49 -0.51 0.52 -0.5 0.53 -0.48 0.55 -0.45 0.56 -0.44 0.58 -0.41 0.59 -0.39 0.61 -0.37 0.62 -0.34 0.63 -0.32 0.64 -0.29 0.66 -0.27 0.66 -0.24 0.67 -0.21 0.68 -0.18 0.69 -0.15 0.69 -0.12 0.7 -0.09 0.7 -0.05 0.7 -0.02 0 0z"/>
   </g>
   <path class="fil2 str0" d="M47.38 78.11c-0.54,-0.39 -1.24,-0.59 -2.09,-0.59 -0.6,0 -1.14,0.12 -1.61,0.35 -0.47,0.23 -0.88,0.54 -1.23,0.94 -0.36,0.39 -0.65,0.85 -0.9,1.38 -0.25,0.52 -0.44,1.06 -0.59,1.62 -0.15,0.56 -0.26,1.13 -0.32,1.7 -0.07,0.58 -0.1,1.12 -0.1,1.64l0 8.99 -2.28 0 0 -18.38 2.28 0 0 3.94 0.07 0c0.22,-0.67 0.49,-1.28 0.82,-1.81 0.33,-0.53 0.71,-0.98 1.14,-1.34 0.42,-0.37 0.9,-0.65 1.41,-0.84 0.5,-0.19 1.04,-0.29 1.6,-0.29 0.37,0 0.7,0.03 1,0.08 0.29,0.04 0.56,0.11 0.8,0.21l0 2.4zm15.07 15.19c-1.36,0.83 -3.01,1.25 -4.95,1.28 -1.32,0.01 -2.51,-0.22 -3.56,-0.68 -1.06,-0.47 -1.95,-1.12 -2.7,-1.95 -0.74,-0.83 -1.31,-1.81 -1.7,-2.95 -0.4,-1.13 -0.6,-2.36 -0.6,-3.69 0,-1.38 0.21,-2.67 0.64,-3.88 0.41,-1.22 1.02,-2.27 1.83,-3.18 0.8,-0.9 1.78,-1.62 2.94,-2.15 1.16,-0.52 2.49,-0.79 3.99,-0.79 1.52,0 2.91,0.3 4.17,0.89l0 2.44c-1.34,-0.89 -2.79,-1.34 -4.36,-1.34 -1.09,0 -2.06,0.21 -2.91,0.62 -0.86,0.41 -1.57,0.98 -2.15,1.69 -0.59,0.71 -1.03,1.54 -1.33,2.5 -0.31,0.95 -0.46,1.96 -0.46,3.03 0,0.98 0.13,1.92 0.38,2.81 0.26,0.9 0.66,1.7 1.19,2.39 0.53,0.68 1.21,1.24 2.02,1.64 0.82,0.41 1.78,0.61 2.89,0.61 1.73,0 3.28,-0.51 4.67,-1.55l0 2.26zm12.95 -24.21c-0.51,-0.34 -1.18,-0.5 -1.99,-0.5 -2.15,0 -3.23,1.41 -3.23,4.22l0 2.95 4.56 0 0 2.02 -4.56 0 0 16.36 -2.32 0 0 -16.36 -3.19 0 0 -2.02 3.19 0 0 -3.1c0,-0.92 0.12,-1.76 0.35,-2.5 0.24,-0.76 0.59,-1.4 1.04,-1.93 0.45,-0.54 1.03,-0.95 1.71,-1.24 0.7,-0.28 1.49,-0.42 2.39,-0.42 0.86,0 1.55,0.11 2.05,0.34l0 2.18zm15.16 25.05l0 -3.23 -0.07 0c-0.61,1.16 -1.48,2.07 -2.61,2.71 -1.13,0.64 -2.42,0.96 -3.85,0.96 -1.16,0 -2.2,-0.22 -3.14,-0.64 -0.94,-0.43 -1.75,-1.04 -2.41,-1.84 -0.67,-0.81 -1.19,-1.77 -1.56,-2.91 -0.36,-1.14 -0.55,-2.43 -0.55,-3.86 0,-1.49 0.21,-2.85 0.6,-4.08 0.41,-1.22 0.98,-2.28 1.71,-3.16 0.74,-0.88 1.63,-1.56 2.66,-2.05 1.04,-0.48 2.19,-0.73 3.46,-0.73 2.65,0 4.54,1.06 5.69,3.18l0.07 0 0 -11.56 2.32 0 0 27.21 -2.32 0zm0 -11.11c0,-0.8 -0.14,-1.55 -0.41,-2.24 -0.28,-0.7 -0.66,-1.3 -1.15,-1.82 -0.49,-0.51 -1.08,-0.92 -1.78,-1.22 -0.68,-0.3 -1.44,-0.45 -2.27,-0.45 -0.91,0 -1.75,0.18 -2.52,0.54 -0.76,0.36 -1.42,0.87 -1.97,1.55 -0.54,0.68 -0.97,1.51 -1.27,2.47 -0.31,0.97 -0.46,2.07 -0.46,3.31 0,1.16 0.14,2.2 0.41,3.13 0.28,0.92 0.67,1.7 1.18,2.33 0.51,0.64 1.11,1.12 1.83,1.46 0.7,0.34 1.49,0.5 2.35,0.5 0.94,0 1.78,-0.16 2.53,-0.5 0.75,-0.34 1.38,-0.8 1.9,-1.38 0.53,-0.59 0.93,-1.28 1.21,-2.07 0.28,-0.79 0.42,-1.64 0.42,-2.54l0 -3.07zm16.11 10.88c-0.79,0.4 -1.65,0.59 -2.58,0.59 -2.96,0 -4.44,-1.71 -4.44,-5.12l0 -11.6 -3.23 0 0 -2.02 3.23 0 0 -4.62 2.32 -0.75 0 5.37 4.7 0 0 2.02 -4.7 0 0 11.23c0,1.24 0.2,2.14 0.6,2.69 0.41,0.54 1.09,0.82 2.06,0.82 0.71,0 1.39,-0.22 2.04,-0.64l0 2.03zm11.01 0.67c-1.36,0 -2.58,-0.23 -3.66,-0.68 -1.09,-0.46 -2.01,-1.11 -2.78,-1.94 -0.76,-0.83 -1.35,-1.82 -1.75,-2.99 -0.41,-1.16 -0.61,-2.45 -0.61,-3.86 0,-1.54 0.21,-2.91 0.64,-4.12 0.44,-1.21 1.05,-2.23 1.84,-3.08 0.8,-0.84 1.76,-1.49 2.88,-1.93 1.13,-0.44 2.38,-0.67 3.77,-0.67 1.33,0 2.52,0.23 3.58,0.66 1.07,0.43 1.97,1.07 2.71,1.89 0.74,0.83 1.31,1.84 1.7,3.02 0.4,1.19 0.6,2.54 0.6,4.05 0,1.44 -0.21,2.74 -0.62,3.92 -0.41,1.19 -1,2.2 -1.77,3.05 -0.76,0.85 -1.69,1.51 -2.8,1.98 -1.09,0.46 -2.34,0.7 -3.73,0.7zm0.19 -17.28c-1.02,0 -1.92,0.17 -2.74,0.52 -0.81,0.35 -1.51,0.85 -2.09,1.52 -0.58,0.66 -1.03,1.48 -1.34,2.44 -0.32,0.97 -0.47,2.06 -0.47,3.28 0,1.15 0.15,2.19 0.47,3.11 0.31,0.92 0.75,1.71 1.32,2.38 0.57,0.65 1.26,1.16 2.08,1.51 0.81,0.35 1.72,0.53 2.73,0.53 1.03,0 1.94,-0.17 2.73,-0.51 0.79,-0.34 1.46,-0.84 2.01,-1.49 0.55,-0.66 0.97,-1.45 1.25,-2.4 0.28,-0.95 0.42,-2.02 0.42,-3.24 0,-2.47 -0.55,-4.37 -1.65,-5.68 -1.1,-1.32 -2.68,-1.97 -4.72,-1.97zm20.88 17.28c-1.36,0 -2.58,-0.23 -3.66,-0.68 -1.09,-0.46 -2.01,-1.11 -2.78,-1.94 -0.76,-0.83 -1.35,-1.82 -1.75,-2.99 -0.41,-1.16 -0.61,-2.45 -0.61,-3.86 0,-1.54 0.21,-2.91 0.64,-4.12 0.44,-1.21 1.05,-2.23 1.84,-3.08 0.8,-0.84 1.76,-1.49 2.88,-1.93 1.13,-0.44 2.38,-0.67 3.77,-0.67 1.33,0 2.52,0.23 3.58,0.66 1.07,0.43 1.97,1.07 2.71,1.89 0.74,0.83 1.31,1.84 1.7,3.02 0.4,1.19 0.6,2.54 0.6,4.05 0,1.44 -0.21,2.74 -0.62,3.92 -0.41,1.19 -1,2.2 -1.77,3.05 -0.76,0.85 -1.69,1.51 -2.8,1.98 -1.09,0.46 -2.34,0.7 -3.73,0.7zm0.19 -17.28c-1.02,0 -1.92,0.17 -2.74,0.52 -0.81,0.35 -1.51,0.85 -2.09,1.52 -0.58,0.66 -1.03,1.48 -1.34,2.44 -0.32,0.97 -0.47,2.06 -0.47,3.28 0,1.15 0.15,2.19 0.47,3.11 0.31,0.92 0.75,1.71 1.32,2.38 0.57,0.65 1.26,1.16 2.08,1.51 0.81,0.35 1.72,0.53 2.73,0.53 1.03,0 1.94,-0.17 2.73,-0.51 0.79,-0.34 1.46,-0.84 2.01,-1.49 0.55,-0.66 0.97,-1.45 1.25,-2.4 0.28,-0.95 0.42,-2.02 0.42,-3.24 0,-2.47 -0.55,-4.37 -1.65,-5.68 -1.1,-1.32 -2.68,-1.97 -4.72,-1.97zm13.4 16.84l0 -27.21 2.32 0 0 27.21 -2.32 0zm7.19 -3.31c0.35,0.28 0.73,0.52 1.13,0.74 0.41,0.21 0.83,0.4 1.26,0.56 0.43,0.15 0.86,0.27 1.3,0.35 0.43,0.08 0.84,0.11 1.24,0.11 2.72,0 4.08,-1.02 4.08,-3.06 0,-0.47 -0.1,-0.87 -0.29,-1.21 -0.19,-0.35 -0.46,-0.66 -0.82,-0.94 -0.36,-0.28 -0.79,-0.54 -1.29,-0.78 -0.5,-0.24 -1.07,-0.49 -1.7,-0.75 -0.86,-0.35 -1.58,-0.71 -2.2,-1.06 -0.6,-0.36 -1.11,-0.76 -1.5,-1.18 -0.4,-0.43 -0.69,-0.89 -0.88,-1.4 -0.19,-0.51 -0.29,-1.09 -0.29,-1.74 0,-0.81 0.18,-1.54 0.53,-2.17 0.35,-0.64 0.83,-1.18 1.42,-1.62 0.6,-0.44 1.29,-0.78 2.06,-1.02 0.79,-0.23 1.61,-0.35 2.47,-0.35 1.58,0 2.96,0.3 4.15,0.9l0 2.42c-1.38,-0.89 -2.86,-1.33 -4.45,-1.33 -0.57,0 -1.09,0.07 -1.56,0.21 -0.47,0.15 -0.88,0.35 -1.21,0.62 -0.33,0.26 -0.6,0.58 -0.78,0.95 -0.18,0.36 -0.28,0.77 -0.28,1.21 0,0.46 0.08,0.86 0.22,1.19 0.15,0.35 0.37,0.66 0.67,0.94 0.31,0.26 0.7,0.53 1.18,0.79 0.49,0.25 1.08,0.52 1.78,0.8 0.88,0.36 1.64,0.72 2.29,1.07 0.65,0.36 1.18,0.74 1.6,1.15 0.41,0.41 0.73,0.87 0.93,1.39 0.2,0.51 0.3,1.09 0.3,1.76 0,0.83 -0.17,1.57 -0.5,2.21 -0.35,0.65 -0.82,1.2 -1.42,1.64 -0.6,0.44 -1.31,0.78 -2.12,1 -0.81,0.23 -1.69,0.35 -2.65,0.35 -1.85,0 -3.4,-0.39 -4.67,-1.17l0 -2.58z"/>
  </g>
 </g>
</svg>
