<?xml version="1.0" encoding="UTF-8"?>
<!DOCTYPE svg PUBLIC "-//W3C//DTD SVG 1.1//EN" "http://www.w3.org/Graphics/SVG/1.1/DTD/svg11.dtd">
<!-- Creator: CorelDRAW -->
<svg xmlns="http://www.w3.org/2000/svg" xml:space="preserve" width="950px" height="244px" version="1.1" style="shape-rendering:geometricPrecision; text-rendering:geometricPrecision; image-rendering:optimizeQuality; fill-rule:evenodd; clip-rule:evenodd"
viewBox="0 0 518.92 133.44"
 xmlns:xlink="http://www.w3.org/1999/xlink"
 xmlns:xodm="http://www.corel.com/coreldraw/odm/2003">
 <defs>
  <style type="text/css">
   <![CDATA[
    .str0 {stroke:black;stroke-width:1.09;stroke-miterlimit:22.9256}
    .fil0 {fill:white}
    .fil2 {fill:black;fill-rule:nonzero}
    .fil1 {fill:black;fill-rule:nonzero}
   ]]>
  </style>
 </defs>
 <g id="Capa_x0020_1">
  <metadata id="CorelCorpID_0Corel-Layer"/>
  <g>
   <path class="fil0" d="M58.37 4.57l432.96 0c16.2,0 26.18,13.26 22.17,29.46l-16.19 65.37c-4.02,16.21 -20.56,29.46 -36.76,29.46l-432.96 0c-16.21,0 -26.18,-13.25 -22.17,-29.46l16.19 -65.37c4.01,-16.2 20.55,-29.46 36.76,-29.46z"/>
   <path id="_1" class="fil1" d="M491.34 9.14l-432.96 0 -0.02 -9.14 432.96 0 0 0 0.02 9.14zm26.56 26.01l-8.8 -2.23 0 0 0.28 -1.3 0.22 -1.26 0.15 -1.24 0.08 -1.21 0.02 -1.18 -0.05 -1.15 -0.1 -1.11 -0.16 -1.08 -0.22 -1.05 -0.27 -1.02 -0.32 -0.98 -0.37 -0.94 -0.43 -0.91 -0.47 -0.87 -0.51 -0.84 -0.57 -0.8 -0.61 -0.76 -0.65 -0.72 -0.7 -0.68 -0.74 -0.64 -0.79 -0.61 -0.83 -0.55 -0.87 -0.52 -0.92 -0.47 -0.96 -0.42 -1.01 -0.37 -1.05 -0.33 -1.09 -0.27 -1.14 -0.21 -1.18 -0.16 -1.23 -0.09 -1.27 -0.04 -0.02 -9.14 1.73 0.05 1.7 0.13 1.67 0.22 1.62 0.3 1.59 0.4 1.54 0.47 1.5 0.55 1.45 0.64 1.39 0.72 1.35 0.79 1.28 0.86 1.22 0.94 1.17 1 1.09 1.07 1.03 1.13 0.95 1.2 0.89 1.25 0.81 1.3 0.73 1.36 0.65 1.4 0.57 1.45 0.49 1.49 0.41 1.52 0.32 1.56 0.23 1.59 0.15 1.62 0.07 1.64 -0.03 1.67 -0.11 1.68 -0.21 1.71 -0.29 1.71 -0.38 1.73 0 0zm-24.99 63.14l16.19 -65.37 8.8 2.23 -16.19 65.37 -8.8 -2.23zm-32.35 35.15l-0.02 -9.15 0 0 1.29 -0.03 1.3 -0.1 1.3 -0.16 1.31 -0.22 1.31 -0.29 1.3 -0.35 1.3 -0.41 1.29 -0.46 1.28 -0.52 1.27 -0.58 1.25 -0.63 1.23 -0.69 1.22 -0.73 1.19 -0.79 1.16 -0.83 1.13 -0.87 1.1 -0.92 1.07 -0.96 1.03 -0.99 0.99 -1.04 0.95 -1.06 0.91 -1.1 0.86 -1.13 0.81 -1.16 0.76 -1.18 0.71 -1.21 0.66 -1.22 0.59 -1.25 0.54 -1.26 0.48 -1.28 0.42 -1.28 0.36 -1.3 8.8 2.23 -0.47 1.72 -0.55 1.69 -0.63 1.67 -0.7 1.63 -0.76 1.6 -0.84 1.56 -0.9 1.53 -0.96 1.49 -1.01 1.45 -1.08 1.41 -1.13 1.37 -1.17 1.33 -1.23 1.28 -1.28 1.23 -1.31 1.18 -1.36 1.13 -1.4 1.08 -1.44 1.03 -1.47 0.97 -1.51 0.91 -1.54 0.85 -1.57 0.79 -1.59 0.73 -1.62 0.66 -1.65 0.6 -1.66 0.52 -1.69 0.45 -1.7 0.37 -1.72 0.3 -1.73 0.21 -1.73 0.13 -1.75 0.05 0 0zm-432.98 -9.15l432.96 0 0.02 9.15 -432.96 0 0 0 -0.02 -9.15zm-26.56 -26l8.8 2.23 0 0 -0.29 1.29 -0.21 1.27 -0.15 1.24 -0.08 1.2 -0.02 1.18 0.04 1.15 0.11 1.12 0.16 1.08 0.21 1.05 0.27 1.01 0.33 0.98 0.37 0.95 0.42 0.91 0.47 0.87 0.52 0.84 0.56 0.79 0.61 0.76 0.66 0.73 0.69 0.68 0.74 0.64 0.79 0.6 0.83 0.56 0.88 0.52 0.92 0.47 0.96 0.42 1 0.37 1.06 0.32 1.09 0.27 1.14 0.22 1.18 0.15 1.23 0.1 1.27 0.03 0.02 9.15 -1.74 -0.05 -1.7 -0.13 -1.66 -0.22 -1.63 -0.31 -1.58 -0.39 -1.55 -0.47 -1.49 -0.56 -1.45 -0.63 -1.4 -0.72 -1.34 -0.79 -1.29 -0.86 -1.22 -0.94 -1.16 -1 -1.1 -1.08 -1.02 -1.13 -0.96 -1.19 -0.88 -1.25 -0.81 -1.31 -0.73 -1.35 -0.65 -1.41 -0.57 -1.44 -0.49 -1.49 -0.41 -1.53 -0.32 -1.55 -0.24 -1.59 -0.15 -1.62 -0.06 -1.65 0.03 -1.66 0.11 -1.69 0.2 -1.7 0.3 -1.72 0.38 -1.72 0 0zm24.99 -63.14l-16.19 65.37 -8.8 -2.23 16.19 -65.37 0 0 8.8 2.23zm32.35 -35.15l0.02 9.14 0 0 -1.3 0.04 -1.3 0.09 -1.3 0.17 -1.3 0.22 -1.31 0.29 -1.31 0.35 -1.29 0.4 -1.29 0.47 -1.29 0.52 -1.26 0.58 -1.25 0.63 -1.24 0.69 -1.21 0.73 -1.19 0.78 -1.16 0.83 -1.14 0.88 -1.1 0.91 -1.07 0.96 -1.03 1 -0.99 1.03 -0.95 1.07 -0.91 1.1 -0.86 1.13 -0.81 1.15 -0.76 1.19 -0.71 1.2 -0.65 1.23 -0.6 1.24 -0.54 1.27 -0.48 1.27 -0.42 1.29 -0.35 1.3 -8.8 -2.23 0.47 -1.72 0.55 -1.7 0.62 -1.66 0.7 -1.63 0.77 -1.6 0.83 -1.57 0.9 -1.53 0.96 -1.49 1.02 -1.45 1.07 -1.41 1.13 -1.37 1.18 -1.32 1.23 -1.28 1.27 -1.23 1.32 -1.18 1.36 -1.14 1.4 -1.07 1.44 -1.03 1.47 -0.97 1.51 -0.91 1.53 -0.86 1.57 -0.79 1.6 -0.72 1.62 -0.67 1.64 -0.59 1.67 -0.52 1.68 -0.45 1.7 -0.38 1.72 -0.29 1.73 -0.21 1.74 -0.14 1.75 -0.04 0 0z"/>
  </g>
  <path class="fil2 str0" d="M117.54 57.89c-1.34,-0.99 -3.05,-1.47 -5.17,-1.47 -1.5,0 -2.84,0.29 -4,0.86 -1.17,0.58 -2.17,1.36 -3.05,2.34 -0.88,0.98 -1.61,2.12 -2.22,3.41 -0.62,1.29 -1.11,2.63 -1.47,4.03 -0.38,1.4 -0.64,2.81 -0.81,4.22 -0.17,1.43 -0.24,2.79 -0.24,4.06l0 22.3 -5.66 0 0 -45.6 5.66 0 0 9.77 0.18 0c0.53,-1.65 1.2,-3.16 2.02,-4.47 0.82,-1.32 1.76,-2.44 2.83,-3.34 1.06,-0.91 2.23,-1.6 3.49,-2.07 1.27,-0.47 2.59,-0.71 3.99,-0.71 0.92,0 1.74,0.06 2.47,0.18 0.72,0.11 1.39,0.29 1.98,0.53l0 5.96zm37.41 37.69c-3.39,2.05 -7.48,3.1 -12.3,3.16 -3.27,0.03 -6.21,-0.54 -8.83,-1.69 -2.61,-1.17 -4.83,-2.78 -6.69,-4.83 -1.84,-2.07 -3.25,-4.5 -4.22,-7.32 -0.99,-2.79 -1.48,-5.85 -1.48,-9.15 0,-3.42 0.52,-6.63 1.57,-9.63 1.03,-3.03 2.55,-5.64 4.54,-7.89 1.99,-2.24 4.43,-4.02 7.31,-5.32 2.88,-1.31 6.18,-1.97 9.9,-1.97 3.77,0 7.22,0.73 10.34,2.19l0 6.05c-3.33,-2.2 -6.93,-3.31 -10.81,-3.31 -2.71,0 -5.12,0.52 -7.24,1.54 -2.11,1.03 -3.89,2.43 -5.33,4.19 -1.45,1.76 -2.54,3.83 -3.3,6.2 -0.76,2.36 -1.14,4.87 -1.14,7.51 0,2.43 0.32,4.77 0.96,6.99 0.64,2.24 1.62,4.2 2.95,5.92 1.32,1.7 2.99,3.07 5.01,4.07 2.04,1.02 4.41,1.52 7.16,1.52 4.29,0 8.15,-1.28 11.6,-3.84l0 5.61zm32.12 -60.08c-1.28,-0.84 -2.92,-1.25 -4.94,-1.25 -5.33,0 -8.01,3.5 -8.01,10.48l0 7.31 11.31 0 0 5.02 -11.31 0 0 40.58 -5.75 0 0 -40.58 -7.93 0 0 -5.02 7.93 0 0 -7.68c0,-2.29 0.29,-4.36 0.87,-6.22 0.58,-1.86 1.44,-3.45 2.57,-4.77 1.12,-1.34 2.55,-2.35 4.26,-3.07 1.71,-0.71 3.69,-1.06 5.91,-1.06 2.14,0 3.84,0.29 5.09,0.85l0 5.41zm37.62 62.14l0 -7.99 -0.18 0c-1.5,2.87 -3.68,5.12 -6.48,6.7 -2.81,1.6 -6,2.39 -9.56,2.39 -2.85,0 -5.44,-0.54 -7.78,-1.58 -2.32,-1.07 -4.33,-2.59 -5.99,-4.58 -1.66,-1.99 -2.95,-4.39 -3.86,-7.22 -0.9,-2.83 -1.35,-6.02 -1.35,-9.58 0,-3.69 0.5,-7.05 1.49,-10.11 1,-3.04 2.41,-5.65 4.24,-7.84 1.82,-2.19 4.03,-3.88 6.6,-5.08 2.56,-1.2 5.42,-1.81 8.57,-1.81 6.57,0 11.28,2.63 14.12,7.89l0.18 0 0 -28.68 5.75 0 0 67.49 -5.75 0zm0 -27.54c0,-1.99 -0.35,-3.86 -1.03,-5.58 -0.68,-1.72 -1.63,-3.22 -2.84,-4.5 -1.23,-1.28 -2.69,-2.3 -4.41,-3.04 -1.7,-0.75 -3.59,-1.11 -5.64,-1.11 -2.27,0 -4.35,0.44 -6.25,1.34 -1.9,0.89 -3.54,2.17 -4.89,3.86 -1.36,1.67 -2.41,3.72 -3.17,6.12 -0.76,2.41 -1.14,5.14 -1.14,8.21 0,2.88 0.35,5.46 1.04,7.76 0.68,2.29 1.66,4.22 2.92,5.79 1.26,1.58 2.76,2.78 4.53,3.62 1.75,0.83 3.71,1.24 5.83,1.24 2.33,0 4.43,-0.41 6.28,-1.24 1.86,-0.84 3.44,-1.98 4.73,-3.44 1.29,-1.46 2.29,-3.16 2.99,-5.12 0.7,-1.96 1.05,-4.06 1.05,-6.3l0 -7.61zm39.97 26.98c-1.96,0.99 -4.09,1.47 -6.4,1.47 -7.35,0 -11.02,-4.24 -11.02,-12.72l0 -28.77 -8.03 0 0 -5.02 8.03 0 0 -11.45 5.74 -1.87 0 13.32 11.68 0 0 5.02 -11.68 0 0 27.86c0,3.08 0.5,5.3 1.51,6.67 1,1.35 2.69,2.04 5.09,2.04 1.76,0 3.45,-0.53 5.08,-1.6l0 5.05zm27.31 1.66c-3.37,0 -6.41,-0.57 -9.09,-1.69 -2.69,-1.14 -4.98,-2.74 -6.88,-4.8 -1.9,-2.07 -3.35,-4.53 -4.35,-7.42 -1.02,-2.89 -1.52,-6.08 -1.52,-9.59 0,-3.8 0.53,-7.21 1.6,-10.2 1.08,-3.01 2.59,-5.55 4.56,-7.65 1.97,-2.1 4.36,-3.69 7.14,-4.79 2.8,-1.11 5.91,-1.66 9.35,-1.66 3.3,0 6.26,0.55 8.89,1.63 2.65,1.08 4.88,2.66 6.72,4.7 1.84,2.05 3.25,4.56 4.23,7.49 0.98,2.95 1.47,6.3 1.47,10.03 0,3.58 -0.52,6.82 -1.53,9.75 -1.02,2.93 -2.48,5.44 -4.38,7.55 -1.9,2.12 -4.21,3.74 -6.95,4.91 -2.72,1.16 -5.81,1.74 -9.26,1.74zm0.46 -42.87c-2.51,0 -4.76,0.43 -6.78,1.29 -2.02,0.87 -3.75,2.11 -5.2,3.77 -1.44,1.64 -2.55,3.67 -3.33,6.07 -0.77,2.38 -1.15,5.1 -1.15,8.13 0,2.86 0.38,5.43 1.15,7.71 0.78,2.29 1.87,4.25 3.29,5.89 1.41,1.63 3.13,2.89 5.15,3.76 2.02,0.88 4.27,1.32 6.78,1.32 2.55,0 4.82,-0.42 6.78,-1.28 1.96,-0.83 3.62,-2.06 4.98,-3.69 1.37,-1.63 2.4,-3.6 3.1,-5.96 0.7,-2.34 1.05,-5.01 1.05,-8.02 0,-6.15 -1.36,-10.86 -4.1,-14.11 -2.74,-3.25 -6.64,-4.88 -11.72,-4.88zm51.82 42.87c-3.38,0 -6.41,-0.57 -9.09,-1.69 -2.69,-1.14 -4.99,-2.74 -6.89,-4.8 -1.9,-2.07 -3.34,-4.53 -4.34,-7.42 -1.02,-2.89 -1.52,-6.08 -1.52,-9.59 0,-3.8 0.53,-7.21 1.59,-10.2 1.08,-3.01 2.6,-5.55 4.56,-7.65 1.98,-2.1 4.36,-3.69 7.15,-4.79 2.79,-1.11 5.91,-1.66 9.35,-1.66 3.29,0 6.26,0.55 8.89,1.63 2.64,1.08 4.88,2.66 6.72,4.7 1.84,2.05 3.25,4.56 4.22,7.49 0.99,2.95 1.48,6.3 1.48,10.03 0,3.58 -0.52,6.82 -1.54,9.75 -1.02,2.93 -2.48,5.44 -4.38,7.55 -1.9,2.12 -4.21,3.74 -6.94,4.91 -2.72,1.16 -5.81,1.74 -9.26,1.74zm0.46 -42.87c-2.51,0 -4.76,0.43 -6.78,1.29 -2.03,0.87 -3.76,2.11 -5.2,3.77 -1.45,1.64 -2.56,3.67 -3.33,6.07 -0.78,2.38 -1.16,5.1 -1.16,8.13 0,2.86 0.38,5.43 1.16,7.71 0.77,2.29 1.87,4.25 3.28,5.89 1.42,1.63 3.13,2.89 5.16,3.76 2.02,0.88 4.27,1.32 6.77,1.32 2.56,0 4.82,-0.42 6.78,-1.28 1.97,-0.83 3.62,-2.06 4.99,-3.69 1.37,-1.63 2.4,-3.6 3.1,-5.96 0.7,-2.34 1.05,-5.01 1.05,-8.02 0,-6.15 -1.37,-10.86 -4.1,-14.11 -2.74,-3.25 -6.65,-4.88 -11.72,-4.88zm33.26 41.77l0 -67.49 5.74 0 0 67.49 -5.74 0zm17.84 -8.19c0.87,0.68 1.8,1.29 2.8,1.82 1,0.54 2.05,0.99 3.11,1.39 1.07,0.38 2.13,0.66 3.23,0.86 1.08,0.2 2.1,0.29 3.08,0.29 6.75,0 10.13,-2.54 10.13,-7.6 0,-1.15 -0.25,-2.16 -0.72,-3.01 -0.47,-0.85 -1.15,-1.63 -2.03,-2.32 -0.9,-0.7 -1.97,-1.34 -3.21,-1.93 -1.25,-0.6 -2.66,-1.22 -4.23,-1.87 -2.11,-0.87 -3.92,-1.75 -5.44,-2.63 -1.5,-0.9 -2.75,-1.87 -3.74,-2.92 -0.97,-1.07 -1.7,-2.22 -2.17,-3.48 -0.47,-1.27 -0.72,-2.71 -0.72,-4.31 0,-2.02 0.44,-3.83 1.31,-5.39 0.88,-1.58 2.05,-2.92 3.53,-4.02 1.49,-1.09 3.19,-1.94 5.12,-2.52 1.95,-0.58 3.98,-0.87 6.11,-0.87 3.94,0 7.36,0.75 10.29,2.22l0 6.01c-3.4,-2.21 -7.08,-3.3 -11.02,-3.3 -1.41,0 -2.71,0.18 -3.88,0.53 -1.17,0.37 -2.17,0.87 -3.01,1.52 -0.82,0.66 -1.47,1.45 -1.93,2.36 -0.45,0.91 -0.68,1.91 -0.68,3.01 0,1.14 0.18,2.13 0.53,2.96 0.37,0.85 0.91,1.63 1.67,2.31 0.76,0.67 1.74,1.33 2.94,1.96 1.2,0.63 2.66,1.3 4.39,2.01 2.19,0.88 4.09,1.76 5.69,2.65 1.61,0.88 2.93,1.82 3.96,2.85 1.04,1.02 1.81,2.16 2.31,3.44 0.51,1.26 0.76,2.72 0.76,4.38 0,2.05 -0.42,3.89 -1.26,5.48 -0.85,1.61 -2.02,2.97 -3.51,4.06 -1.49,1.1 -3.25,1.93 -5.26,2.5 -2,0.56 -4.19,0.85 -6.57,0.85 -4.59,0 -8.45,-0.98 -11.58,-2.91l0 -6.38z"/>
 </g>
</svg>
