<?xml version="1.0" encoding="UTF-8"?>
<!DOCTYPE svg PUBLIC "-//W3C//DTD SVG 1.1//EN" "http://www.w3.org/Graphics/SVG/1.1/DTD/svg11.dtd">
<!-- Creator: CorelDRAW -->
<svg xmlns="http://www.w3.org/2000/svg" xml:space="preserve" width="945px" height="742px" version="1.1" style="shape-rendering:geometricPrecision; text-rendering:geometricPrecision; image-rendering:optimizeQuality; fill-rule:evenodd; clip-rule:evenodd"
viewBox="0 0 207.22 162.67"
 xmlns:xlink="http://www.w3.org/1999/xlink"
 xmlns:xodm="http://www.corel.com/coreldraw/odm/2003">
 <defs>
  <style type="text/css">
   <![CDATA[
    .str0 {stroke:black;stroke-width:0.44;stroke-miterlimit:22.9256}
    .fil0 {fill:white}
    .fil2 {fill:black;fill-rule:nonzero}
    .fil1 {fill:black;fill-rule:nonzero}
   ]]>
  </style>
 </defs>
 <g id="Capa_x0020_1">
  <metadata id="CorelCorpID_0Corel-Layer"/>
  <g id="_2123928395440">
   <g>
    <path class="fil0" d="M103.61 1.84c43.9,0 79.5,35.59 79.5,79.49 0,43.91 -35.6,79.5 -79.5,79.5 -43.91,0 -79.5,-35.59 -79.5,-79.5 0,-43.9 35.59,-79.49 79.5,-79.49z"/>
    <path id="_1" class="fil1" d="M184.39 81.33l-2.57 0.01 0 0 -0.1 -3.96 -0.29 -3.91 -0.49 -3.85 -0.68 -3.79 -0.86 -3.73 -1.04 -3.66 -1.22 -3.59 -1.38 -3.51 -1.55 -3.43 -1.71 -3.34 -1.87 -3.25 -2.03 -3.16 -2.17 -3.05 -2.31 -2.94 -2.45 -2.83 -2.59 -2.72 -2.71 -2.58 -2.84 -2.46 -2.95 -2.32 -3.07 -2.19 -3.18 -2.04 -3.29 -1.88 -3.38 -1.74 -3.47 -1.57 -3.57 -1.4 -3.65 -1.24 -3.72 -1.06 -3.8 -0.87 -3.87 -0.69 -3.94 -0.5 -3.99 -0.31 -4.04 -0.1 0 -3.67 4.14 0.1 4.08 0.31 4.02 0.52 3.96 0.7 3.9 0.9 3.81 1.09 3.74 1.26 3.66 1.44 3.57 1.62 3.47 1.77 3.38 1.95 3.27 2.09 3.16 2.25 3.05 2.4 2.93 2.54 2.81 2.68 2.68 2.81 2.55 2.94 2.4 3.06 2.26 3.18 2.12 3.3 1.96 3.4 1.8 3.52 1.63 3.61 1.46 3.71 1.29 3.8 1.1 3.88 0.92 3.97 0.72 4.03 0.52 4.11 0.31 4.17 0.11 4.22 0 0zm-80.78 81.34l0 -3.67 0 0 4.05 -0.1 3.99 -0.31 3.93 -0.5 3.87 -0.69 3.8 -0.88 3.73 -1.05 3.65 -1.24 3.56 -1.4 3.48 -1.58 3.38 -1.73 3.28 -1.88 3.18 -2.04 3.07 -2.19 2.96 -2.32 2.83 -2.46 2.72 -2.58 2.58 -2.72 2.45 -2.83 2.32 -2.94 2.17 -3.05 2.02 -3.15 1.87 -3.26 1.71 -3.34 1.55 -3.43 1.38 -3.51 1.22 -3.59 1.04 -3.66 0.86 -3.73 0.68 -3.79 0.49 -3.85 0.29 -3.9 0.1 -3.96 2.57 -0.01 -0.11 4.22 -0.31 4.17 -0.52 4.11 -0.72 4.04 -0.92 3.96 -1.1 3.89 -1.29 3.8 -1.46 3.71 -1.63 3.61 -1.8 3.51 -1.96 3.41 -2.12 3.3 -2.26 3.18 -2.41 3.06 -2.54 2.94 -2.68 2.81 -2.81 2.68 -2.93 2.54 -3.05 2.4 -3.17 2.24 -3.27 2.1 -3.37 1.94 -3.48 1.78 -3.56 1.62 -3.66 1.44 -3.74 1.26 -3.82 1.09 -3.89 0.89 -3.96 0.71 -4.02 0.51 -4.09 0.31 -4.13 0.11 0 0zm-80.79 -81.33l2.57 -0.01 0 0 0.1 3.96 0.3 3.91 0.49 3.85 0.68 3.79 0.86 3.73 1.04 3.66 1.21 3.59 1.39 3.51 1.55 3.43 1.71 3.34 1.87 3.25 2.02 3.16 2.17 3.05 2.32 2.94 2.45 2.83 2.58 2.71 2.72 2.59 2.83 2.46 2.96 2.32 3.07 2.19 3.18 2.03 3.28 1.89 3.38 1.73 3.48 1.58 3.56 1.4 3.65 1.24 3.73 1.05 3.8 0.88 3.87 0.69 3.93 0.5 3.99 0.31 4.05 0.1 0 3.67 -4.14 -0.11 -4.08 -0.31 -4.03 -0.51 -3.96 -0.71 -3.89 -0.89 -3.82 -1.09 -3.74 -1.26 -3.65 -1.44 -3.57 -1.62 -3.47 -1.78 -3.38 -1.94 -3.27 -2.1 -3.16 -2.24 -3.05 -2.4 -2.94 -2.54 -2.8 -2.68 -2.68 -2.81 -2.55 -2.94 -2.41 -3.06 -2.26 -3.18 -2.11 -3.3 -1.96 -3.41 -1.8 -3.51 -1.63 -3.61 -1.47 -3.71 -1.28 -3.8 -1.1 -3.88 -0.92 -3.97 -0.72 -4.04 -0.52 -4.1 -0.32 -4.17 -0.11 -4.22 0 0zm80.79 -81.34l0 3.67 0 0 -4.05 0.1 -3.99 0.31 -3.93 0.5 -3.87 0.69 -3.8 0.87 -3.73 1.06 -3.65 1.24 -3.56 1.4 -3.48 1.57 -3.38 1.74 -3.28 1.88 -3.18 2.04 -3.07 2.18 -2.96 2.33 -2.84 2.46 -2.71 2.58 -2.59 2.71 -2.45 2.83 -2.31 2.95 -2.17 3.05 -2.02 3.15 -1.87 3.25 -1.71 3.35 -1.55 3.43 -1.39 3.51 -1.21 3.59 -1.04 3.66 -0.86 3.72 -0.68 3.8 -0.49 3.85 -0.3 3.9 -0.1 3.96 -2.57 0.01 0.11 -4.23 0.32 -4.16 0.52 -4.11 0.72 -4.04 0.92 -3.96 1.1 -3.89 1.29 -3.8 1.46 -3.71 1.63 -3.61 1.8 -3.51 1.96 -3.41 2.11 -3.3 2.27 -3.18 2.4 -3.06 2.55 -2.94 2.68 -2.81 2.81 -2.68 2.93 -2.54 3.05 -2.4 3.16 -2.25 3.27 -2.09 3.38 -1.95 3.47 -1.77 3.57 -1.62 3.66 -1.44 3.74 -1.26 3.81 -1.09 3.9 -0.9 3.96 -0.7 4.02 -0.52 4.08 -0.31 4.14 -0.1 0 0z"/>
   </g>
   <path class="fil2" d="M50.69 37.51l0.99 -0.76c0.63,0.81 0.94,1.64 0.95,2.48 0,0.84 -0.29,1.63 -0.88,2.38 -0.6,0.78 -1.25,1.28 -1.95,1.52 -0.7,0.24 -1.45,0.25 -2.24,0.04 -0.8,-0.22 -1.55,-0.59 -2.23,-1.13 -0.75,-0.59 -1.3,-1.24 -1.63,-1.97 -0.33,-0.72 -0.44,-1.46 -0.32,-2.22 0.13,-0.76 0.44,-1.45 0.94,-2.09 0.56,-0.72 1.22,-1.18 1.97,-1.38 0.75,-0.21 1.53,-0.14 2.35,0.18l-0.51 1.11c-0.66,-0.24 -1.23,-0.3 -1.72,-0.17 -0.48,0.13 -0.92,0.44 -1.29,0.92 -0.43,0.55 -0.66,1.12 -0.69,1.7 -0.02,0.58 0.13,1.12 0.46,1.62 0.33,0.5 0.73,0.93 1.2,1.31 0.62,0.48 1.22,0.81 1.82,0.99 0.59,0.18 1.15,0.17 1.67,-0.03 0.52,-0.2 0.95,-0.52 1.3,-0.96 0.41,-0.53 0.61,-1.1 0.59,-1.71 -0.02,-0.61 -0.28,-1.22 -0.78,-1.83zm1.53 -1.91c-0.89,-0.84 -1.31,-1.72 -1.27,-2.62 0.03,-0.75 0.33,-1.42 0.9,-2.02 0.62,-0.66 1.35,-1 2.18,-1.01 0.83,-0.01 1.63,0.34 2.39,1.07 0.62,0.58 1.02,1.13 1.2,1.65 0.18,0.53 0.2,1.06 0.06,1.6 -0.14,0.54 -0.41,1.02 -0.81,1.44 -0.63,0.68 -1.36,1.02 -2.19,1.03 -0.83,0 -1.65,-0.38 -2.46,-1.14zm0.8 -0.84c0.61,0.58 1.2,0.89 1.76,0.9 0.56,0.02 1.04,-0.17 1.42,-0.58 0.39,-0.41 0.55,-0.89 0.5,-1.45 -0.05,-0.56 -0.39,-1.14 -1.02,-1.74 -0.6,-0.56 -1.18,-0.85 -1.74,-0.87 -0.56,-0.01 -1.04,0.18 -1.42,0.58 -0.38,0.41 -0.55,0.89 -0.5,1.45 0.05,0.56 0.38,1.13 1,1.71zm10.26 -5l-0.61 -0.77c0.06,0.91 -0.26,1.63 -0.96,2.18 -0.31,0.24 -0.64,0.4 -1,0.49 -0.36,0.09 -0.67,0.1 -0.94,0.03 -0.27,-0.08 -0.53,-0.23 -0.79,-0.45 -0.17,-0.15 -0.4,-0.41 -0.7,-0.78l-2.53 -3.24 0.89 -0.69 2.26 2.89c0.36,0.46 0.63,0.76 0.79,0.89 0.23,0.19 0.49,0.28 0.78,0.27 0.28,0 0.56,-0.11 0.82,-0.32 0.27,-0.21 0.46,-0.47 0.59,-0.78 0.12,-0.32 0.14,-0.64 0.06,-0.95 -0.09,-0.3 -0.31,-0.68 -0.66,-1.13l-2.18 -2.79 0.88 -0.7 4.09 5.23 -0.79 0.62zm2.21 -1.64l-3.8 -5.44 0.83 -0.58 0.58 0.83c-0.05,-0.53 -0.04,-0.92 0.06,-1.17 0.09,-0.25 0.25,-0.45 0.46,-0.6 0.31,-0.22 0.7,-0.34 1.15,-0.37l0.27 1.08c-0.31,0.03 -0.58,0.12 -0.8,0.28 -0.2,0.14 -0.34,0.32 -0.42,0.56 -0.07,0.23 -0.07,0.48 0.01,0.74 0.13,0.4 0.33,0.79 0.6,1.18l1.99 2.84 -0.93 0.65zm2.16 -3.94l0.89 -0.7c0.27,0.36 0.59,0.57 0.95,0.64 0.37,0.07 0.77,-0.03 1.22,-0.28 0.45,-0.25 0.74,-0.53 0.85,-0.84 0.12,-0.3 0.11,-0.58 -0.03,-0.82 -0.13,-0.22 -0.32,-0.34 -0.59,-0.36 -0.19,-0.01 -0.58,0.07 -1.19,0.23 -0.82,0.22 -1.4,0.34 -1.76,0.37 -0.35,0.02 -0.66,-0.04 -0.93,-0.2 -0.28,-0.15 -0.5,-0.37 -0.65,-0.65 -0.15,-0.26 -0.22,-0.53 -0.23,-0.81 0,-0.29 0.05,-0.56 0.18,-0.82 0.09,-0.2 0.24,-0.41 0.46,-0.63 0.22,-0.23 0.48,-0.43 0.78,-0.6 0.45,-0.25 0.89,-0.41 1.3,-0.47 0.42,-0.06 0.77,-0.02 1.06,0.11 0.29,0.13 0.57,0.37 0.84,0.71l-0.88 0.67c-0.21,-0.28 -0.47,-0.44 -0.78,-0.5 -0.3,-0.05 -0.64,0.03 -1.02,0.25 -0.45,0.25 -0.73,0.5 -0.84,0.76 -0.1,0.26 -0.1,0.48 0.01,0.68 0.07,0.13 0.17,0.22 0.31,0.28 0.14,0.06 0.31,0.08 0.52,0.05 0.12,-0.02 0.46,-0.1 1.01,-0.23 0.79,-0.21 1.36,-0.33 1.7,-0.36 0.34,-0.04 0.66,0.01 0.94,0.15 0.28,0.13 0.52,0.37 0.7,0.7 0.19,0.33 0.26,0.69 0.23,1.08 -0.03,0.4 -0.18,0.77 -0.45,1.13 -0.27,0.36 -0.63,0.67 -1.09,0.92 -0.75,0.43 -1.41,0.59 -1.98,0.5 -0.56,-0.09 -1.07,-0.41 -1.53,-0.96zm10.18 -5.44l1.13 -0.34c0.11,0.69 0.02,1.31 -0.28,1.86 -0.3,0.54 -0.8,0.97 -1.5,1.29 -0.88,0.4 -1.7,0.44 -2.46,0.13 -0.76,-0.31 -1.37,-0.96 -1.81,-1.94 -0.46,-1.01 -0.55,-1.92 -0.28,-2.71 0.27,-0.8 0.82,-1.38 1.65,-1.76 0.81,-0.36 1.59,-0.39 2.35,-0.07 0.76,0.32 1.36,0.98 1.81,1.97 0.03,0.06 0.07,0.16 0.12,0.28l-4.51 2.03c0.34,0.65 0.76,1.07 1.26,1.27 0.49,0.2 0.99,0.19 1.49,-0.04 0.38,-0.17 0.66,-0.41 0.83,-0.73 0.18,-0.32 0.24,-0.73 0.2,-1.24zm-4.1 -0.12l3.37 -1.52c-0.27,-0.49 -0.57,-0.82 -0.9,-0.97 -0.5,-0.25 -1.02,-0.26 -1.54,-0.02 -0.47,0.21 -0.79,0.54 -0.97,1 -0.17,0.46 -0.16,0.96 0.04,1.51zm6.37 -0.63l1 -0.5c0.2,0.4 0.47,0.68 0.81,0.82 0.34,0.14 0.76,0.13 1.25,-0.02 0.49,-0.16 0.83,-0.37 1,-0.65 0.18,-0.28 0.22,-0.55 0.14,-0.82 -0.08,-0.24 -0.25,-0.4 -0.5,-0.47 -0.18,-0.05 -0.59,-0.05 -1.22,-0.02 -0.84,0.05 -1.44,0.05 -1.79,0.01 -0.35,-0.05 -0.64,-0.18 -0.88,-0.39 -0.23,-0.2 -0.4,-0.46 -0.5,-0.77 -0.09,-0.28 -0.11,-0.56 -0.05,-0.84 0.05,-0.28 0.16,-0.54 0.33,-0.76 0.13,-0.18 0.33,-0.36 0.59,-0.53 0.26,-0.18 0.55,-0.32 0.88,-0.42 0.5,-0.16 0.95,-0.22 1.37,-0.2 0.42,0.03 0.76,0.13 1.02,0.32 0.25,0.19 0.48,0.48 0.68,0.87l-1.01 0.48c-0.15,-0.32 -0.37,-0.53 -0.65,-0.65 -0.29,-0.11 -0.64,-0.1 -1.06,0.03 -0.49,0.16 -0.81,0.35 -0.97,0.58 -0.16,0.23 -0.2,0.45 -0.13,0.67 0.04,0.14 0.12,0.25 0.25,0.33 0.12,0.09 0.28,0.14 0.5,0.16 0.12,0.01 0.46,0 1.03,-0.03 0.82,-0.03 1.4,-0.03 1.74,0 0.34,0.03 0.64,0.15 0.88,0.34 0.25,0.19 0.44,0.47 0.55,0.83 0.11,0.36 0.11,0.73 0.01,1.11 -0.11,0.38 -0.34,0.72 -0.68,1.01 -0.34,0.3 -0.75,0.53 -1.25,0.68 -0.82,0.26 -1.5,0.29 -2.04,0.09 -0.54,-0.21 -0.97,-0.63 -1.3,-1.26zm7.42 -0.17l-0.28 -1.24 1.24 -0.29 0.29 1.24c0.1,0.46 0.11,0.85 0.01,1.17 -0.1,0.32 -0.31,0.6 -0.62,0.84l-0.41 -0.41c0.21,-0.15 0.34,-0.34 0.4,-0.56 0.07,-0.22 0.07,-0.52 -0.01,-0.89l-0.62 0.14zm6.67 -1.28l-0.9 -6.58 1 -0.13 0.14 1c0.19,-0.5 0.38,-0.84 0.58,-1.02 0.2,-0.18 0.42,-0.28 0.68,-0.32 0.38,-0.05 0.78,0.01 1.2,0.19l-0.26 1.09c-0.29,-0.12 -0.57,-0.16 -0.84,-0.12 -0.24,0.03 -0.45,0.14 -0.62,0.31 -0.17,0.17 -0.28,0.39 -0.33,0.67 -0.07,0.41 -0.07,0.85 0,1.32l0.47 3.43 -1.12 0.16zm8.74 -2.81l1.16 0.13c-0.17,0.68 -0.5,1.21 -0.99,1.59 -0.49,0.38 -1.12,0.58 -1.89,0.59 -0.96,0.01 -1.74,-0.27 -2.31,-0.86 -0.58,-0.59 -0.87,-1.42 -0.89,-2.5 -0.01,-1.11 0.26,-1.98 0.83,-2.6 0.56,-0.63 1.3,-0.94 2.21,-0.96 0.89,-0.01 1.61,0.28 2.18,0.88 0.57,0.59 0.86,1.44 0.88,2.53 0,0.06 0,0.16 0,0.3l-4.94 0.07c0.05,0.72 0.26,1.28 0.64,1.66 0.37,0.38 0.84,0.57 1.39,0.56 0.41,-0.01 0.76,-0.12 1.05,-0.34 0.29,-0.22 0.51,-0.57 0.68,-1.05zm-3.71 -1.75l3.69 -0.06c-0.05,-0.55 -0.2,-0.97 -0.44,-1.25 -0.36,-0.42 -0.83,-0.63 -1.4,-0.63 -0.51,0.01 -0.94,0.19 -1.29,0.54 -0.34,0.35 -0.53,0.82 -0.56,1.4zm6.03 1.81l1.12 -0.1c0.03,0.45 0.18,0.81 0.44,1.07 0.27,0.25 0.66,0.4 1.17,0.44 0.52,0.04 0.91,-0.04 1.17,-0.23 0.27,-0.19 0.41,-0.42 0.43,-0.71 0.02,-0.25 -0.07,-0.46 -0.29,-0.62 -0.15,-0.11 -0.52,-0.26 -1.11,-0.47 -0.81,-0.26 -1.36,-0.49 -1.67,-0.66 -0.31,-0.18 -0.53,-0.4 -0.67,-0.68 -0.15,-0.28 -0.21,-0.58 -0.18,-0.91 0.02,-0.29 0.11,-0.56 0.26,-0.8 0.16,-0.24 0.36,-0.43 0.6,-0.58 0.18,-0.12 0.43,-0.21 0.74,-0.27 0.3,-0.07 0.63,-0.09 0.97,-0.06 0.52,0.04 0.97,0.14 1.35,0.32 0.38,0.18 0.66,0.41 0.82,0.68 0.17,0.27 0.27,0.62 0.31,1.06l-1.11 0.07c-0.02,-0.35 -0.15,-0.63 -0.37,-0.84 -0.22,-0.22 -0.55,-0.34 -0.99,-0.37 -0.51,-0.04 -0.88,0.02 -1.11,0.17 -0.24,0.16 -0.36,0.35 -0.38,0.57 -0.01,0.15 0.03,0.28 0.11,0.41 0.08,0.12 0.21,0.23 0.4,0.33 0.11,0.05 0.43,0.17 0.97,0.36 0.78,0.27 1.31,0.49 1.62,0.64 0.3,0.16 0.53,0.38 0.69,0.65 0.17,0.27 0.23,0.59 0.2,0.97 -0.03,0.38 -0.16,0.72 -0.41,1.03 -0.24,0.31 -0.57,0.55 -1,0.7 -0.42,0.14 -0.9,0.2 -1.41,0.16 -0.86,-0.07 -1.51,-0.29 -1.93,-0.68 -0.42,-0.39 -0.67,-0.94 -0.74,-1.65zm11.49 1.16l1.12 0.35c-0.29,0.63 -0.71,1.1 -1.26,1.38 -0.55,0.29 -1.2,0.37 -1.96,0.24 -0.96,-0.15 -1.66,-0.58 -2.13,-1.26 -0.46,-0.68 -0.6,-1.55 -0.42,-2.61 0.18,-1.1 0.61,-1.9 1.27,-2.42 0.67,-0.51 1.45,-0.69 2.36,-0.54 0.87,0.15 1.53,0.56 1.98,1.25 0.46,0.69 0.6,1.57 0.42,2.65 -0.02,0.06 -0.03,0.16 -0.06,0.29l-4.87 -0.81c-0.08,0.72 0.03,1.31 0.33,1.75 0.3,0.44 0.72,0.71 1.27,0.8 0.4,0.06 0.77,0.02 1.09,-0.15 0.32,-0.17 0.61,-0.47 0.86,-0.92zm-3.34 -2.38l3.64 0.61c0.05,-0.56 -0.02,-1 -0.21,-1.31 -0.28,-0.48 -0.7,-0.78 -1.26,-0.87 -0.51,-0.08 -0.96,0.02 -1.37,0.3 -0.4,0.28 -0.67,0.71 -0.8,1.27zm9.92 5.41c-0.5,0.22 -0.96,0.35 -1.37,0.38 -0.41,0.03 -0.83,-0.02 -1.26,-0.14 -0.69,-0.21 -1.18,-0.54 -1.46,-0.99 -0.27,-0.45 -0.33,-0.94 -0.17,-1.47 0.09,-0.31 0.24,-0.57 0.46,-0.79 0.22,-0.22 0.47,-0.36 0.74,-0.45 0.28,-0.09 0.57,-0.13 0.88,-0.13 0.23,0.01 0.57,0.05 1.01,0.13 0.9,0.15 1.58,0.22 2.04,0.2 0.04,-0.15 0.07,-0.24 0.08,-0.28 0.13,-0.44 0.12,-0.78 -0.03,-1.02 -0.2,-0.32 -0.58,-0.56 -1.12,-0.72 -0.51,-0.15 -0.91,-0.18 -1.21,-0.07 -0.29,0.11 -0.56,0.37 -0.81,0.79l-1.01 -0.46c0.23,-0.43 0.49,-0.75 0.8,-0.96 0.3,-0.21 0.68,-0.33 1.14,-0.36 0.46,-0.02 0.97,0.05 1.51,0.21 0.55,0.16 0.97,0.35 1.28,0.58 0.3,0.23 0.5,0.47 0.6,0.71 0.1,0.24 0.14,0.52 0.12,0.83 -0.02,0.2 -0.1,0.53 -0.24,1.01l-0.42 1.43c-0.3,1 -0.46,1.64 -0.5,1.92 -0.03,0.28 -0.02,0.56 0.04,0.85l-1.13 -0.34c-0.04,-0.26 -0.03,-0.54 0.03,-0.86zm0.62 -2.41c-0.44,0.04 -1.07,0 -1.88,-0.12 -0.47,-0.07 -0.8,-0.09 -1.01,-0.07 -0.21,0.03 -0.38,0.1 -0.53,0.22 -0.15,0.13 -0.25,0.28 -0.3,0.47 -0.09,0.28 -0.05,0.55 0.11,0.81 0.17,0.25 0.46,0.44 0.87,0.57 0.42,0.12 0.82,0.14 1.19,0.06 0.38,-0.09 0.69,-0.26 0.94,-0.53 0.19,-0.21 0.35,-0.55 0.49,-1.02l0.12 -0.39zm1.77 4.08l2.36 -6.2 0.95 0.36 -0.37 0.95c0.41,-0.34 0.75,-0.55 1.01,-0.61 0.26,-0.06 0.51,-0.05 0.75,0.05 0.36,0.13 0.67,0.38 0.96,0.74l-0.75 0.83c-0.2,-0.24 -0.43,-0.41 -0.68,-0.51 -0.23,-0.09 -0.46,-0.1 -0.7,-0.03 -0.23,0.07 -0.43,0.21 -0.6,0.43 -0.26,0.32 -0.48,0.71 -0.65,1.15l-1.23 3.24 -1.05 -0.4zm8.92 1.17l0.94 0.6c-0.43,0.63 -0.96,1.04 -1.59,1.22 -0.63,0.19 -1.27,0.12 -1.93,-0.18 -0.82,-0.38 -1.36,-0.95 -1.61,-1.72 -0.25,-0.77 -0.15,-1.65 0.31,-2.66 0.3,-0.65 0.67,-1.16 1.11,-1.55 0.44,-0.39 0.94,-0.61 1.49,-0.64 0.55,-0.05 1.08,0.05 1.6,0.29 0.66,0.3 1.12,0.71 1.38,1.23 0.26,0.53 0.31,1.12 0.15,1.78l-1.06 -0.3c0.09,-0.45 0.07,-0.83 -0.08,-1.15 -0.15,-0.31 -0.39,-0.55 -0.73,-0.7 -0.52,-0.24 -1.02,-0.25 -1.51,-0.03 -0.49,0.22 -0.92,0.73 -1.29,1.53 -0.37,0.81 -0.49,1.46 -0.34,1.97 0.14,0.51 0.46,0.88 0.96,1.11 0.4,0.18 0.79,0.22 1.17,0.09 0.38,-0.12 0.73,-0.41 1.03,-0.89zm0.83 3.15l4.94 -7.7 0.95 0.6 -1.78 2.78c0.77,-0.24 1.49,-0.14 2.16,0.29 0.41,0.27 0.72,0.58 0.92,0.94 0.19,0.35 0.27,0.72 0.21,1.09 -0.05,0.37 -0.25,0.83 -0.6,1.37l-2.27 3.54 -0.95 -0.61 2.27 -3.53c0.3,-0.47 0.42,-0.88 0.35,-1.23 -0.06,-0.34 -0.28,-0.64 -0.65,-0.87 -0.28,-0.18 -0.59,-0.28 -0.93,-0.29 -0.34,-0.01 -0.64,0.07 -0.9,0.25 -0.27,0.18 -0.54,0.49 -0.82,0.93l-1.96 3.05 -0.94 -0.61zm10.9 4.95l0.81 0.85c-0.57,0.41 -1.16,0.61 -1.78,0.59 -0.62,-0.02 -1.23,-0.27 -1.83,-0.75 -0.75,-0.61 -1.16,-1.32 -1.23,-2.14 -0.07,-0.82 0.24,-1.65 0.91,-2.49 0.7,-0.86 1.46,-1.36 2.3,-1.48 0.83,-0.12 1.6,0.11 2.31,0.68 0.69,0.56 1.07,1.25 1.12,2.07 0.06,0.82 -0.25,1.65 -0.94,2.51 -0.04,0.05 -0.1,0.12 -0.19,0.23l-3.85 -3.1c-0.42,0.59 -0.61,1.15 -0.56,1.69 0.04,0.53 0.28,0.97 0.71,1.31 0.32,0.26 0.66,0.4 1.03,0.41 0.36,0.01 0.76,-0.11 1.19,-0.38zm-1.74 -3.71l2.88 2.32c0.31,-0.47 0.46,-0.88 0.46,-1.25 -0.01,-0.56 -0.24,-1.02 -0.68,-1.38 -0.4,-0.32 -0.85,-0.46 -1.34,-0.41 -0.49,0.05 -0.93,0.29 -1.32,0.72zm3.42 5.29l0.93 0.63c-0.26,0.37 -0.37,0.74 -0.32,1.11 0.04,0.36 0.25,0.72 0.62,1.08 0.38,0.35 0.73,0.54 1.06,0.56 0.32,0.02 0.58,-0.08 0.78,-0.28 0.17,-0.19 0.23,-0.41 0.16,-0.67 -0.04,-0.18 -0.23,-0.53 -0.57,-1.07 -0.46,-0.71 -0.75,-1.23 -0.88,-1.56 -0.12,-0.33 -0.15,-0.65 -0.09,-0.96 0.07,-0.3 0.21,-0.57 0.43,-0.81 0.2,-0.21 0.44,-0.37 0.71,-0.46 0.27,-0.09 0.55,-0.11 0.83,-0.07 0.22,0.02 0.47,0.11 0.75,0.25 0.28,0.14 0.54,0.33 0.79,0.57 0.38,0.36 0.66,0.72 0.84,1.1 0.19,0.38 0.26,0.73 0.22,1.04 -0.05,0.32 -0.19,0.66 -0.43,1.02l-0.91 -0.65c0.21,-0.28 0.29,-0.58 0.25,-0.88 -0.04,-0.31 -0.22,-0.61 -0.54,-0.91 -0.37,-0.35 -0.7,-0.54 -0.98,-0.57 -0.27,-0.02 -0.49,0.04 -0.65,0.21 -0.1,0.11 -0.16,0.23 -0.17,0.38 -0.02,0.15 0.02,0.32 0.11,0.51 0.05,0.11 0.22,0.41 0.52,0.89 0.43,0.7 0.71,1.21 0.85,1.52 0.14,0.32 0.18,0.63 0.14,0.94 -0.05,0.31 -0.2,0.6 -0.47,0.88 -0.25,0.27 -0.57,0.46 -0.96,0.55 -0.39,0.08 -0.79,0.05 -1.21,-0.1 -0.43,-0.15 -0.83,-0.4 -1.21,-0.76 -0.62,-0.59 -0.98,-1.18 -1.06,-1.74 -0.09,-0.57 0.07,-1.16 0.46,-1.75zm9.95 12.36c-0.55,-0.05 -1.04,-0.18 -1.47,-0.4 -0.43,-0.23 -0.79,-0.54 -1.1,-0.94 -0.57,-0.75 -0.78,-1.53 -0.61,-2.35 0.14,-0.67 0.46,-1.19 0.96,-1.58 0.45,-0.34 0.97,-0.51 1.55,-0.5 0.58,0.02 1.23,0.21 1.94,0.57 0.13,-0.62 0.26,-1.07 0.41,-1.36 0.15,-0.29 0.34,-0.52 0.56,-0.69 0.43,-0.33 0.94,-0.45 1.53,-0.35 0.58,0.09 1.07,0.4 1.47,0.92 0.38,0.5 0.54,1.02 0.48,1.57 -0.06,0.55 -0.31,0.99 -0.74,1.32 -0.69,0.53 -1.63,0.52 -2.83,-0.03l-0.64 2.58c0.41,-0.07 0.83,-0.21 1.28,-0.42l0.51 1.07c-0.76,0.33 -1.44,0.51 -2.05,0.55 -0.19,0.67 -0.27,1.33 -0.25,1.98l-1.16 -0.05c-0.05,-0.54 0.01,-1.17 0.16,-1.89zm2.38 -4.72c0.52,0.22 0.92,0.31 1.18,0.3 0.26,-0.02 0.49,-0.11 0.7,-0.27 0.25,-0.19 0.39,-0.43 0.43,-0.7 0.04,-0.28 -0.04,-0.54 -0.22,-0.78 -0.18,-0.24 -0.41,-0.38 -0.69,-0.42 -0.28,-0.04 -0.53,0.02 -0.76,0.19 -0.11,0.09 -0.21,0.21 -0.29,0.36 -0.08,0.16 -0.15,0.34 -0.2,0.57l-0.15 0.75zm-2.12 3.62l0.79 -3.19c-0.66,-0.26 -1.17,-0.38 -1.55,-0.36 -0.37,0.01 -0.68,0.12 -0.92,0.3 -0.29,0.22 -0.51,0.57 -0.64,1.05 -0.14,0.48 -0.04,0.93 0.28,1.36 0.21,0.26 0.5,0.48 0.88,0.64 0.39,0.16 0.77,0.23 1.16,0.2z"/>
   <path class="fil2" d="M57.66 135.33l0.72 0.84c-0.59,0.49 -1.21,0.73 -1.86,0.73 -0.66,-0.01 -1.26,-0.25 -1.8,-0.72 -0.68,-0.6 -1.04,-1.3 -1.06,-2.11 -0.03,-0.81 0.32,-1.63 1.05,-2.46 0.47,-0.54 0.97,-0.93 1.5,-1.18 0.53,-0.25 1.07,-0.31 1.61,-0.2 0.54,0.12 1.03,0.37 1.46,0.74 0.54,0.47 0.86,1 0.97,1.57 0.1,0.58 -0.02,1.16 -0.36,1.75l-0.93 -0.59c0.21,-0.4 0.3,-0.78 0.24,-1.12 -0.05,-0.34 -0.21,-0.64 -0.5,-0.89 -0.42,-0.37 -0.9,-0.52 -1.44,-0.45 -0.53,0.08 -1.09,0.44 -1.66,1.1 -0.59,0.67 -0.89,1.27 -0.89,1.8 -0.01,0.53 0.19,0.97 0.6,1.33 0.34,0.3 0.7,0.44 1.1,0.43 0.4,-0.01 0.82,-0.2 1.25,-0.57zm1.48 0.3c0.71,-1 1.51,-1.54 2.41,-1.63 0.75,-0.07 1.46,0.14 2.13,0.61 0.74,0.53 1.17,1.2 1.3,2.03 0.13,0.81 -0.11,1.65 -0.72,2.51 -0.49,0.7 -0.99,1.17 -1.48,1.42 -0.49,0.25 -1.01,0.34 -1.57,0.28 -0.55,-0.06 -1.07,-0.26 -1.54,-0.6 -0.76,-0.53 -1.2,-1.21 -1.32,-2.03 -0.12,-0.81 0.14,-1.68 0.79,-2.59zm0.93 0.67c-0.49,0.69 -0.7,1.32 -0.64,1.87 0.06,0.56 0.31,1.01 0.78,1.33 0.45,0.33 0.95,0.42 1.5,0.29 0.55,-0.13 1.07,-0.55 1.58,-1.26 0.47,-0.66 0.68,-1.28 0.61,-1.84 -0.06,-0.56 -0.31,-1 -0.76,-1.32 -0.47,-0.32 -0.97,-0.42 -1.51,-0.3 -0.55,0.13 -1.07,0.54 -1.56,1.23zm3.25 6.46l3.3 -5.76 0.88 0.51 -0.47 0.81c0.34,-0.18 0.72,-0.27 1.11,-0.27 0.4,0 0.79,0.11 1.17,0.33 0.43,0.25 0.73,0.53 0.9,0.87 0.17,0.33 0.22,0.69 0.15,1.07 0.84,-0.41 1.63,-0.41 2.36,0.01 0.57,0.33 0.92,0.74 1.05,1.23 0.13,0.5 0,1.07 -0.37,1.73l-2.27 3.95 -0.97 -0.56 2.07 -3.63c0.23,-0.39 0.36,-0.69 0.39,-0.89 0.04,-0.21 0,-0.41 -0.11,-0.62 -0.1,-0.2 -0.27,-0.36 -0.49,-0.49 -0.41,-0.23 -0.82,-0.29 -1.25,-0.18 -0.42,0.12 -0.8,0.48 -1.14,1.07l-1.91 3.34 -0.98 -0.56 2.14 -3.74c0.25,-0.43 0.36,-0.8 0.32,-1.11 -0.03,-0.31 -0.23,-0.57 -0.59,-0.77 -0.27,-0.16 -0.57,-0.23 -0.88,-0.22 -0.32,0.01 -0.61,0.12 -0.88,0.34 -0.26,0.22 -0.54,0.59 -0.84,1.12l-1.71 2.98 -0.98 -0.56zm8.38 7.59l3.33 -8.56 0.95 0.38 -0.31 0.81c0.34,-0.23 0.69,-0.37 1.04,-0.41 0.34,-0.05 0.71,0.01 1.12,0.16 0.52,0.21 0.94,0.52 1.23,0.95 0.3,0.43 0.46,0.93 0.47,1.5 0.01,0.58 -0.09,1.16 -0.32,1.75 -0.25,0.63 -0.58,1.15 -1.01,1.57 -0.42,0.42 -0.9,0.68 -1.44,0.78 -0.53,0.1 -1.04,0.05 -1.52,-0.13 -0.35,-0.14 -0.63,-0.33 -0.85,-0.59 -0.22,-0.25 -0.38,-0.53 -0.47,-0.82l-1.17 3.02 -1.05 -0.41zm3.06 -5.05c-0.3,0.79 -0.37,1.44 -0.2,1.94 0.17,0.5 0.49,0.85 0.95,1.02 0.46,0.19 0.93,0.14 1.42,-0.12 0.48,-0.27 0.88,-0.81 1.21,-1.63 0.3,-0.79 0.37,-1.44 0.2,-1.96 -0.17,-0.51 -0.48,-0.86 -0.93,-1.03 -0.45,-0.18 -0.92,-0.12 -1.42,0.16 -0.51,0.28 -0.92,0.82 -1.23,1.62zm8.63 6.54l0.27 -0.94c-0.7,0.58 -1.48,0.74 -2.33,0.5 -0.37,-0.11 -0.7,-0.28 -0.99,-0.52 -0.28,-0.23 -0.47,-0.48 -0.57,-0.75 -0.09,-0.26 -0.13,-0.56 -0.1,-0.89 0.02,-0.23 0.09,-0.57 0.22,-1.03l1.14 -3.95 1.08 0.31 -1.01 3.53c-0.17,0.57 -0.25,0.95 -0.26,1.16 -0.02,0.3 0.06,0.57 0.24,0.79 0.17,0.23 0.42,0.39 0.74,0.48 0.32,0.09 0.65,0.1 0.98,0.01 0.33,-0.08 0.6,-0.25 0.8,-0.5 0.19,-0.25 0.37,-0.65 0.53,-1.2l0.98 -3.41 1.08 0.31 -1.83 6.38 -0.97 -0.28zm5.28 0.29l-0.07 1.01c-0.32,-0.01 -0.6,-0.04 -0.85,-0.09 -0.39,-0.1 -0.69,-0.23 -0.88,-0.41 -0.19,-0.17 -0.3,-0.37 -0.34,-0.6 -0.05,-0.22 0.01,-0.67 0.16,-1.32l0.85 -3.73 -0.81 -0.19 0.2 -0.84 0.81 0.18 0.37 -1.6 1.24 -0.4 -0.51 2.25 1.09 0.25 -0.19 0.85 -1.1 -0.25 -0.87 3.79c-0.07,0.31 -0.1,0.52 -0.08,0.62 0.02,0.09 0.07,0.18 0.14,0.25 0.08,0.08 0.19,0.13 0.36,0.17 0.12,0.03 0.28,0.05 0.48,0.06zm5.28 1.12c-0.47,0.28 -0.91,0.45 -1.32,0.53 -0.4,0.08 -0.82,0.08 -1.26,0.01 -0.72,-0.13 -1.24,-0.4 -1.56,-0.82 -0.33,-0.41 -0.44,-0.89 -0.35,-1.44 0.06,-0.32 0.18,-0.6 0.37,-0.84 0.2,-0.23 0.42,-0.41 0.69,-0.53 0.26,-0.12 0.55,-0.19 0.86,-0.22 0.23,-0.02 0.56,-0.02 1.01,0 0.92,0.05 1.6,0.04 2.05,-0.03 0.03,-0.15 0.05,-0.25 0.05,-0.29 0.08,-0.45 0.03,-0.78 -0.15,-1.01 -0.24,-0.3 -0.64,-0.49 -1.2,-0.59 -0.52,-0.09 -0.92,-0.07 -1.2,0.07 -0.28,0.14 -0.52,0.43 -0.72,0.88l-1.06 -0.34c0.18,-0.45 0.41,-0.79 0.68,-1.04 0.28,-0.25 0.65,-0.41 1.1,-0.49 0.45,-0.08 0.97,-0.07 1.53,0.03 0.56,0.1 1,0.24 1.33,0.43 0.32,0.2 0.55,0.41 0.68,0.63 0.13,0.23 0.2,0.5 0.22,0.82 0,0.19 -0.04,0.54 -0.13,1.03l-0.25 1.47c-0.18,1.02 -0.27,1.68 -0.27,1.96 0,0.28 0.04,0.56 0.13,0.84l-1.16 -0.21c-0.07,-0.25 -0.09,-0.53 -0.07,-0.85zm0.34 -2.47c-0.43,0.09 -1.06,0.12 -1.88,0.1 -0.47,-0.02 -0.81,0 -1.01,0.05 -0.21,0.05 -0.37,0.14 -0.5,0.28 -0.13,0.14 -0.22,0.3 -0.25,0.5 -0.05,0.29 0.02,0.55 0.21,0.79 0.19,0.23 0.5,0.39 0.93,0.46 0.43,0.08 0.82,0.05 1.19,-0.08 0.36,-0.13 0.65,-0.34 0.86,-0.63 0.17,-0.23 0.29,-0.59 0.37,-1.07l0.08 -0.4zm4.8 2.75l0.07 1c-0.32,0.04 -0.6,0.06 -0.85,0.04 -0.4,-0.03 -0.71,-0.12 -0.93,-0.27 -0.21,-0.14 -0.36,-0.32 -0.43,-0.54 -0.08,-0.22 -0.09,-0.66 -0.04,-1.34l0.29 -3.81 -0.83 -0.06 0.07 -0.87 0.83 0.06 0.12 -1.63 1.17 -0.59 -0.17 2.31 1.12 0.08 -0.06 0.87 -1.13 -0.09 -0.29 3.88c-0.03,0.32 -0.02,0.53 0.01,0.62 0.03,0.1 0.09,0.17 0.18,0.24 0.08,0.06 0.21,0.09 0.37,0.11 0.13,0.01 0.29,0 0.5,-0.01zm1.19 -6.81l0.03 -1.27 1.12 0.02 -0.02 1.28 -1.13 -0.03zm-0.16 7.88l0.14 -6.64 1.12 0.03 -0.14 6.63 -1.12 -0.02zm2.35 -3.22c-0.03,-1.23 0.29,-2.14 0.96,-2.75 0.56,-0.5 1.25,-0.76 2.07,-0.78 0.91,-0.02 1.67,0.27 2.26,0.85 0.59,0.58 0.89,1.4 0.92,2.45 0.01,0.86 -0.1,1.53 -0.35,2.02 -0.24,0.49 -0.61,0.88 -1.09,1.16 -0.48,0.28 -1.01,0.43 -1.59,0.44 -0.93,0.02 -1.69,-0.26 -2.27,-0.84 -0.59,-0.59 -0.89,-1.44 -0.91,-2.55zm1.15 -0.03c0.01,0.85 0.21,1.48 0.59,1.9 0.38,0.41 0.85,0.61 1.42,0.6 0.56,-0.01 1.02,-0.23 1.38,-0.67 0.36,-0.43 0.54,-1.08 0.52,-1.94 -0.02,-0.82 -0.22,-1.44 -0.6,-1.85 -0.38,-0.41 -0.85,-0.61 -1.41,-0.6 -0.56,0.01 -1.02,0.23 -1.39,0.66 -0.36,0.42 -0.53,1.06 -0.51,1.9zm6.45 3.1l-0.87 -6.58 1 -0.13 0.13 0.93c0.38,-0.78 1.03,-1.23 1.94,-1.34 0.4,-0.06 0.77,-0.03 1.12,0.06 0.36,0.1 0.63,0.26 0.82,0.47 0.2,0.21 0.35,0.46 0.46,0.77 0.07,0.2 0.13,0.56 0.2,1.08l0.53 4.04 -1.11 0.15 -0.53 -4c-0.06,-0.46 -0.14,-0.79 -0.26,-1 -0.12,-0.22 -0.29,-0.38 -0.53,-0.48 -0.24,-0.11 -0.51,-0.14 -0.8,-0.1 -0.48,0.06 -0.86,0.26 -1.17,0.61 -0.3,0.35 -0.4,0.94 -0.29,1.78l0.47 3.59 -1.11 0.15zm11.08 -2.74c-0.32,0.44 -0.66,0.78 -1,1.01 -0.35,0.23 -0.73,0.39 -1.16,0.49 -0.71,0.17 -1.3,0.12 -1.76,-0.14 -0.46,-0.26 -0.76,-0.65 -0.88,-1.19 -0.07,-0.32 -0.07,-0.62 0.01,-0.92 0.09,-0.29 0.23,-0.54 0.43,-0.76 0.19,-0.21 0.43,-0.39 0.7,-0.54 0.21,-0.1 0.52,-0.23 0.94,-0.39 0.86,-0.3 1.49,-0.58 1.87,-0.82 -0.03,-0.15 -0.05,-0.25 -0.06,-0.29 -0.1,-0.44 -0.28,-0.73 -0.53,-0.87 -0.34,-0.18 -0.78,-0.21 -1.33,-0.08 -0.52,0.12 -0.88,0.3 -1.08,0.54 -0.21,0.23 -0.32,0.6 -0.33,1.08l-1.1 0.1c-0.01,-0.48 0.06,-0.89 0.22,-1.22 0.16,-0.34 0.43,-0.63 0.82,-0.88 0.39,-0.25 0.86,-0.44 1.42,-0.57 0.55,-0.12 1.02,-0.16 1.39,-0.11 0.38,0.05 0.67,0.15 0.88,0.31 0.21,0.16 0.38,0.38 0.51,0.67 0.08,0.18 0.18,0.51 0.29,0.99l0.34 1.46c0.23,1.01 0.4,1.65 0.51,1.91 0.11,0.26 0.26,0.5 0.45,0.72l-1.15 0.26c-0.16,-0.2 -0.29,-0.45 -0.4,-0.76zm-0.65 -2.41c-0.36,0.26 -0.92,0.53 -1.69,0.83 -0.44,0.17 -0.75,0.31 -0.91,0.44 -0.17,0.12 -0.29,0.27 -0.35,0.45 -0.07,0.18 -0.08,0.37 -0.04,0.56 0.07,0.28 0.23,0.5 0.5,0.64 0.27,0.15 0.61,0.17 1.04,0.07 0.42,-0.1 0.78,-0.27 1.06,-0.54 0.29,-0.25 0.48,-0.56 0.56,-0.91 0.06,-0.28 0.03,-0.66 -0.08,-1.14l-0.09 -0.4zm3.49 2.5l-2.52 -8.8 1.08 -0.31 2.52 8.8 -1.08 0.31zm7.99 -3.87l0.51 0.87c-0.27,0.17 -0.52,0.31 -0.75,0.4 -0.38,0.15 -0.7,0.21 -0.96,0.17 -0.25,-0.04 -0.46,-0.14 -0.62,-0.3 -0.17,-0.16 -0.37,-0.56 -0.62,-1.19l-1.41 -3.55 -0.77 0.31 -0.32 -0.81 0.77 -0.31 -0.61 -1.52 0.8 -1.05 0.85 2.16 1.05 -0.42 0.32 0.81 -1.05 0.42 1.44 3.61c0.12,0.3 0.21,0.48 0.28,0.55 0.07,0.07 0.16,0.12 0.26,0.14 0.1,0.01 0.23,-0.01 0.39,-0.07 0.11,-0.04 0.26,-0.12 0.44,-0.22zm-0.48 -2.17c-0.56,-1.08 -0.68,-2.05 -0.35,-2.89 0.28,-0.69 0.79,-1.23 1.52,-1.61 0.8,-0.42 1.6,-0.5 2.39,-0.24 0.79,0.26 1.43,0.86 1.91,1.79 0.4,0.76 0.59,1.41 0.59,1.96 0,0.55 -0.16,1.06 -0.47,1.53 -0.3,0.46 -0.72,0.83 -1.23,1.09 -0.82,0.43 -1.63,0.52 -2.41,0.25 -0.78,-0.26 -1.43,-0.89 -1.95,-1.88zm1.03 -0.53c0.39,0.76 0.84,1.23 1.37,1.43 0.52,0.21 1.03,0.18 1.54,-0.08 0.49,-0.26 0.81,-0.66 0.94,-1.21 0.13,-0.55 0,-1.21 -0.4,-1.98 -0.38,-0.72 -0.83,-1.19 -1.36,-1.39 -0.52,-0.2 -1.03,-0.17 -1.52,0.09 -0.5,0.26 -0.82,0.66 -0.96,1.2 -0.13,0.55 -0.01,1.19 0.39,1.94zm5.08 -2.5c-0.67,-1.03 -0.87,-1.98 -0.62,-2.85 0.22,-0.72 0.67,-1.3 1.36,-1.75 0.76,-0.49 1.55,-0.64 2.36,-0.45 0.81,0.18 1.5,0.72 2.07,1.6 0.46,0.72 0.72,1.35 0.76,1.9 0.05,0.55 -0.05,1.07 -0.32,1.56 -0.26,0.49 -0.64,0.9 -1.13,1.21 -0.78,0.5 -1.57,0.66 -2.37,0.47 -0.8,-0.19 -1.51,-0.75 -2.11,-1.69zm0.96 -0.62c0.46,0.71 0.96,1.14 1.5,1.29 0.54,0.16 1.05,0.08 1.53,-0.22 0.47,-0.31 0.74,-0.74 0.83,-1.29 0.08,-0.56 -0.12,-1.2 -0.59,-1.93 -0.44,-0.69 -0.93,-1.11 -1.47,-1.26 -0.55,-0.15 -1.05,-0.08 -1.52,0.22 -0.47,0.31 -0.75,0.73 -0.84,1.29 -0.08,0.55 0.11,1.18 0.56,1.9zm7.11 -0.71l-5.31 -7.46 0.92 -0.65 5.31 7.46 -0.92 0.65zm0.75 -2.97l0.77 -0.83c0.32,0.32 0.67,0.48 1.04,0.49 0.37,0.01 0.76,-0.14 1.16,-0.45 0.41,-0.32 0.65,-0.64 0.72,-0.96 0.07,-0.32 0.02,-0.59 -0.16,-0.81 -0.15,-0.2 -0.37,-0.29 -0.63,-0.27 -0.19,0.02 -0.57,0.15 -1.14,0.41 -0.78,0.34 -1.34,0.55 -1.69,0.62 -0.34,0.08 -0.66,0.06 -0.95,-0.05 -0.3,-0.11 -0.54,-0.29 -0.74,-0.55 -0.18,-0.23 -0.3,-0.49 -0.35,-0.77 -0.04,-0.28 -0.03,-0.56 0.05,-0.83 0.06,-0.21 0.19,-0.45 0.37,-0.7 0.18,-0.26 0.41,-0.49 0.68,-0.7 0.41,-0.32 0.82,-0.54 1.22,-0.66 0.4,-0.13 0.76,-0.14 1.06,-0.06 0.31,0.09 0.62,0.28 0.94,0.58l-0.77 0.8c-0.25,-0.25 -0.54,-0.37 -0.84,-0.38 -0.31,0 -0.63,0.13 -0.98,0.39 -0.4,0.32 -0.64,0.61 -0.71,0.88 -0.07,0.27 -0.04,0.5 0.1,0.68 0.09,0.11 0.21,0.19 0.35,0.23 0.15,0.03 0.32,0.03 0.53,-0.03 0.11,-0.04 0.43,-0.16 0.96,-0.38 0.75,-0.32 1.3,-0.53 1.63,-0.61 0.33,-0.09 0.65,-0.09 0.94,0 0.31,0.1 0.57,0.29 0.81,0.6 0.23,0.29 0.36,0.64 0.39,1.03 0.03,0.4 -0.07,0.79 -0.28,1.19 -0.21,0.39 -0.53,0.75 -0.94,1.07 -0.68,0.53 -1.31,0.79 -1.88,0.79 -0.58,-0.01 -1.13,-0.25 -1.66,-0.72z"/>
   <g>
    <path class="fil0" d="M103.61 21.29c33.16,0 60.04,26.88 60.04,60.04 0,33.17 -26.88,60.05 -60.04,60.05 -33.16,0 -60.05,-26.88 -60.05,-60.05 0,-33.16 26.89,-60.04 60.05,-60.04z"/>
    <path id="_1_0" class="fil1" d="M164.62 81.33l-1.94 0.01 0 0 -0.07 -2.99 -0.23 -2.95 -0.37 -2.91 -0.51 -2.87 -0.65 -2.81 -0.78 -2.77 -0.92 -2.71 -1.04 -2.65 -1.18 -2.59 -1.29 -2.53 -1.41 -2.45 -1.53 -2.39 -1.64 -2.3 -1.75 -2.22 -1.85 -2.14 -1.95 -2.05 -2.05 -1.95 -2.14 -1.86 -2.24 -1.75 -2.32 -1.65 -2.4 -1.54 -2.48 -1.43 -2.55 -1.31 -2.63 -1.18 -2.69 -1.07 -2.75 -0.93 -2.82 -0.8 -2.87 -0.66 -2.92 -0.52 -2.97 -0.38 -3.02 -0.23 -3.05 -0.08 0 -2.77 3.12 0.08 3.09 0.24 3.04 0.38 2.99 0.54 2.94 0.67 2.88 0.82 2.83 0.96 2.76 1.09 2.69 1.22 2.63 1.34 2.55 1.47 2.47 1.58 2.39 1.7 2.3 1.81 2.21 1.92 2.12 2.02 2.03 2.12 1.92 2.22 1.82 2.31 1.71 2.41 1.59 2.49 1.48 2.57 1.36 2.65 1.24 2.73 1.1 2.8 0.97 2.87 0.83 2.94 0.7 2.99 0.54 3.05 0.39 3.1 0.24 3.15 0.08 3.19 0 0zm-61.01 61.44l0 -2.78 0 0 3.06 -0.07 3.01 -0.23 2.97 -0.38 2.92 -0.52 2.87 -0.66 2.82 -0.8 2.75 -0.94 2.7 -1.06 2.62 -1.18 2.56 -1.31 2.48 -1.43 2.4 -1.54 2.32 -1.65 2.23 -1.75 2.14 -1.86 2.05 -1.95 1.95 -2.05 1.86 -2.14 1.74 -2.22 1.64 -2.31 1.53 -2.38 1.41 -2.45 1.29 -2.53 1.18 -2.59 1.04 -2.65 0.92 -2.71 0.78 -2.77 0.65 -2.81 0.51 -2.87 0.37 -2.9 0.23 -2.95 0.07 -2.99 1.94 -0.01 -0.08 3.19 -0.24 3.15 -0.39 3.1 -0.54 3.05 -0.7 3 -0.83 2.93 -0.97 2.87 -1.1 2.8 -1.24 2.73 -1.36 2.65 -1.48 2.58 -1.59 2.49 -1.71 2.4 -1.82 2.32 -1.92 2.22 -2.03 2.12 -2.12 2.02 -2.21 1.92 -2.31 1.81 -2.39 1.7 -2.47 1.58 -2.55 1.47 -2.62 1.34 -2.69 1.22 -2.77 1.09 -2.82 0.96 -2.88 0.81 -2.94 0.68 -3 0.54 -3.03 0.38 -3.09 0.24 -3.12 0.08 0 0zm-61.02 -61.43l1.94 -0.01 0 0 0.08 2.99 0.22 2.95 0.37 2.91 0.51 2.87 0.65 2.81 0.79 2.77 0.92 2.71 1.04 2.65 1.17 2.59 1.3 2.52 1.41 2.46 1.53 2.38 1.63 2.31 1.75 2.22 1.85 2.14 1.96 2.05 2.05 1.95 2.14 1.86 2.23 1.75 2.32 1.65 2.4 1.54 2.48 1.43 2.56 1.31 2.62 1.18 2.69 1.06 2.76 0.94 2.81 0.8 2.88 0.66 2.92 0.52 2.97 0.38 3.01 0.23 3.06 0.07 0 2.78 -3.13 -0.08 -3.08 -0.24 -3.04 -0.38 -2.99 -0.54 -2.94 -0.68 -2.89 -0.81 -2.82 -0.96 -2.76 -1.09 -2.7 -1.22 -2.62 -1.34 -2.55 -1.47 -2.47 -1.58 -2.39 -1.7 -2.3 -1.81 -2.22 -1.92 -2.12 -2.02 -2.02 -2.12 -1.92 -2.22 -1.82 -2.32 -1.71 -2.4 -1.6 -2.49 -1.48 -2.57 -1.36 -2.66 -1.23 -2.73 -1.1 -2.8 -0.98 -2.87 -0.83 -2.93 -0.69 -2.99 -0.54 -3.05 -0.4 -3.11 -0.24 -3.14 -0.08 -3.19 0 0zm61.02 -61.44l0 2.77 0 0 -3.06 0.08 -3.01 0.23 -2.97 0.38 -2.93 0.52 -2.87 0.66 -2.81 0.8 -2.76 0.93 -2.69 1.07 -2.63 1.18 -2.55 1.31 -2.48 1.43 -2.4 1.54 -2.32 1.64 -2.23 1.76 -2.15 1.86 -2.05 1.95 -1.95 2.05 -1.85 2.14 -1.75 2.22 -1.64 2.3 -1.52 2.39 -1.41 2.45 -1.3 2.53 -1.17 2.59 -1.04 2.65 -0.92 2.71 -0.79 2.76 -0.65 2.82 -0.51 2.86 -0.37 2.91 -0.22 2.95 -0.08 2.99 -1.94 0.01 0.08 -3.19 0.24 -3.15 0.4 -3.1 0.54 -3.05 0.69 -3 0.84 -2.93 0.97 -2.87 1.1 -2.8 1.23 -2.73 1.36 -2.66 1.48 -2.57 1.6 -2.49 1.71 -2.4 1.82 -2.32 1.92 -2.22 2.02 -2.12 2.12 -2.02 2.22 -1.92 2.3 -1.81 2.39 -1.7 2.47 -1.58 2.55 -1.47 2.63 -1.34 2.69 -1.22 2.76 -1.09 2.83 -0.96 2.88 -0.82 2.94 -0.67 2.99 -0.54 3.04 -0.38 3.09 -0.24 3.12 -0.08 0 0z"/>
   </g>
   <g>
    <g>
     <path class="fil0" d="M22.89 56.39l173.79 0c6.5,0 10.51,5.32 8.9,11.82l-6.5 26.24c-1.61,6.51 -8.25,11.83 -14.76,11.83l-173.78 0c-6.51,0 -10.51,-5.32 -8.9,-11.83l6.5 -26.24c1.61,-6.5 8.25,-11.82 14.75,-11.82z"/>
     <path id="_1_1" class="fil1" d="M196.68 58.22l-173.79 0 0 -3.67 173.79 0 0 0 0 3.67zm10.11 10.6l-2.43 -1.22 0 0 0.11 -0.49 0.08 -0.47 0.06 -0.46 0.03 -0.45 0.01 -0.43 -0.02 -0.42 -0.04 -0.41 -0.06 -0.39 -0.08 -0.39 -0.1 -0.38 -0.12 -0.37 -0.14 -0.36 -0.17 -0.36 -0.18 -0.35 -0.21 -0.33 -0.24 -0.33 -0.25 -0.32 -0.28 -0.31 -0.3 -0.29 -0.32 -0.28 -0.34 -0.26 -0.37 -0.25 -0.39 -0.23 -0.41 -0.21 -0.43 -0.18 -0.44 -0.17 -0.47 -0.14 -0.49 -0.12 -0.5 -0.1 -0.53 -0.07 -0.54 -0.04 -0.55 -0.02 0 -3.67 0.65 0.02 0.63 0.05 0.62 0.08 0.61 0.12 0.59 0.14 0.57 0.18 0.56 0.2 0.54 0.24 0.52 0.27 0.5 0.29 0.48 0.33 0.46 0.35 0.45 0.38 0.42 0.41 0.39 0.44 0.38 0.47 0.35 0.49 0.32 0.52 0.29 0.55 0.27 0.57 0.24 0.6 0.2 0.62 0.17 0.64 0.14 0.66 0.1 0.68 0.06 0.69 0.03 0.7 -0.01 0.71 -0.05 0.71 -0.09 0.72 -0.12 0.72 -0.16 0.72 0 0zm-8.92 25.02l6.49 -26.24 2.43 1.22 -6.5 26.24 -2.42 -1.22zm-13.55 14.27l0.01 -3.67 0 0 0.56 -0.01 0.57 -0.04 0.56 -0.07 0.57 -0.1 0.56 -0.12 0.56 -0.15 0.55 -0.18 0.55 -0.2 0.55 -0.22 0.54 -0.24 0.52 -0.27 0.52 -0.29 0.51 -0.31 0.5 -0.32 0.49 -0.35 0.47 -0.36 0.46 -0.39 0.44 -0.39 0.42 -0.41 0.41 -0.43 0.39 -0.44 0.37 -0.45 0.35 -0.46 0.33 -0.46 0.31 -0.48 0.28 -0.49 0.26 -0.48 0.24 -0.5 0.21 -0.49 0.19 -0.5 0.16 -0.5 0.14 -0.5 2.42 1.22 -0.2 0.72 -0.22 0.7 -0.26 0.68 -0.28 0.67 -0.31 0.64 -0.34 0.64 -0.36 0.61 -0.39 0.6 -0.4 0.57 -0.43 0.56 -0.44 0.54 -0.47 0.53 -0.48 0.5 -0.5 0.48 -0.52 0.46 -0.53 0.45 -0.54 0.42 -0.56 0.39 -0.57 0.38 -0.58 0.35 -0.6 0.33 -0.6 0.31 -0.61 0.28 -0.62 0.25 -0.63 0.22 -0.63 0.2 -0.64 0.17 -0.65 0.15 -0.65 0.11 -0.65 0.08 -0.65 0.05 -0.66 0.01 0 0zm-173.78 -3.67l173.79 0 -0.01 3.67 -173.78 0 0 0 0 -3.67zm-10.11 -10.6l2.42 1.22 0 0 -0.11 0.49 -0.08 0.48 -0.05 0.46 -0.03 0.45 -0.01 0.43 0.01 0.42 0.04 0.41 0.06 0.39 0.08 0.39 0.1 0.38 0.12 0.37 0.15 0.36 0.16 0.36 0.19 0.34 0.21 0.34 0.23 0.33 0.26 0.32 0.27 0.31 0.3 0.29 0.33 0.28 0.34 0.26 0.37 0.25 0.38 0.23 0.41 0.2 0.43 0.19 0.45 0.17 0.47 0.14 0.49 0.12 0.5 0.1 0.52 0.07 0.54 0.04 0.56 0.01 0 3.67 -0.65 -0.01 -0.64 -0.05 -0.62 -0.08 -0.6 -0.12 -0.59 -0.14 -0.58 -0.18 -0.55 -0.21 -0.54 -0.23 -0.52 -0.27 -0.5 -0.29 -0.49 -0.33 -0.46 -0.35 -0.44 -0.38 -0.42 -0.42 -0.4 -0.43 -0.37 -0.47 -0.35 -0.49 -0.32 -0.53 -0.3 -0.54 -0.26 -0.58 -0.24 -0.59 -0.2 -0.62 -0.17 -0.64 -0.14 -0.66 -0.1 -0.68 -0.06 -0.69 -0.03 -0.7 0.01 -0.71 0.05 -0.71 0.09 -0.72 0.12 -0.72 0.16 -0.73 0 0zm8.92 -25.02l-6.5 26.24 -2.42 -1.22 6.5 -26.24 0 0 2.42 1.22zm13.54 -14.27l0 3.67 0 0 -0.56 0.02 -0.57 0.04 -0.57 0.07 -0.56 0.1 -0.56 0.12 -0.56 0.15 -0.56 0.18 -0.55 0.19 -0.54 0.23 -0.54 0.24 -0.53 0.27 -0.52 0.29 -0.51 0.3 -0.49 0.33 -0.49 0.35 -0.47 0.36 -0.46 0.38 -0.44 0.4 -0.43 0.41 -0.41 0.43 -0.39 0.44 -0.37 0.44 -0.35 0.46 -0.33 0.47 -0.3 0.48 -0.29 0.48 -0.26 0.49 -0.23 0.5 -0.22 0.49 -0.18 0.5 -0.16 0.5 -0.14 0.49 -2.42 -1.22 0.19 -0.71 0.23 -0.7 0.26 -0.68 0.28 -0.67 0.31 -0.65 0.34 -0.63 0.36 -0.61 0.38 -0.6 0.41 -0.58 0.42 -0.56 0.45 -0.54 0.46 -0.52 0.49 -0.5 0.5 -0.48 0.51 -0.47 0.53 -0.44 0.55 -0.42 0.56 -0.4 0.57 -0.37 0.58 -0.35 0.59 -0.33 0.61 -0.31 0.61 -0.28 0.62 -0.25 0.63 -0.23 0.63 -0.2 0.64 -0.17 0.64 -0.14 0.65 -0.11 0.66 -0.08 0.65 -0.05 0.65 -0.02 0 0z"/>
    </g>
    <path class="fil2 str0" d="M46.64 77.79c-0.53,-0.4 -1.22,-0.59 -2.07,-0.59 -0.6,0 -1.14,0.12 -1.6,0.35 -0.47,0.23 -0.88,0.54 -1.23,0.94 -0.36,0.39 -0.65,0.84 -0.89,1.36 -0.25,0.52 -0.45,1.06 -0.59,1.62 -0.16,0.56 -0.26,1.13 -0.33,1.7 -0.06,0.57 -0.1,1.11 -0.1,1.63l0 8.95 -2.27 0 0 -18.31 2.27 0 0 3.93 0.08 0c0.21,-0.67 0.48,-1.27 0.81,-1.8 0.33,-0.53 0.71,-0.98 1.13,-1.34 0.43,-0.37 0.9,-0.64 1.41,-0.83 0.5,-0.19 1.04,-0.29 1.6,-0.29 0.37,0 0.7,0.03 0.99,0.08 0.29,0.04 0.56,0.11 0.79,0.21l0 2.39zm15.02 15.13c-1.36,0.82 -3,1.24 -4.94,1.27 -1.31,0.01 -2.49,-0.22 -3.54,-0.68 -1.05,-0.47 -1.94,-1.12 -2.69,-1.94 -0.73,-0.83 -1.3,-1.81 -1.69,-2.94 -0.4,-1.12 -0.59,-2.35 -0.59,-3.67 0,-1.37 0.2,-2.66 0.62,-3.87 0.42,-1.21 1.03,-2.26 1.83,-3.16 0.8,-0.9 1.77,-1.62 2.93,-2.14 1.16,-0.52 2.48,-0.79 3.98,-0.79 1.51,0 2.89,0.3 4.15,0.88l0 2.43c-1.34,-0.88 -2.79,-1.33 -4.34,-1.33 -1.09,0 -2.06,0.21 -2.91,0.62 -0.85,0.41 -1.56,0.97 -2.14,1.68 -0.58,0.71 -1.02,1.54 -1.32,2.49 -0.31,0.95 -0.46,1.95 -0.46,3.01 0,0.98 0.13,1.92 0.38,2.81 0.26,0.9 0.66,1.68 1.19,2.37 0.53,0.69 1.2,1.24 2.01,1.64 0.82,0.41 1.77,0.61 2.87,0.61 1.73,0 3.28,-0.51 4.66,-1.54l0 2.25zm12.89 -24.12c-0.51,-0.33 -1.17,-0.5 -1.98,-0.5 -2.14,0 -3.22,1.41 -3.22,4.21l0 2.93 4.54 0 0 2.02 -4.54 0 0 16.29 -2.3 0 0 -16.29 -3.19 0 0 -2.02 3.19 0 0 -3.08c0,-0.92 0.11,-1.75 0.35,-2.49 0.23,-0.76 0.58,-1.39 1.03,-1.92 0.45,-0.54 1.02,-0.95 1.71,-1.23 0.68,-0.29 1.48,-0.43 2.37,-0.43 0.86,0 1.54,0.12 2.04,0.34l0 2.17zm15.1 24.95l0 -3.21 -0.07 0c-0.6,1.15 -1.48,2.05 -2.6,2.69 -1.13,0.64 -2.41,0.96 -3.84,0.96 -1.14,0 -2.18,-0.22 -3.12,-0.64 -0.93,-0.43 -1.74,-1.04 -2.4,-1.83 -0.67,-0.8 -1.19,-1.77 -1.55,-2.9 -0.36,-1.14 -0.55,-2.42 -0.55,-3.85 0,-1.48 0.2,-2.83 0.6,-4.05 0.4,-1.23 0.97,-2.27 1.7,-3.15 0.74,-0.88 1.62,-1.56 2.65,-2.04 1.03,-0.48 2.18,-0.73 3.44,-0.73 2.64,0 4.53,1.06 5.67,3.17l0.07 0 0 -11.51 2.31 0 0 27.09 -2.31 0zm0 -11.06c0,-0.8 -0.14,-1.55 -0.41,-2.24 -0.28,-0.69 -0.65,-1.29 -1.14,-1.8 -0.5,-0.52 -1.08,-0.93 -1.77,-1.22 -0.68,-0.3 -1.44,-0.45 -2.26,-0.45 -0.91,0 -1.75,0.18 -2.51,0.54 -0.77,0.36 -1.42,0.87 -1.97,1.55 -0.54,0.67 -0.96,1.49 -1.27,2.46 -0.3,0.96 -0.45,2.06 -0.45,3.29 0,1.15 0.14,2.19 0.41,3.11 0.28,0.92 0.67,1.7 1.17,2.33 0.51,0.63 1.11,1.11 1.82,1.45 0.7,0.33 1.49,0.5 2.34,0.5 0.94,0 1.78,-0.17 2.52,-0.5 0.75,-0.34 1.38,-0.79 1.9,-1.38 0.52,-0.59 0.92,-1.27 1.2,-2.06 0.28,-0.78 0.42,-1.63 0.42,-2.52l0 -3.06zm16.05 10.83c-0.79,0.4 -1.65,0.59 -2.57,0.59 -2.95,0 -4.43,-1.7 -4.43,-5.1l0 -11.55 -3.22 0 0 -2.02 3.22 0 0 -4.59 2.31 -0.75 0 5.34 4.69 0 0 2.02 -4.69 0 0 11.18c0,1.24 0.2,2.13 0.6,2.68 0.41,0.54 1.08,0.82 2.05,0.82 0.71,0 1.38,-0.22 2.04,-0.64l0 2.02zm10.96 0.67c-1.36,0 -2.58,-0.23 -3.65,-0.68 -1.08,-0.46 -2,-1.1 -2.76,-1.93 -0.77,-0.83 -1.35,-1.82 -1.75,-2.98 -0.41,-1.16 -0.61,-2.44 -0.61,-3.85 0,-1.52 0.22,-2.89 0.64,-4.09 0.44,-1.21 1.05,-2.23 1.83,-3.07 0.8,-0.84 1.75,-1.48 2.87,-1.92 1.12,-0.45 2.37,-0.67 3.75,-0.67 1.33,0 2.52,0.22 3.57,0.66 1.06,0.43 1.96,1.06 2.7,1.88 0.74,0.82 1.3,1.83 1.7,3.01 0.39,1.18 0.59,2.53 0.59,4.03 0,1.43 -0.21,2.73 -0.62,3.91 -0.41,1.18 -0.99,2.18 -1.76,3.03 -0.76,0.85 -1.69,1.5 -2.78,1.97 -1.1,0.46 -2.34,0.7 -3.72,0.7zm0.18 -17.21c-1,0 -1.91,0.17 -2.72,0.52 -0.81,0.35 -1.51,0.85 -2.09,1.51 -0.57,0.66 -1.02,1.47 -1.33,2.44 -0.31,0.95 -0.47,2.05 -0.47,3.26 0,1.15 0.16,2.18 0.47,3.09 0.31,0.93 0.75,1.71 1.32,2.37 0.56,0.65 1.25,1.16 2.06,1.51 0.82,0.35 1.72,0.53 2.73,0.53 1.02,0 1.93,-0.17 2.72,-0.51 0.78,-0.34 1.45,-0.83 2,-1.49 0.55,-0.65 0.96,-1.44 1.24,-2.39 0.28,-0.94 0.42,-2.01 0.42,-3.22 0,-2.46 -0.54,-4.36 -1.64,-5.66 -1.1,-1.31 -2.67,-1.96 -4.71,-1.96zm20.8 17.21c-1.35,0 -2.57,-0.23 -3.65,-0.68 -1.08,-0.46 -2,-1.1 -2.76,-1.93 -0.76,-0.83 -1.34,-1.82 -1.75,-2.98 -0.4,-1.16 -0.61,-2.44 -0.61,-3.85 0,-1.52 0.22,-2.89 0.65,-4.09 0.43,-1.21 1.04,-2.23 1.83,-3.07 0.79,-0.84 1.75,-1.48 2.86,-1.92 1.13,-0.45 2.38,-0.67 3.76,-0.67 1.32,0 2.51,0.22 3.57,0.66 1.06,0.43 1.95,1.06 2.69,1.88 0.74,0.82 1.31,1.83 1.7,3.01 0.4,1.18 0.59,2.53 0.59,4.03 0,1.43 -0.21,2.73 -0.62,3.91 -0.4,1.18 -0.99,2.18 -1.75,3.03 -0.77,0.85 -1.69,1.5 -2.79,1.97 -1.09,0.46 -2.33,0.7 -3.72,0.7zm0.19 -17.21c-1.01,0 -1.91,0.17 -2.73,0.52 -0.81,0.35 -1.5,0.85 -2.08,1.51 -0.58,0.66 -1.03,1.47 -1.34,2.44 -0.31,0.95 -0.46,2.05 -0.46,3.26 0,1.15 0.15,2.18 0.46,3.09 0.31,0.93 0.75,1.71 1.32,2.37 0.57,0.65 1.26,1.16 2.07,1.51 0.81,0.35 1.71,0.53 2.72,0.53 1.02,0 1.93,-0.17 2.72,-0.51 0.79,-0.34 1.45,-0.83 2,-1.49 0.55,-0.65 0.97,-1.44 1.25,-2.39 0.28,-0.94 0.42,-2.01 0.42,-3.22 0,-2.46 -0.55,-4.36 -1.65,-5.66 -1.1,-1.31 -2.67,-1.96 -4.7,-1.96zm13.35 16.77l0 -27.09 2.3 0 0 27.09 -2.3 0zm7.16 -3.29c0.35,0.27 0.72,0.52 1.12,0.73 0.4,0.21 0.83,0.4 1.25,0.56 0.43,0.15 0.86,0.26 1.3,0.34 0.43,0.08 0.84,0.12 1.23,0.12 2.71,0 4.07,-1.02 4.07,-3.05 0,-0.47 -0.1,-0.87 -0.29,-1.21 -0.19,-0.34 -0.46,-0.65 -0.82,-0.93 -0.36,-0.28 -0.78,-0.54 -1.28,-0.78 -0.5,-0.24 -1.07,-0.49 -1.7,-0.75 -0.85,-0.35 -1.57,-0.7 -2.18,-1.05 -0.61,-0.36 -1.11,-0.75 -1.51,-1.18 -0.39,-0.42 -0.68,-0.89 -0.87,-1.39 -0.19,-0.51 -0.28,-1.09 -0.28,-1.73 0,-0.81 0.17,-1.54 0.52,-2.17 0.35,-0.63 0.82,-1.17 1.42,-1.61 0.59,-0.44 1.28,-0.78 2.05,-1.01 0.78,-0.23 1.6,-0.35 2.45,-0.35 1.59,0 2.96,0.3 4.14,0.89l0 2.41c-1.37,-0.88 -2.85,-1.32 -4.43,-1.32 -0.57,0 -1.08,0.07 -1.55,0.21 -0.47,0.15 -0.88,0.35 -1.21,0.61 -0.33,0.27 -0.59,0.58 -0.78,0.95 -0.18,0.37 -0.27,0.77 -0.27,1.21 0,0.45 0.07,0.85 0.21,1.19 0.15,0.34 0.37,0.65 0.67,0.92 0.31,0.27 0.7,0.54 1.18,0.79 0.48,0.25 1.07,0.52 1.76,0.81 0.88,0.35 1.65,0.7 2.29,1.06 0.64,0.35 1.17,0.73 1.59,1.15 0.41,0.4 0.72,0.86 0.93,1.37 0.2,0.51 0.3,1.1 0.3,1.76 0,0.83 -0.17,1.56 -0.51,2.2 -0.34,0.65 -0.81,1.19 -1.4,1.63 -0.6,0.44 -1.31,0.78 -2.12,1 -0.8,0.23 -1.68,0.35 -2.63,0.35 -1.84,0 -3.39,-0.39 -4.65,-1.17l0 -2.56z"/>
   </g>
  </g>
 </g>
</svg>
