<svg width="497" height="157" xmlns="http://www.w3.org/2000/svg" xmlns:xlink="http://www.w3.org/1999/xlink" xml:space="preserve" overflow="hidden"><g transform="translate(-799 -471)"><path d="M838.34 520.538C839.837 520.538 841.225 520.64 842.502 520.844 843.78 521.047 845.192 521.393 846.738 521.881L845.371 528.156 843.027 528.156C842.962 526.772 842.75 525.686 842.392 524.896 842.034 524.107 841.522 523.541 840.854 523.199 840.187 522.858 839.3 522.687 838.193 522.687 836.842 522.687 835.654 522.963 834.629 523.517 833.603 524.07 832.822 524.823 832.285 525.775 831.748 526.727 831.479 527.789 831.479 528.961 831.479 530.182 831.801 531.252 832.444 532.172 833.086 533.091 834.319 534.178 836.142 535.431 837.737 536.538 838.954 537.526 839.792 538.397 840.63 539.268 841.249 540.192 841.648 541.168 842.046 542.145 842.246 543.276 842.246 544.562 842.246 546.547 841.77 548.309 840.818 549.847 839.865 551.385 838.523 552.574 836.789 553.412 835.056 554.25 833.082 554.669 830.869 554.669 829.372 554.669 827.756 554.547 826.023 554.303 824.289 554.059 822.739 553.75 821.372 553.375L822.837 546.661 825.18 546.661C825.18 548.647 825.64 550.124 826.56 551.093 827.479 552.061 828.899 552.545 830.82 552.545 833.034 552.545 834.775 551.943 836.045 550.739 837.314 549.534 837.949 547.858 837.949 545.709 837.949 544.716 837.774 543.842 837.424 543.085 837.074 542.328 836.545 541.604 835.837 540.912 835.129 540.22 834.108 539.427 832.773 538.531 831.569 537.718 830.568 536.916 829.77 536.127 828.973 535.337 828.338 534.454 827.866 533.478 827.394 532.501 827.158 531.411 827.158 530.206 827.158 528.286 827.622 526.593 828.55 525.128 829.477 523.663 830.788 522.532 832.48 521.735 834.173 520.937 836.126 520.538 838.34 520.538Z" fill-rule="evenodd"/><text fill="#000000" fill-opacity="0" font-family="Arial,Arial_MSFontService,sans-serif" font-size="34.1309" x="821.372" y="550.403">𝑆</text><path d="M858.671 550.126C860.143 550.126 861.499 550.292 862.738 550.624L861.925 554.376 860.182 554.376C860.159 553.535 860.09 552.926 859.974 552.55 859.858 552.173 859.67 551.891 859.41 551.703 859.15 551.515 858.781 551.421 858.306 551.421 857.188 551.421 856.183 551.866 855.292 552.757 854.401 553.648 853.674 554.91 853.109 556.542 852.545 558.175 852.263 559.744 852.263 561.249 852.263 562.378 852.484 563.216 852.927 563.764 853.369 564.312 854.033 564.586 854.919 564.586 855.926 564.586 856.798 564.395 857.534 564.013 858.27 563.631 859.047 563.031 859.866 562.212L860.879 563.224C859.839 564.375 858.79 565.217 857.733 565.748 856.676 566.279 855.539 566.545 854.321 566.545 852.716 566.545 851.499 566.069 850.669 565.117 849.839 564.165 849.424 562.782 849.424 560.967 849.424 559.782 849.645 558.482 850.088 557.065 850.531 555.649 851.178 554.403 852.03 553.33 852.882 552.256 853.879 551.454 855.018 550.923 856.158 550.391 857.376 550.126 858.671 550.126Z" fill-rule="evenodd"/><text fill="#000000" fill-opacity="0" font-family="Arial,Arial_MSFontService,sans-serif" font-size="16.4189" x="849.424" y="564.492">𝑐</text><path d="M882.393 543.414 912.471 543.414 912.471 546.661 882.393 546.661ZM882.393 533.282 912.471 533.282 912.471 536.53 882.393 536.53Z" fill-rule="evenodd"/><text fill="#000000" fill-opacity="0" font-family="Arial,Arial_MSFontService,sans-serif" font-size="13.3789" x="882.393" y="544.989">=</text><path d="M949.109 532.428C947.449 532.428 945.96 533.099 944.642 534.442 943.323 535.785 942.286 537.596 941.529 539.874 940.772 542.153 940.394 544.423 940.394 546.686 940.394 548.378 940.638 549.644 941.126 550.482 941.614 551.32 942.379 551.74 943.421 551.74 944.251 551.74 945.077 551.455 945.899 550.885 946.721 550.315 947.6 549.412 948.536 548.175 949.472 546.938 950.2 545.758 950.721 544.635 951.242 543.512 951.685 542.112 952.051 540.436 952.418 538.759 952.601 537.303 952.601 536.066 952.601 534.796 952.332 533.872 951.795 533.295 951.258 532.717 950.363 532.428 949.109 532.428ZM948.719 530.499C949.744 530.499 950.713 530.621 951.624 530.865 952.536 531.11 953.455 531.525 954.383 532.111L956.629 530.499 958.191 530.89 955.677 542.267C955.498 543.064 955.091 545.074 954.456 548.297 953.789 551.715 953.248 554.132 952.833 555.548 952.418 556.964 951.901 558.254 951.282 559.418 950.664 560.581 949.866 561.595 948.89 562.457 947.913 563.32 946.729 563.987 945.337 564.459 943.946 564.931 942.298 565.167 940.394 565.167 934.241 565.167 931.165 563.377 931.165 559.796 931.165 558.885 931.442 558.055 931.995 557.306 932.549 556.557 933.436 555.768 934.656 554.938L936.414 556.354C936.105 556.728 935.844 557.098 935.633 557.465 935.421 557.831 935.271 558.185 935.181 558.527 935.092 558.868 935.047 559.275 935.047 559.747 935.047 560.968 935.486 561.859 936.365 562.421 937.244 562.982 938.571 563.263 940.345 563.263 942.347 563.263 943.954 562.811 945.167 561.908 946.379 561.005 947.417 559.552 948.279 557.55 949.142 555.548 949.98 552.521 950.794 548.468L950.452 548.395C948.873 550.56 947.409 552.138 946.058 553.131 944.707 554.124 943.25 554.62 941.688 554.62 939.913 554.62 938.534 553.953 937.549 552.618 936.565 551.284 936.072 549.379 936.072 546.906 936.072 544.122 936.618 541.449 937.708 538.885 938.799 536.322 940.312 534.283 942.249 532.77 944.186 531.256 946.343 530.499 948.719 530.499Z" fill-rule="evenodd"/><text fill="#000000" fill-opacity="0" font-family="Arial,Arial_MSFontService,sans-serif" font-size="34.668" x="931.165" y="560.834">𝑔</text><path d="M980.411 536.456C981.046 536.456 981.62 536.607 982.132 536.908 982.645 537.209 983.04 537.628 983.317 538.165 983.593 538.702 983.732 539.305 983.732 539.972 983.732 540.656 983.589 541.266 983.304 541.803 983.019 542.34 982.621 542.755 982.108 543.048 981.595 543.341 981.03 543.488 980.411 543.488 979.793 543.488 979.227 543.341 978.714 543.048 978.202 542.755 977.803 542.34 977.518 541.803 977.233 541.266 977.091 540.656 977.091 539.972 977.091 539.305 977.229 538.702 977.506 538.165 977.783 537.628 978.177 537.209 978.69 536.908 979.203 536.607 979.776 536.456 980.411 536.456Z" fill-rule="evenodd"/><text fill="#000000" fill-opacity="0" font-family="Arial,Arial_MSFontService,sans-serif" font-size="7.03125" x="977.091" y="542.609">∙</text><path d="M1006.48 530.499C1007.51 530.499 1008.32 530.837 1008.91 531.512 1009.51 532.188 1009.8 533.071 1009.8 534.161 1009.8 535.024 1009.61 535.984 1009.22 537.042L1009.51 537.14C1011.11 534.894 1012.62 533.23 1014.06 532.147 1015.5 531.065 1016.99 530.524 1018.52 530.524 1020.03 530.524 1021.2 530.959 1022.01 531.83 1022.82 532.701 1023.23 533.909 1023.23 535.455 1023.23 536.481 1023 537.937 1022.52 539.825L1020.94 546.222C1020.5 547.996 1020.28 549.249 1020.28 549.982 1020.28 550.633 1020.38 551.105 1020.59 551.398 1020.81 551.691 1021.14 551.837 1021.6 551.837 1022.08 551.837 1022.6 551.638 1023.16 551.239 1023.71 550.84 1024.49 550.079 1025.5 548.956L1026.89 550.323C1025.49 551.821 1024.27 552.915 1023.23 553.607 1022.19 554.299 1021 554.645 1019.67 554.645 1018.61 554.645 1017.76 554.266 1017.13 553.51 1016.49 552.753 1016.18 551.788 1016.18 550.616 1016.18 549.559 1016.44 548.004 1016.98 545.953L1018.06 541.73C1018.45 540.2 1018.7 539.069 1018.82 538.336 1018.95 537.604 1019.01 537.01 1019.01 536.554 1019.01 535.431 1018.82 534.621 1018.45 534.125 1018.07 533.628 1017.46 533.38 1016.62 533.38 1015.93 533.38 1015.2 533.653 1014.41 534.198 1013.62 534.743 1012.78 535.565 1011.89 536.664 1011 537.762 1010.29 538.829 1009.76 539.862 1009.22 540.896 1008.78 542.169 1008.44 543.683L1006.12 554.254 1001.89 554.254 1005.46 538.776C1005.82 537.213 1006 536.009 1006 535.162 1006 534.511 1005.89 534.039 1005.68 533.746 1005.47 533.453 1005.13 533.307 1004.68 533.307 1004.17 533.307 1003.64 533.514 1003.08 533.929 1002.52 534.344 1001.75 535.097 1000.77 536.188L999.379 534.821C1000.88 533.258 1002.12 532.147 1003.11 531.488 1004.11 530.829 1005.23 530.499 1006.48 530.499Z" fill-rule="evenodd"/><text fill="#000000" fill-opacity="0" font-family="Arial,Arial_MSFontService,sans-serif" font-size="24.1455" x="999.379" y="551.627">𝑛</text><path d="M1039.37 512.387C1040.62 512.387 1041.69 512.529 1042.58 512.812 1043.46 513.095 1044.18 513.477 1044.74 513.959 1045.29 514.441 1045.69 515.019 1045.94 515.693 1046.18 516.368 1046.31 517.097 1046.31 517.88 1046.31 518.349 1046.27 518.786 1046.21 519.189 1046.14 519.593 1046.03 519.99 1045.87 520.382 1045.7 520.773 1045.49 521.168 1045.22 521.565 1044.96 521.963 1044.63 522.384 1044.23 522.83 1043.93 523.215 1043.54 523.661 1043.06 524.167 1042.57 524.672 1042.05 525.214 1041.48 525.793 1040.9 526.371 1040.3 526.973 1039.68 527.599 1039.05 528.226 1038.44 528.846 1037.85 529.46 1037.26 530.074 1036.72 530.671 1036.23 531.249 1035.73 531.827 1035.33 532.357 1035.02 532.839L1041.7 532.839C1042.27 532.839 1042.72 532.817 1043.06 532.775 1043.39 532.733 1043.67 532.64 1043.9 532.495 1044.12 532.351 1044.31 532.131 1044.47 531.836 1044.62 531.541 1044.8 531.134 1045.01 530.616L1046.69 530.616C1046.63 531.471 1046.57 532.333 1046.52 533.2 1046.46 534.067 1046.4 534.928 1046.34 535.783L1031.04 535.783 1031.04 534.844C1031.33 534.193 1031.67 533.552 1032.05 532.92 1032.44 532.287 1032.87 531.646 1033.35 530.996 1033.84 530.345 1034.38 529.674 1035 528.981 1035.61 528.289 1036.29 527.569 1037.04 526.822 1038.17 525.69 1039.09 524.724 1039.8 523.923 1040.51 523.122 1041.07 522.408 1041.48 521.782 1041.89 521.156 1042.17 520.577 1042.32 520.047 1042.47 519.518 1042.55 518.951 1042.55 518.349 1042.55 517.735 1042.46 517.169 1042.29 516.651 1042.11 516.133 1041.86 515.693 1041.54 515.332 1041.21 514.971 1040.8 514.688 1040.3 514.483 1039.8 514.278 1039.23 514.176 1038.58 514.176 1037.46 514.176 1036.52 514.48 1035.76 515.088 1035 515.696 1034.41 516.579 1033.99 517.735L1031.62 517.735 1031.62 514.212C1033.16 513.574 1034.58 513.11 1035.87 512.821 1037.17 512.532 1038.33 512.387 1039.37 512.387Z" fill-rule="evenodd"/><text fill="#000000" fill-opacity="0" font-family="Arial,Arial_MSFontService,sans-serif" font-size="23.396" x="1031.04" y="532.859">2</text><path d="M1070.22 536.456C1070.86 536.456 1071.43 536.607 1071.94 536.908 1072.46 537.209 1072.85 537.628 1073.13 538.165 1073.4 538.702 1073.54 539.305 1073.54 539.972 1073.54 540.656 1073.4 541.266 1073.11 541.803 1072.83 542.34 1072.43 542.755 1071.92 543.048 1071.41 543.341 1070.84 543.488 1070.22 543.488 1069.6 543.488 1069.04 543.341 1068.52 543.048 1068.01 542.755 1067.61 542.34 1067.33 541.803 1067.04 541.266 1066.9 540.656 1066.9 539.972 1066.9 539.305 1067.04 538.702 1067.32 538.165 1067.59 537.628 1067.99 537.209 1068.5 536.908 1069.01 536.607 1069.59 536.456 1070.22 536.456Z" fill-rule="evenodd"/><text fill="#000000" fill-opacity="0" font-family="Arial,Arial_MSFontService,sans-serif" font-size="7.03125" x="1066.9" y="542.609">∙</text><path d="M1137.26 484.921C1136.25 484.921 1135.19 484.946 1134.09 484.994L1130.77 499.789 1133.31 499.789C1135.27 499.789 1136.87 499.586 1138.08 499.179 1139.29 498.772 1140.28 498.141 1141.06 497.287 1141.83 496.432 1142.43 495.419 1142.85 494.247 1143.27 493.075 1143.49 491.79 1143.49 490.39 1143.49 488.502 1143.01 487.118 1142.05 486.24 1141.09 485.361 1139.49 484.921 1137.26 484.921ZM1127.03 482.773 1137.8 482.773C1139.73 482.773 1141.33 482.923 1142.57 483.224 1143.82 483.525 1144.84 483.989 1145.65 484.616 1146.45 485.243 1147.05 486.036 1147.45 486.996 1147.85 487.957 1148.05 489.072 1148.05 490.341 1148.05 492.782 1147.47 494.898 1146.32 496.689 1145.16 498.479 1143.6 499.797 1141.62 500.644 1139.64 501.49 1137.27 501.913 1134.5 501.913 1132.84 501.913 1131.46 501.881 1130.35 501.816L1128.79 508.993C1128.64 509.661 1128.54 510.173 1128.48 510.531 1128.43 510.89 1128.38 511.276 1128.34 511.691 1128.3 512.106 1128.28 512.477 1128.28 512.802 1128.28 513.307 1128.36 513.701 1128.52 513.986 1128.68 514.271 1128.93 514.478 1129.25 514.609 1129.58 514.739 1130.14 514.836 1130.94 514.902L1130.67 516.098 1120.63 516.098 1120.9 514.902C1121.52 514.804 1121.99 514.645 1122.29 514.426 1122.6 514.206 1122.86 513.901 1123.08 513.51 1123.29 513.119 1123.48 512.643 1123.66 512.082 1123.84 511.52 1124.11 510.434 1124.47 508.823L1128.62 490.024C1128.98 488.396 1129.16 487.11 1129.16 486.166 1129.16 485.369 1128.97 484.815 1128.59 484.506 1128.22 484.197 1127.61 484.018 1126.76 483.969Z" fill-rule="evenodd"/><text fill="#000000" fill-opacity="0" font-family="Arial,Arial_MSFontService,sans-serif" font-size="33.3252" x="1120.63" y="511.932">𝑃</text><path d="M1161.49 511.97C1162.96 511.97 1164.32 512.136 1165.56 512.468L1164.75 516.22 1163 516.22C1162.98 515.378 1162.91 514.77 1162.79 514.393 1162.68 514.017 1162.49 513.735 1162.23 513.547 1161.97 513.359 1161.6 513.264 1161.13 513.264 1160.01 513.264 1159 513.71 1158.11 514.601 1157.22 515.492 1156.49 516.754 1155.93 518.386 1155.37 520.019 1155.08 521.587 1155.08 523.093 1155.08 524.221 1155.3 525.06 1155.75 525.608 1156.19 526.156 1156.85 526.43 1157.74 526.43 1158.75 526.43 1159.62 526.239 1160.35 525.857 1161.09 525.475 1161.87 524.875 1162.69 524.055L1163.7 525.068C1162.66 526.219 1161.61 527.06 1160.55 527.592 1159.5 528.123 1158.36 528.388 1157.14 528.388 1155.54 528.388 1154.32 527.913 1153.49 526.961 1152.66 526.009 1152.24 524.625 1152.24 522.81 1152.24 521.626 1152.47 520.326 1152.91 518.909 1153.35 517.492 1154 516.247 1154.85 515.174 1155.7 514.1 1156.7 513.298 1157.84 512.766 1158.98 512.235 1160.2 511.97 1161.49 511.97Z" fill-rule="evenodd"/><text fill="#000000" fill-opacity="0" font-family="Arial,Arial_MSFontService,sans-serif" font-size="16.4189" x="1152.24" y="526.336">𝑐</text><path d="M1199.03 482.773 1224.52 482.773 1222.61 491.366 1220.27 491.366C1220.27 489.788 1220.23 488.604 1220.15 487.814 1220.06 487.025 1219.91 486.423 1219.68 486.008 1219.45 485.593 1219.17 485.308 1218.84 485.153 1218.51 484.998 1217.92 484.921 1217.07 484.921L1213.46 484.921 1208.16 508.993C1208.01 509.628 1207.91 510.133 1207.85 510.507 1207.8 510.881 1207.75 511.276 1207.71 511.691 1207.67 512.106 1207.65 512.477 1207.65 512.802 1207.65 513.307 1207.73 513.701 1207.89 513.986 1208.05 514.271 1208.3 514.478 1208.62 514.609 1208.95 514.739 1209.51 514.836 1210.31 514.902L1210.04 516.098 1199.76 516.098 1200.03 514.902C1200.68 514.804 1201.16 514.674 1201.47 514.511 1201.78 514.348 1202.05 514.096 1202.29 513.754 1202.52 513.412 1202.76 512.875 1202.99 512.143 1203.23 511.41 1203.51 510.304 1203.84 508.823L1209.06 484.921 1205.96 484.921C1204.95 484.921 1204.15 485.068 1203.54 485.361 1202.94 485.654 1202.34 486.199 1201.74 486.996 1201.13 487.794 1200.4 489.129 1199.54 491L1197.2 491Z" fill-rule="evenodd"/><text fill="#000000" fill-opacity="0" font-family="Arial,Arial_MSFontService,sans-serif" font-size="33.3252" x="1197.2" y="511.932">𝑇</text><path d="M1236.47 511.97C1237.95 511.97 1239.3 512.136 1240.54 512.468L1239.73 516.22 1237.99 516.22C1237.96 515.378 1237.89 514.77 1237.78 514.393 1237.66 514.017 1237.47 513.735 1237.21 513.547 1236.95 513.359 1236.59 513.264 1236.11 513.264 1234.99 513.264 1233.99 513.71 1233.1 514.601 1232.21 515.492 1231.48 516.754 1230.91 518.386 1230.35 520.019 1230.07 521.587 1230.07 523.093 1230.07 524.221 1230.29 525.06 1230.73 525.608 1231.17 526.156 1231.84 526.43 1232.72 526.43 1233.73 526.43 1234.6 526.239 1235.34 525.857 1236.07 525.475 1236.85 524.875 1237.67 524.055L1238.68 525.068C1237.64 526.219 1236.59 527.06 1235.54 527.592 1234.48 528.123 1233.34 528.388 1232.13 528.388 1230.52 528.388 1229.3 527.913 1228.47 526.961 1227.64 526.009 1227.23 524.625 1227.23 522.81 1227.23 521.626 1227.45 520.326 1227.89 518.909 1228.33 517.492 1228.98 516.247 1229.83 515.174 1230.69 514.1 1231.68 513.298 1232.82 512.766 1233.96 512.235 1235.18 511.97 1236.47 511.97Z" fill-rule="evenodd"/><text fill="#000000" fill-opacity="0" font-family="Arial,Arial_MSFontService,sans-serif" font-size="16.4189" x="1227.23" y="526.336">𝑐</text><path d="M1189.52 479.099 1193.26 479.099 1173.29 524.533 1169.5 524.533Z" fill-rule="evenodd"/><text fill="#000000" fill-opacity="0" font-family="Arial,Arial_MSFontService,sans-serif" font-size="45.4346" x="1169.5" y="518.854">Τ</text><path d="M1104.77 571.636C1106.93 571.636 1108.92 571.88 1110.75 572.369L1109.55 577.886 1106.99 577.886C1106.95 576.649 1106.85 575.754 1106.68 575.201 1106.51 574.647 1106.23 574.232 1105.85 573.956 1105.47 573.679 1104.93 573.541 1104.23 573.541 1102.58 573.541 1101.11 574.196 1099.8 575.506 1098.49 576.816 1097.42 578.672 1096.59 581.072 1095.76 583.473 1095.34 585.78 1095.34 587.994 1095.34 589.654 1095.67 590.887 1096.32 591.692 1096.97 592.498 1097.95 592.901 1099.25 592.901 1100.73 592.901 1102.01 592.62 1103.09 592.059 1104.18 591.497 1105.32 590.614 1106.52 589.41L1108.01 590.899C1106.48 592.592 1104.94 593.829 1103.39 594.61 1101.83 595.391 1100.16 595.782 1098.37 595.782 1096.01 595.782 1094.22 595.082 1093 593.682 1091.78 592.282 1091.17 590.248 1091.17 587.579 1091.17 585.837 1091.49 583.925 1092.14 581.841 1092.79 579.758 1093.75 577.927 1095 576.348 1096.25 574.769 1097.72 573.589 1099.39 572.808 1101.07 572.027 1102.86 571.636 1104.77 571.636Z" fill-rule="evenodd"/><text fill="#000000" fill-opacity="0" font-family="Arial,Arial_MSFontService,sans-serif" font-size="24.1455" x="1091.17" y="592.764">𝑐</text><path d="M1125.06 556.823C1126.31 556.823 1127.38 556.964 1128.26 557.247 1129.15 557.53 1129.87 557.913 1130.42 558.395 1130.98 558.876 1131.38 559.454 1131.62 560.129 1131.87 560.803 1131.99 561.532 1131.99 562.315 1131.99 562.785 1131.96 563.221 1131.89 563.625 1131.83 564.028 1131.71 564.426 1131.55 564.817 1131.39 565.209 1131.17 565.603 1130.91 566 1130.64 566.398 1130.31 566.82 1129.92 567.265 1129.61 567.651 1129.22 568.096 1128.74 568.602 1128.26 569.108 1127.73 569.65 1127.16 570.228 1126.59 570.806 1125.99 571.408 1125.36 572.035 1124.74 572.661 1124.13 573.281 1123.54 573.896 1122.95 574.51 1122.41 575.106 1121.91 575.684 1121.42 576.262 1121.01 576.792 1120.7 577.274L1127.39 577.274C1127.95 577.274 1128.4 577.253 1128.74 577.211 1129.08 577.169 1129.36 577.075 1129.58 576.931 1129.8 576.786 1129.99 576.566 1130.15 576.271 1130.31 575.976 1130.49 575.57 1130.69 575.052L1132.37 575.052C1132.31 575.907 1132.26 576.768 1132.2 577.635 1132.15 578.502 1132.09 579.364 1132.03 580.219L1116.73 580.219 1116.73 579.279C1117.02 578.629 1117.35 577.988 1117.74 577.355 1118.12 576.723 1118.56 576.082 1119.04 575.431 1119.52 574.781 1120.07 574.109 1120.68 573.417 1121.3 572.724 1121.98 572.005 1122.73 571.258 1123.86 570.126 1124.78 569.159 1125.49 568.358 1126.2 567.557 1126.76 566.844 1127.17 566.217 1127.58 565.591 1127.86 565.013 1128.01 564.483 1128.16 563.953 1128.24 563.387 1128.24 562.785 1128.24 562.17 1128.15 561.604 1127.97 561.086 1127.8 560.569 1127.55 560.129 1127.22 559.768 1126.9 559.406 1126.49 559.123 1125.99 558.918 1125.49 558.714 1124.91 558.611 1124.26 558.611 1123.14 558.611 1122.2 558.915 1121.44 559.524 1120.68 560.132 1120.09 561.014 1119.67 562.17L1117.31 562.17 1117.31 558.647C1118.85 558.009 1120.27 557.545 1121.56 557.256 1122.85 556.967 1124.02 556.823 1125.06 556.823Z" fill-rule="evenodd"/><text fill="#000000" fill-opacity="0" font-family="Arial,Arial_MSFontService,sans-serif" font-size="23.396" x="1116.73" y="577.294">2</text><path d="M1155.91 577.569C1156.54 577.569 1157.12 577.719 1157.63 578.021 1158.14 578.322 1158.54 578.741 1158.81 579.278 1159.09 579.815 1159.23 580.417 1159.23 581.084 1159.23 581.768 1159.08 582.378 1158.8 582.916 1158.52 583.453 1158.12 583.868 1157.6 584.161 1157.09 584.454 1156.53 584.6 1155.91 584.6 1155.29 584.6 1154.72 584.454 1154.21 584.161 1153.7 583.868 1153.3 583.453 1153.01 582.916 1152.73 582.378 1152.59 581.768 1152.59 581.084 1152.59 580.417 1152.73 579.815 1153 579.278 1153.28 578.741 1153.67 578.322 1154.19 578.021 1154.7 577.719 1155.27 577.569 1155.91 577.569Z" fill-rule="evenodd"/><text fill="#000000" fill-opacity="0" font-family="Arial,Arial_MSFontService,sans-serif" font-size="7.03125" x="1152.59" y="583.721">∙</text><path d="M1223.59 551.25 1272.59 551.25 1272.59 554.25 1226.67 554.25 1226.67 554.815 1222.25 554.815 1209.12 599.688 1206.75 599.688 1196.64 577.959 1192.51 579.79 1191.76 577.959 1199.77 574.297 1208.38 593.242 1220.44 551.568 1223.59 551.568Z" fill-rule="evenodd"/><path d="M1241.6 564.19C1240.73 564.19 1239.82 564.222 1238.86 564.288L1235.74 578.423 1238.62 578.423C1240.98 578.423 1242.84 578.106 1244.21 577.471 1245.58 576.836 1246.66 575.795 1247.46 574.346 1248.25 572.898 1248.65 571.335 1248.65 569.659 1248.65 568.959 1248.59 568.336 1248.46 567.791 1248.33 567.246 1248.16 566.794 1247.94 566.436 1247.73 566.078 1247.46 565.761 1247.14 565.484 1246.81 565.207 1246.41 564.967 1245.92 564.764 1245.43 564.56 1244.86 564.414 1244.22 564.324 1243.58 564.235 1242.7 564.19 1241.6 564.19ZM1231.81 562.042 1242.67 562.042C1244.4 562.042 1245.8 562.143 1246.89 562.347 1247.98 562.55 1248.92 562.855 1249.69 563.262 1250.46 563.669 1251.11 564.194 1251.63 564.837 1252.15 565.48 1252.54 566.204 1252.8 567.01 1253.06 567.815 1253.19 568.674 1253.19 569.585 1253.19 572.092 1252.43 574.224 1250.9 575.982 1249.37 577.74 1247.11 579.074 1244.14 579.986L1244.14 580.254C1244.92 580.84 1245.55 581.54 1246.03 582.354 1246.51 583.168 1246.89 584.299 1247.19 585.748L1247.75 588.58C1247.93 589.475 1248.13 590.28 1248.36 590.997 1248.59 591.713 1248.86 592.282 1249.18 592.706 1249.49 593.129 1249.85 593.446 1250.25 593.658 1250.65 593.869 1251.23 594.04 1252 594.17L1251.75 595.367 1244.99 595.367C1244.47 593.918 1244.01 592.193 1243.6 590.191L1242.52 585.015C1242.34 584.12 1242.13 583.367 1241.88 582.757 1241.62 582.146 1241.32 581.674 1240.97 581.341 1240.62 581.007 1240.22 580.787 1239.75 580.682 1239.29 580.576 1238.72 580.523 1238.06 580.523L1235.27 580.523 1233.56 588.262C1233.42 588.897 1233.32 589.402 1233.26 589.776 1233.2 590.15 1233.15 590.545 1233.11 590.96 1233.07 591.375 1233.05 591.745 1233.05 592.071 1233.05 592.575 1233.13 592.97 1233.3 593.255 1233.46 593.54 1233.7 593.747 1234.03 593.877 1234.35 594.008 1234.91 594.105 1235.71 594.17L1235.44 595.367 1225.41 595.367 1225.68 594.17C1226.3 594.073 1226.76 593.914 1227.07 593.694 1227.38 593.475 1227.64 593.169 1227.85 592.779 1228.06 592.388 1228.26 591.912 1228.44 591.351 1228.62 590.789 1228.88 589.703 1229.24 588.091L1233.39 569.292C1233.75 567.665 1233.93 566.379 1233.93 565.435 1233.93 564.638 1233.74 564.084 1233.37 563.775 1232.99 563.466 1232.38 563.287 1231.54 563.238Z" fill-rule="evenodd"/><text fill="#000000" fill-opacity="0" font-family="Arial,Arial_MSFontService,sans-serif" font-size="33.3252" x="1225.41" y="591.201">𝑅</text><path d="M1267.14 591.238C1268.61 591.238 1269.97 591.404 1271.2 591.736L1270.39 595.488 1268.65 595.488C1268.63 594.647 1268.56 594.038 1268.44 593.662 1268.32 593.286 1268.14 593.004 1267.88 592.815 1267.62 592.627 1267.25 592.533 1266.77 592.533 1265.65 592.533 1264.65 592.979 1263.76 593.87 1262.87 594.761 1262.14 596.022 1261.58 597.655 1261.01 599.287 1260.73 600.856 1260.73 602.361 1260.73 603.49 1260.95 604.329 1261.39 604.876 1261.84 605.424 1262.5 605.698 1263.39 605.698 1264.39 605.698 1265.26 605.507 1266 605.125 1266.74 604.744 1267.51 604.143 1268.33 603.324L1269.35 604.337C1268.31 605.488 1267.26 606.329 1266.2 606.86 1265.14 607.392 1264.01 607.657 1262.79 607.657 1261.18 607.657 1259.97 607.181 1259.14 606.229 1258.31 605.278 1257.89 603.894 1257.89 602.079 1257.89 600.895 1258.11 599.594 1258.55 598.178 1259 596.761 1259.64 595.516 1260.5 594.442 1261.35 593.369 1262.35 592.566 1263.49 592.035 1264.63 591.504 1265.84 591.238 1267.14 591.238Z" fill-rule="evenodd"/><text fill="#000000" fill-opacity="0" font-family="Arial,Arial_MSFontService,sans-serif" font-size="16.4189" x="1257.89" y="605.605">𝑐</text><path d="M1197.61 549.755C1198.6 549.755 1199.52 549.889 1200.37 550.158 1201.21 550.426 1201.89 550.853 1202.41 551.439 1202.92 552.025 1203.17 552.758 1203.17 553.637 1203.17 554.408 1203 555.077 1202.65 555.643 1202.31 556.21 1201.83 556.701 1201.23 557.116 1200.62 557.531 1199.84 557.938 1198.88 558.339L1198.88 558.544C1200.3 558.768 1201.43 559.276 1202.28 560.067 1203.13 560.858 1203.56 561.82 1203.56 562.953 1203.56 563.949 1203.3 564.838 1202.78 565.619 1202.26 566.4 1201.47 567.02 1200.41 567.479 1199.34 567.938 1198.05 568.168 1196.54 568.168 1195.56 568.168 1194.61 568.082 1193.68 567.912 1192.75 567.741 1191.9 567.509 1191.12 567.216L1191.12 564.081 1193.07 564.081C1193.36 564.999 1193.79 565.663 1194.36 566.073 1194.92 566.483 1195.67 566.688 1196.61 566.688 1197.85 566.688 1198.79 566.405 1199.42 565.839 1200.06 565.272 1200.38 564.423 1200.38 563.29 1200.38 562.089 1199.95 561.176 1199.11 560.551 1198.26 559.926 1197.01 559.613 1195.35 559.613L1194.06 559.613 1194.06 558.104C1195.4 558.056 1196.52 557.848 1197.42 557.482 1198.33 557.116 1198.98 556.644 1199.39 556.068 1199.79 555.492 1200 554.833 1200 554.091 1200 553.222 1199.73 552.538 1199.2 552.04 1198.68 551.542 1197.91 551.293 1196.9 551.293 1196.04 551.293 1195.3 551.527 1194.69 551.996 1194.08 552.465 1193.6 553.163 1193.27 554.091L1191.32 554.105 1191.32 551.161C1193.62 550.224 1195.71 549.755 1197.61 549.755Z" fill-rule="evenodd"/><text fill="#000000" fill-opacity="0" font-family="Arial,Arial_MSFontService,sans-serif" font-size="18.4131" x="1191.12" y="565.866">3</text><path d="M1088.59 538.25 1181.09 538.25 1273.59 538.25 1273.59 541.25 1181.09 541.25 1088.59 541.25Z" fill-rule="evenodd"/></g></svg>