<svg width="276" height="140" xmlns="http://www.w3.org/2000/svg" xmlns:xlink="http://www.w3.org/1999/xlink" xml:space="preserve" overflow="hidden"><g transform="translate(-687 -111)"><path d="M731.624 166.377C732.649 166.377 733.459 166.715 734.053 167.39 734.647 168.066 734.944 168.949 734.944 170.039 734.944 170.853 734.79 171.691 734.48 172.554L734.798 172.676C736.393 170.511 737.927 168.924 739.4 167.915 740.873 166.906 742.366 166.402 743.88 166.402 745.068 166.402 746.061 166.491 746.858 166.67L745.686 172.139 743.172 172.139C743.074 171.455 742.936 170.926 742.757 170.552 742.578 170.178 742.366 169.917 742.122 169.771 741.878 169.624 741.569 169.551 741.194 169.551 740.608 169.551 739.969 169.803 739.278 170.308 738.586 170.812 737.809 171.602 736.946 172.676 736.084 173.75 735.396 174.784 734.883 175.777 734.371 176.769 733.943 178.031 733.602 179.561L731.282 190.132 727.059 190.132 730.599 174.653C730.826 173.677 730.973 172.92 731.038 172.383 731.103 171.846 731.136 171.398 731.136 171.04 731.136 170.389 731.03 169.917 730.818 169.624 730.607 169.331 730.273 169.185 729.817 169.185 729.313 169.185 728.78 169.392 728.218 169.807 727.657 170.222 726.888 170.975 725.911 172.066L724.519 170.698C726.017 169.136 727.27 168.025 728.279 167.366 729.288 166.707 730.403 166.377 731.624 166.377ZM700.746 156.807 722.768 156.807 721.083 164.302 718.739 164.302C718.674 163.049 718.572 162.06 718.434 161.336 718.296 160.611 718.1 160.09 717.848 159.773 717.596 159.456 717.291 159.24 716.933 159.126 716.574 159.012 716.037 158.955 715.321 158.955L707.802 158.955 704.896 172.236 709.462 172.236C710.178 172.236 710.772 172.139 711.244 171.944 711.716 171.748 712.156 171.394 712.562 170.882 712.969 170.369 713.474 169.494 714.076 168.257L716.298 168.257 713.93 178.56 711.781 178.56C711.781 176.916 711.728 175.886 711.622 175.471 711.517 175.056 711.313 174.771 711.012 174.617 710.711 174.462 710.113 174.385 709.218 174.385L704.433 174.385 702.504 183.027C702.162 184.557 701.991 185.827 701.991 186.836 701.991 187.341 702.073 187.735 702.235 188.02 702.398 188.305 702.642 188.513 702.968 188.643 703.293 188.773 703.855 188.871 704.652 188.936L704.384 190.132 694.35 190.132 694.618 188.936C695.237 188.838 695.7 188.679 696.01 188.46 696.319 188.24 696.579 187.935 696.791 187.544 697.003 187.153 697.198 186.677 697.377 186.116 697.556 185.554 697.824 184.468 698.183 182.857L702.333 164.058C702.691 162.43 702.87 161.144 702.87 160.2 702.87 159.403 702.683 158.849 702.309 158.54 701.934 158.231 701.324 158.052 700.477 158.003Z" fill-rule="evenodd"/><text fill="#000000" fill-opacity="0" font-family="Arial,Arial_MSFontService,sans-serif" font-size="33.3252" x="694.35" y="185.966">𝐹𝑟</text><path d="M766.469 179.292 796.547 179.292 796.547 182.539 766.469 182.539ZM766.469 169.16 796.547 169.16 796.547 172.407 766.469 172.407Z" fill-rule="evenodd"/><text fill="#000000" fill-opacity="0" font-family="Arial,Arial_MSFontService,sans-serif" font-size="13.3789" x="766.469" y="180.867">=</text><path d="M871.615 118.651 881.722 118.651 881.453 119.847C880.737 119.928 880.18 120.14 879.781 120.482 879.382 120.823 879.102 121.299 878.939 121.91 878.776 122.52 878.695 123.338 878.695 124.363 878.695 124.608 878.719 125.34 878.768 126.561L879.451 144.432 879.451 146.385 879.696 146.385 890.267 127.318C890.885 126.195 891.349 125.23 891.659 124.424 891.968 123.619 892.122 122.907 892.122 122.288 892.122 120.921 891.309 120.107 889.681 119.847L889.95 118.651 899.935 118.651 899.666 119.847C899.227 119.912 898.808 120.079 898.409 120.347 898.01 120.616 897.563 121.063 897.066 121.69 896.57 122.317 895.801 123.525 894.759 125.316L879.134 152.366 875.887 152.366 874.251 125.145C874.186 124.087 874.068 123.179 873.897 122.423 873.726 121.666 873.458 121.076 873.092 120.653 872.725 120.229 872.144 119.961 871.346 119.847Z" fill-rule="evenodd"/><text fill="#000000" fill-opacity="0" font-family="Arial,Arial_MSFontService,sans-serif" font-size="33.7158" x="871.346" y="148.152">𝑉</text><path d="M851.931 187.138 904.431 187.138 956.931 187.138 956.931 190.138 904.431 190.138 853.473 190.138 853.473 190.7 848.59 190.7 832.721 249.538 830.353 249.538 820.245 227.809 816.119 229.64 815.362 227.809 823.37 224.147 831.818 242.995 846.637 187.453 851.931 187.453Z" fill-rule="evenodd"/><path d="M870.63 211.114C868.97 211.114 867.481 211.786 866.163 213.128 864.844 214.471 863.807 216.282 863.05 218.56 862.293 220.839 861.915 223.11 861.915 225.372 861.915 227.065 862.159 228.33 862.647 229.168 863.135 230.007 863.9 230.426 864.942 230.426 865.772 230.426 866.598 230.141 867.42 229.571 868.242 229.002 869.121 228.098 870.057 226.861 870.993 225.624 871.721 224.444 872.242 223.321 872.763 222.198 873.206 220.798 873.572 219.122 873.939 217.446 874.122 215.989 874.122 214.752 874.122 213.482 873.853 212.559 873.316 211.981 872.779 211.403 871.884 211.114 870.63 211.114ZM870.24 209.185C871.265 209.185 872.234 209.308 873.145 209.552 874.057 209.796 874.976 210.211 875.904 210.797L878.15 209.185 879.713 209.576 877.198 220.953C877.019 221.751 876.612 223.761 875.977 226.983 875.31 230.401 874.769 232.818 874.354 234.234 873.939 235.65 873.422 236.94 872.803 238.104 872.185 239.268 871.387 240.281 870.411 241.143 869.434 242.006 868.25 242.673 866.859 243.145 865.467 243.617 863.819 243.853 861.915 243.853 855.762 243.853 852.686 242.063 852.686 238.482 852.686 237.571 852.963 236.741 853.516 235.992 854.07 235.243 854.957 234.454 856.177 233.624L857.935 235.04C857.626 235.414 857.366 235.785 857.154 236.151 856.942 236.517 856.792 236.871 856.702 237.213 856.613 237.555 856.568 237.961 856.568 238.433 856.568 239.654 857.007 240.545 857.886 241.107 858.765 241.668 860.092 241.949 861.866 241.949 863.868 241.949 865.475 241.497 866.688 240.594 867.9 239.691 868.938 238.238 869.8 236.236 870.663 234.234 871.501 231.207 872.315 227.154L871.973 227.081C870.394 229.246 868.93 230.824 867.579 231.817 866.228 232.81 864.771 233.307 863.209 233.307 861.435 233.307 860.055 232.639 859.07 231.305 858.086 229.97 857.593 228.066 857.593 225.592 857.593 222.808 858.139 220.135 859.229 217.572 860.32 215.008 861.833 212.97 863.77 211.456 865.707 209.942 867.864 209.185 870.24 209.185Z" fill-rule="evenodd"/><text fill="#000000" fill-opacity="0" font-family="Arial,Arial_MSFontService,sans-serif" font-size="34.668" x="852.686" y="239.52">𝑔</text><path d="M901.932 215.142C902.567 215.142 903.141 215.293 903.654 215.594 904.166 215.895 904.561 216.314 904.838 216.851 905.114 217.389 905.253 217.991 905.253 218.658 905.253 219.342 905.11 219.952 904.825 220.489 904.541 221.026 904.142 221.441 903.629 221.734 903.116 222.027 902.551 222.174 901.932 222.174 901.314 222.174 900.748 222.027 900.236 221.734 899.723 221.441 899.324 221.026 899.039 220.489 898.754 219.952 898.612 219.342 898.612 218.658 898.612 217.991 898.75 217.389 899.027 216.851 899.304 216.314 899.698 215.895 900.211 215.594 900.724 215.293 901.298 215.142 901.932 215.142Z" fill-rule="evenodd"/><text fill="#000000" fill-opacity="0" font-family="Arial,Arial_MSFontService,sans-serif" font-size="7.03125" x="898.612" y="221.295">∙</text><path d="M937.428 201.739C936.712 201.739 935.939 201.764 935.109 201.812L928.786 230.694C929.258 230.743 930.161 230.767 931.496 230.767 934.133 230.767 936.37 230.308 938.21 229.388 940.049 228.468 941.636 227.028 942.97 225.067 944.305 223.106 945.29 221.038 945.924 218.866 946.559 216.693 946.877 214.402 946.877 211.993 946.877 208.591 946.083 206.032 944.496 204.315 942.909 202.598 940.553 201.739 937.428 201.739ZM928.102 199.615 937.355 199.615C939.813 199.615 941.807 199.802 943.337 200.177 944.867 200.551 946.295 201.226 947.621 202.203 948.948 203.18 949.945 204.478 950.612 206.097 951.279 207.717 951.613 209.633 951.613 211.847 951.613 214.044 951.361 216.143 950.856 218.145 950.352 220.147 949.627 221.991 948.683 223.675 947.739 225.36 946.608 226.825 945.29 228.07 943.971 229.315 942.694 230.271 941.457 230.938 940.22 231.606 938.836 232.106 937.306 232.44 935.776 232.773 933.994 232.94 931.96 232.94L921.706 232.94 921.974 231.744C922.593 231.646 923.057 231.488 923.366 231.268 923.675 231.048 923.936 230.743 924.147 230.352 924.359 229.962 924.554 229.486 924.733 228.924 924.912 228.363 925.181 227.276 925.539 225.665L929.689 206.866C930.047 205.238 930.226 203.928 930.226 202.935 930.226 202.17 930.035 201.637 929.653 201.336 929.27 201.035 928.664 200.86 927.834 200.811Z" fill-rule="evenodd"/><text fill="#000000" fill-opacity="0" font-family="Arial,Arial_MSFontService,sans-serif" font-size="33.3252" x="921.706" y="228.775">𝐷</text><path d="M814.931 174.138 862.264 174.138 909.598 174.138 956.931 174.138 956.931 177.138 909.598 177.138 862.264 177.138 814.931 177.138Z" fill-rule="evenodd"/></g></svg>