<svg width="145" height="114" xmlns="http://www.w3.org/2000/svg" xmlns:xlink="http://www.w3.org/1999/xlink" xml:space="preserve" overflow="hidden"><g transform="translate(-195 -675)"><path d="M217.366 723.332C216.65 723.332 215.877 723.357 215.047 723.405L208.724 752.287C209.196 752.336 210.099 752.361 211.434 752.361 214.07 752.361 216.308 751.901 218.147 750.981 219.987 750.062 221.574 748.621 222.908 746.66 224.243 744.699 225.228 742.632 225.862 740.459 226.497 738.286 226.814 735.995 226.814 733.586 226.814 730.184 226.021 727.625 224.434 725.908 222.847 724.191 220.491 723.332 217.366 723.332ZM208.04 721.208 217.293 721.208C219.751 721.208 221.744 721.395 223.274 721.77 224.804 722.144 226.233 722.82 227.559 723.796 228.886 724.773 229.882 726.071 230.55 727.69 231.217 729.31 231.551 731.226 231.551 733.44 231.551 735.637 231.298 737.737 230.794 739.738 230.289 741.74 229.565 743.584 228.621 745.268 227.677 746.953 226.546 748.418 225.228 749.663 223.909 750.908 222.632 751.864 221.395 752.531 220.158 753.199 218.774 753.699 217.244 754.033 215.714 754.367 213.932 754.533 211.897 754.533L201.644 754.533 201.912 753.337C202.531 753.239 202.994 753.081 203.304 752.861 203.613 752.641 203.873 752.336 204.085 751.945 204.297 751.555 204.492 751.079 204.671 750.517 204.85 749.956 205.118 748.869 205.477 747.258L209.627 728.459C209.985 726.832 210.164 725.521 210.164 724.529 210.164 723.764 209.973 723.23 209.59 722.929 209.208 722.628 208.602 722.453 207.771 722.404Z" fill-rule="evenodd"/><text fill="#000000" fill-opacity="0" font-family="Arial,Arial_MSFontService,sans-serif" font-size="33.3252" x="201.644" y="750.368">𝐷</text><path d="M254.26 743.694 284.339 743.694 284.339 746.941 254.26 746.941ZM254.26 733.562 284.339 733.562 284.339 736.809 254.26 736.809Z" fill-rule="evenodd"/><text fill="#000000" fill-opacity="0" font-family="Arial,Arial_MSFontService,sans-serif" font-size="13.3789" x="254.26" y="745.268">=</text><path d="M322.734 687.813 314.043 703.194 323.589 703.194 323.174 695.332C323.125 694.258 323.084 692.915 323.052 691.304 323.019 689.693 323.003 688.529 323.003 687.813ZM322.881 682.661 326.567 682.661 328.325 709.883C328.407 711.169 328.553 712.174 328.765 712.898 328.976 713.622 329.265 714.16 329.631 714.509 329.998 714.859 330.531 715.083 331.231 715.181L330.962 716.377 320.806 716.377 321.074 715.181C322.035 715.099 322.751 714.725 323.223 714.058 323.695 713.391 323.931 712.219 323.931 710.542 323.931 709.907 323.906 709.216 323.857 708.467L323.687 705.318 312.944 705.318 311.602 707.71C310.967 708.833 310.503 709.798 310.21 710.603 309.917 711.409 309.771 712.121 309.771 712.739 309.771 714.107 310.592 714.92 312.236 715.181L311.968 716.377 301.982 716.377 302.251 715.181C302.756 715.116 303.232 714.916 303.679 714.583 304.127 714.249 304.603 713.745 305.107 713.069 305.612 712.394 306.32 711.275 307.232 709.712Z" fill-rule="evenodd"/><text fill="#000000" fill-opacity="0" font-family="Arial,Arial_MSFontService,sans-serif" font-size="33.7158" x="301.982" y="712.163">𝐴</text><path d="M306.482 754.942 331.97 754.942 330.066 763.535 327.722 763.535C327.722 761.956 327.681 760.772 327.6 759.983 327.518 759.194 327.364 758.591 327.136 758.176 326.908 757.761 326.627 757.477 326.294 757.322 325.96 757.167 325.37 757.09 324.524 757.09L320.91 757.09 315.612 781.162C315.466 781.797 315.364 782.302 315.307 782.676 315.25 783.05 315.201 783.445 315.161 783.86 315.12 784.275 315.1 784.645 315.1 784.971 315.1 785.475 315.181 785.87 315.344 786.155 315.507 786.44 315.751 786.647 316.076 786.777 316.402 786.908 316.963 787.005 317.761 787.07L317.492 788.267 307.214 788.267 307.483 787.07C308.134 786.973 308.614 786.843 308.923 786.68 309.232 786.517 309.505 786.265 309.741 785.923 309.977 785.581 310.213 785.044 310.449 784.312 310.685 783.579 310.966 782.472 311.291 780.991L316.516 757.09 313.415 757.09C312.406 757.09 311.6 757.236 310.998 757.529 310.396 757.822 309.794 758.368 309.192 759.165 308.589 759.963 307.857 761.297 306.994 763.169L304.651 763.169Z" fill-rule="evenodd"/><text fill="#000000" fill-opacity="0" font-family="Arial,Arial_MSFontService,sans-serif" font-size="33.3252" x="304.651" y="784.101">𝑇</text><path d="M301.844 738.531 333.844 738.531 333.844 741.531 301.844 741.531Z" fill-rule="evenodd"/></g></svg>