<?xml version="1.0" encoding="UTF-8"?>
<!DOCTYPE svg PUBLIC "-//W3C//DTD SVG 1.1//EN" "http://www.w3.org/Graphics/SVG/1.1/DTD/svg11.dtd">
<!-- Creator: CorelDRAW -->
<svg xmlns="http://www.w3.org/2000/svg" xml:space="preserve" width="300px" height="300px" version="1.1" style="shape-rendering:geometricPrecision; text-rendering:geometricPrecision; image-rendering:optimizeQuality; fill-rule:evenodd; clip-rule:evenodd"
viewBox="0 0 404 404"
 xmlns:xlink="http://www.w3.org/1999/xlink"
 xmlns:xodm="http://www.corel.com/coreldraw/odm/2003">
 <defs>
  <style type="text/css">
   <![CDATA[
    .str0 {stroke:#FCA706;stroke-width:13.83;stroke-miterlimit:16.3804}
    .fil0 {fill:#1A1A1A}
    .fil1 {fill:#FCA706;fill-rule:nonzero}
   ]]>
  </style>
 </defs>
 <g id="Capa_x0020_1">
  <metadata id="CorelCorpID_0Corel-Layer"/>
  <circle class="fil0" cx="202" cy="202" r="202"/>
  <g id="_3087908398448">
   <path class="fil1 str0" d="M369.04 205.33c-13.29,1.62 -19.91,10.73 -19.91,27.33l0 31.19c0,10.69 -2.76,18.4 -8.29,23.06 -5.52,4.63 -13.72,7.14 -24.6,7.49l0 -8.82c7.06,-0.35 12.24,-2.18 15.57,-5.55 3.29,-3.37 4.95,-9.79 4.95,-19.22l0 -28.98c0,-16.45 6.23,-26.28 18.68,-29.51l0 -0.43c-12.45,-3.15 -18.68,-12.48 -18.68,-27.93l0 -30.77c0,-9.43 -1.66,-15.85 -4.95,-19.22 -3.33,-3.37 -8.51,-5.2 -15.57,-5.55l0 -8.82c10.88,0.35 19.08,2.86 24.6,7.49 5.53,4.66 8.29,12.37 8.29,23.06l0 32.98c0,15.5 6.62,23.99 19.91,25.54l0 6.66z"/>
   <path class="fil1 str0" d="M87.89 294.4c-10.88,-0.35 -19.08,-2.86 -24.6,-7.56 -5.53,-4.7 -8.29,-12.37 -8.29,-22.99l0 -31.19c0,-16.6 -6.66,-25.71 -20.04,-27.33l0 -6.66c13.38,-1.55 20.04,-10.04 20.04,-25.54l0 -32.98c0,-10.62 2.76,-18.29 8.29,-22.99 5.52,-4.7 13.72,-7.21 24.6,-7.56l0 8.82c-7.54,0.35 -12.85,2.33 -15.92,5.98 -3.07,3.63 -4.6,9.9 -4.6,18.79l0 30.77c0,15.56 -6.23,24.85 -18.64,27.93l0 0.43c12.41,3.23 18.64,13.06 18.64,29.51l0 28.98c0,8.89 1.53,15.16 4.6,18.79 3.07,3.65 8.38,5.63 15.92,5.98l0 8.82z"/>
   <path class="fil1 str0" d="M234.82 277.33l-22.67 -43.22c-2.26,-4.31 -4.41,-7.86 -6.53,-10.73 -2.08,-2.91 -4.27,-5.2 -6.49,-6.92 -2.22,-1.69 -4.63,-2.94 -7.17,-3.66 -2.59,-0.76 -5.42,-1.11 -8.58,-1.11l-16.57 0 0 65.64 -13.99 0 0 -150.66 43.37 0c5.67,0 11.15,0.82 16.46,2.51 5.28,1.68 9.98,4.16 14.1,7.46 4.13,3.3 7.46,7.43 9.94,12.38 2.47,4.98 3.73,10.76 3.73,17.32 0,5.31 -0.79,10.23 -2.4,14.71 -1.62,4.45 -3.91,8.43 -6.89,11.91 -2.98,3.44 -6.57,6.39 -10.8,8.79 -4.27,2.44 -9.04,4.23 -14.35,5.42l0 0.43c2.05,0.82 3.88,1.93 5.56,3.26 1.69,1.33 3.3,2.94 4.88,4.84 1.58,1.87 3.12,4.06 4.66,6.5 1.55,2.47 3.16,5.27 4.81,8.43l25.29 46.7 -16.36 0zm-68.01 -137.75l0 59.41 24.97 0c5.05,0 9.65,-0.72 13.84,-2.19 4.2,-1.47 7.79,-3.59 10.77,-6.32 2.97,-2.69 5.27,-5.99 6.92,-9.82 1.65,-3.84 2.47,-8.18 2.47,-12.99 0,-8.75 -2.79,-15.6 -8.43,-20.59 -5.63,-4.99 -13.77,-7.5 -24.43,-7.5l-26.11 0z"/>
  </g>
 </g>
</svg>
