<svg width="416" height="104" xmlns="http://www.w3.org/2000/svg" xmlns:xlink="http://www.w3.org/1999/xlink" xml:space="preserve" overflow="hidden"><g transform="translate(-158 -106)"><path d="M190.69 142.948C188.932 142.948 187.292 143.574 185.77 144.828 184.248 146.081 182.914 147.871 181.766 150.199 180.619 152.526 179.728 155.082 179.093 157.865 178.458 160.648 178.141 163.106 178.141 165.238 178.141 170.267 179.972 172.782 183.634 172.782 185.896 172.782 187.971 171.728 189.859 169.62 191.747 167.512 193.269 164.595 194.425 160.868 195.58 157.14 196.158 153.657 196.158 150.418 196.158 147.993 195.711 146.142 194.815 144.864 193.92 143.587 192.545 142.948 190.69 142.948ZM190.958 140.799C194.099 140.799 196.52 141.711 198.221 143.534 199.922 145.357 200.773 147.993 200.773 151.444 200.773 153.722 200.414 156.27 199.698 159.085 198.982 161.901 197.997 164.387 196.744 166.544 195.491 168.7 194.038 170.438 192.386 171.756 190.734 173.075 188.94 173.986 187.003 174.491 187.377 175.679 187.727 176.659 188.053 177.433 188.378 178.206 188.692 178.832 188.993 179.312 189.294 179.793 189.591 180.151 189.884 180.387 190.177 180.623 190.47 180.781 190.763 180.863 191.056 180.944 191.398 180.985 191.788 180.985 192.407 180.985 193.033 180.806 193.668 180.448 194.303 180.09 195.011 179.471 195.792 178.592L197.062 179.959C195.759 181.375 194.547 182.376 193.424 182.962 192.301 183.548 191.145 183.841 189.957 183.841 188.606 183.841 187.503 183.54 186.649 182.938 185.794 182.336 185.054 181.375 184.427 180.057 183.801 178.739 183.194 177.013 182.608 174.881 179.662 174.719 177.416 173.742 175.87 171.952 174.324 170.161 173.551 167.638 173.551 164.383 173.551 161.942 173.962 159.183 174.784 156.107 175.606 153.031 176.794 150.317 178.348 147.965 179.903 145.613 181.758 143.831 183.915 142.618 186.071 141.406 188.419 140.799 190.958 140.799Z" fill-rule="evenodd"/><text fill="#000000" fill-opacity="0" font-family="Arial,Arial_MSFontService,sans-serif" font-size="43.042" x="173.551" y="178.461">𝑄</text><path d="M223.461 163.675 253.54 163.675 253.54 166.922 223.461 166.922ZM223.461 153.543 253.54 153.543 253.54 156.79 223.461 156.79Z" fill-rule="evenodd"/><text fill="#000000" fill-opacity="0" font-family="Arial,Arial_MSFontService,sans-serif" font-size="13.3789" x="223.461" y="165.25">=</text><path d="M290.161 112.628C292.326 112.628 294.319 112.873 296.142 113.361L294.946 118.878 292.382 118.878C292.35 117.641 292.248 116.746 292.077 116.193 291.906 115.639 291.63 115.224 291.247 114.948 290.865 114.671 290.324 114.533 289.624 114.533 287.98 114.533 286.503 115.188 285.193 116.498 283.882 117.808 282.812 119.664 281.982 122.064 281.152 124.465 280.737 126.772 280.737 128.986 280.737 130.646 281.062 131.879 281.714 132.685 282.365 133.49 283.341 133.893 284.643 133.893 286.124 133.893 287.406 133.612 288.488 133.051 289.571 132.489 290.714 131.606 291.919 130.402L293.408 131.891C291.878 133.584 290.336 134.821 288.781 135.602 287.227 136.383 285.555 136.774 283.764 136.774 281.404 136.774 279.614 136.074 278.393 134.674 277.173 133.275 276.562 131.24 276.562 128.571 276.562 126.829 276.888 124.917 277.539 122.833 278.19 120.75 279.142 118.919 280.395 117.34 281.648 115.762 283.113 114.582 284.79 113.8 286.466 113.019 288.257 112.628 290.161 112.628Z" fill-rule="evenodd"/><text fill="#000000" fill-opacity="0" font-family="Arial,Arial_MSFontService,sans-serif" font-size="24.1455" x="276.562" y="133.756">𝑐</text><path d="M279.191 184.494C280.217 184.494 281.026 184.831 281.62 185.507 282.214 186.182 282.512 187.065 282.512 188.156 282.512 189.018 282.316 189.979 281.926 191.037L282.219 191.134C283.814 188.888 285.331 187.224 286.772 186.141 288.212 185.059 289.697 184.518 291.227 184.518 292.741 184.518 293.905 184.953 294.719 185.824 295.532 186.695 295.939 187.903 295.939 189.45 295.939 190.475 295.703 191.932 295.231 193.82L293.644 200.216C293.205 201.99 292.985 203.244 292.985 203.976 292.985 204.627 293.091 205.099 293.303 205.392 293.514 205.685 293.848 205.831 294.303 205.831 294.792 205.831 295.313 205.632 295.866 205.233 296.419 204.835 297.201 204.074 298.21 202.951L299.601 204.318C298.202 205.815 296.981 206.91 295.939 207.601 294.898 208.293 293.709 208.639 292.375 208.639 291.317 208.639 290.47 208.261 289.836 207.504 289.201 206.747 288.884 205.783 288.884 204.611 288.884 203.553 289.152 201.998 289.689 199.948L290.763 195.724C291.154 194.194 291.41 193.063 291.533 192.33 291.655 191.598 291.716 191.004 291.716 190.548 291.716 189.425 291.528 188.615 291.154 188.119 290.78 187.623 290.169 187.374 289.323 187.374 288.639 187.374 287.903 187.647 287.114 188.192 286.324 188.738 285.486 189.559 284.599 190.658 283.712 191.757 283 192.823 282.463 193.856 281.926 194.89 281.486 196.163 281.144 197.677L278.825 208.248 274.601 208.248 278.166 192.77C278.524 191.207 278.703 190.003 278.703 189.157 278.703 188.506 278.597 188.034 278.386 187.741 278.174 187.448 277.84 187.301 277.385 187.301 276.88 187.301 276.347 187.509 275.785 187.924 275.224 188.339 274.455 189.092 273.478 190.182L272.087 188.815C273.584 187.252 274.829 186.141 275.822 185.482 276.815 184.823 277.938 184.494 279.191 184.494Z" fill-rule="evenodd"/><text fill="#000000" fill-opacity="0" font-family="Arial,Arial_MSFontService,sans-serif" font-size="24.1455" x="272.087" y="205.621">𝑛</text><path d="M271.063 158.513 301.063 158.513 301.063 161.513 271.063 161.513Z" fill-rule="evenodd"/><path d="M325.031 156.717C325.666 156.717 326.24 156.868 326.753 157.169 327.265 157.47 327.66 157.889 327.937 158.426 328.213 158.963 328.352 159.566 328.352 160.233 328.352 160.916 328.209 161.527 327.924 162.064 327.64 162.601 327.241 163.016 326.728 163.309 326.216 163.602 325.65 163.749 325.031 163.749 324.413 163.749 323.847 163.602 323.335 163.309 322.822 163.016 322.423 162.601 322.138 162.064 321.854 161.527 321.711 160.916 321.711 160.233 321.711 159.566 321.849 158.963 322.126 158.426 322.403 157.889 322.798 157.47 323.31 157.169 323.823 156.868 324.397 156.717 325.031 156.717Z" fill-rule="evenodd"/><text fill="#000000" fill-opacity="0" font-family="Arial,Arial_MSFontService,sans-serif" font-size="7.03125" x="321.711" y="162.87">∙</text><path d="M360.991 143.338C360.129 143.338 359.217 143.371 358.257 143.436L355.132 157.572 358.013 157.572C360.373 157.572 362.237 157.254 363.604 156.62 364.971 155.985 366.053 154.943 366.851 153.495 367.648 152.046 368.047 150.484 368.047 148.807 368.047 148.107 367.982 147.485 367.852 146.939 367.722 146.394 367.551 145.943 367.339 145.584 367.127 145.226 366.859 144.909 366.533 144.632 366.208 144.356 365.801 144.116 365.313 143.912 364.824 143.709 364.259 143.562 363.616 143.473 362.973 143.383 362.098 143.338 360.991 143.338ZM351.201 141.19 362.066 141.19C363.791 141.19 365.199 141.292 366.289 141.495 367.38 141.699 368.312 142.004 369.085 142.411 369.858 142.818 370.505 143.342 371.026 143.985 371.546 144.628 371.937 145.353 372.197 146.158 372.458 146.964 372.588 147.822 372.588 148.734 372.588 151.24 371.823 153.373 370.293 155.13 368.763 156.888 366.509 158.223 363.53 159.134L363.53 159.403C364.312 159.989 364.942 160.689 365.423 161.502 365.903 162.316 366.289 163.447 366.582 164.896L367.144 167.728C367.323 168.623 367.526 169.429 367.754 170.145 367.982 170.861 368.255 171.431 368.572 171.854 368.889 172.277 369.247 172.595 369.646 172.806 370.045 173.018 370.627 173.189 371.392 173.319L371.148 174.515 364.385 174.515C363.864 173.067 363.4 171.341 362.993 169.339L361.919 164.164C361.74 163.268 361.524 162.516 361.272 161.905 361.02 161.295 360.719 160.823 360.369 160.489 360.019 160.156 359.612 159.936 359.148 159.83 358.684 159.724 358.119 159.671 357.451 159.671L354.668 159.671 352.959 167.411C352.813 168.045 352.711 168.55 352.654 168.924 352.597 169.299 352.548 169.693 352.508 170.108 352.467 170.523 352.446 170.894 352.446 171.219 352.446 171.724 352.528 172.118 352.691 172.403 352.853 172.688 353.098 172.896 353.423 173.026 353.749 173.156 354.31 173.254 355.108 173.319L354.839 174.515 344.805 174.515 345.073 173.319C345.692 173.221 346.156 173.062 346.465 172.843 346.774 172.623 347.035 172.318 347.246 171.927 347.458 171.537 347.653 171.061 347.832 170.499 348.011 169.937 348.28 168.851 348.638 167.24L352.788 148.441C353.146 146.813 353.325 145.527 353.325 144.583 353.325 143.786 353.138 143.233 352.764 142.923 352.389 142.614 351.779 142.435 350.933 142.386Z" fill-rule="evenodd"/><text fill="#000000" fill-opacity="0" font-family="Arial,Arial_MSFontService,sans-serif" font-size="33.3252" x="344.805" y="170.349">𝑅</text><path d="M387.795 132.648C389.047 132.648 390.116 132.79 391.002 133.073 391.887 133.356 392.606 133.738 393.16 134.22 393.715 134.702 394.115 135.28 394.362 135.954 394.609 136.629 394.732 137.358 394.732 138.14 394.732 138.61 394.699 139.047 394.633 139.45 394.567 139.854 394.452 140.251 394.29 140.643 394.127 141.034 393.913 141.429 393.648 141.826 393.383 142.223 393.052 142.645 392.655 143.091 392.353 143.476 391.962 143.922 391.48 144.428 390.999 144.933 390.472 145.475 389.899 146.054 389.327 146.632 388.728 147.234 388.102 147.86 387.476 148.486 386.867 149.107 386.277 149.721 385.687 150.335 385.145 150.931 384.651 151.51 384.157 152.088 383.754 152.618 383.441 153.099L390.125 153.099C390.691 153.099 391.143 153.078 391.48 153.036 391.818 152.994 392.098 152.901 392.32 152.756 392.543 152.612 392.733 152.392 392.889 152.097 393.046 151.802 393.227 151.395 393.431 150.877L395.112 150.877C395.051 151.732 394.994 152.594 394.94 153.461 394.886 154.328 394.829 155.189 394.768 156.044L379.466 156.044 379.466 155.105C379.755 154.454 380.092 153.813 380.478 153.181 380.863 152.548 381.297 151.907 381.779 151.257 382.26 150.606 382.808 149.935 383.423 149.242 384.037 148.55 384.717 147.83 385.464 147.083 386.596 145.951 387.518 144.985 388.228 144.184 388.939 143.383 389.499 142.669 389.909 142.043 390.318 141.417 390.598 140.838 390.749 140.308 390.899 139.778 390.974 139.212 390.974 138.61 390.974 137.996 390.887 137.43 390.712 136.912 390.538 136.394 390.288 135.954 389.963 135.593 389.638 135.232 389.225 134.949 388.725 134.744 388.225 134.539 387.65 134.437 387 134.437 385.88 134.437 384.94 134.741 384.181 135.349 383.423 135.957 382.832 136.84 382.411 137.996L380.044 137.996 380.044 134.473C381.586 133.835 383.004 133.371 384.299 133.082 385.594 132.793 386.759 132.648 387.795 132.648Z" fill-rule="evenodd"/><text fill="#000000" fill-opacity="0" font-family="Arial,Arial_MSFontService,sans-serif" font-size="23.396" x="379.466" y="153.12">2</text><path d="M412.499 130.191 415.299 130.191 402.255 163.813 399.419 163.813Z" fill-rule="evenodd"/><text fill="#000000" fill-opacity="0" font-family="Arial,Arial_MSFontService,sans-serif" font-size="33.6216" x="399.419" y="159.61">/</text><path d="M427.084 132.648C428.047 132.648 428.947 132.751 429.785 132.955 430.622 133.16 431.347 133.47 431.962 133.886 432.576 134.301 433.055 134.819 433.398 135.44 433.741 136.06 433.913 136.779 433.913 137.598 433.913 138.369 433.804 139.05 433.588 139.64 433.371 140.23 433.036 140.766 432.585 141.248 432.133 141.73 431.579 142.166 430.923 142.558 430.266 142.949 429.511 143.326 428.655 143.687L428.655 143.904C429.462 144.048 430.215 144.28 430.914 144.599 431.612 144.918 432.224 145.322 432.747 145.81 433.271 146.297 433.684 146.861 433.985 147.499 434.286 148.137 434.437 148.842 434.437 149.613 434.437 150.576 434.256 151.47 433.895 152.295 433.533 153.121 432.991 153.834 432.269 154.436 431.546 155.039 430.655 155.508 429.595 155.846 428.535 156.183 427.294 156.351 425.873 156.351 424.753 156.351 423.615 156.24 422.459 156.017 421.302 155.794 420.206 155.502 419.171 155.141L419.171 151.239 421.501 151.239C421.694 151.841 421.923 152.356 422.188 152.783 422.453 153.211 422.763 153.56 423.118 153.831 423.473 154.102 423.883 154.298 424.347 154.418 424.81 154.539 425.337 154.599 425.927 154.599 427.481 154.599 428.658 154.229 429.459 153.488 430.26 152.747 430.661 151.624 430.661 150.118 430.661 148.517 430.134 147.303 429.08 146.478 428.026 145.653 426.463 145.241 424.392 145.241L422.802 145.241 422.802 143.506C424.067 143.446 425.16 143.268 426.081 142.973 427.002 142.678 427.77 142.296 428.384 141.826 428.999 141.356 429.456 140.808 429.757 140.182 430.059 139.556 430.209 138.887 430.209 138.177 430.209 137.02 429.866 136.108 429.179 135.44 428.493 134.771 427.499 134.437 426.198 134.437 425.102 134.437 424.184 134.738 423.443 135.34 422.703 135.942 422.133 136.84 421.736 138.032L419.442 138.032 419.442 134.473C420.863 133.871 422.203 133.416 423.461 133.109 424.72 132.802 425.927 132.648 427.084 132.648Z" fill-rule="evenodd"/><text fill="#000000" fill-opacity="0" font-family="Arial,Arial_MSFontService,sans-serif" font-size="23.7031" x="419.171" y="153.389">3</text><path d="M452.379 156.717C453.014 156.717 453.588 156.868 454.101 157.169 454.613 157.47 455.008 157.889 455.285 158.426 455.561 158.963 455.7 159.566 455.7 160.233 455.7 160.916 455.557 161.527 455.272 162.064 454.988 162.601 454.589 163.016 454.076 163.309 453.563 163.602 452.998 163.749 452.379 163.749 451.761 163.749 451.195 163.602 450.683 163.309 450.17 163.016 449.771 162.601 449.486 162.064 449.201 161.527 449.059 160.916 449.059 160.233 449.059 159.566 449.197 158.963 449.474 158.426 449.751 157.889 450.145 157.47 450.658 157.169 451.171 156.868 451.745 156.717 452.379 156.717Z" fill-rule="evenodd"/><text fill="#000000" fill-opacity="0" font-family="Arial,Arial_MSFontService,sans-serif" font-size="7.03125" x="449.059" y="162.87">∙</text><path d="M488.095 140.799C489.593 140.799 490.98 140.901 492.258 141.104 493.535 141.308 494.947 141.654 496.494 142.142L495.126 148.416 492.783 148.416C492.718 147.033 492.506 145.947 492.148 145.157 491.79 144.368 491.277 143.802 490.61 143.46 489.942 143.119 489.055 142.948 487.949 142.948 486.598 142.948 485.41 143.224 484.384 143.778 483.359 144.331 482.578 145.084 482.04 146.036 481.503 146.988 481.235 148.05 481.235 149.222 481.235 150.443 481.556 151.513 482.199 152.433 482.842 153.352 484.075 154.439 485.898 155.692 487.493 156.799 488.71 157.787 489.548 158.658 490.386 159.529 491.004 160.453 491.403 161.429 491.802 162.406 492.001 163.537 492.001 164.823 492.001 166.808 491.525 168.57 490.573 170.108 489.621 171.646 488.278 172.835 486.545 173.673 484.811 174.511 482.838 174.93 480.624 174.93 479.127 174.93 477.512 174.808 475.778 174.564 474.045 174.32 472.495 174.011 471.127 173.636L472.592 166.922 474.936 166.922C474.936 168.908 475.396 170.385 476.315 171.353 477.235 172.322 478.655 172.806 480.576 172.806 482.789 172.806 484.531 172.204 485.8 170.999 487.07 169.795 487.705 168.119 487.705 165.97 487.705 164.977 487.53 164.103 487.18 163.346 486.83 162.589 486.301 161.865 485.593 161.173 484.885 160.481 483.863 159.688 482.529 158.792 481.324 157.979 480.323 157.177 479.526 156.388 478.728 155.598 478.094 154.715 477.622 153.739 477.15 152.762 476.914 151.672 476.914 150.467 476.914 148.547 477.377 146.854 478.305 145.389 479.233 143.924 480.543 142.793 482.236 141.996 483.928 141.198 485.882 140.799 488.095 140.799Z" fill-rule="evenodd"/><text fill="#000000" fill-opacity="0" font-family="Arial,Arial_MSFontService,sans-serif" font-size="34.1309" x="471.127" y="170.664">𝑆</text><path d="M511.143 132.775 512.246 132.775C512.221 133.437 512.203 134.03 512.191 134.554 512.179 135.078 512.17 135.587 512.164 136.081 512.158 136.575 512.155 137.062 512.155 137.544L512.155 151.275C512.155 151.648 512.167 151.97 512.191 152.241 512.215 152.512 512.255 152.741 512.309 152.928 512.363 153.115 512.435 153.274 512.526 153.407 512.616 153.539 512.721 153.653 512.842 153.75 512.986 153.894 513.179 154.006 513.42 154.084 513.661 154.162 513.968 154.229 514.341 154.283 514.715 154.337 515.163 154.379 515.687 154.409 516.211 154.439 516.84 154.46 517.575 154.472L517.575 156.044 503.248 156.044 503.248 154.472C503.959 154.448 504.561 154.421 505.055 154.391 505.549 154.361 505.97 154.319 506.32 154.265 506.669 154.211 506.949 154.15 507.16 154.084 507.371 154.018 507.554 153.937 507.711 153.84 507.879 153.732 508.024 153.614 508.144 153.488 508.265 153.361 508.361 153.202 508.434 153.009 508.506 152.816 508.563 152.582 508.605 152.305 508.647 152.027 508.668 151.684 508.668 151.275L508.668 138.321C508.668 137.851 508.578 137.52 508.397 137.327 508.217 137.135 507.958 137.038 507.621 137.038 507.247 137.038 506.693 137.231 505.958 137.617 505.224 138.002 504.272 138.574 503.104 139.333 502.947 139.056 502.803 138.779 502.67 138.502 502.538 138.225 502.399 137.942 502.255 137.653 503.748 136.834 505.227 136.018 506.69 135.205 508.154 134.392 509.638 133.582 511.143 132.775Z" fill-rule="evenodd"/><text fill="#000000" fill-opacity="0" font-family="Arial,Arial_MSFontService,sans-serif" font-size="23.2695" x="502.255" y="153.136">1</text><path d="M534.438 130.191 537.239 130.191 524.195 163.813 521.358 163.813Z" fill-rule="evenodd"/><text fill="#000000" fill-opacity="0" font-family="Arial,Arial_MSFontService,sans-serif" font-size="33.6216" x="521.358" y="159.61">/</text><path d="M549.059 132.648C550.312 132.648 551.381 132.79 552.266 133.073 553.151 133.356 553.871 133.738 554.425 134.22 554.979 134.702 555.38 135.28 555.626 135.954 555.873 136.629 555.997 137.358 555.997 138.14 555.997 138.61 555.964 139.047 555.897 139.45 555.831 139.854 555.717 140.251 555.554 140.643 555.392 141.034 555.178 141.429 554.913 141.826 554.648 142.223 554.317 142.645 553.919 143.091 553.618 143.476 553.227 143.922 552.745 144.428 552.263 144.933 551.736 145.475 551.164 146.054 550.592 146.632 549.993 147.234 549.366 147.86 548.74 148.486 548.132 149.107 547.542 149.721 546.952 150.335 546.41 150.931 545.916 151.51 545.422 152.088 545.018 152.618 544.705 153.099L551.39 153.099C551.956 153.099 552.408 153.078 552.745 153.036 553.082 152.994 553.362 152.901 553.585 152.756 553.808 152.612 553.997 152.392 554.154 152.097 554.311 151.802 554.491 151.395 554.696 150.877L556.376 150.877C556.316 151.732 556.259 152.594 556.205 153.461 556.15 154.328 556.093 155.189 556.033 156.044L540.731 156.044 540.731 155.105C541.02 154.454 541.357 153.813 541.742 153.181 542.128 152.548 542.561 151.907 543.043 151.257 543.525 150.606 544.073 149.935 544.687 149.242 545.302 148.55 545.982 147.83 546.729 147.083 547.861 145.951 548.782 144.985 549.493 144.184 550.204 143.383 550.764 142.669 551.173 142.043 551.583 141.417 551.863 140.838 552.013 140.308 552.164 139.778 552.239 139.212 552.239 138.61 552.239 137.996 552.152 137.43 551.977 136.912 551.802 136.394 551.552 135.954 551.227 135.593 550.902 135.232 550.49 134.949 549.99 134.744 549.49 134.539 548.915 134.437 548.264 134.437 547.144 134.437 546.205 134.741 545.446 135.349 544.687 135.957 544.097 136.84 543.676 137.996L541.309 137.996 541.309 134.473C542.851 133.835 544.269 133.371 545.563 133.082 546.858 132.793 548.023 132.648 549.059 132.648Z" fill-rule="evenodd"/><text fill="#000000" fill-opacity="0" font-family="Arial,Arial_MSFontService,sans-serif" font-size="23.396" x="540.731" y="153.12">2</text></g></svg>