<svg width="110" height="88" xmlns="http://www.w3.org/2000/svg" xmlns:xlink="http://www.w3.org/1999/xlink" xml:space="preserve" overflow="hidden"><g transform="translate(-640 -490)"><text font-family="Aptos Narrow,Aptos Narrow_MSFontService,sans-serif" font-weight="400" font-stretch="semi-condensed" font-size="50" transform="matrix(1 0 0 1 640.468 551)">v </text><path d="M674.402 540.633 704.48 540.633 704.48 543.88 674.402 543.88ZM674.402 530.501 704.48 530.501 704.48 533.748 674.402 533.748Z" fill-rule="evenodd"/><text fill="#000000" fill-opacity="0" font-family="Arial,Arial_MSFontService,sans-serif" font-size="13.3789" x="674.402" y="542.208">=</text><path d="M737.816 500.001C736.732 500.001 735.753 500.253 734.88 500.759 734.007 501.265 733.233 501.94 732.559 502.783 731.884 503.626 731.303 504.586 730.815 505.664 730.327 506.742 729.924 507.844 729.605 508.971 729.286 510.097 729.054 511.202 728.909 512.286 728.765 513.37 728.692 514.351 728.692 515.231 728.692 516.977 729.039 518.281 729.731 519.142 730.424 520.003 731.481 520.434 732.902 520.434 733.914 520.434 734.841 520.196 735.684 519.72 736.527 519.244 737.286 518.606 737.96 517.805 738.635 517.004 739.225 516.083 739.731 515.041 740.237 513.999 740.658 512.915 740.996 511.789 741.333 510.663 741.589 509.534 741.763 508.401 741.938 507.269 742.025 506.221 742.025 505.258 742.025 503.548 741.676 502.244 740.978 501.346 740.279 500.449 739.225 500.001 737.816 500.001ZM737.924 498.158C739.201 498.158 740.327 498.347 741.303 498.727 742.278 499.106 743.091 499.639 743.742 500.326 744.392 501.012 744.883 501.84 745.214 502.81 745.545 503.779 745.711 504.866 745.711 506.071 745.711 506.926 745.636 507.871 745.485 508.907 745.335 509.943 745.091 511.003 744.753 512.087 744.416 513.171 743.983 514.243 743.453 515.303 742.923 516.363 742.284 517.338 741.538 518.23 740.791 519.121 739.924 519.898 738.936 520.56 737.948 521.223 736.834 521.704 735.594 522.005 735.931 522.909 736.238 523.634 736.515 524.182 736.792 524.73 737.063 525.152 737.328 525.447 737.593 525.742 737.873 525.935 738.168 526.025 738.463 526.116 738.798 526.161 739.171 526.161 739.388 526.161 739.611 526.131 739.839 526.07 740.068 526.01 740.306 525.911 740.553 525.772 740.8 525.634 741.068 525.45 741.357 525.221 741.646 524.992 741.953 524.709 742.278 524.372L743.38 525.655C742.85 526.161 742.348 526.597 741.872 526.965 741.396 527.332 740.932 527.633 740.481 527.868 740.029 528.103 739.58 528.274 739.135 528.383 738.689 528.491 738.237 528.545 737.78 528.545 737.045 528.545 736.401 528.446 735.847 528.247 735.293 528.049 734.796 527.705 734.356 527.218 733.917 526.73 733.51 526.085 733.137 525.284 732.763 524.484 732.384 523.481 731.999 522.276 730.903 522.204 729.921 521.978 729.054 521.599 728.187 521.22 727.449 520.696 726.841 520.027 726.232 519.359 725.766 518.555 725.44 517.615 725.115 516.676 724.953 515.61 724.953 514.418 724.953 513.37 725.055 512.244 725.26 511.039 725.465 509.835 725.784 508.63 726.217 507.426 726.651 506.221 727.211 505.062 727.897 503.948 728.584 502.834 729.409 501.849 730.373 500.994 731.336 500.139 732.444 499.453 733.697 498.935 734.949 498.417 736.359 498.158 737.924 498.158Z" fill-rule="evenodd"/><text fill="#000000" fill-opacity="0" font-family="Arial,Arial_MSFontService,sans-serif" font-size="30.3877" x="724.953" y="524.747">𝑄</text><path d="M739.266 557.036C738.218 558.746 737.18 560.459 736.15 562.176 735.12 563.892 734.081 565.611 733.033 567.334L739.989 567.334C739.929 566.563 739.868 565.807 739.808 565.066 739.748 564.326 739.7 563.546 739.664 562.727 739.628 561.908 739.594 561.035 739.564 560.107 739.534 559.18 739.519 558.156 739.519 557.036ZM739.194 553.079 742.175 553.079 743.819 572.176C743.867 572.79 743.942 573.308 744.045 573.729 744.147 574.151 744.289 574.5 744.469 574.777 744.65 575.054 744.876 575.265 745.147 575.409 745.418 575.554 745.758 575.656 746.168 575.717L745.897 576.819 738.02 576.819 738.291 575.717C738.628 575.656 738.926 575.581 739.185 575.491 739.444 575.4 739.658 575.25 739.826 575.039 739.995 574.828 740.124 574.542 740.215 574.181 740.305 573.82 740.35 573.35 740.35 572.772 740.35 572.555 740.344 572.305 740.332 572.022 740.32 571.739 740.305 571.441 740.287 571.128 740.269 570.815 740.245 570.492 740.215 570.161 740.185 569.83 740.157 569.508 740.133 569.195L732.04 569.195C731.763 569.604 731.489 570.026 731.218 570.459 730.947 570.893 730.7 571.317 730.477 571.733 730.254 572.148 730.076 572.561 729.944 572.97 729.811 573.38 729.745 573.783 729.745 574.181 729.745 575.06 730.39 575.572 731.678 575.717L731.443 576.819 723.548 576.819 723.747 575.717C724.072 575.656 724.364 575.563 724.623 575.437 724.882 575.31 725.153 575.111 725.436 574.84 725.719 574.569 726.026 574.202 726.358 573.738 726.689 573.275 727.089 572.663 727.559 571.905Z" fill-rule="evenodd"/><text fill="#000000" fill-opacity="0" font-family="Arial,Arial_MSFontService,sans-serif" font-size="23.7393" x="723.548" y="573.851">𝐴</text><path d="M722.468 535.469 749.468 535.469 749.468 538.469 722.468 538.469Z" fill-rule="evenodd"/></g></svg>