<svg width="615" height="137" xmlns="http://www.w3.org/2000/svg" xmlns:xlink="http://www.w3.org/1999/xlink" xml:space="preserve" overflow="hidden"><g transform="translate(-1057 -107)"><path d="M1103.69 163.818C1104.71 163.818 1105.52 164.156 1106.12 164.831 1106.71 165.507 1107.01 166.39 1107.01 167.48 1107.01 168.294 1106.85 169.132 1106.54 169.995L1106.86 170.117C1108.46 167.952 1109.99 166.365 1111.46 165.356 1112.94 164.347 1114.43 163.842 1115.94 163.842 1117.13 163.842 1118.12 163.932 1118.92 164.111L1117.75 169.58 1115.23 169.58C1115.14 168.896 1115 168.367 1114.82 167.993 1114.64 167.618 1114.43 167.358 1114.18 167.212 1113.94 167.065 1113.63 166.992 1113.26 166.992 1112.67 166.992 1112.03 167.244 1111.34 167.749 1110.65 168.253 1109.87 169.043 1109.01 170.117 1108.15 171.191 1107.46 172.225 1106.95 173.217 1106.43 174.21 1106.01 175.472 1105.66 177.002L1103.34 187.573 1099.12 187.573 1102.66 172.094C1102.89 171.118 1103.04 170.361 1103.1 169.824 1103.17 169.287 1103.2 168.839 1103.2 168.481 1103.2 167.83 1103.09 167.358 1102.88 167.065 1102.67 166.772 1102.34 166.626 1101.88 166.626 1101.38 166.626 1100.84 166.833 1100.28 167.248 1099.72 167.663 1098.95 168.416 1097.97 169.507L1096.58 168.139C1098.08 166.577 1099.33 165.466 1100.34 164.807 1101.35 164.148 1102.47 163.818 1103.69 163.818ZM1072.81 154.248 1094.83 154.248 1093.15 161.743 1090.8 161.743C1090.74 160.49 1090.64 159.501 1090.5 158.777 1090.36 158.052 1090.16 157.531 1089.91 157.214 1089.66 156.897 1089.35 156.681 1089 156.567 1088.64 156.453 1088.1 156.396 1087.38 156.396L1079.86 156.396 1076.96 169.677 1081.52 169.677C1082.24 169.677 1082.83 169.58 1083.31 169.384 1083.78 169.189 1084.22 168.835 1084.63 168.322 1085.03 167.81 1085.54 166.935 1086.14 165.698L1088.36 165.698 1085.99 176.001 1083.84 176.001C1083.84 174.357 1083.79 173.327 1083.69 172.912 1083.58 172.497 1083.38 172.212 1083.07 172.058 1082.77 171.903 1082.18 171.826 1081.28 171.826L1076.5 171.826 1074.57 180.468C1074.22 181.998 1074.05 183.268 1074.05 184.277 1074.05 184.782 1074.14 185.176 1074.3 185.461 1074.46 185.746 1074.7 185.953 1075.03 186.084 1075.36 186.214 1075.92 186.312 1076.71 186.377L1076.45 187.573 1066.41 187.573 1066.68 186.377C1067.3 186.279 1067.76 186.12 1068.07 185.901 1068.38 185.681 1068.64 185.376 1068.85 184.985 1069.07 184.594 1069.26 184.118 1069.44 183.557 1069.62 182.995 1069.89 181.909 1070.25 180.298L1074.4 161.499C1074.75 159.871 1074.93 158.585 1074.93 157.641 1074.93 156.844 1074.75 156.29 1074.37 155.981 1074 155.672 1073.39 155.493 1072.54 155.444Z" fill-rule="evenodd"/><text fill="#000000" fill-opacity="0" font-family="Arial,Arial_MSFontService,sans-serif" font-size="33.3252" x="1066.41" y="183.407">πΉπ‘</text><path d="M1138.53 176.733 1168.61 176.733 1168.61 179.98 1138.53 179.98ZM1138.53 166.601 1168.61 166.601 1168.61 169.848 1138.53 169.848Z" fill-rule="evenodd"/><text fill="#000000" fill-opacity="0" font-family="Arial,Arial_MSFontService,sans-serif" font-size="13.3789" x="1138.53" y="178.308">=</text><path d="M1402.21 127.59C1400.53 127.59 1399.02 128.266 1397.69 129.617 1396.35 130.968 1395.31 132.778 1394.56 135.049 1393.82 137.319 1393.44 139.586 1393.44 141.848 1393.44 143.541 1393.67 144.806 1394.14 145.645 1394.6 146.483 1395.38 146.902 1396.47 146.902 1397.54 146.902 1398.6 146.438 1399.63 145.51 1400.66 144.583 1401.73 143.26 1402.83 141.543 1403.93 139.826 1404.7 137.844 1405.16 135.598L1405.38 134.548C1405.53 133.881 1405.62 133.303 1405.67 132.815 1405.72 132.327 1405.75 131.798 1405.75 131.228 1405.75 129.975 1405.48 129.055 1404.94 128.469 1404.4 127.883 1403.49 127.59 1402.21 127.59ZM1317.25 127.59C1315.61 127.59 1314.03 128.421 1312.51 130.081 1310.98 131.741 1309.82 133.987 1309 136.819 1311.3 136.803 1313.27 136.595 1314.91 136.196 1316.55 135.798 1317.82 135.163 1318.69 134.292 1319.57 133.421 1320.01 132.245 1320.01 130.764 1320.01 129.771 1319.78 128.994 1319.32 128.433 1318.85 127.871 1318.17 127.59 1317.25 127.59ZM1380.69 125.857 1382.13 125.857 1378.61 141.531C1378.25 143.126 1378.08 144.33 1378.08 145.144 1378.08 145.795 1378.18 146.267 1378.39 146.56 1378.6 146.853 1378.94 147 1379.39 147 1379.88 147 1380.4 146.8 1380.96 146.402 1381.51 146.003 1382.29 145.242 1383.3 144.119L1384.69 145.486C1383.1 147.162 1381.8 148.302 1380.81 148.904 1379.82 149.506 1378.7 149.807 1377.47 149.807 1376.41 149.807 1375.56 149.421 1374.93 148.648 1374.29 147.874 1373.97 146.886 1373.97 145.681 1373.97 144.444 1374.2 142.866 1374.66 140.945L1376.49 132.962C1376.86 131.334 1377.05 130.113 1377.05 129.299 1377.05 128.567 1376.88 128.071 1376.53 127.81 1376.18 127.55 1375.49 127.403 1374.46 127.371L1374.73 126.077ZM1401.72 125.662C1402.78 125.662 1403.76 125.78 1404.68 126.016 1405.6 126.252 1406.55 126.671 1407.53 127.273L1409.77 125.662 1411.34 126.052 1407.75 141.531C1407.39 143.077 1407.21 144.282 1407.21 145.144 1407.21 145.795 1407.32 146.267 1407.53 146.56 1407.74 146.853 1408.07 147 1408.53 147 1409.02 147 1409.54 146.8 1410.09 146.402 1410.64 146.003 1411.43 145.242 1412.43 144.119L1413.83 145.486C1412.36 147.048 1411.11 148.159 1410.08 148.819 1409.05 149.478 1407.93 149.807 1406.72 149.807 1405.71 149.807 1404.91 149.474 1404.31 148.806 1403.7 148.139 1403.4 147.252 1403.4 146.145 1403.4 145.25 1403.59 144.298 1403.96 143.289L1403.65 143.191C1402.08 145.47 1400.6 147.138 1399.2 148.196 1397.8 149.254 1396.32 149.783 1394.76 149.783 1392.97 149.783 1391.58 149.107 1390.6 147.757 1389.61 146.406 1389.12 144.509 1389.12 142.068 1389.12 139.269 1389.67 136.579 1390.77 133.999 1391.87 131.419 1393.38 129.385 1395.3 127.896 1397.22 126.406 1399.36 125.662 1401.72 125.662ZM1334.22 125.662C1335.25 125.662 1336.06 126 1336.65 126.675 1337.25 127.35 1337.54 128.233 1337.54 129.324 1337.54 130.138 1337.39 130.976 1337.08 131.839L1337.4 131.961C1338.99 129.796 1340.52 128.209 1342 127.2 1343.47 126.191 1344.96 125.686 1346.48 125.686 1347.67 125.686 1348.66 125.776 1349.46 125.955L1348.28 131.423 1345.77 131.423C1345.67 130.74 1345.53 130.211 1345.35 129.837 1345.18 129.462 1344.96 129.202 1344.72 129.055 1344.48 128.909 1344.17 128.836 1343.79 128.836 1343.21 128.836 1342.57 129.088 1341.88 129.592 1341.18 130.097 1340.41 130.886 1339.54 131.961 1338.68 133.035 1337.99 134.068 1337.48 135.061 1336.97 136.054 1336.54 137.315 1336.2 138.845L1333.88 149.417 1329.66 149.417 1333.2 133.938C1333.42 132.962 1333.57 132.205 1333.64 131.668 1333.7 131.131 1333.73 130.683 1333.73 130.325 1333.73 129.674 1333.63 129.202 1333.42 128.909 1333.2 128.616 1332.87 128.469 1332.42 128.469 1331.91 128.469 1331.38 128.677 1330.82 129.092 1330.25 129.507 1329.49 130.26 1328.51 131.35L1327.12 129.983C1328.61 128.421 1329.87 127.31 1330.88 126.651 1331.89 125.991 1333 125.662 1334.22 125.662ZM1318.13 125.662C1320.1 125.662 1321.58 126.061 1322.56 126.858 1323.55 127.656 1324.04 128.901 1324.04 130.593 1324.04 133.36 1322.74 135.436 1320.15 136.819 1317.55 138.202 1313.7 138.894 1308.59 138.894 1308.39 139.871 1308.29 140.929 1308.29 142.068 1308.29 143.777 1308.63 145.018 1309.3 145.791 1309.96 146.564 1311.05 146.951 1312.57 146.951 1314.06 146.951 1315.42 146.625 1316.63 145.974 1317.84 145.323 1319.13 144.322 1320.48 142.971L1321.99 144.558C1320.41 146.3 1318.81 147.61 1317.19 148.489 1315.57 149.368 1313.69 149.807 1311.54 149.807 1309.18 149.807 1307.35 149.087 1306.06 147.647 1304.77 146.206 1304.12 144.2 1304.12 141.629 1304.12 139.887 1304.43 138.019 1305.06 136.026 1305.69 134.032 1306.63 132.241 1307.9 130.654 1309.17 129.068 1310.7 127.839 1312.47 126.968 1314.24 126.097 1316.13 125.662 1318.13 125.662ZM1280.25 125.662C1281.27 125.662 1282.08 126 1282.68 126.675 1283.27 127.35 1283.57 128.233 1283.57 129.324 1283.57 130.187 1283.37 131.147 1282.98 132.205L1283.27 132.302C1284.87 130.056 1286.39 128.392 1287.83 127.31 1289.27 126.227 1290.75 125.686 1292.28 125.686 1293.8 125.686 1294.96 126.122 1295.77 126.992 1296.59 127.863 1296.99 129.072 1296.99 130.618 1296.99 131.643 1296.76 133.1 1296.29 134.988L1294.7 141.384C1294.26 143.159 1294.04 144.412 1294.04 145.144 1294.04 145.795 1294.15 146.267 1294.36 146.56 1294.57 146.853 1294.9 147 1295.36 147 1295.85 147 1296.37 146.8 1296.92 146.402 1297.47 146.003 1298.26 145.242 1299.27 144.119L1300.66 145.486C1299.26 146.983 1298.04 148.078 1296.99 148.77 1295.95 149.461 1294.76 149.807 1293.43 149.807 1292.37 149.807 1291.53 149.429 1290.89 148.672 1290.26 147.915 1289.94 146.951 1289.94 145.779 1289.94 144.721 1290.21 143.167 1290.74 141.116L1291.82 136.892C1292.21 135.362 1292.47 134.231 1292.59 133.499 1292.71 132.766 1292.77 132.172 1292.77 131.716 1292.77 130.593 1292.58 129.784 1292.21 129.287 1291.83 128.791 1291.22 128.543 1290.38 128.543 1289.69 128.543 1288.96 128.815 1288.17 129.361 1287.38 129.906 1286.54 130.728 1285.65 131.826 1284.77 132.925 1284.06 133.991 1283.52 135.025 1282.98 136.058 1282.54 137.332 1282.2 138.845L1279.88 149.417 1275.66 149.417 1279.22 133.938C1279.58 132.376 1279.76 131.171 1279.76 130.325 1279.76 129.674 1279.65 129.202 1279.44 128.909 1279.23 128.616 1278.9 128.469 1278.44 128.469 1277.94 128.469 1277.4 128.677 1276.84 129.092 1276.28 129.507 1275.51 130.26 1274.53 131.35L1273.14 129.983C1274.64 128.421 1275.88 127.31 1276.88 126.651 1277.87 125.991 1278.99 125.662 1280.25 125.662ZM1360.1 120.047 1363.47 120.047 1362.13 126.077 1369.55 126.077 1369.01 128.543 1361.59 128.543 1359.42 138.015C1359 139.854 1358.73 141.177 1358.61 141.983 1358.5 142.788 1358.44 143.435 1358.44 143.923 1358.44 145.942 1359.28 146.951 1360.96 146.951 1361.67 146.951 1362.43 146.678 1363.24 146.133 1364.04 145.588 1365 144.656 1366.11 143.338L1367.52 144.802C1366.11 146.511 1364.74 147.773 1363.43 148.587 1362.12 149.4 1360.75 149.807 1359.32 149.807 1355.92 149.807 1354.22 148.09 1354.22 144.656 1354.22 143.565 1354.36 142.418 1354.63 141.214L1357.51 128.543 1353.41 128.543 1353.78 126.858C1354.74 126.842 1355.47 126.769 1355.96 126.638 1356.46 126.508 1356.88 126.329 1357.21 126.101 1357.54 125.873 1357.85 125.548 1358.12 125.125 1358.4 124.701 1358.67 124.16 1358.93 123.501 1359.19 122.842 1359.58 121.69 1360.1 120.047ZM1380.03 116.507 1384.35 116.507 1383.23 121.243 1378.91 121.243ZM1261.34 116.091 1271.11 116.091 1270.84 117.288C1270.22 117.418 1269.78 117.564 1269.51 117.727 1269.24 117.89 1269 118.134 1268.79 118.46 1268.58 118.785 1268.36 119.294 1268.13 119.986 1267.9 120.677 1267.62 121.804 1267.28 123.367L1263.1 142.312C1262.89 143.272 1262.75 144.033 1262.69 144.595 1262.62 145.156 1262.59 145.665 1262.59 146.121 1262.59 146.853 1262.77 147.37 1263.14 147.671 1263.5 147.972 1264.12 148.155 1264.98 148.22L1264.71 149.417 1254.95 149.417 1255.22 148.22C1255.83 148.123 1256.3 147.964 1256.61 147.744 1256.92 147.525 1257.18 147.219 1257.39 146.829 1257.6 146.438 1257.8 145.962 1257.97 145.401 1258.15 144.839 1258.42 143.753 1258.78 142.141L1262.93 123.342C1263.29 121.715 1263.47 120.405 1263.47 119.412 1263.47 118.647 1263.28 118.114 1262.89 117.813 1262.51 117.512 1261.91 117.337 1261.08 117.288ZM1427.13 114.505 1428.57 114.505 1422.56 141.531C1422.21 143.142 1422.03 144.347 1422.03 145.144 1422.03 145.795 1422.13 146.267 1422.34 146.56 1422.56 146.853 1422.89 147 1423.35 147 1423.83 147 1424.35 146.8 1424.91 146.402 1425.46 146.003 1426.24 145.242 1427.25 144.119L1428.64 145.486C1427.06 147.146 1425.77 148.281 1424.77 148.892 1423.77 149.502 1422.65 149.807 1421.42 149.807 1420.36 149.807 1419.51 149.421 1418.88 148.648 1418.24 147.874 1417.93 146.886 1417.93 145.681 1417.93 144.591 1418.15 143.012 1418.61 140.945L1422.98 121.389C1423.17 120.527 1423.31 119.839 1423.39 119.326 1423.48 118.814 1423.52 118.338 1423.52 117.898 1423.52 117.41 1423.43 117.04 1423.25 116.787 1423.07 116.535 1422.81 116.352 1422.48 116.238 1422.14 116.124 1421.55 116.043 1420.68 115.994L1420.98 114.724Z" fill-rule="evenodd"/><text fill="#000000" fill-opacity="0" font-family="Arial,Arial_MSFontService,sans-serif" font-size="35.3027" x="1254.95" y="145.394">πΌπ‘›π‘’π‘π‘΅π‘–π‘π‘™</text><path d="M1489.6 127.639C1487.91 127.639 1486.43 128.347 1485.17 129.763 1483.91 131.179 1482.91 133.206 1482.19 135.842 1481.47 138.479 1481.1 140.75 1481.1 142.654 1481.1 144.444 1481.47 145.767 1482.21 146.621 1482.96 147.476 1484.07 147.903 1485.57 147.903 1487.17 147.903 1488.58 147.187 1489.82 145.755 1491.06 144.322 1492.03 142.316 1492.75 139.736 1493.47 137.157 1493.82 134.89 1493.82 132.937 1493.82 131.179 1493.48 129.857 1492.8 128.97 1492.11 128.083 1491.05 127.639 1489.6 127.639ZM1563.84 127.59C1562.2 127.59 1560.62 128.421 1559.1 130.081 1557.57 131.741 1556.41 133.987 1555.59 136.819 1557.89 136.803 1559.86 136.595 1561.5 136.196 1563.14 135.798 1564.41 135.163 1565.28 134.292 1566.16 133.421 1566.6 132.245 1566.6 130.764 1566.6 129.771 1566.37 128.994 1565.91 128.433 1565.44 127.871 1564.76 127.59 1563.84 127.59ZM1586.77 125.686C1588.28 125.686 1589.66 125.776 1590.91 125.955 1592.15 126.134 1593.39 126.443 1594.63 126.882L1593.53 132.009 1591.55 132.009C1591.37 130.561 1590.9 129.462 1590.13 128.714 1589.35 127.965 1588.14 127.59 1586.48 127.59 1585.19 127.59 1584.15 127.92 1583.35 128.579 1582.55 129.238 1582.15 130.105 1582.15 131.179 1582.15 131.765 1582.26 132.282 1582.46 132.73 1582.66 133.177 1583.07 133.67 1583.69 134.207 1584.31 134.744 1585.27 135.403 1586.57 136.184 1587.6 136.803 1588.42 137.368 1589.04 137.881 1589.66 138.394 1590.15 138.902 1590.5 139.407 1590.86 139.911 1591.12 140.444 1591.29 141.006 1591.45 141.568 1591.53 142.247 1591.53 143.045 1591.53 144.493 1591.14 145.734 1590.37 146.768 1589.6 147.801 1588.55 148.57 1587.22 149.075 1585.89 149.579 1584.38 149.832 1582.69 149.832 1581.34 149.832 1580.01 149.73 1578.71 149.527 1577.41 149.323 1575.96 148.977 1574.37 148.489L1575.54 143.167 1577.44 143.167C1577.51 144.729 1577.95 145.909 1578.76 146.707 1579.57 147.504 1580.87 147.903 1582.64 147.903 1584.19 147.903 1585.4 147.557 1586.27 146.865 1587.14 146.174 1587.57 145.193 1587.57 143.923 1587.57 143.191 1587.45 142.56 1587.21 142.031 1586.96 141.502 1586.57 140.994 1586.01 140.506 1585.46 140.017 1584.58 139.407 1583.38 138.674 1582.11 137.91 1581.12 137.218 1580.41 136.599 1579.7 135.981 1579.17 135.309 1578.81 134.585 1578.45 133.861 1578.27 133.027 1578.27 132.083 1578.27 130.797 1578.62 129.67 1579.31 128.701 1580 127.733 1580.99 126.988 1582.28 126.467 1583.56 125.947 1585.06 125.686 1586.77 125.686ZM1541.31 125.686C1543.47 125.686 1545.47 125.93 1547.29 126.419L1546.09 131.936 1543.53 131.936C1543.5 130.699 1543.4 129.804 1543.22 129.251 1543.05 128.697 1542.78 128.282 1542.39 128.006 1542.01 127.729 1541.47 127.59 1540.77 127.59 1539.13 127.59 1537.65 128.246 1536.34 129.556 1535.03 130.866 1533.96 132.722 1533.13 135.122 1532.3 137.523 1531.88 139.83 1531.88 142.044 1531.88 143.704 1532.21 144.937 1532.86 145.742 1533.51 146.548 1534.49 146.951 1535.79 146.951 1537.27 146.951 1538.55 146.67 1539.64 146.109 1540.72 145.547 1541.86 144.664 1543.07 143.46L1544.55 144.949C1543.02 146.642 1541.48 147.879 1539.93 148.66 1538.37 149.441 1536.7 149.832 1534.91 149.832 1532.55 149.832 1530.76 149.132 1529.54 147.732 1528.32 146.332 1527.71 144.298 1527.71 141.629 1527.71 139.887 1528.03 137.975 1528.69 135.891 1529.34 133.808 1530.29 131.977 1531.54 130.398 1532.8 128.819 1534.26 127.639 1535.94 126.858 1537.61 126.077 1539.4 125.686 1541.31 125.686ZM1490.09 125.686C1492.69 125.686 1494.68 126.398 1496.05 127.822 1497.41 129.247 1498.1 131.285 1498.1 133.938 1498.1 135.826 1497.77 137.844 1497.11 139.993 1496.45 142.141 1495.54 143.948 1494.4 145.413 1493.25 146.878 1491.88 147.98 1490.28 148.721 1488.69 149.461 1486.86 149.832 1484.79 149.832 1482.27 149.832 1480.31 149.124 1478.92 147.708 1477.53 146.292 1476.83 144.257 1476.83 141.604 1476.83 140.302 1477.03 138.797 1477.42 137.088 1477.92 134.776 1478.77 132.758 1479.96 131.033 1481.14 129.308 1482.61 127.985 1484.35 127.066 1486.09 126.146 1488 125.686 1490.09 125.686ZM1564.72 125.662C1566.69 125.662 1568.17 126.061 1569.15 126.858 1570.14 127.656 1570.63 128.901 1570.63 130.593 1570.63 133.36 1569.33 135.436 1566.74 136.819 1564.14 138.202 1560.29 138.894 1555.18 138.894 1554.98 139.871 1554.88 140.929 1554.88 142.068 1554.88 143.777 1555.22 145.018 1555.88 145.791 1556.55 146.564 1557.64 146.951 1559.16 146.951 1560.65 146.951 1562.01 146.625 1563.22 145.974 1564.43 145.323 1565.72 144.322 1567.07 142.971L1568.58 144.558C1567 146.3 1565.4 147.61 1563.78 148.489 1562.16 149.368 1560.28 149.807 1558.13 149.807 1555.77 149.807 1553.94 149.087 1552.65 147.647 1551.36 146.206 1550.71 144.2 1550.71 141.629 1550.71 139.887 1551.02 138.019 1551.65 136.026 1552.28 134.032 1553.22 132.241 1554.49 130.654 1555.76 129.068 1557.28 127.839 1559.06 126.968 1560.83 126.097 1562.72 125.662 1564.72 125.662ZM1508.81 125.662C1509.84 125.662 1510.65 126 1511.24 126.675 1511.83 127.35 1512.13 128.233 1512.13 129.324 1512.13 130.138 1511.98 130.976 1511.67 131.839L1511.99 131.961C1513.58 129.796 1515.11 128.209 1516.59 127.2 1518.06 126.191 1519.55 125.686 1521.07 125.686 1522.26 125.686 1523.25 125.776 1524.05 125.955L1522.87 131.423 1520.36 131.423C1520.26 130.74 1520.12 130.211 1519.94 129.837 1519.77 129.462 1519.55 129.202 1519.31 129.055 1519.07 128.909 1518.76 128.836 1518.38 128.836 1517.8 128.836 1517.16 129.088 1516.47 129.592 1515.77 130.097 1515 130.886 1514.13 131.961 1513.27 133.035 1512.58 134.068 1512.07 135.061 1511.56 136.054 1511.13 137.315 1510.79 138.845L1508.47 149.417 1504.25 149.417 1507.79 133.938C1508.01 132.962 1508.16 132.205 1508.23 131.668 1508.29 131.131 1508.32 130.683 1508.32 130.325 1508.32 129.674 1508.22 129.202 1508.01 128.909 1507.79 128.616 1507.46 128.469 1507.01 128.469 1506.5 128.469 1505.97 128.677 1505.41 129.092 1504.84 129.507 1504.08 130.26 1503.1 131.35L1501.71 129.983C1503.2 128.421 1504.46 127.31 1505.47 126.651 1506.48 125.991 1507.59 125.662 1508.81 125.662ZM1450.93 116.091 1472.96 116.091 1471.27 123.587 1468.93 123.587C1468.86 122.333 1468.76 121.345 1468.62 120.62 1468.48 119.896 1468.29 119.375 1468.04 119.058 1467.78 118.74 1467.48 118.525 1467.12 118.411 1466.76 118.297 1466.23 118.24 1465.51 118.24L1457.99 118.24 1455.08 131.521 1459.65 131.521C1460.37 131.521 1460.96 131.423 1461.43 131.228 1461.9 131.033 1462.34 130.679 1462.75 130.166 1463.16 129.653 1463.66 128.779 1464.26 127.542L1466.49 127.542 1464.12 137.844 1461.97 137.844C1461.97 136.201 1461.92 135.171 1461.81 134.756 1461.7 134.341 1461.5 134.056 1461.2 133.902 1460.9 133.747 1460.3 133.67 1459.41 133.67L1454.62 133.67 1452.69 142.312C1452.35 143.842 1452.18 145.112 1452.18 146.121 1452.18 146.625 1452.26 147.02 1452.42 147.305 1452.59 147.59 1452.83 147.797 1453.16 147.927 1453.48 148.058 1454.04 148.155 1454.84 148.22L1454.57 149.417 1444.54 149.417 1444.81 148.22C1445.42 148.123 1445.89 147.964 1446.2 147.744 1446.51 147.525 1446.77 147.219 1446.98 146.829 1447.19 146.438 1447.39 145.962 1447.56 145.401 1447.74 144.839 1448.01 143.753 1448.37 142.141L1452.52 123.342C1452.88 121.715 1453.06 120.429 1453.06 119.485 1453.06 118.687 1452.87 118.134 1452.5 117.825 1452.12 117.516 1451.51 117.337 1450.67 117.288Z" fill-rule="evenodd"/><text fill="#000000" fill-opacity="0" font-family="Arial,Arial_MSFontService,sans-serif" font-size="33.7402" x="1444.54" y="145.614">πΉπ‘π‘π‘π‘’π‘ </text><path d="M1413.02 199.529C1411.33 199.529 1409.85 200.237 1408.59 201.653 1407.33 203.069 1406.34 205.095 1405.62 207.732 1404.89 210.369 1404.53 212.639 1404.53 214.544 1404.53 216.334 1404.9 217.656 1405.64 218.511 1406.38 219.365 1407.5 219.793 1409 219.793 1410.59 219.793 1412.01 219.076 1413.24 217.644 1414.48 216.212 1415.46 214.206 1416.17 211.626 1416.89 209.046 1417.25 206.78 1417.25 204.827 1417.25 203.069 1416.91 201.747 1416.22 200.859 1415.54 199.972 1414.47 199.529 1413.02 199.529ZM1469.22 199.48C1467.54 199.48 1466.04 200.156 1464.7 201.506 1463.37 202.857 1462.33 204.668 1461.58 206.939 1460.83 209.209 1460.46 211.476 1460.46 213.738 1460.46 215.431 1460.69 216.696 1461.15 217.534 1461.62 218.372 1462.39 218.792 1463.48 218.792 1464.56 218.792 1465.61 218.328 1466.64 217.4 1467.68 216.472 1468.74 215.15 1469.84 213.433 1470.94 211.716 1471.72 209.734 1472.17 207.488L1472.39 206.438C1472.54 205.771 1472.64 205.193 1472.69 204.705 1472.74 204.216 1472.76 203.687 1472.76 203.118 1472.76 201.865 1472.49 200.945 1471.95 200.359 1471.42 199.773 1470.51 199.48 1469.22 199.48ZM1349.22 199.48C1347.54 199.48 1346.04 200.156 1344.7 201.506 1343.37 202.857 1342.33 204.668 1341.58 206.939 1340.83 209.209 1340.46 211.476 1340.46 213.738 1340.46 215.431 1340.69 216.696 1341.15 217.534 1341.62 218.372 1342.39 218.792 1343.48 218.792 1344.56 218.792 1345.61 218.328 1346.64 217.4 1347.68 216.472 1348.74 215.15 1349.84 213.433 1350.94 211.716 1351.72 209.734 1352.17 207.488L1352.39 206.438C1352.54 205.771 1352.64 205.193 1352.69 204.705 1352.74 204.216 1352.76 203.687 1352.76 203.118 1352.76 201.865 1352.49 200.945 1351.95 200.359 1351.42 199.773 1350.51 199.48 1349.22 199.48ZM1258.22 199.48C1256.54 199.48 1255.04 200.156 1253.7 201.506 1252.37 202.857 1251.33 204.668 1250.58 206.939 1249.83 209.209 1249.46 211.476 1249.46 213.738 1249.46 215.431 1249.69 216.696 1250.15 217.534 1250.62 218.372 1251.39 218.792 1252.48 218.792 1253.56 218.792 1254.61 218.328 1255.64 217.4 1256.68 216.472 1257.74 215.15 1258.84 213.433 1259.94 211.716 1260.72 209.734 1261.17 207.488L1261.39 206.438C1261.54 205.771 1261.64 205.193 1261.69 204.705 1261.74 204.216 1261.76 203.687 1261.76 203.118 1261.76 201.865 1261.49 200.945 1260.95 200.359 1260.42 199.773 1259.51 199.48 1258.22 199.48ZM1391.7 197.747 1393.14 197.747 1389.63 213.421C1389.27 215.016 1389.09 216.22 1389.09 217.034 1389.09 217.685 1389.2 218.157 1389.41 218.45 1389.62 218.743 1389.95 218.889 1390.41 218.889 1390.9 218.889 1391.42 218.69 1391.97 218.291 1392.52 217.892 1393.31 217.131 1394.31 216.008L1395.71 217.376C1394.11 219.052 1392.82 220.191 1391.82 220.794 1390.83 221.396 1389.72 221.697 1388.48 221.697 1387.42 221.697 1386.58 221.31 1385.94 220.537 1385.31 219.764 1384.99 218.775 1384.99 217.571 1384.99 216.334 1385.22 214.755 1385.67 212.835L1387.5 204.851C1387.88 203.224 1388.06 202.003 1388.06 201.189 1388.06 200.457 1387.89 199.96 1387.54 199.7 1387.19 199.439 1386.5 199.293 1385.48 199.26L1385.75 197.966ZM1307.7 197.747 1309.14 197.747 1305.63 213.421C1305.27 215.016 1305.09 216.22 1305.09 217.034 1305.09 217.685 1305.2 218.157 1305.41 218.45 1305.62 218.743 1305.95 218.889 1306.41 218.889 1306.9 218.889 1307.42 218.69 1307.97 218.291 1308.52 217.892 1309.31 217.131 1310.31 216.008L1311.71 217.376C1310.11 219.052 1308.82 220.191 1307.82 220.794 1306.83 221.396 1305.72 221.697 1304.48 221.697 1303.42 221.697 1302.58 221.31 1301.94 220.537 1301.31 219.764 1300.99 218.775 1300.99 217.571 1300.99 216.334 1301.22 214.755 1301.67 212.835L1303.5 204.851C1303.88 203.224 1304.06 202.003 1304.06 201.189 1304.06 200.457 1303.89 199.96 1303.54 199.7 1303.19 199.439 1302.5 199.293 1301.48 199.26L1301.75 197.966ZM1413.51 197.576C1416.12 197.576 1418.1 198.288 1419.47 199.712 1420.84 201.136 1421.52 203.175 1421.52 205.828 1421.52 207.716 1421.19 209.734 1420.53 211.882 1419.87 214.031 1418.97 215.837 1417.82 217.302 1416.67 218.767 1415.3 219.87 1413.71 220.61 1412.11 221.351 1410.28 221.721 1408.22 221.721 1405.69 221.721 1403.74 221.013 1402.34 219.597 1400.95 218.181 1400.26 216.147 1400.26 213.494 1400.26 212.192 1400.45 210.686 1400.84 208.977 1401.35 206.666 1402.19 204.648 1403.38 202.922 1404.57 201.197 1406.03 199.875 1407.78 198.955 1409.52 198.036 1411.43 197.576 1413.51 197.576ZM1468.73 197.551C1469.79 197.551 1470.78 197.669 1471.7 197.905 1472.62 198.141 1473.57 198.56 1474.54 199.163L1476.79 197.551 1478.35 197.942 1474.76 213.421C1474.4 214.967 1474.22 216.171 1474.22 217.034 1474.22 217.685 1474.33 218.157 1474.54 218.45 1474.75 218.743 1475.09 218.889 1475.54 218.889 1476.03 218.889 1476.55 218.69 1477.11 218.291 1477.66 217.892 1478.44 217.131 1479.45 216.008L1480.84 217.376C1479.38 218.938 1478.13 220.049 1477.09 220.708 1476.06 221.367 1474.94 221.697 1473.74 221.697 1472.73 221.697 1471.92 221.363 1471.32 220.696 1470.72 220.029 1470.42 219.142 1470.42 218.035 1470.42 217.14 1470.6 216.187 1470.98 215.178L1470.66 215.081C1469.1 217.359 1467.62 219.028 1466.22 220.086 1464.82 221.143 1463.34 221.672 1461.77 221.672 1459.98 221.672 1458.6 220.997 1457.61 219.646 1456.63 218.295 1456.13 216.399 1456.13 213.958 1456.13 211.158 1456.68 208.469 1457.78 205.889 1458.88 203.309 1460.39 201.275 1462.31 199.785 1464.23 198.296 1466.37 197.551 1468.73 197.551ZM1432.26 197.551C1433.29 197.551 1434.1 197.889 1434.69 198.565 1435.28 199.24 1435.58 200.123 1435.58 201.213 1435.58 202.076 1435.39 203.036 1435 204.094L1435.29 204.192C1436.88 201.946 1438.4 200.282 1439.84 199.199 1441.28 198.117 1442.77 197.576 1444.3 197.576 1445.81 197.576 1446.97 198.011 1447.79 198.882 1448.6 199.753 1449.01 200.961 1449.01 202.507 1449.01 203.533 1448.77 204.99 1448.3 206.878L1446.71 213.274C1446.27 215.048 1446.06 216.301 1446.06 217.034 1446.06 217.685 1446.16 218.157 1446.37 218.45 1446.58 218.743 1446.92 218.889 1447.37 218.889 1447.86 218.889 1448.38 218.69 1448.94 218.291 1449.49 217.892 1450.27 217.131 1451.28 216.008L1452.67 217.376C1451.27 218.873 1450.05 219.968 1449.01 220.659 1447.97 221.351 1446.78 221.697 1445.44 221.697 1444.39 221.697 1443.54 221.318 1442.91 220.562 1442.27 219.805 1441.95 218.84 1441.95 217.669 1441.95 216.611 1442.22 215.056 1442.76 213.005L1443.83 208.782C1444.22 207.252 1444.48 206.121 1444.6 205.388 1444.72 204.656 1444.79 204.062 1444.79 203.606 1444.79 202.483 1444.6 201.673 1444.22 201.177 1443.85 200.68 1443.24 200.432 1442.39 200.432 1441.71 200.432 1440.97 200.705 1440.18 201.25 1439.39 201.795 1438.56 202.617 1437.67 203.716 1436.78 204.815 1436.07 205.881 1435.53 206.914 1435 207.948 1434.56 209.221 1434.21 210.735L1431.89 221.306 1427.67 221.306 1431.24 205.828C1431.59 204.265 1431.77 203.061 1431.77 202.214 1431.77 201.563 1431.67 201.091 1431.46 200.798 1431.24 200.505 1430.91 200.359 1430.45 200.359 1429.95 200.359 1429.42 200.566 1428.86 200.982 1428.29 201.397 1427.52 202.149 1426.55 203.24L1425.16 201.873C1426.65 200.31 1427.9 199.199 1428.89 198.54 1429.88 197.881 1431.01 197.551 1432.26 197.551ZM1348.73 197.551C1349.79 197.551 1350.78 197.669 1351.7 197.905 1352.62 198.141 1353.57 198.56 1354.54 199.163L1356.79 197.551 1358.35 197.942 1354.76 213.421C1354.4 214.967 1354.22 216.171 1354.22 217.034 1354.22 217.685 1354.33 218.157 1354.54 218.45 1354.75 218.743 1355.09 218.889 1355.54 218.889 1356.03 218.889 1356.55 218.69 1357.11 218.291 1357.66 217.892 1358.44 217.131 1359.45 216.008L1360.84 217.376C1359.38 218.938 1358.13 220.049 1357.09 220.708 1356.06 221.367 1354.94 221.697 1353.74 221.697 1352.73 221.697 1351.92 221.363 1351.32 220.696 1350.72 220.029 1350.42 219.142 1350.42 218.035 1350.42 217.14 1350.6 216.187 1350.98 215.178L1350.66 215.081C1349.1 217.359 1347.62 219.028 1346.22 220.086 1344.82 221.143 1343.34 221.672 1341.77 221.672 1339.98 221.672 1338.6 220.997 1337.61 219.646 1336.63 218.295 1336.13 216.399 1336.13 213.958 1336.13 211.158 1336.68 208.469 1337.78 205.889 1338.88 203.309 1340.39 201.275 1342.31 199.785 1344.23 198.296 1346.37 197.551 1348.73 197.551ZM1257.73 197.551C1258.79 197.551 1259.78 197.669 1260.7 197.905 1261.62 198.141 1262.57 198.56 1263.54 199.163L1265.79 197.551 1267.35 197.942 1263.76 213.421C1263.4 214.967 1263.22 216.171 1263.22 217.034 1263.22 217.685 1263.33 218.157 1263.54 218.45 1263.75 218.743 1264.09 218.889 1264.54 218.889 1265.03 218.889 1265.55 218.69 1266.11 218.291 1266.66 217.892 1267.44 217.131 1268.45 216.008L1269.84 217.376C1268.38 218.938 1267.13 220.049 1266.09 220.708 1265.06 221.367 1263.94 221.697 1262.74 221.697 1261.73 221.697 1260.92 221.363 1260.32 220.696 1259.72 220.029 1259.42 219.142 1259.42 218.035 1259.42 217.14 1259.6 216.187 1259.98 215.178L1259.66 215.081C1258.1 217.359 1256.62 219.028 1255.22 220.086 1253.82 221.143 1252.34 221.672 1250.77 221.672 1248.98 221.672 1247.6 220.997 1246.61 219.646 1245.63 218.295 1245.13 216.399 1245.13 213.958 1245.13 211.158 1245.68 208.469 1246.78 205.889 1247.88 203.309 1249.39 201.275 1251.31 199.785 1253.23 198.296 1255.37 197.551 1257.73 197.551ZM1226.24 197.551C1227.26 197.551 1228.07 197.889 1228.67 198.565 1229.26 199.24 1229.56 200.123 1229.56 201.213 1229.56 202.027 1229.4 202.865 1229.09 203.728L1229.41 203.85C1231.01 201.685 1232.54 200.099 1234.01 199.089 1235.49 198.08 1236.98 197.576 1238.49 197.576 1239.68 197.576 1240.67 197.665 1241.47 197.844L1240.3 203.313 1237.78 203.313C1237.69 202.629 1237.55 202.101 1237.37 201.726 1237.19 201.352 1236.98 201.091 1236.73 200.945 1236.49 200.798 1236.18 200.725 1235.81 200.725 1235.22 200.725 1234.58 200.977 1233.89 201.482 1233.2 201.987 1232.42 202.776 1231.56 203.85 1230.7 204.924 1230.01 205.958 1229.5 206.951 1228.98 207.944 1228.56 209.205 1228.21 210.735L1225.89 221.306 1221.67 221.306 1225.21 205.828C1225.44 204.851 1225.59 204.094 1225.65 203.557 1225.72 203.02 1225.75 202.573 1225.75 202.214 1225.75 201.563 1225.64 201.091 1225.43 200.798 1225.22 200.505 1224.89 200.359 1224.43 200.359 1223.93 200.359 1223.39 200.566 1222.83 200.982 1222.27 201.397 1221.5 202.149 1220.52 203.24L1219.13 201.873C1220.63 200.31 1221.88 199.199 1222.89 198.54 1223.9 197.881 1225.02 197.551 1226.24 197.551ZM1293.69 197.454C1294.86 197.454 1295.71 197.759 1296.23 198.369 1296.75 198.98 1297.01 199.797 1297.01 200.823 1297.01 201.604 1296.87 202.499 1296.6 203.508 1296.32 204.518 1295.93 205.584 1295.42 206.707 1294.92 207.83 1294.32 208.981 1293.62 210.161 1292.92 211.341 1292.14 212.489 1291.3 213.604 1290.45 214.719 1289.55 215.768 1288.59 216.753 1287.63 217.738 1286.63 218.596 1285.6 219.329 1284.56 220.061 1283.51 220.643 1282.45 221.074 1281.38 221.506 1280.32 221.721 1279.26 221.721 1278.79 221.721 1278.4 221.603 1278.08 221.367 1277.76 221.131 1277.5 220.798 1277.31 220.366 1277.11 219.935 1276.98 219.426 1276.89 218.84 1276.81 218.254 1276.77 217.612 1276.77 216.912 1276.77 215.984 1276.83 214.991 1276.94 213.933 1277.06 212.875 1277.2 211.809 1277.38 210.735L1278.41 203.972C1278.47 203.582 1278.53 203.211 1278.57 202.861 1278.61 202.511 1278.63 202.255 1278.63 202.092 1278.63 201.588 1278.55 201.173 1278.38 200.847 1278.22 200.522 1277.94 200.359 1277.55 200.359 1277.24 200.359 1276.91 200.453 1276.55 200.64 1276.19 200.827 1275.83 201.067 1275.47 201.36 1275.1 201.653 1274.75 201.966 1274.4 202.3 1274.06 202.634 1273.74 202.947 1273.45 203.24L1272.28 201.873C1272.78 201.352 1273.32 200.835 1273.89 200.322 1274.46 199.81 1275.06 199.346 1275.7 198.931 1276.33 198.516 1277 198.182 1277.7 197.93 1278.4 197.678 1279.12 197.551 1279.85 197.551 1280.47 197.551 1280.97 197.653 1281.36 197.857 1281.75 198.06 1282.06 198.329 1282.28 198.662 1282.5 198.996 1282.65 199.362 1282.73 199.761 1282.81 200.16 1282.85 200.554 1282.85 200.945 1282.85 201.173 1282.84 201.393 1282.83 201.604 1282.81 201.816 1282.79 202.011 1282.75 202.19L1281.39 211.028C1281.24 211.956 1281.12 212.863 1281.02 213.75 1280.92 214.637 1280.87 215.422 1280.87 216.106 1280.87 216.79 1280.91 217.343 1281 217.766 1281.08 218.189 1281.23 218.401 1281.46 218.401 1282 218.401 1282.67 218.185 1283.49 217.754 1284.3 217.323 1285.15 216.729 1286.05 215.972 1286.94 215.215 1287.84 214.32 1288.73 213.286 1289.63 212.253 1290.44 211.134 1291.15 209.929 1291.87 208.725 1292.45 207.455 1292.9 206.121 1293.34 204.786 1293.57 203.443 1293.57 202.092 1293.57 201.506 1293.44 201.055 1293.19 200.737 1292.94 200.42 1292.54 200.261 1292.01 200.261 1291.32 200.261 1290.69 200.526 1290.11 201.055 1289.54 201.584 1288.94 202.28 1288.32 203.142L1286.93 201.897C1287.32 201.311 1287.78 200.75 1288.31 200.212 1288.84 199.675 1289.4 199.203 1289.99 198.796 1290.59 198.39 1291.2 198.064 1291.84 197.82 1292.47 197.576 1293.09 197.454 1293.69 197.454ZM1371.12 191.936 1374.49 191.936 1373.14 197.966 1380.56 197.966 1380.03 200.432 1372.61 200.432 1370.43 209.905C1370.01 211.744 1369.74 213.066 1369.63 213.872 1369.51 214.678 1369.46 215.325 1369.46 215.813 1369.46 217.831 1370.29 218.84 1371.97 218.84 1372.69 218.84 1373.45 218.568 1374.25 218.023 1375.06 217.477 1376.02 216.546 1377.12 215.227L1378.54 216.692C1377.12 218.401 1375.76 219.662 1374.45 220.476 1373.14 221.29 1371.77 221.697 1370.34 221.697 1366.93 221.697 1365.23 219.98 1365.23 216.546 1365.23 215.455 1365.37 214.308 1365.65 213.103L1368.53 200.432 1364.43 200.432 1364.79 198.748C1365.75 198.731 1366.48 198.658 1366.98 198.528 1367.47 198.398 1367.89 198.219 1368.22 197.991 1368.56 197.763 1368.86 197.437 1369.14 197.014 1369.42 196.591 1369.68 196.05 1369.94 195.391 1370.21 194.732 1370.6 193.58 1371.12 191.936ZM1323.12 191.936 1326.49 191.936 1325.14 197.966 1332.56 197.966 1332.03 200.432 1324.61 200.432 1322.43 209.905C1322.01 211.744 1321.74 213.066 1321.63 213.872 1321.51 214.678 1321.46 215.325 1321.46 215.813 1321.46 217.831 1322.29 218.84 1323.97 218.84 1324.69 218.84 1325.45 218.568 1326.25 218.023 1327.06 217.477 1328.02 216.546 1329.12 215.227L1330.54 216.692C1329.12 218.401 1327.76 219.662 1326.45 220.476 1325.14 221.29 1323.77 221.697 1322.34 221.697 1318.93 221.697 1317.23 219.98 1317.23 216.546 1317.23 215.455 1317.37 214.308 1317.65 213.103L1320.53 200.432 1316.43 200.432 1316.79 198.748C1317.75 198.731 1318.48 198.658 1318.98 198.528 1319.47 198.398 1319.89 198.219 1320.22 197.991 1320.56 197.763 1320.86 197.437 1321.14 197.014 1321.42 196.591 1321.68 196.05 1321.94 195.391 1322.21 194.732 1322.6 193.58 1323.12 191.936ZM1391.04 188.396 1395.36 188.396 1394.24 193.132 1389.92 193.132ZM1307.04 188.396 1311.36 188.396 1310.24 193.132 1305.92 193.132ZM1207.59 187.59C1209.14 187.59 1210.55 187.684 1211.84 187.871 1213.12 188.058 1214.53 188.396 1216.06 188.884L1214.57 195.452 1212.23 195.452C1212.08 193.417 1211.64 191.956 1210.89 191.069 1210.14 190.182 1208.92 189.739 1207.22 189.739 1205.86 189.739 1204.58 190.089 1203.39 190.789 1202.2 191.489 1201.08 192.534 1200.01 193.926 1198.94 195.317 1197.98 197.071 1197.13 199.187 1196.28 201.303 1195.61 203.508 1195.14 205.803 1194.67 208.098 1194.43 210.255 1194.43 212.273 1194.43 214.812 1194.87 216.663 1195.74 217.827 1196.61 218.991 1197.97 219.573 1199.83 219.573 1200.49 219.573 1201.18 219.496 1201.88 219.341 1202.58 219.186 1203.23 218.922 1203.84 218.547 1204.45 218.173 1205 217.669 1205.47 217.034 1205.94 216.399 1206.28 215.601 1206.49 214.641L1206.76 213.494C1207.12 211.964 1207.3 210.654 1207.3 209.563 1207.3 208.798 1207.11 208.265 1206.72 207.964 1206.34 207.663 1205.74 207.488 1204.91 207.439L1205.17 206.243 1214.94 206.243 1214.67 207.439C1214.05 207.569 1213.61 207.716 1213.33 207.879 1213.05 208.041 1212.8 208.289 1212.58 208.623 1212.36 208.957 1212.15 209.465 1211.94 210.149 1211.73 210.833 1211.45 211.956 1211.11 213.518L1209.42 221.184 1207.49 221.721 1206.22 219.793C1204.53 220.59 1203.2 221.107 1202.22 221.343 1201.24 221.579 1200.25 221.697 1199.24 221.697 1196.18 221.697 1193.85 220.818 1192.26 219.06 1190.66 217.302 1189.87 214.731 1189.87 211.345 1189.87 208.92 1190.27 206.198 1191.09 203.179 1191.9 200.16 1193.09 197.462 1194.64 195.086 1196.19 192.709 1198.07 190.866 1200.28 189.556 1202.48 188.246 1204.92 187.59 1207.59 187.59ZM1494.14 186.394 1495.58 186.394 1489.58 213.421C1489.22 215.032 1489.04 216.236 1489.04 217.034 1489.04 217.685 1489.15 218.157 1489.36 218.45 1489.57 218.743 1489.9 218.889 1490.36 218.889 1490.85 218.889 1491.37 218.69 1491.92 218.291 1492.48 217.892 1493.26 217.131 1494.27 216.008L1495.66 217.376C1494.08 219.036 1492.79 220.171 1491.79 220.781 1490.79 221.392 1489.67 221.697 1488.43 221.697 1487.37 221.697 1486.53 221.31 1485.89 220.537 1485.26 219.764 1484.94 218.775 1484.94 217.571 1484.94 216.48 1485.17 214.902 1485.62 212.835L1489.99 193.279C1490.19 192.416 1490.33 191.729 1490.41 191.216 1490.49 190.703 1490.53 190.227 1490.53 189.788 1490.53 189.299 1490.44 188.929 1490.26 188.677 1490.08 188.425 1489.83 188.241 1489.49 188.128 1489.16 188.014 1488.56 187.932 1487.7 187.883L1487.99 186.614Z" fill-rule="evenodd"/><text fill="#000000" fill-opacity="0" font-family="Arial,Arial_MSFontService,sans-serif" font-size="35.3271" x="1189.87" y="217.305">πΊπ‘π‘π‘£π‘–π‘΅π‘π‘΅π‘–π‘π‘›π‘π‘™</text><path d="M1556.61 199.529C1554.92 199.529 1553.44 200.237 1552.18 201.653 1550.92 203.069 1549.92 205.095 1549.2 207.732 1548.47 210.369 1548.11 212.639 1548.11 214.544 1548.11 216.334 1548.48 217.656 1549.22 218.511 1549.96 219.365 1551.08 219.793 1552.58 219.793 1554.17 219.793 1555.59 219.076 1556.83 217.644 1558.06 216.212 1559.04 214.206 1559.76 211.626 1560.47 209.046 1560.83 206.78 1560.83 204.827 1560.83 203.069 1560.49 201.747 1559.81 200.859 1559.12 199.972 1558.06 199.529 1556.61 199.529ZM1630.85 199.48C1629.21 199.48 1627.63 200.31 1626.1 201.97 1624.58 203.63 1623.41 205.877 1622.6 208.709 1624.9 208.692 1626.86 208.485 1628.51 208.086 1630.15 207.687 1631.41 207.053 1632.29 206.182 1633.17 205.311 1633.61 204.135 1633.61 202.654 1633.61 201.661 1633.38 200.884 1632.92 200.322 1632.45 199.761 1631.76 199.48 1630.85 199.48ZM1653.78 197.576C1655.29 197.576 1656.67 197.665 1657.92 197.844 1659.16 198.023 1660.4 198.333 1661.64 198.772L1660.54 203.899 1658.56 203.899C1658.38 202.45 1657.91 201.352 1657.13 200.603 1656.36 199.854 1655.14 199.48 1653.48 199.48 1652.2 199.48 1651.16 199.81 1650.36 200.469 1649.56 201.128 1649.16 201.995 1649.16 203.069 1649.16 203.655 1649.26 204.172 1649.47 204.619 1649.67 205.067 1650.08 205.559 1650.7 206.096 1651.32 206.633 1652.28 207.293 1653.58 208.074 1654.61 208.692 1655.43 209.258 1656.05 209.771 1656.67 210.283 1657.15 210.792 1657.51 211.296 1657.87 211.801 1658.13 212.334 1658.29 212.896 1658.46 213.457 1658.54 214.137 1658.54 214.934 1658.54 216.383 1658.15 217.624 1657.38 218.657 1656.6 219.691 1655.56 220.46 1654.23 220.964 1652.9 221.469 1651.39 221.721 1649.7 221.721 1648.35 221.721 1647.02 221.62 1645.72 221.416 1644.42 221.213 1642.97 220.867 1641.37 220.379L1642.55 215.056 1644.45 215.056C1644.52 216.619 1644.96 217.799 1645.77 218.596 1646.58 219.394 1647.88 219.793 1649.65 219.793 1651.2 219.793 1652.41 219.447 1653.28 218.755 1654.15 218.063 1654.58 217.083 1654.58 215.813 1654.58 215.081 1654.46 214.45 1654.22 213.921 1653.97 213.392 1653.57 212.883 1653.02 212.395 1652.47 211.907 1651.59 211.296 1650.38 210.564 1649.11 209.799 1648.13 209.107 1647.42 208.489 1646.71 207.87 1646.18 207.199 1645.82 206.475 1645.46 205.75 1645.28 204.916 1645.28 203.972 1645.28 202.686 1645.63 201.559 1646.32 200.591 1647.01 199.622 1648 198.878 1649.28 198.357 1650.57 197.836 1652.07 197.576 1653.78 197.576ZM1608.32 197.576C1610.48 197.576 1612.47 197.82 1614.3 198.308L1613.1 203.826 1610.54 203.826C1610.51 202.589 1610.4 201.694 1610.23 201.14 1610.06 200.587 1609.78 200.172 1609.4 199.895 1609.02 199.618 1608.48 199.48 1607.78 199.48 1606.14 199.48 1604.66 200.135 1603.35 201.445 1602.04 202.756 1600.97 204.611 1600.14 207.012 1599.31 209.413 1598.89 211.72 1598.89 213.933 1598.89 215.593 1599.22 216.826 1599.87 217.632 1600.52 218.438 1601.5 218.84 1602.8 218.84 1604.28 218.84 1605.56 218.56 1606.64 217.998 1607.73 217.437 1608.87 216.554 1610.07 215.349L1611.56 216.838C1610.03 218.531 1608.49 219.768 1606.94 220.549 1605.38 221.331 1603.71 221.721 1601.92 221.721 1599.56 221.721 1597.77 221.021 1596.55 219.622 1595.33 218.222 1594.72 216.187 1594.72 213.518 1594.72 211.777 1595.04 209.864 1595.69 207.781 1596.34 205.698 1597.3 203.866 1598.55 202.288 1599.8 200.709 1601.27 199.529 1602.94 198.748 1604.62 197.966 1606.41 197.576 1608.32 197.576ZM1557.1 197.576C1559.7 197.576 1561.69 198.288 1563.05 199.712 1564.42 201.136 1565.1 203.175 1565.1 205.828 1565.1 207.716 1564.77 209.734 1564.12 211.882 1563.46 214.031 1562.55 215.837 1561.41 217.302 1560.26 218.767 1558.89 219.87 1557.29 220.61 1555.7 221.351 1553.87 221.721 1551.8 221.721 1549.28 221.721 1547.32 221.013 1545.93 219.597 1544.54 218.181 1543.84 216.147 1543.84 213.494 1543.84 212.192 1544.03 210.686 1544.43 208.977 1544.93 206.666 1545.78 204.648 1546.96 202.922 1548.15 201.197 1549.62 199.875 1551.36 198.955 1553.1 198.036 1555.01 197.576 1557.1 197.576ZM1631.73 197.551C1633.7 197.551 1635.18 197.95 1636.16 198.748 1637.15 199.545 1637.64 200.79 1637.64 202.483 1637.64 205.25 1636.34 207.325 1633.75 208.709 1631.15 210.092 1627.3 210.784 1622.19 210.784 1621.99 211.76 1621.89 212.818 1621.89 213.958 1621.89 215.667 1622.23 216.908 1622.89 217.681 1623.56 218.454 1624.65 218.84 1626.16 218.84 1627.66 218.84 1629.02 218.515 1630.23 217.864 1631.44 217.213 1632.72 216.212 1634.07 214.861L1635.59 216.448C1634.01 218.189 1632.41 219.5 1630.79 220.379 1629.17 221.257 1627.29 221.697 1625.14 221.697 1622.78 221.697 1620.95 220.977 1619.66 219.536 1618.36 218.096 1617.72 216.09 1617.72 213.518 1617.72 211.777 1618.03 209.909 1618.66 207.915 1619.28 205.921 1620.23 204.131 1621.5 202.544 1622.77 200.957 1624.29 199.728 1626.07 198.858 1627.84 197.987 1629.73 197.551 1631.73 197.551ZM1575.82 197.551C1576.85 197.551 1577.66 197.889 1578.25 198.565 1578.84 199.24 1579.14 200.123 1579.14 201.213 1579.14 202.027 1578.99 202.865 1578.68 203.728L1578.99 203.85C1580.59 201.685 1582.12 200.099 1583.6 199.089 1585.07 198.08 1586.56 197.576 1588.08 197.576 1589.26 197.576 1590.26 197.665 1591.05 197.844L1589.88 203.313 1587.37 203.313C1587.27 202.629 1587.13 202.101 1586.95 201.726 1586.77 201.352 1586.56 201.091 1586.32 200.945 1586.07 200.798 1585.76 200.725 1585.39 200.725 1584.8 200.725 1584.17 200.977 1583.47 201.482 1582.78 201.987 1582 202.776 1581.14 203.85 1580.28 204.924 1579.59 205.958 1579.08 206.951 1578.57 207.944 1578.14 209.205 1577.8 210.735L1575.48 221.306 1571.25 221.306 1574.79 205.828C1575.02 204.851 1575.17 204.094 1575.23 203.557 1575.3 203.02 1575.33 202.573 1575.33 202.214 1575.33 201.563 1575.23 201.091 1575.01 200.798 1574.8 200.505 1574.47 200.359 1574.01 200.359 1573.51 200.359 1572.98 200.566 1572.41 200.982 1571.85 201.397 1571.08 202.149 1570.11 203.24L1568.72 201.873C1570.21 200.31 1571.47 199.199 1572.48 198.54 1573.48 197.881 1574.6 197.551 1575.82 197.551ZM1517.94 187.981 1539.96 187.981 1538.28 195.476 1535.94 195.476C1535.87 194.223 1535.77 193.234 1535.63 192.51 1535.49 191.786 1535.3 191.265 1535.04 190.947 1534.79 190.63 1534.49 190.414 1534.13 190.3 1533.77 190.186 1533.23 190.129 1532.52 190.129L1525 190.129 1522.09 203.411 1526.66 203.411C1527.37 203.411 1527.97 203.313 1528.44 203.118 1528.91 202.922 1529.35 202.568 1529.76 202.056 1530.17 201.543 1530.67 200.668 1531.27 199.431L1533.49 199.431 1531.13 209.734 1528.98 209.734C1528.98 208.09 1528.92 207.061 1528.82 206.646 1528.71 206.231 1528.51 205.946 1528.21 205.791 1527.91 205.636 1527.31 205.559 1526.41 205.559L1521.63 205.559 1519.7 214.202C1519.36 215.732 1519.19 217.001 1519.19 218.01 1519.19 218.515 1519.27 218.91 1519.43 219.194 1519.59 219.479 1519.84 219.687 1520.16 219.817 1520.49 219.947 1521.05 220.045 1521.85 220.11L1521.58 221.306 1511.55 221.306 1511.81 220.11C1512.43 220.012 1512.9 219.854 1513.21 219.634 1513.51 219.414 1513.78 219.109 1513.99 218.718 1514.2 218.328 1514.39 217.852 1514.57 217.29 1514.75 216.729 1515.02 215.642 1515.38 214.031L1519.53 195.232C1519.89 193.604 1520.07 192.319 1520.07 191.375 1520.07 190.577 1519.88 190.024 1519.5 189.714 1519.13 189.405 1518.52 189.226 1517.67 189.177Z" fill-rule="evenodd"/><text fill="#000000" fill-opacity="0" font-family="Arial,Arial_MSFontService,sans-serif" font-size="33.7402" x="1511.55" y="217.504">πΉπ‘π‘π‘π‘’π‘ </text><path d="M1186.34 171.562 1305.84 171.562 1425.34 171.562 1544.84 171.562 1664.34 171.562 1664.34 174.562 1544.84 174.562 1425.34 174.562 1305.84 174.562 1186.34 174.562Z" fill-rule="evenodd"/></g></svg>