<svg width="497" height="130" xmlns="http://www.w3.org/2000/svg" xmlns:xlink="http://www.w3.org/1999/xlink" xml:space="preserve" overflow="hidden"><defs><clipPath id="clip0"><rect x="914" y="867" width="497" height="130"/></clipPath></defs><g clip-path="url(#clip0)" transform="translate(-914 -867)"><path d="M953.965 916.632C955.462 916.632 956.85 916.734 958.127 916.937 959.405 917.14 960.817 917.486 962.363 917.975L960.996 924.249 958.652 924.249C958.587 922.865 958.376 921.779 958.018 920.99 957.659 920.2 957.147 919.635 956.479 919.293 955.812 918.951 954.925 918.78 953.818 918.78 952.467 918.78 951.279 919.057 950.254 919.61 949.228 920.164 948.447 920.916 947.91 921.869 947.373 922.821 947.104 923.883 947.104 925.055 947.104 926.275 947.426 927.345 948.069 928.265 948.712 929.185 949.945 930.271 951.768 931.524 953.363 932.631 954.579 933.62 955.417 934.491 956.256 935.361 956.874 936.285 957.273 937.262 957.672 938.238 957.871 939.369 957.871 940.655 957.871 942.641 957.395 944.403 956.443 945.941 955.491 947.479 954.148 948.667 952.414 949.505 950.681 950.344 948.708 950.763 946.494 950.763 944.997 950.763 943.381 950.641 941.648 950.396 939.914 950.152 938.364 949.843 936.997 949.469L938.462 942.755 940.806 942.755C940.806 944.74 941.265 946.218 942.185 947.186 943.105 948.154 944.525 948.639 946.445 948.639 948.659 948.639 950.4 948.036 951.67 946.832 952.939 945.628 953.574 943.951 953.574 941.803 953.574 940.81 953.399 939.935 953.049 939.178 952.699 938.421 952.17 937.697 951.462 937.005 950.754 936.314 949.733 935.52 948.398 934.625 947.194 933.811 946.193 933.01 945.395 932.22 944.598 931.431 943.963 930.548 943.491 929.571 943.019 928.595 942.783 927.504 942.783 926.3 942.783 924.379 943.247 922.686 944.175 921.222 945.102 919.757 946.413 918.626 948.105 917.828 949.798 917.031 951.751 916.632 953.965 916.632Z" fill-rule="evenodd"/><text fill="#000000" fill-opacity="0" font-family="Arial,Arial_MSFontService,sans-serif" font-size="34.1309" x="936.997" y="946.496">𝑆</text><path d="M974.296 946.219C975.768 946.219 977.124 946.385 978.363 946.717L977.55 950.469 975.807 950.469C975.785 949.628 975.716 949.019 975.599 948.643 975.483 948.267 975.295 947.985 975.035 947.796 974.775 947.608 974.407 947.514 973.931 947.514 972.813 947.514 971.809 947.96 970.918 948.851 970.027 949.742 969.299 951.003 968.735 952.636 968.17 954.268 967.888 955.837 967.888 957.342 967.888 958.471 968.109 959.31 968.552 959.857 968.995 960.405 969.659 960.679 970.544 960.679 971.551 960.679 972.423 960.488 973.159 960.106 973.895 959.725 974.672 959.124 975.491 958.305L976.504 959.318C975.464 960.469 974.415 961.31 973.358 961.841 972.301 962.373 971.164 962.638 969.946 962.638 968.342 962.638 967.124 962.162 966.294 961.21 965.464 960.259 965.049 958.875 965.049 957.06 965.049 955.876 965.27 954.575 965.713 953.159 966.156 951.742 966.803 950.497 967.655 949.423 968.508 948.35 969.504 947.547 970.644 947.016 971.784 946.485 973.001 946.219 974.296 946.219Z" fill-rule="evenodd"/><text fill="#000000" fill-opacity="0" font-family="Arial,Arial_MSFontService,sans-serif" font-size="16.4189" x="965.049" y="960.586">𝑐</text><path d="M998.018 939.508 1028.1 939.508 1028.1 942.755 998.018 942.755ZM998.018 929.376 1028.1 929.376 1028.1 932.623 998.018 932.623Z" fill-rule="evenodd"/><text fill="#000000" fill-opacity="0" font-family="Arial,Arial_MSFontService,sans-serif" font-size="13.3789" x="998.018" y="941.082">=</text><path d="M1064.73 928.521C1063.07 928.521 1061.59 929.193 1060.27 930.536 1058.95 931.878 1057.91 933.689 1057.15 935.968 1056.4 938.246 1056.02 940.517 1056.02 942.779 1056.02 944.472 1056.26 945.737 1056.75 946.576 1057.24 947.414 1058 947.833 1059.05 947.833 1059.88 947.833 1060.7 947.548 1061.52 946.978 1062.35 946.409 1063.22 945.505 1064.16 944.268 1065.1 943.031 1065.83 941.852 1066.35 940.728 1066.87 939.605 1067.31 938.206 1067.68 936.529 1068.04 934.853 1068.23 933.396 1068.23 932.159 1068.23 930.89 1067.96 929.966 1067.42 929.388 1066.88 928.81 1065.99 928.521 1064.73 928.521ZM1064.34 926.593C1065.37 926.593 1066.34 926.715 1067.25 926.959 1068.16 927.203 1069.08 927.618 1070.01 928.204L1072.25 926.593 1073.82 926.983 1071.3 938.36C1071.12 939.158 1070.72 941.168 1070.08 944.391 1069.41 947.809 1068.87 950.226 1068.46 951.642 1068.04 953.058 1067.53 954.347 1066.91 955.511 1066.29 956.675 1065.49 957.688 1064.51 958.551 1063.54 959.413 1062.35 960.081 1060.96 960.553 1059.57 961.025 1057.92 961.261 1056.02 961.261 1049.87 961.261 1046.79 959.47 1046.79 955.89 1046.79 954.978 1047.07 954.148 1047.62 953.399 1048.17 952.651 1049.06 951.861 1050.28 951.031L1052.04 952.447C1051.73 952.822 1051.47 953.192 1051.26 953.558 1051.05 953.924 1050.9 954.278 1050.81 954.62 1050.72 954.962 1050.67 955.369 1050.67 955.841 1050.67 957.061 1051.11 957.953 1051.99 958.514 1052.87 959.076 1054.2 959.356 1055.97 959.356 1057.97 959.356 1059.58 958.905 1060.79 958.001 1062 957.098 1063.04 955.645 1063.9 953.643 1064.77 951.642 1065.61 948.614 1066.42 944.561L1066.08 944.488C1064.5 946.653 1063.03 948.232 1061.68 949.225 1060.33 950.217 1058.88 950.714 1057.31 950.714 1055.54 950.714 1054.16 950.047 1053.17 948.712 1052.19 947.377 1051.7 945.473 1051.7 942.999 1051.7 940.216 1052.24 937.542 1053.33 934.979 1054.42 932.415 1055.94 930.377 1057.87 928.863 1059.81 927.35 1061.97 926.593 1064.34 926.593Z" fill-rule="evenodd"/><text fill="#000000" fill-opacity="0" font-family="Arial,Arial_MSFontService,sans-serif" font-size="34.668" x="1046.79" y="956.927">𝑔</text><path d="M1096.04 932.55C1096.67 932.55 1097.24 932.7 1097.76 933.001 1098.27 933.302 1098.67 933.722 1098.94 934.259 1099.22 934.796 1099.36 935.398 1099.36 936.065 1099.36 936.749 1099.21 937.359 1098.93 937.896 1098.64 938.434 1098.25 938.849 1097.73 939.142 1097.22 939.435 1096.66 939.581 1096.04 939.581 1095.42 939.581 1094.85 939.435 1094.34 939.142 1093.83 938.849 1093.43 938.434 1093.14 937.896 1092.86 937.359 1092.72 936.749 1092.72 936.065 1092.72 935.398 1092.85 934.796 1093.13 934.259 1093.41 933.722 1093.8 933.302 1094.32 933.001 1094.83 932.7 1095.4 932.55 1096.04 932.55Z" fill-rule="evenodd"/><text fill="#000000" fill-opacity="0" font-family="Arial,Arial_MSFontService,sans-serif" font-size="7.03125" x="1092.72" y="938.702">∙</text><path d="M1122.11 926.593C1123.13 926.593 1123.94 926.93 1124.54 927.606 1125.13 928.281 1125.43 929.164 1125.43 930.255 1125.43 931.117 1125.23 932.078 1124.84 933.136L1125.14 933.233C1126.73 930.987 1128.25 929.323 1129.69 928.241 1131.13 927.158 1132.61 926.617 1134.14 926.617 1135.66 926.617 1136.82 927.052 1137.64 927.923 1138.45 928.794 1138.86 930.003 1138.86 931.549 1138.86 932.574 1138.62 934.031 1138.15 935.919L1136.56 942.315C1136.12 944.089 1135.9 945.343 1135.9 946.075 1135.9 946.726 1136.01 947.198 1136.22 947.491 1136.43 947.784 1136.77 947.931 1137.22 947.931 1137.71 947.931 1138.23 947.731 1138.78 947.332 1139.34 946.934 1140.12 946.173 1141.13 945.05L1142.52 946.417C1141.12 947.914 1139.9 949.009 1138.86 949.701 1137.82 950.392 1136.63 950.738 1135.29 950.738 1134.23 950.738 1133.39 950.36 1132.75 949.603 1132.12 948.846 1131.8 947.882 1131.8 946.71 1131.8 945.652 1132.07 944.098 1132.61 942.047L1133.68 937.823C1134.07 936.293 1134.33 935.162 1134.45 934.43 1134.57 933.697 1134.63 933.103 1134.63 932.647 1134.63 931.524 1134.45 930.715 1134.07 930.218 1133.7 929.722 1133.09 929.474 1132.24 929.474 1131.56 929.474 1130.82 929.746 1130.03 930.291 1129.24 930.837 1128.4 931.659 1127.52 932.757 1126.63 933.856 1125.92 934.922 1125.38 935.956 1124.84 936.989 1124.4 938.263 1124.06 939.776L1121.74 950.348 1117.52 950.348 1121.08 934.869C1121.44 933.307 1121.62 932.102 1121.62 931.256 1121.62 930.605 1121.51 930.133 1121.3 929.84 1121.09 929.547 1120.76 929.4 1120.3 929.4 1119.8 929.4 1119.26 929.608 1118.7 930.023 1118.14 930.438 1117.37 931.191 1116.4 932.281L1115 930.914C1116.5 929.352 1117.75 928.241 1118.74 927.581 1119.73 926.922 1120.86 926.593 1122.11 926.593Z" fill-rule="evenodd"/><text fill="#000000" fill-opacity="0" font-family="Arial,Arial_MSFontService,sans-serif" font-size="24.1455" x="1115" y="947.72">𝑛</text><path d="M1155 908.481C1156.25 908.481 1157.32 908.622 1158.2 908.905 1159.09 909.188 1159.81 909.571 1160.36 910.053 1160.92 910.534 1161.32 911.112 1161.56 911.787 1161.81 912.461 1161.93 913.19 1161.93 913.973 1161.93 914.443 1161.9 914.879 1161.83 915.283 1161.77 915.686 1161.65 916.084 1161.49 916.475 1161.33 916.867 1161.11 917.261 1160.85 917.659 1160.58 918.056 1160.25 918.478 1159.86 918.923 1159.55 919.309 1159.16 919.754 1158.68 920.26 1158.2 920.766 1157.67 921.308 1157.1 921.886 1156.53 922.464 1155.93 923.066 1155.3 923.693 1154.68 924.319 1154.07 924.939 1153.48 925.554 1152.89 926.168 1152.35 926.764 1151.85 927.342 1151.36 927.92 1150.95 928.45 1150.64 928.932L1157.33 928.932C1157.89 928.932 1158.34 928.911 1158.68 928.869 1159.02 928.827 1159.3 928.733 1159.52 928.589 1159.74 928.444 1159.93 928.224 1160.09 927.929 1160.25 927.634 1160.43 927.228 1160.63 926.71L1162.31 926.71C1162.25 927.565 1162.2 928.426 1162.14 929.293 1162.09 930.16 1162.03 931.022 1161.97 931.877L1146.67 931.877 1146.67 930.937C1146.96 930.287 1147.29 929.646 1147.68 929.013 1148.06 928.381 1148.5 927.74 1148.98 927.089 1149.46 926.439 1150.01 925.767 1150.62 925.075 1151.24 924.382 1151.92 923.663 1152.67 922.916 1153.8 921.784 1154.72 920.817 1155.43 920.016 1156.14 919.215 1156.7 918.502 1157.11 917.875 1157.52 917.249 1157.8 916.671 1157.95 916.141 1158.1 915.611 1158.18 915.045 1158.18 914.443 1158.18 913.828 1158.09 913.262 1157.91 912.744 1157.74 912.227 1157.49 911.787 1157.16 911.426 1156.84 911.064 1156.43 910.781 1155.93 910.576 1155.43 910.372 1154.85 910.269 1154.2 910.269 1153.08 910.269 1152.14 910.573 1151.38 911.182 1150.62 911.79 1150.03 912.672 1149.61 913.828L1147.25 913.828 1147.25 910.305C1148.79 909.667 1150.2 909.203 1151.5 908.914 1152.79 908.625 1153.96 908.481 1155 908.481Z" fill-rule="evenodd"/><text fill="#000000" fill-opacity="0" font-family="Arial,Arial_MSFontService,sans-serif" font-size="23.396" x="1146.67" y="928.952">2</text><path d="M1185.85 932.55C1186.48 932.55 1187.06 932.7 1187.57 933.001 1188.08 933.302 1188.48 933.722 1188.75 934.259 1189.03 934.796 1189.17 935.398 1189.17 936.065 1189.17 936.749 1189.02 937.359 1188.74 937.896 1188.46 938.434 1188.06 938.849 1187.54 939.142 1187.03 939.435 1186.47 939.581 1185.85 939.581 1185.23 939.581 1184.66 939.435 1184.15 939.142 1183.64 938.849 1183.24 938.434 1182.95 937.896 1182.67 937.359 1182.53 936.749 1182.53 936.065 1182.53 935.398 1182.66 934.796 1182.94 934.259 1183.22 933.722 1183.61 933.302 1184.13 933.001 1184.64 932.7 1185.21 932.55 1185.85 932.55Z" fill-rule="evenodd"/><text fill="#000000" fill-opacity="0" font-family="Arial,Arial_MSFontService,sans-serif" font-size="7.03125" x="1182.53" y="938.702">∙</text><path d="M1252.89 881.015C1251.88 881.015 1250.82 881.039 1249.71 881.088L1246.39 895.883 1248.93 895.883C1250.9 895.883 1252.49 895.679 1253.7 895.272 1254.92 894.865 1255.91 894.235 1256.68 893.38 1257.46 892.526 1258.05 891.513 1258.48 890.341 1258.9 889.169 1259.11 887.883 1259.11 886.483 1259.11 884.595 1258.63 883.212 1257.67 882.333 1256.71 881.454 1255.12 881.015 1252.89 881.015ZM1242.66 878.866 1253.42 878.866C1255.36 878.866 1256.95 879.017 1258.2 879.318 1259.44 879.619 1260.47 880.083 1261.27 880.709 1262.08 881.336 1262.68 882.13 1263.08 883.09 1263.48 884.05 1263.68 885.165 1263.68 886.435 1263.68 888.876 1263.1 890.992 1261.94 892.782 1260.79 894.573 1259.22 895.891 1257.24 896.737 1255.27 897.584 1252.89 898.007 1250.13 898.007 1248.47 898.007 1247.08 897.974 1245.98 897.909L1244.41 905.087C1244.27 905.754 1244.17 906.267 1244.11 906.625 1244.05 906.983 1244 907.37 1243.96 907.785 1243.92 908.2 1243.9 908.57 1243.9 908.895 1243.9 909.4 1243.98 909.795 1244.15 910.08 1244.31 910.364 1244.55 910.572 1244.88 910.702 1245.2 910.832 1245.77 910.93 1246.56 910.995L1246.29 912.191 1236.26 912.191 1236.53 910.995C1237.15 910.897 1237.61 910.739 1237.92 910.519 1238.23 910.299 1238.49 909.994 1238.7 909.603 1238.91 909.213 1239.11 908.737 1239.29 908.175 1239.47 907.614 1239.73 906.527 1240.09 904.916L1244.24 886.117C1244.6 884.49 1244.78 883.204 1244.78 882.26 1244.78 881.462 1244.59 880.909 1244.22 880.6 1243.84 880.29 1243.23 880.111 1242.39 880.062Z" fill-rule="evenodd"/><text fill="#000000" fill-opacity="0" font-family="Arial,Arial_MSFontService,sans-serif" font-size="33.3252" x="1236.26" y="908.026">𝑃</text><path d="M1277.12 908.063C1278.59 908.063 1279.94 908.229 1281.18 908.561L1280.37 912.313 1278.63 912.313C1278.61 911.472 1278.54 910.863 1278.42 910.487 1278.3 910.111 1278.12 909.828 1277.86 909.64 1277.6 909.452 1277.23 909.358 1276.75 909.358 1275.63 909.358 1274.63 909.803 1273.74 910.694 1272.85 911.585 1272.12 912.847 1271.56 914.479 1270.99 916.112 1270.71 917.681 1270.71 919.186 1270.71 920.315 1270.93 921.153 1271.37 921.701 1271.82 922.249 1272.48 922.523 1273.36 922.523 1274.37 922.523 1275.24 922.332 1275.98 921.95 1276.72 921.568 1277.49 920.968 1278.31 920.149L1279.32 921.162C1278.28 922.313 1277.24 923.154 1276.18 923.685 1275.12 924.216 1273.98 924.482 1272.77 924.482 1271.16 924.482 1269.94 924.006 1269.11 923.054 1268.28 922.102 1267.87 920.719 1267.87 918.904 1267.87 917.72 1268.09 916.419 1268.53 915.002 1268.98 913.586 1269.62 912.341 1270.48 911.267 1271.33 910.194 1272.32 909.391 1273.46 908.86 1274.6 908.329 1275.82 908.063 1277.12 908.063Z" fill-rule="evenodd"/><text fill="#000000" fill-opacity="0" font-family="Arial,Arial_MSFontService,sans-serif" font-size="16.4189" x="1267.87" y="922.43">𝑐</text><path d="M1314.65 878.866 1340.14 878.866 1338.24 887.46 1335.89 887.46C1335.89 885.881 1335.85 884.697 1335.77 883.908 1335.69 883.118 1335.53 882.516 1335.31 882.101 1335.08 881.686 1334.8 881.401 1334.46 881.247 1334.13 881.092 1333.54 881.015 1332.69 881.015L1329.08 881.015 1323.78 905.087C1323.64 905.722 1323.53 906.226 1323.48 906.601 1323.42 906.975 1323.37 907.37 1323.33 907.785 1323.29 908.2 1323.27 908.57 1323.27 908.895 1323.27 909.4 1323.35 909.795 1323.51 910.08 1323.68 910.364 1323.92 910.572 1324.25 910.702 1324.57 910.832 1325.13 910.93 1325.93 910.995L1325.66 912.191 1315.38 912.191 1315.65 910.995C1316.3 910.897 1316.78 910.767 1317.09 910.604 1317.4 910.442 1317.68 910.189 1317.91 909.848 1318.15 909.506 1318.38 908.969 1318.62 908.236 1318.86 907.504 1319.14 906.397 1319.46 904.916L1324.69 881.015 1321.59 881.015C1320.58 881.015 1319.77 881.161 1319.17 881.454 1318.57 881.747 1317.96 882.292 1317.36 883.09 1316.76 883.887 1316.03 885.222 1315.16 887.094L1312.82 887.094Z" fill-rule="evenodd"/><text fill="#000000" fill-opacity="0" font-family="Arial,Arial_MSFontService,sans-serif" font-size="33.3252" x="1312.82" y="908.026">𝑇</text><path d="M1352.1 908.063C1353.57 908.063 1354.93 908.229 1356.17 908.561L1355.35 912.313 1353.61 912.313C1353.59 911.472 1353.52 910.863 1353.4 910.487 1353.29 910.111 1353.1 909.828 1352.84 909.64 1352.58 909.452 1352.21 909.358 1351.73 909.358 1350.62 909.358 1349.61 909.803 1348.72 910.694 1347.83 911.585 1347.1 912.847 1346.54 914.479 1345.97 916.112 1345.69 917.681 1345.69 919.186 1345.69 920.315 1345.91 921.153 1346.36 921.701 1346.8 922.249 1347.46 922.523 1348.35 922.523 1349.36 922.523 1350.23 922.332 1350.96 921.95 1351.7 921.568 1352.48 920.968 1353.3 920.149L1354.31 921.162C1353.27 922.313 1352.22 923.154 1351.16 923.685 1350.11 924.216 1348.97 924.482 1347.75 924.482 1346.15 924.482 1344.93 924.006 1344.1 923.054 1343.27 922.102 1342.85 920.719 1342.85 918.904 1342.85 917.72 1343.07 916.419 1343.52 915.002 1343.96 913.586 1344.61 912.341 1345.46 911.267 1346.31 910.194 1347.31 909.391 1348.45 908.86 1349.59 908.329 1350.81 908.063 1352.1 908.063Z" fill-rule="evenodd"/><text fill="#000000" fill-opacity="0" font-family="Arial,Arial_MSFontService,sans-serif" font-size="16.4189" x="1342.85" y="922.43">𝑐</text><path d="M1305.15 875.192 1308.88 875.192 1288.91 920.627 1285.13 920.627Z" fill-rule="evenodd"/><text fill="#000000" fill-opacity="0" font-family="Arial,Arial_MSFontService,sans-serif" font-size="45.4346" x="1285.13" y="914.948">Τ</text><path d="M1220.39 967.73C1222.56 967.73 1224.55 967.974 1226.37 968.462L1225.18 973.98 1222.61 973.98C1222.58 972.743 1222.48 971.848 1222.31 971.294 1222.14 970.741 1221.86 970.326 1221.48 970.049 1221.09 969.772 1220.55 969.634 1219.85 969.634 1218.21 969.634 1216.73 970.289 1215.42 971.599 1214.11 972.91 1213.04 974.765 1212.21 977.166 1211.38 979.566 1210.97 981.874 1210.97 984.087 1210.97 985.747 1211.29 986.98 1211.94 987.786 1212.59 988.591 1213.57 988.994 1214.87 988.994 1216.35 988.994 1217.64 988.714 1218.72 988.152 1219.8 987.591 1220.94 986.708 1222.15 985.503L1223.64 986.992C1222.11 988.685 1220.57 989.922 1219.01 990.703 1217.46 991.485 1215.78 991.875 1213.99 991.875 1211.63 991.875 1209.84 991.175 1208.62 989.776 1207.4 988.376 1206.79 986.341 1206.79 983.672 1206.79 981.931 1207.12 980.018 1207.77 977.935 1208.42 975.851 1209.37 974.02 1210.63 972.442 1211.88 970.863 1213.34 969.683 1215.02 968.902 1216.7 968.12 1218.49 967.73 1220.39 967.73Z" fill-rule="evenodd"/><text fill="#000000" fill-opacity="0" font-family="Arial,Arial_MSFontService,sans-serif" font-size="24.1455" x="1206.79" y="988.857">𝑐</text><path d="M1240.68 952.916C1241.93 952.916 1243 953.058 1243.89 953.341 1244.77 953.624 1245.49 954.006 1246.05 954.488 1246.6 954.97 1247 955.548 1247.25 956.222 1247.5 956.897 1247.62 957.625 1247.62 958.408 1247.62 958.878 1247.59 959.315 1247.52 959.718 1247.45 960.122 1247.34 960.519 1247.18 960.911 1247.01 961.302 1246.8 961.696 1246.53 962.094 1246.27 962.491 1245.94 962.913 1245.54 963.359 1245.24 963.744 1244.85 964.19 1244.37 964.695 1243.88 965.201 1243.36 965.743 1242.79 966.321 1242.21 966.9 1241.61 967.502 1240.99 968.128 1240.36 968.754 1239.75 969.375 1239.16 969.989 1238.57 970.603 1238.03 971.199 1237.54 971.778 1237.04 972.356 1236.64 972.886 1236.33 973.367L1243.01 973.367C1243.58 973.367 1244.03 973.346 1244.37 973.304 1244.7 973.262 1244.98 973.169 1245.21 973.024 1245.43 972.88 1245.62 972.66 1245.78 972.365 1245.93 972.07 1246.11 971.663 1246.32 971.145L1248 971.145C1247.94 972 1247.88 972.862 1247.83 973.729 1247.77 974.596 1247.71 975.457 1247.65 976.312L1232.35 976.312 1232.35 975.373C1232.64 974.722 1232.98 974.081 1233.36 973.449 1233.75 972.816 1234.18 972.175 1234.66 971.525 1235.15 970.874 1235.69 970.203 1236.31 969.51 1236.92 968.818 1237.6 968.098 1238.35 967.351 1239.48 966.219 1240.4 965.253 1241.11 964.452 1241.83 963.651 1242.39 962.937 1242.79 962.311 1243.2 961.684 1243.48 961.106 1243.63 960.576 1243.79 960.046 1243.86 959.48 1243.86 958.878 1243.86 958.264 1243.77 957.698 1243.6 957.18 1243.42 956.662 1243.17 956.222 1242.85 955.861 1242.52 955.5 1242.11 955.217 1241.61 955.012 1241.11 954.807 1240.54 954.705 1239.89 954.705 1238.77 954.705 1237.83 955.009 1237.07 955.617 1236.31 956.225 1235.72 957.108 1235.3 958.264L1232.93 958.264 1232.93 954.741C1234.47 954.103 1235.89 953.639 1237.19 953.35 1238.48 953.061 1239.65 952.916 1240.68 952.916Z" fill-rule="evenodd"/><text fill="#000000" fill-opacity="0" font-family="Arial,Arial_MSFontService,sans-serif" font-size="23.396" x="1232.35" y="973.388">2</text><path d="M1271.53 973.662C1272.17 973.662 1272.74 973.813 1273.25 974.114 1273.77 974.415 1274.16 974.834 1274.44 975.371 1274.71 975.908 1274.85 976.511 1274.85 977.178 1274.85 977.862 1274.71 978.472 1274.43 979.009 1274.14 979.546 1273.74 979.961 1273.23 980.254 1272.72 980.547 1272.15 980.694 1271.53 980.694 1270.91 980.694 1270.35 980.547 1269.84 980.254 1269.32 979.961 1268.92 979.546 1268.64 979.009 1268.35 978.472 1268.21 977.862 1268.21 977.178 1268.21 976.511 1268.35 975.908 1268.63 975.371 1268.9 974.834 1269.3 974.415 1269.81 974.114 1270.32 973.813 1270.9 973.662 1271.53 973.662Z" fill-rule="evenodd"/><text fill="#000000" fill-opacity="0" font-family="Arial,Arial_MSFontService,sans-serif" font-size="7.03125" x="1268.21" y="979.815">∙</text><path d="M1339.22 947.343 1388.22 947.343 1388.22 950.343 1342.3 950.343 1342.3 950.908 1337.88 950.908 1324.74 995.781 1322.37 995.781 1312.27 974.053 1308.14 975.884 1307.38 974.053 1315.39 970.391 1324.01 989.336 1336.07 947.661 1339.22 947.661Z" fill-rule="evenodd"/><path d="M1357.22 960.283C1356.36 960.283 1355.45 960.316 1354.49 960.381L1351.36 974.517 1354.24 974.517C1356.6 974.517 1358.47 974.199 1359.83 973.565 1361.2 972.93 1362.28 971.888 1363.08 970.44 1363.88 968.991 1364.28 967.429 1364.28 965.752 1364.28 965.052 1364.21 964.43 1364.08 963.884 1363.95 963.339 1363.78 962.888 1363.57 962.529 1363.36 962.171 1363.09 961.854 1362.76 961.577 1362.44 961.301 1362.03 961.061 1361.54 960.857 1361.05 960.654 1360.49 960.507 1359.85 960.418 1359.2 960.328 1358.33 960.283 1357.22 960.283ZM1347.43 958.135 1358.3 958.135C1360.02 958.135 1361.43 958.237 1362.52 958.44 1363.61 958.644 1364.54 958.949 1365.31 959.356 1366.09 959.763 1366.73 960.287 1367.26 960.93 1367.78 961.573 1368.17 962.298 1368.43 963.103 1368.69 963.909 1368.82 964.767 1368.82 965.679 1368.82 968.185 1368.05 970.318 1366.52 972.075 1364.99 973.833 1362.74 975.168 1359.76 976.079L1359.76 976.348C1360.54 976.934 1361.17 977.634 1361.65 978.447 1362.13 979.261 1362.52 980.392 1362.81 981.841L1363.37 984.673C1363.55 985.568 1363.76 986.374 1363.98 987.09 1364.21 987.806 1364.48 988.376 1364.8 988.799 1365.12 989.222 1365.48 989.54 1365.88 989.751 1366.28 989.963 1366.86 990.134 1367.62 990.264L1367.38 991.46 1360.61 991.46C1360.09 990.012 1359.63 988.286 1359.22 986.284L1358.15 981.109C1357.97 980.213 1357.75 979.461 1357.5 978.85 1357.25 978.24 1356.95 977.768 1356.6 977.434 1356.25 977.101 1355.84 976.881 1355.38 976.775 1354.91 976.669 1354.35 976.616 1353.68 976.616L1350.9 976.616 1349.19 984.356C1349.04 984.99 1348.94 985.495 1348.88 985.869 1348.83 986.244 1348.78 986.638 1348.74 987.053 1348.7 987.468 1348.68 987.839 1348.68 988.164 1348.68 988.669 1348.76 989.063 1348.92 989.348 1349.08 989.633 1349.33 989.841 1349.65 989.971 1349.98 990.101 1350.54 990.199 1351.34 990.264L1351.07 991.46 1341.03 991.46 1341.3 990.264C1341.92 990.166 1342.39 990.008 1342.7 989.788 1343 989.568 1343.26 989.263 1343.48 988.872 1343.69 988.482 1343.88 988.006 1344.06 987.444 1344.24 986.883 1344.51 985.796 1344.87 984.185L1349.02 965.386C1349.38 963.758 1349.56 962.473 1349.56 961.529 1349.56 960.731 1349.37 960.178 1348.99 959.868 1348.62 959.559 1348.01 959.38 1347.16 959.331Z" fill-rule="evenodd"/><text fill="#000000" fill-opacity="0" font-family="Arial,Arial_MSFontService,sans-serif" font-size="33.3252" x="1341.03" y="987.294">𝑅</text><path d="M1382.76 987.332C1384.23 987.332 1385.59 987.498 1386.83 987.83L1386.02 991.582 1384.27 991.582C1384.25 990.741 1384.18 990.132 1384.07 989.756 1383.95 989.379 1383.76 989.097 1383.5 988.909 1383.24 988.721 1382.87 988.627 1382.4 988.627 1381.28 988.627 1380.28 989.072 1379.38 989.963 1378.49 990.854 1377.77 992.116 1377.2 993.748 1376.64 995.381 1376.35 996.95 1376.35 998.455 1376.35 999.584 1376.58 1000.42 1377.02 1000.97 1377.46 1001.52 1378.13 1001.79 1379.01 1001.79 1380.02 1001.79 1380.89 1001.6 1381.63 1001.22 1382.36 1000.84 1383.14 1000.24 1383.96 999.418L1384.97 1000.43C1383.93 1001.58 1382.88 1002.42 1381.82 1002.95 1380.77 1003.49 1379.63 1003.75 1378.41 1003.75 1376.81 1003.75 1375.59 1003.27 1374.76 1002.32 1373.93 1001.37 1373.52 999.988 1373.52 998.173 1373.52 996.988 1373.74 995.688 1374.18 994.271 1374.62 992.854 1375.27 991.609 1376.12 990.536 1376.97 989.462 1377.97 988.66 1379.11 988.129 1380.25 987.597 1381.47 987.332 1382.76 987.332Z" fill-rule="evenodd"/><text fill="#000000" fill-opacity="0" font-family="Arial,Arial_MSFontService,sans-serif" font-size="16.4189" x="1373.52" y="1001.7">𝑐</text><path d="M1313.23 945.848C1314.23 945.848 1315.15 945.983 1315.99 946.251 1316.84 946.52 1317.52 946.947 1318.03 947.533 1318.54 948.119 1318.8 948.851 1318.8 949.73 1318.8 950.502 1318.63 951.171 1318.28 951.737 1317.93 952.303 1317.46 952.794 1316.85 953.209 1316.25 953.624 1315.46 954.032 1314.51 954.432L1314.51 954.637C1315.92 954.862 1317.06 955.37 1317.91 956.161 1318.76 956.952 1319.18 957.914 1319.18 959.047 1319.18 960.043 1318.92 960.931 1318.4 961.713 1317.89 962.494 1317.1 963.114 1316.03 963.573 1314.97 964.032 1313.68 964.261 1312.16 964.261 1311.19 964.261 1310.23 964.176 1309.31 964.005 1308.38 963.834 1307.53 963.602 1306.74 963.309L1306.74 960.174 1308.69 960.174C1308.98 961.092 1309.41 961.756 1309.98 962.167 1310.55 962.577 1311.3 962.782 1312.24 962.782 1313.48 962.782 1314.41 962.499 1315.05 961.932 1315.68 961.366 1316 960.516 1316 959.383 1316 958.182 1315.58 957.269 1314.73 956.644 1313.89 956.019 1312.64 955.707 1310.98 955.707L1309.69 955.707 1309.69 954.198C1311.03 954.149 1312.15 953.942 1313.05 953.575 1313.95 953.209 1314.61 952.738 1315.01 952.162 1315.42 951.586 1315.62 950.926 1315.62 950.184 1315.62 949.315 1315.36 948.631 1314.83 948.133 1314.3 947.635 1313.54 947.386 1312.53 947.386 1311.66 947.386 1310.92 947.621 1310.31 948.089 1309.7 948.558 1309.23 949.256 1308.9 950.184L1306.95 950.199 1306.95 947.255C1309.24 946.317 1311.34 945.848 1313.23 945.848Z" fill-rule="evenodd"/><text fill="#000000" fill-opacity="0" font-family="Arial,Arial_MSFontService,sans-serif" font-size="18.4131" x="1306.74" y="961.96">3</text><path d="M1204.22 934.343 1296.72 934.343 1389.22 934.343 1389.22 937.343 1296.72 937.343 1204.22 937.343Z" fill-rule="evenodd"/></g></svg>