<svg width="238" height="130" xmlns="http://www.w3.org/2000/svg" xmlns:xlink="http://www.w3.org/1999/xlink" xml:space="preserve" overflow="hidden"><g transform="translate(-146 -263)"><path d="M190.971 309.113C191.997 309.113 192.807 309.45 193.401 310.126 193.995 310.801 194.292 311.684 194.292 312.775 194.292 313.589 194.137 314.427 193.828 315.289L194.145 315.411C195.74 313.247 197.274 311.66 198.747 310.651 200.22 309.642 201.714 309.137 203.227 309.137 204.415 309.137 205.408 309.227 206.206 309.406L205.034 314.874 202.519 314.874C202.422 314.191 202.283 313.662 202.104 313.287 201.925 312.913 201.714 312.653 201.469 312.506 201.225 312.36 200.916 312.286 200.542 312.286 199.956 312.286 199.317 312.539 198.625 313.043 197.934 313.548 197.156 314.337 196.294 315.411 195.431 316.486 194.743 317.519 194.231 318.512 193.718 319.505 193.291 320.766 192.949 322.296L190.63 332.867 186.406 332.867 189.946 317.389C190.174 316.412 190.32 315.656 190.385 315.118 190.451 314.581 190.483 314.134 190.483 313.776 190.483 313.125 190.377 312.653 190.166 312.36 189.954 312.067 189.621 311.92 189.165 311.92 188.66 311.92 188.127 312.128 187.566 312.543 187.004 312.958 186.235 313.711 185.259 314.801L183.867 313.434C185.364 311.871 186.618 310.761 187.627 310.101 188.636 309.442 189.751 309.113 190.971 309.113ZM160.094 299.542 182.115 299.542 180.43 307.037 178.087 307.037C178.022 305.784 177.92 304.795 177.781 304.071 177.643 303.347 177.448 302.826 177.196 302.509 176.943 302.191 176.638 301.976 176.28 301.862 175.922 301.748 175.385 301.691 174.669 301.691L167.149 301.691 164.244 314.972 168.809 314.972C169.525 314.972 170.12 314.874 170.592 314.679 171.064 314.484 171.503 314.13 171.91 313.617 172.317 313.104 172.821 312.229 173.424 310.992L175.645 310.992 173.277 321.295 171.129 321.295C171.129 319.651 171.076 318.622 170.97 318.207 170.864 317.792 170.661 317.507 170.36 317.352 170.059 317.198 169.46 317.12 168.565 317.12L163.78 317.12 161.851 325.763C161.51 327.293 161.339 328.562 161.339 329.572 161.339 330.076 161.42 330.471 161.583 330.756 161.746 331.04 161.99 331.248 162.315 331.378 162.641 331.508 163.202 331.606 164 331.671L163.731 332.867 153.697 332.867 153.966 331.671C154.584 331.574 155.048 331.415 155.357 331.195 155.666 330.975 155.927 330.67 156.138 330.28 156.35 329.889 156.545 329.413 156.724 328.851 156.903 328.29 157.172 327.203 157.53 325.592L161.68 306.793C162.038 305.166 162.218 303.88 162.218 302.936 162.218 302.138 162.03 301.585 161.656 301.276 161.282 300.966 160.671 300.787 159.825 300.739Z" fill-rule="evenodd"/><text fill="#000000" fill-opacity="0" font-family="Arial,Arial_MSFontService,sans-serif" font-size="33.3252" x="153.697" y="328.702">𝐹𝑟</text><path d="M225.816 322.028 255.894 322.028 255.894 325.275 225.816 325.275ZM225.816 311.896 255.894 311.896 255.894 315.143 225.816 315.143Z" fill-rule="evenodd"/><text fill="#000000" fill-opacity="0" font-family="Arial,Arial_MSFontService,sans-serif" font-size="13.3789" x="225.816" y="323.602">=</text><path d="M334.857 270.859C336.029 270.859 336.875 271.164 337.396 271.774 337.917 272.385 338.177 273.202 338.177 274.228 338.177 275.009 338.039 275.904 337.762 276.913 337.485 277.922 337.095 278.989 336.59 280.112 336.086 281.235 335.483 282.386 334.784 283.566 334.084 284.746 333.311 285.894 332.464 287.009 331.618 288.123 330.715 289.173 329.754 290.158 328.794 291.143 327.797 292.001 326.764 292.734 325.73 293.466 324.68 294.048 323.614 294.479 322.548 294.911 321.486 295.126 320.428 295.126 319.956 295.126 319.561 295.008 319.244 294.772 318.927 294.536 318.67 294.203 318.475 293.771 318.28 293.34 318.141 292.831 318.06 292.245 317.979 291.659 317.938 291.017 317.938 290.317 317.938 289.389 317.995 288.396 318.109 287.338 318.223 286.28 318.369 285.214 318.548 284.14L319.574 277.377C319.639 276.987 319.692 276.616 319.732 276.266 319.773 275.916 319.793 275.66 319.793 275.497 319.793 274.993 319.712 274.578 319.549 274.252 319.386 273.927 319.11 273.764 318.719 273.764 318.41 273.764 318.076 273.858 317.718 274.045 317.36 274.232 316.998 274.472 316.632 274.765 316.265 275.058 315.911 275.371 315.57 275.705 315.228 276.039 314.91 276.352 314.618 276.645L313.446 275.278C313.95 274.757 314.487 274.24 315.057 273.727 315.627 273.215 316.229 272.751 316.864 272.336 317.498 271.921 318.166 271.587 318.866 271.335 319.565 271.082 320.282 270.956 321.014 270.956 321.633 270.956 322.137 271.058 322.528 271.262 322.918 271.465 323.223 271.734 323.443 272.067 323.663 272.401 323.813 272.767 323.895 273.166 323.976 273.565 324.017 273.959 324.017 274.35 324.017 274.578 324.009 274.797 323.993 275.009 323.976 275.221 323.952 275.416 323.919 275.595L322.552 284.433C322.406 285.361 322.284 286.268 322.186 287.155 322.088 288.042 322.039 288.827 322.039 289.511 322.039 290.195 322.08 290.748 322.161 291.171 322.243 291.594 322.397 291.806 322.625 291.806 323.162 291.806 323.838 291.59 324.652 291.159 325.466 290.728 326.32 290.134 327.215 289.377 328.11 288.62 329.006 287.725 329.901 286.691 330.796 285.658 331.602 284.539 332.318 283.334 333.034 282.13 333.616 280.86 334.063 279.526 334.511 278.191 334.735 276.848 334.735 275.497 334.735 274.911 334.609 274.46 334.356 274.142 334.104 273.825 333.709 273.666 333.172 273.666 332.489 273.666 331.858 273.931 331.28 274.46 330.702 274.989 330.104 275.685 329.486 276.547L328.094 275.302C328.485 274.716 328.945 274.155 329.473 273.617 330.002 273.08 330.564 272.608 331.158 272.201 331.752 271.795 332.367 271.469 333.001 271.225 333.636 270.981 334.255 270.859 334.857 270.859Z" fill-rule="evenodd"/><text fill="#000000" fill-opacity="0" font-family="Arial,Arial_MSFontService,sans-serif" font-size="24.2676" x="313.446" y="292.093">𝑣</text><path d="M311.462 329.857 344.962 329.857 378.462 329.857 378.462 332.857 344.962 332.857 312.82 332.857 312.82 333.435 307.937 333.435 292.068 392.273 289.7 392.273 279.593 370.545 275.467 372.376 274.71 370.545 282.718 366.882 291.165 385.73 305.984 330.188 311.462 330.188Z" fill-rule="evenodd"/><path d="M329.978 353.85C328.318 353.85 326.829 354.521 325.51 355.864 324.192 357.207 323.154 359.017 322.397 361.296 321.641 363.575 321.262 365.845 321.262 368.107 321.262 369.8 321.506 371.066 321.995 371.904 322.483 372.742 323.248 373.161 324.29 373.161 325.12 373.161 325.946 372.876 326.768 372.307 327.589 371.737 328.468 370.834 329.404 369.597 330.34 368.36 331.068 367.18 331.589 366.057 332.11 364.934 332.554 363.534 332.92 361.857 333.286 360.181 333.469 358.724 333.469 357.487 333.469 356.218 333.201 355.294 332.664 354.716 332.126 354.139 331.231 353.85 329.978 353.85ZM329.587 351.921C330.613 351.921 331.581 352.043 332.493 352.287 333.404 352.531 334.324 352.946 335.251 353.532L337.498 351.921 339.06 352.312 336.545 363.688C336.366 364.486 335.959 366.496 335.325 369.719 334.657 373.137 334.116 375.554 333.701 376.97 333.286 378.386 332.769 379.676 332.151 380.839 331.532 382.003 330.735 383.016 329.758 383.879 328.782 384.742 327.598 385.409 326.206 385.881 324.814 386.353 323.166 386.589 321.262 386.589 315.11 386.589 312.034 384.798 312.034 381.218 312.034 380.306 312.31 379.476 312.864 378.728 313.417 377.979 314.304 377.189 315.525 376.359L317.283 377.775C316.973 378.15 316.713 378.52 316.501 378.886 316.29 379.252 316.139 379.606 316.05 379.948 315.96 380.29 315.915 380.697 315.915 381.169 315.915 382.39 316.355 383.281 317.234 383.842 318.113 384.404 319.439 384.685 321.213 384.685 323.215 384.685 324.823 384.233 326.035 383.33 327.248 382.426 328.285 380.974 329.148 378.972 330.011 376.97 330.849 373.942 331.663 369.89L331.321 369.816C329.742 371.981 328.277 373.56 326.926 374.553 325.575 375.546 324.119 376.042 322.556 376.042 320.782 376.042 319.403 375.375 318.418 374.04 317.433 372.705 316.941 370.801 316.941 368.327 316.941 365.544 317.486 362.871 318.577 360.307 319.667 357.744 321.181 355.705 323.118 354.191 325.055 352.678 327.211 351.921 329.587 351.921ZM359.415 344.475C358.699 344.475 357.926 344.499 357.096 344.548L350.773 373.43C351.245 373.479 352.148 373.503 353.483 373.503 356.12 373.503 358.358 373.043 360.197 372.124 362.036 371.204 363.623 369.764 364.957 367.802 366.292 365.841 367.277 363.774 367.912 361.601 368.546 359.428 368.864 357.137 368.864 354.729 368.864 351.327 368.07 348.767 366.483 347.05 364.896 345.333 362.54 344.475 359.415 344.475ZM350.089 342.351 359.342 342.351C361.8 342.351 363.794 342.538 365.324 342.912 366.854 343.286 368.282 343.962 369.608 344.938 370.935 345.915 371.932 347.213 372.599 348.833 373.266 350.452 373.6 352.368 373.6 354.582 373.6 356.779 373.348 358.879 372.843 360.881 372.339 362.883 371.614 364.726 370.67 366.411 369.726 368.095 368.595 369.56 367.277 370.805 365.958 372.05 364.681 373.007 363.444 373.674 362.207 374.341 360.823 374.842 359.293 375.175 357.763 375.509 355.981 375.676 353.947 375.676L343.693 375.676 343.961 374.479C344.58 374.382 345.044 374.223 345.353 374.003 345.662 373.784 345.923 373.479 346.134 373.088 346.346 372.697 346.541 372.221 346.72 371.66 346.899 371.098 347.168 370.012 347.526 368.4L351.676 349.602C352.034 347.974 352.213 346.664 352.213 345.671 352.213 344.906 352.022 344.373 351.64 344.072 351.257 343.771 350.651 343.596 349.821 343.547Z" fill-rule="evenodd"/><text fill="#000000" fill-opacity="0" font-family="Arial,Arial_MSFontService,sans-serif" font-size="44.2383" x="312.034" y="381.059">𝑔𝐷</text><path d="M273.462 316.857 325.962 316.857 378.462 316.857 378.462 319.857 325.962 319.857 273.462 319.857Z" fill-rule="evenodd"/></g></svg>