<svg width="276" height="130" xmlns="http://www.w3.org/2000/svg" xmlns:xlink="http://www.w3.org/1999/xlink" xml:space="preserve" overflow="hidden"><g transform="translate(-728 -111)"><path d="M772.405 156.769C773.431 156.769 774.24 157.106 774.834 157.782 775.428 158.457 775.725 159.34 775.725 160.431 775.725 161.245 775.571 162.083 775.262 162.945L775.579 163.068C777.174 160.903 778.708 159.316 780.181 158.307 781.654 157.298 783.147 156.793 784.661 156.793 785.849 156.793 786.842 156.883 787.64 157.062L786.468 162.53 783.953 162.53C783.855 161.847 783.717 161.318 783.538 160.944 783.359 160.569 783.147 160.309 782.903 160.162 782.659 160.016 782.35 159.943 781.975 159.943 781.39 159.943 780.751 160.195 780.059 160.699 779.367 161.204 778.59 161.993 777.727 163.068 776.865 164.142 776.177 165.175 775.664 166.168 775.152 167.161 774.724 168.422 774.383 169.952L772.063 180.524 767.84 180.524 771.38 165.045C771.608 164.069 771.754 163.312 771.819 162.775 771.884 162.237 771.917 161.79 771.917 161.432 771.917 160.781 771.811 160.309 771.599 160.016 771.388 159.723 771.054 159.576 770.599 159.576 770.094 159.576 769.561 159.784 768.999 160.199 768.438 160.614 767.669 161.367 766.692 162.457L765.301 161.09C766.798 159.527 768.051 158.417 769.06 157.757 770.07 157.098 771.184 156.769 772.405 156.769ZM741.527 147.198 763.549 147.198 761.864 154.694 759.52 154.694C759.455 153.44 759.354 152.451 759.215 151.727 759.077 151.003 758.882 150.482 758.629 150.165 758.377 149.847 758.072 149.632 757.714 149.518 757.356 149.404 756.819 149.347 756.102 149.347L748.583 149.347 745.678 162.628 750.243 162.628C750.959 162.628 751.553 162.53 752.025 162.335 752.497 162.14 752.937 161.786 753.344 161.273 753.751 160.76 754.255 159.886 754.857 158.649L757.079 158.649 754.711 168.951 752.562 168.951C752.562 167.307 752.509 166.278 752.404 165.863 752.298 165.448 752.094 165.163 751.793 165.008 751.492 164.854 750.894 164.777 749.999 164.777L745.214 164.777 743.285 173.419C742.943 174.949 742.772 176.219 742.772 177.228 742.772 177.732 742.854 178.127 743.016 178.412 743.179 178.697 743.423 178.904 743.749 179.034 744.074 179.165 744.636 179.262 745.433 179.327L745.165 180.524 735.131 180.524 735.399 179.327C736.018 179.23 736.482 179.071 736.791 178.851 737.1 178.632 737.361 178.326 737.572 177.936 737.784 177.545 737.979 177.069 738.158 176.507 738.337 175.946 738.606 174.86 738.964 173.248L743.114 154.449C743.472 152.822 743.651 151.536 743.651 150.592 743.651 149.794 743.464 149.241 743.09 148.932 742.715 148.623 742.105 148.444 741.259 148.395Z" fill-rule="evenodd"/><text fill="#000000" fill-opacity="0" font-family="Arial,Arial_MSFontService,sans-serif" font-size="33.3252" x="735.131" y="176.358">𝐹𝑟</text><path d="M807.25 169.684 837.328 169.684 837.328 172.931 807.25 172.931ZM807.25 159.552 837.328 159.552 837.328 162.799 807.25 162.799Z" fill-rule="evenodd"/><text fill="#000000" fill-opacity="0" font-family="Arial,Arial_MSFontService,sans-serif" font-size="13.3789" x="807.25" y="171.258">=</text><path d="M935.036 118.515C936.208 118.515 937.055 118.82 937.575 119.43 938.096 120.041 938.357 120.859 938.357 121.884 938.357 122.665 938.218 123.56 937.942 124.57 937.665 125.579 937.274 126.645 936.77 127.768 936.265 128.891 935.663 130.042 934.963 131.222 934.263 132.402 933.49 133.55 932.644 134.665 931.797 135.78 930.894 136.829 929.934 137.814 928.974 138.799 927.977 139.657 926.943 140.39 925.91 141.122 924.86 141.704 923.794 142.135 922.728 142.567 921.666 142.782 920.608 142.782 920.136 142.782 919.741 142.664 919.424 142.428 919.106 142.192 918.85 141.859 918.654 141.427 918.459 140.996 918.321 140.487 918.239 139.902 918.158 139.316 918.117 138.673 918.117 137.973 918.117 137.045 918.174 136.052 918.288 134.994 918.402 133.936 918.549 132.87 918.728 131.796L919.753 125.033C919.818 124.643 919.871 124.272 919.912 123.923 919.953 123.573 919.973 123.316 919.973 123.153 919.973 122.649 919.891 122.234 919.729 121.908 919.566 121.583 919.289 121.42 918.899 121.42 918.589 121.42 918.256 121.514 917.898 121.701 917.54 121.888 917.177 122.128 916.811 122.421 916.445 122.714 916.091 123.027 915.749 123.361 915.407 123.695 915.09 124.008 914.797 124.301L913.625 122.934C914.13 122.413 914.667 121.896 915.237 121.383 915.806 120.871 916.408 120.407 917.043 119.992 917.678 119.577 918.345 119.243 919.045 118.991 919.745 118.739 920.461 118.612 921.194 118.612 921.812 118.612 922.317 118.714 922.707 118.918 923.098 119.121 923.403 119.39 923.623 119.723 923.842 120.057 923.993 120.423 924.074 120.822 924.156 121.221 924.196 121.615 924.196 122.006 924.196 122.234 924.188 122.454 924.172 122.665 924.156 122.877 924.131 123.072 924.099 123.251L922.732 132.089C922.585 133.017 922.463 133.924 922.365 134.811 922.268 135.698 922.219 136.484 922.219 137.167 922.219 137.851 922.26 138.404 922.341 138.827 922.422 139.25 922.577 139.462 922.805 139.462 923.342 139.462 924.017 139.246 924.831 138.815 925.645 138.384 926.5 137.79 927.395 137.033 928.29 136.276 929.185 135.381 930.08 134.347 930.975 133.314 931.781 132.195 932.497 130.99 933.213 129.786 933.795 128.516 934.243 127.182 934.69 125.847 934.914 124.504 934.914 123.153 934.914 122.568 934.788 122.116 934.536 121.799 934.284 121.481 933.889 121.322 933.352 121.322 932.668 121.322 932.037 121.587 931.46 122.116 930.882 122.645 930.284 123.341 929.665 124.203L928.274 122.958C928.664 122.372 929.124 121.811 929.653 121.274 930.182 120.736 930.744 120.264 931.338 119.858 931.932 119.451 932.546 119.125 933.181 118.881 933.816 118.637 934.434 118.515 935.036 118.515Z" fill-rule="evenodd"/><text fill="#000000" fill-opacity="0" font-family="Arial,Arial_MSFontService,sans-serif" font-size="24.2676" x="913.625" y="139.749">𝑣</text><path d="M892.712 177.513 945.212 177.513 997.712 177.513 997.712 180.513 945.212 180.513 894.254 180.513 894.254 181.091 889.371 181.091 873.502 239.929 871.134 239.929 861.026 218.201 856.9 220.032 856.144 218.201 864.151 214.539 872.599 233.386 887.418 177.844 892.712 177.844Z" fill-rule="evenodd"/><path d="M911.412 201.506C909.752 201.506 908.262 202.177 906.944 203.52 905.626 204.863 904.588 206.673 903.831 208.952 903.074 211.231 902.696 213.501 902.696 215.764 902.696 217.456 902.94 218.722 903.428 219.56 903.917 220.398 904.682 220.817 905.723 220.817 906.553 220.817 907.379 220.532 908.201 219.963 909.023 219.393 909.902 218.49 910.838 217.253 911.774 216.016 912.502 214.836 913.023 213.713 913.544 212.59 913.987 211.19 914.354 209.514 914.72 207.837 914.903 206.38 914.903 205.143 914.903 203.874 914.634 202.95 914.097 202.372 913.56 201.795 912.665 201.506 911.412 201.506ZM911.021 199.577C912.046 199.577 913.015 199.699 913.926 199.943 914.838 200.187 915.757 200.602 916.685 201.188L918.931 199.577 920.494 199.968 917.979 211.345C917.8 212.142 917.393 214.152 916.758 217.375 916.091 220.793 915.55 223.21 915.135 224.626 914.72 226.042 914.203 227.332 913.585 228.495 912.966 229.659 912.169 230.672 911.192 231.535 910.215 232.398 909.031 233.065 907.64 233.537 906.248 234.009 904.6 234.245 902.696 234.245 896.544 234.245 893.467 232.455 893.467 228.874 893.467 227.962 893.744 227.132 894.297 226.384 894.851 225.635 895.738 224.846 896.959 224.016L898.716 225.432C898.407 225.806 898.147 226.176 897.935 226.542 897.724 226.909 897.573 227.263 897.483 227.604 897.394 227.946 897.349 228.353 897.349 228.825 897.349 230.046 897.789 230.937 898.668 231.498 899.546 232.06 900.873 232.341 902.647 232.341 904.649 232.341 906.256 231.889 907.469 230.986 908.681 230.082 909.719 228.63 910.582 226.628 911.444 224.626 912.282 221.599 913.096 217.546L912.754 217.473C911.176 219.637 909.711 221.216 908.36 222.209 907.009 223.202 905.552 223.698 903.99 223.698 902.216 223.698 900.836 223.031 899.852 221.696 898.867 220.362 898.375 218.457 898.375 215.983 898.375 213.2 898.92 210.527 900.01 207.963 901.101 205.4 902.615 203.361 904.551 201.848 906.488 200.334 908.645 199.577 911.021 199.577Z" fill-rule="evenodd"/><text fill="#000000" fill-opacity="0" font-family="Arial,Arial_MSFontService,sans-serif" font-size="34.668" x="893.467" y="229.912">𝑔</text><path d="M942.714 205.534C943.348 205.534 943.922 205.685 944.435 205.986 944.947 206.287 945.342 206.706 945.619 207.243 945.895 207.78 946.034 208.382 946.034 209.05 946.034 209.733 945.891 210.344 945.607 210.881 945.322 211.418 944.923 211.833 944.41 212.126 943.898 212.419 943.332 212.565 942.714 212.565 942.095 212.565 941.529 212.419 941.017 212.126 940.504 211.833 940.105 211.418 939.82 210.881 939.536 210.344 939.393 209.733 939.393 209.05 939.393 208.382 939.532 207.78 939.808 207.243 940.085 206.706 940.48 206.287 940.992 205.986 941.505 205.685 942.079 205.534 942.714 205.534Z" fill-rule="evenodd"/><text fill="#000000" fill-opacity="0" font-family="Arial,Arial_MSFontService,sans-serif" font-size="7.03125" x="939.393" y="211.686">∙</text><path d="M978.21 192.131C977.493 192.131 976.72 192.155 975.89 192.204L969.567 221.086C970.039 221.135 970.942 221.159 972.277 221.159 974.914 221.159 977.152 220.699 978.991 219.78 980.83 218.86 982.417 217.42 983.752 215.458 985.086 213.497 986.071 211.43 986.706 209.257 987.34 207.084 987.658 204.794 987.658 202.385 987.658 198.983 986.864 196.424 985.277 194.706 983.691 192.989 981.335 192.131 978.21 192.131ZM968.883 190.007 978.136 190.007C980.594 190.007 982.588 190.194 984.118 190.568 985.648 190.943 987.076 191.618 988.402 192.595 989.729 193.571 990.726 194.869 991.393 196.489 992.06 198.108 992.394 200.025 992.394 202.238 992.394 204.435 992.142 206.535 991.637 208.537 991.133 210.539 990.409 212.382 989.464 214.067 988.52 215.751 987.389 217.216 986.071 218.461 984.753 219.706 983.475 220.663 982.238 221.33 981.001 221.997 979.617 222.498 978.088 222.831 976.558 223.165 974.775 223.332 972.741 223.332L962.487 223.332 962.755 222.136C963.374 222.038 963.838 221.879 964.147 221.66 964.456 221.44 964.717 221.135 964.928 220.744 965.14 220.353 965.335 219.877 965.514 219.316 965.693 218.754 965.962 217.668 966.32 216.057L970.47 197.258C970.828 195.63 971.007 194.32 971.007 193.327 971.007 192.562 970.816 192.029 970.434 191.728 970.051 191.427 969.445 191.252 968.615 191.203Z" fill-rule="evenodd"/><text fill="#000000" fill-opacity="0" font-family="Arial,Arial_MSFontService,sans-serif" font-size="33.3252" x="962.487" y="219.166">𝐷</text><path d="M855.712 164.513 903.045 164.513 950.379 164.513 997.712 164.513 997.712 167.513 950.379 167.513 903.045 167.513 855.712 167.513Z" fill-rule="evenodd"/></g></svg>