<svg width="143" height="114" xmlns="http://www.w3.org/2000/svg" xmlns:xlink="http://www.w3.org/1999/xlink" xml:space="preserve" overflow="hidden"><g transform="translate(-199 -489)"><path d="M222.182 537.888C221.32 537.888 220.408 537.92 219.448 537.986L216.323 552.121 219.204 552.121C221.564 552.121 223.427 551.804 224.795 551.169 226.162 550.534 227.244 549.493 228.042 548.044 228.839 546.596 229.238 545.033 229.238 543.357 229.238 542.657 229.173 542.034 229.043 541.489 228.912 540.944 228.742 540.492 228.53 540.134 228.318 539.776 228.05 539.458 227.724 539.182 227.399 538.905 226.992 538.665 226.504 538.462 226.015 538.258 225.45 538.112 224.807 538.022 224.164 537.933 223.289 537.888 222.182 537.888ZM212.392 535.739 223.256 535.739C224.982 535.739 226.39 535.841 227.48 536.045 228.571 536.248 229.502 536.553 230.276 536.96 231.049 537.367 231.696 537.892 232.216 538.535 232.737 539.178 233.128 539.902 233.388 540.708 233.649 541.513 233.779 542.372 233.779 543.283 233.779 545.79 233.014 547.922 231.484 549.68 229.954 551.438 227.7 552.772 224.721 553.684L224.721 553.952C225.503 554.538 226.133 555.238 226.613 556.052 227.094 556.866 227.48 557.997 227.773 559.445L228.335 562.278C228.514 563.173 228.717 563.978 228.945 564.695 229.173 565.411 229.445 565.98 229.763 566.404 230.08 566.827 230.438 567.144 230.837 567.356 231.236 567.567 231.818 567.738 232.583 567.868L232.339 569.065 225.576 569.065C225.055 567.616 224.591 565.891 224.184 563.889L223.11 558.713C222.931 557.818 222.715 557.065 222.463 556.455 222.211 555.844 221.91 555.372 221.56 555.039 221.21 554.705 220.803 554.485 220.339 554.38 219.875 554.274 219.31 554.221 218.642 554.221L215.859 554.221 214.15 561.96C214.004 562.595 213.902 563.099 213.845 563.474 213.788 563.848 213.739 564.243 213.698 564.658 213.658 565.073 213.637 565.443 213.637 565.769 213.637 566.273 213.719 566.668 213.881 566.953 214.044 567.238 214.288 567.445 214.614 567.575 214.939 567.706 215.501 567.803 216.298 567.868L216.03 569.065 205.996 569.065 206.264 567.868C206.883 567.771 207.347 567.612 207.656 567.392 207.965 567.173 208.226 566.867 208.437 566.477 208.649 566.086 208.844 565.61 209.023 565.049 209.202 564.487 209.471 563.401 209.829 561.789L213.979 542.99C214.337 541.363 214.516 540.077 214.516 539.133 214.516 538.335 214.329 537.782 213.955 537.473 213.58 537.164 212.97 536.985 212.124 536.936Z" fill-rule="evenodd"/><text fill="#000000" fill-opacity="0" font-family="Arial,Arial_MSFontService,sans-serif" font-size="33.3252" x="205.996" y="564.899">𝑅</text><path d="M255.84 558.225 285.918 558.225 285.918 561.472 255.84 561.472ZM255.84 548.093 285.918 548.093 285.918 551.34 255.84 551.34Z" fill-rule="evenodd"/><text fill="#000000" fill-opacity="0" font-family="Arial,Arial_MSFontService,sans-serif" font-size="13.3789" x="255.84" y="559.799">=</text><path d="M324.36 502.344 315.668 517.725 325.214 517.725 324.799 509.863C324.75 508.789 324.709 507.446 324.677 505.835 324.644 504.224 324.628 503.06 324.628 502.344ZM324.506 497.193 328.193 497.193 329.95 524.414C330.032 525.7 330.178 526.705 330.39 527.429 330.601 528.154 330.89 528.691 331.257 529.041 331.623 529.391 332.156 529.614 332.856 529.712L332.587 530.908 322.431 530.908 322.699 529.712C323.66 529.631 324.376 529.256 324.848 528.589 325.32 527.922 325.556 526.75 325.556 525.073 325.556 524.439 325.531 523.747 325.483 522.998L325.312 519.849 314.569 519.849 313.227 522.241C312.592 523.364 312.128 524.329 311.835 525.134 311.542 525.94 311.396 526.652 311.396 527.271 311.396 528.638 312.218 529.452 313.861 529.712L313.593 530.908 303.608 530.908 303.876 529.712C304.381 529.647 304.857 529.448 305.304 529.114 305.752 528.78 306.228 528.276 306.733 527.6 307.237 526.925 307.945 525.806 308.857 524.243Z" fill-rule="evenodd"/><text fill="#000000" fill-opacity="0" font-family="Arial,Arial_MSFontService,sans-serif" font-size="33.7158" x="303.608" y="526.694">𝐴</text><path d="M321.897 571.621C320.888 571.621 319.83 571.646 318.723 571.694L315.403 586.489 317.942 586.489C319.911 586.489 321.502 586.286 322.715 585.879 323.927 585.472 324.92 584.841 325.693 583.987 326.466 583.132 327.064 582.119 327.488 580.947 327.911 579.776 328.122 578.49 328.122 577.09 328.122 575.202 327.642 573.818 326.682 572.94 325.722 572.061 324.127 571.621 321.897 571.621ZM311.667 569.473 322.434 569.473C324.371 569.473 325.962 569.623 327.207 569.924 328.452 570.226 329.477 570.689 330.283 571.316 331.089 571.943 331.691 572.736 332.09 573.696 332.488 574.657 332.688 575.772 332.688 577.041 332.688 579.483 332.11 581.598 330.954 583.389 329.799 585.179 328.232 586.497 326.255 587.344 324.277 588.19 321.905 588.613 319.138 588.613 317.478 588.613 316.094 588.581 314.988 588.516L313.425 595.693C313.279 596.361 313.177 596.873 313.12 597.232 313.063 597.59 313.014 597.976 312.973 598.391 312.933 598.806 312.912 599.177 312.912 599.502 312.912 600.007 312.994 600.401 313.156 600.686 313.319 600.971 313.563 601.179 313.889 601.309 314.214 601.439 314.776 601.537 315.573 601.602L315.305 602.798 305.271 602.798 305.539 601.602C306.158 601.504 306.622 601.345 306.931 601.126 307.24 600.906 307.501 600.601 307.712 600.21 307.924 599.819 308.119 599.343 308.298 598.782 308.477 598.22 308.746 597.134 309.104 595.523L313.254 576.724C313.612 575.096 313.791 573.81 313.791 572.866 313.791 572.069 313.604 571.515 313.23 571.206 312.855 570.897 312.245 570.718 311.399 570.669Z" fill-rule="evenodd"/><text fill="#000000" fill-opacity="0" font-family="Arial,Arial_MSFontService,sans-serif" font-size="33.3252" x="305.271" y="598.632">𝑃</text><path d="M304.219 553.063 336.219 553.063 336.219 556.063 304.219 556.063Z" fill-rule="evenodd"/></g></svg>