<?xml version="1.0" encoding="UTF-8"?>
<!DOCTYPE svg PUBLIC "-//W3C//DTD SVG 1.1//EN" "http://www.w3.org/Graphics/SVG/1.1/DTD/svg11.dtd">
<!-- Creator: CorelDRAW -->
<svg xmlns="http://www.w3.org/2000/svg" xml:space="preserve" width="103.882mm" height="103.882mm" version="1.1" style="shape-rendering:geometricPrecision; text-rendering:geometricPrecision; image-rendering:optimizeQuality; fill-rule:evenodd; clip-rule:evenodd"
viewBox="0 0 13989.41 13989.41"
 xmlns:xlink="http://www.w3.org/1999/xlink"
 xmlns:xodm="http://www.corel.com/coreldraw/odm/2003">
 <defs>
  <style type="text/css">
   <![CDATA[
    .str0 {stroke:#FCA706;stroke-width:478.87;stroke-miterlimit:16.3804}
    .fil0 {fill:#1A1A1A}
    .fil1 {fill:#FCA706;fill-rule:nonzero}
   ]]>
  </style>
 </defs>
 <g id="Capa_x0020_1">
  <metadata id="CorelCorpID_0Corel-Layer"/>
  <circle class="fil0" cx="6994.7" cy="6994.7" r="6994.7"/>
  <g id="_2426889198592">
   <path class="fil1 str0" d="M12778.71 7110.18c-460.06,55.87 -689.33,371.25 -689.33,946.14l0 1080.21c0,370.02 -95.64,636.97 -286.96,798.38 -191.31,160.17 -475.24,247.09 -851.78,259.52l0 -305.45c244.45,-12.42 423.62,-75.75 539.02,-192.45 113.86,-116.72 171.57,-338.98 171.57,-665.52l0 -1003.25c0,-569.91 215.6,-910.13 646.8,-1021.88l0 -14.89c-431.2,-109.27 -646.8,-432.09 -646.8,-967.24l0 -1065.33c0,-326.55 -57.7,-548.81 -171.57,-665.52 -115.4,-116.72 -294.57,-180.04 -539.02,-192.45l0 -305.45c376.54,12.42 660.47,99.33 851.78,259.5 191.32,161.41 286.96,428.37 286.96,798.38l0 1142.31c0,536.39 229.27,830.66 689.33,884.05l0 230.95z"/>
   <path class="fil1 str0" d="M3043.34 10194.44c-376.55,-12.43 -660.47,-99.34 -851.79,-261.99 -191.31,-162.65 -286.96,-428.37 -286.96,-795.91l0 -1080.21c0,-574.89 -230.79,-890.27 -693.88,-946.14l0 -230.95c463.09,-53.38 693.88,-347.66 693.88,-884.05l0 -1142.31c0,-367.53 95.65,-633.24 286.96,-795.89 191.32,-162.66 475.24,-249.58 851.79,-261.99l0 305.45c-261.17,12.42 -444.88,80.71 -551.16,207.35 -106.28,125.41 -159.42,342.7 -159.42,650.63l0 1065.33c0,538.87 -215.61,860.47 -645.31,967.24l0 14.89c429.69,111.75 645.31,451.97 645.31,1021.88l0 1003.25c0,307.93 53.14,525.21 159.42,650.61 106.28,126.64 289.99,194.94 551.16,207.36l0 305.45z"/>
   <path class="fil1 str0" d="M8131.3 9603.28l-785.07 -1496.82c-78.24,-149.05 -152.77,-272.04 -226.06,-371.41 -72.03,-100.62 -147.82,-180.12 -224.84,-239.73 -77.02,-58.39 -160.24,-101.86 -248.45,-126.71 -89.42,-26.1 -187.55,-38.5 -296.87,-38.5l-573.88 0 0 2273.17 -484.46 0 0 -5217.14 1501.8 0c196.28,0 386.32,28.56 570.16,86.95 182.61,58.38 345.34,144.09 488.18,258.37 142.85,114.28 258.38,257.13 344.09,428.55 85.72,172.66 129.19,372.65 129.19,599.97 0,183.85 -27.32,354.04 -83.22,509.31 -55.9,154.03 -135.39,291.9 -238.51,412.39 -103.1,119.26 -227.32,221.12 -373.9,304.35 -147.81,84.46 -313.02,146.57 -496.87,187.56l0 14.89c70.81,28.58 134.15,67.09 192.55,113.05 58.38,45.96 114.28,101.86 168.93,167.69 54.66,64.6 108.08,140.38 161.49,224.85 53.42,85.69 109.31,182.58 166.45,291.9l875.74 1617.31 -566.43 0zm-2355.17 -4769.97l0 2057.06 864.56 0c175.15,0 334.13,-24.85 479.48,-75.78 145.35,-50.93 269.55,-124.22 372.65,-218.62 103.1,-93.16 182.61,-207.44 239.75,-340.37 57.14,-132.9 85.72,-283.22 85.72,-449.65 0,-303.11 -96.89,-540.35 -291.92,-713.02 -195.02,-172.67 -477,-259.62 -845.94,-259.62l-904.3 0z"/>
  </g>
 </g>
</svg>
