<?xml version="1.0" encoding="UTF-8"?>
<!DOCTYPE svg PUBLIC "-//W3C//DTD SVG 1.1//EN" "http://www.w3.org/Graphics/SVG/1.1/DTD/svg11.dtd">
<!-- Creator: CorelDRAW -->
<svg xmlns="http://www.w3.org/2000/svg" xml:space="preserve" width="125.764mm" height="62.8185mm" version="1.1" style="shape-rendering:geometricPrecision; text-rendering:geometricPrecision; image-rendering:optimizeQuality; fill-rule:evenodd; clip-rule:evenodd"
viewBox="0 0 3920.24 1958.13"
 xmlns:xlink="http://www.w3.org/1999/xlink"
 xmlns:xodm="http://www.corel.com/coreldraw/odm/2003">
 <defs>
  <style type="text/css">
   <![CDATA[
    .str0 {stroke:#FCA706;stroke-width:110.85;stroke-miterlimit:16.3804}
    .fil0 {fill:#FCA706;fill-rule:nonzero}
   ]]>
  </style>
 </defs>
 <g id="Capa_x0020_1">
  <metadata id="CorelCorpID_0Corel-Layer"/>
  <g id="_1925664726464">
   <g>
    <path class="fil0 str0" d="M3864.82 1012.33c-132.53,16.1 -198.58,106.95 -198.58,272.56l0 311.2c0,106.6 -27.55,183.5 -82.67,230 -55.11,46.14 -136.91,71.18 -245.39,74.76l0 -88c70.42,-3.58 122.04,-21.82 155.28,-55.44 32.8,-33.62 49.43,-97.65 49.43,-191.73l0 -289.02c0,-164.18 62.11,-262.19 186.34,-294.39l0 -4.29c-124.23,-31.48 -186.34,-124.48 -186.34,-278.65l0 -306.9c0,-94.07 -16.62,-158.1 -49.43,-191.73 -33.24,-33.62 -84.86,-51.86 -155.28,-55.44l0 -87.99c108.48,3.58 190.28,28.62 245.39,74.76 55.11,46.5 82.67,123.41 82.67,230l0 329.08c0,154.53 66.05,239.3 198.58,254.68l0 66.53z"/>
    <path class="fil0 str0" d="M583.37 1900.85c-108.48,-3.58 -190.27,-28.62 -245.39,-75.48 -55.11,-46.86 -82.67,-123.41 -82.67,-229.29l0 -311.2c0,-165.61 -66.49,-256.47 -199.9,-272.56l0 -66.53c133.41,-15.38 199.9,-100.15 199.9,-254.68l0 -329.08c0,-105.88 27.56,-182.42 82.67,-229.28 55.11,-46.86 136.91,-71.9 245.39,-75.48l0 87.99c-75.24,3.58 -128.16,23.25 -158.78,59.74 -30.62,36.13 -45.92,98.72 -45.92,187.43l0 306.9c0,155.24 -62.12,247.89 -185.9,278.65l0 4.29c123.79,32.2 185.9,130.21 185.9,294.39l0 289.02c0,88.71 15.31,151.31 45.92,187.43 30.62,36.48 83.54,56.16 158.78,59.73l0 88z"/>
   </g>
   <path class="fil0 str0" d="M2287.56 1730.55l-226.17 -431.21c-22.54,-42.94 -44.01,-78.37 -65.13,-107 -20.75,-28.99 -42.58,-51.89 -64.77,-69.06 -22.18,-16.82 -46.16,-29.34 -71.57,-36.5 -25.76,-7.52 -54.03,-11.09 -85.52,-11.09l-165.33 0 0 654.87 -139.56 0 0 -1502.97 432.64 0c56.54,0 111.29,8.23 164.25,25.05 52.61,16.82 99.49,41.51 140.64,74.43 41.16,32.92 74.44,74.07 99.12,123.46 24.69,49.74 37.22,107.36 37.22,172.84 0,52.96 -7.87,101.99 -23.98,146.72 -16.1,44.38 -39,84.09 -68.71,118.81 -29.7,34.36 -65.48,63.7 -107.72,87.68 -42.58,24.33 -90.18,42.22 -143.14,54.03l0 4.29c20.4,8.23 38.65,19.33 55.47,32.57 16.82,13.24 32.93,29.34 48.67,48.31 15.75,18.61 31.14,40.44 46.52,64.77 15.39,24.69 31.49,52.6 47.95,84.09l252.29 465.92 -163.18 0zm-678.49 -1374.15l0 592.6 249.06 0c50.46,0 96.26,-7.16 138.13,-21.83 41.87,-14.67 77.66,-35.78 107.36,-62.98 29.7,-26.84 52.6,-59.76 69.07,-98.05 16.46,-38.29 24.69,-81.59 24.69,-129.54 0,-87.32 -27.91,-155.66 -84.09,-205.41 -56.18,-49.74 -137.42,-74.79 -243.7,-74.79l-260.52 0z"/>
  </g>
 </g>
</svg>
