<svg width="383" height="104" xmlns="http://www.w3.org/2000/svg" xmlns:xlink="http://www.w3.org/1999/xlink" xml:space="preserve" overflow="hidden"><g transform="translate(-158 -106)"><path d="M183.723 142.948C181.965 142.948 180.325 143.574 178.803 144.828 177.282 146.081 175.947 147.871 174.8 150.199 173.652 152.526 172.761 155.082 172.126 157.865 171.491 160.648 171.174 163.106 171.174 165.238 171.174 170.267 173.005 172.782 176.667 172.782 178.93 172.782 181.005 171.728 182.893 169.62 184.781 167.512 186.303 164.595 187.458 160.868 188.614 157.14 189.192 153.657 189.192 150.418 189.192 147.993 188.744 146.142 187.849 144.864 186.954 143.587 185.578 142.948 183.723 142.948ZM183.991 140.799C187.133 140.799 189.554 141.711 191.255 143.534 192.955 145.357 193.806 147.993 193.806 151.444 193.806 153.722 193.448 156.27 192.732 159.085 192.016 161.901 191.031 164.387 189.778 166.544 188.524 168.7 187.072 170.438 185.42 171.756 183.768 173.075 181.973 173.986 180.036 174.491 180.411 175.679 180.761 176.659 181.086 177.433 181.412 178.206 181.725 178.832 182.026 179.312 182.327 179.793 182.624 180.151 182.917 180.387 183.21 180.623 183.503 180.781 183.796 180.863 184.089 180.944 184.431 180.985 184.821 180.985 185.44 180.985 186.067 180.806 186.701 180.448 187.336 180.09 188.044 179.471 188.825 178.592L190.095 179.959C188.793 181.375 187.58 182.376 186.457 182.962 185.334 183.548 184.179 183.841 182.99 183.841 181.64 183.841 180.537 183.54 179.682 182.938 178.828 182.336 178.087 181.375 177.461 180.057 176.834 178.739 176.228 177.013 175.642 174.881 172.696 174.719 170.45 173.742 168.904 171.952 167.357 170.161 166.584 167.638 166.584 164.383 166.584 161.942 166.995 159.183 167.817 156.107 168.639 153.031 169.827 150.317 171.382 147.965 172.936 145.613 174.791 143.831 176.948 142.618 179.105 141.406 181.452 140.799 183.991 140.799Z" fill-rule="evenodd"/><text fill="#000000" fill-opacity="0" font-family="Arial,Arial_MSFontService,sans-serif" font-size="43.042" x="166.584" y="178.461">𝑄</text><path d="M216.495 163.675 246.573 163.675 246.573 166.922 216.495 166.922ZM216.495 153.543 246.573 153.543 246.573 156.79 216.495 156.79Z" fill-rule="evenodd"/><text fill="#000000" fill-opacity="0" font-family="Arial,Arial_MSFontService,sans-serif" font-size="13.3789" x="216.495" y="165.25">=</text><path d="M283.194 112.628C285.359 112.628 287.353 112.873 289.176 113.361L287.979 118.878 285.416 118.878C285.383 117.641 285.282 116.746 285.111 116.193 284.94 115.639 284.663 115.224 284.281 114.948 283.898 114.671 283.357 114.533 282.657 114.533 281.013 114.533 279.536 115.188 278.226 116.498 276.916 117.808 275.845 119.664 275.015 122.064 274.185 124.465 273.77 126.772 273.77 128.986 273.77 130.646 274.096 131.879 274.747 132.685 275.398 133.49 276.374 133.893 277.677 133.893 279.158 133.893 280.439 133.612 281.522 133.051 282.604 132.489 283.747 131.606 284.952 130.402L286.441 131.891C284.911 133.584 283.369 134.821 281.815 135.602 280.26 136.383 278.588 136.774 276.798 136.774 274.438 136.774 272.647 136.074 271.427 134.674 270.206 133.275 269.595 131.24 269.595 128.571 269.595 126.829 269.921 124.917 270.572 122.833 271.223 120.75 272.175 118.919 273.428 117.34 274.682 115.762 276.147 114.582 277.823 113.8 279.499 113.019 281.29 112.628 283.194 112.628Z" fill-rule="evenodd"/><text fill="#000000" fill-opacity="0" font-family="Arial,Arial_MSFontService,sans-serif" font-size="24.1455" x="269.595" y="133.756">𝑐</text><path d="M272.225 184.494C273.25 184.494 274.06 184.831 274.654 185.507 275.248 186.182 275.545 187.065 275.545 188.156 275.545 189.018 275.35 189.979 274.959 191.037L275.252 191.134C276.847 188.888 278.365 187.224 279.805 186.141 281.246 185.059 282.731 184.518 284.261 184.518 285.774 184.518 286.938 184.953 287.752 185.824 288.566 186.695 288.973 187.903 288.973 189.45 288.973 190.475 288.737 191.932 288.265 193.82L286.678 200.216C286.238 201.99 286.018 203.244 286.018 203.976 286.018 204.627 286.124 205.099 286.336 205.392 286.547 205.685 286.881 205.831 287.337 205.831 287.825 205.831 288.346 205.632 288.899 205.233 289.453 204.835 290.234 204.074 291.243 202.951L292.635 204.318C291.235 205.815 290.014 206.91 288.973 207.601 287.931 208.293 286.743 208.639 285.408 208.639 284.35 208.639 283.504 208.261 282.869 207.504 282.234 206.747 281.917 205.783 281.917 204.611 281.917 203.553 282.185 201.998 282.723 199.948L283.797 195.724C284.187 194.194 284.444 193.063 284.566 192.33 284.688 191.598 284.749 191.004 284.749 190.548 284.749 189.425 284.562 188.615 284.187 188.119 283.813 187.623 283.203 187.374 282.356 187.374 281.673 187.374 280.936 187.647 280.147 188.192 279.358 188.738 278.519 189.559 277.632 190.658 276.745 191.757 276.033 192.823 275.496 193.856 274.959 194.89 274.519 196.163 274.178 197.677L271.858 208.248 267.635 208.248 271.199 192.77C271.557 191.207 271.736 190.003 271.736 189.157 271.736 188.506 271.63 188.034 271.419 187.741 271.207 187.448 270.874 187.301 270.418 187.301 269.913 187.301 269.38 187.509 268.819 187.924 268.257 188.339 267.488 189.092 266.512 190.182L265.12 188.815C266.617 187.252 267.863 186.141 268.855 185.482 269.848 184.823 270.971 184.494 272.225 184.494Z" fill-rule="evenodd"/><text fill="#000000" fill-opacity="0" font-family="Arial,Arial_MSFontService,sans-serif" font-size="24.1455" x="265.12" y="205.621">𝑛</text><path d="M264.063 158.513 294.063 158.513 294.063 161.513 264.063 161.513Z" fill-rule="evenodd"/><path d="M325.852 145.951 317.161 161.332 326.707 161.332 326.291 153.47C326.243 152.396 326.202 151.053 326.169 149.442 326.137 147.831 326.121 146.667 326.121 145.951ZM354.996 143.338C354.133 143.338 353.221 143.371 352.261 143.436L349.136 157.572 352.017 157.572C354.377 157.572 356.241 157.254 357.608 156.62 358.975 155.985 360.057 154.943 360.855 153.495 361.652 152.046 362.051 150.484 362.051 148.807 362.051 148.107 361.986 147.485 361.856 146.939 361.726 146.394 361.555 145.943 361.343 145.584 361.132 145.226 360.863 144.909 360.538 144.632 360.212 144.356 359.805 144.116 359.317 143.912 358.829 143.709 358.263 143.562 357.62 143.473 356.977 143.383 356.102 143.338 354.996 143.338ZM345.206 141.19 356.07 141.19C357.795 141.19 359.203 141.292 360.293 141.495 361.384 141.699 362.316 142.004 363.089 142.411 363.862 142.818 364.509 143.342 365.03 143.985 365.551 144.628 365.941 145.353 366.202 146.158 366.462 146.964 366.592 147.822 366.592 148.734 366.592 151.24 365.827 153.373 364.297 155.13 362.767 156.888 360.513 158.223 357.535 159.134L357.535 159.403C358.316 159.989 358.947 160.689 359.427 161.502 359.907 162.316 360.293 163.447 360.586 164.896L361.148 167.728C361.327 168.623 361.53 169.429 361.758 170.145 361.986 170.861 362.259 171.431 362.576 171.854 362.894 172.277 363.252 172.595 363.65 172.806 364.049 173.018 364.631 173.189 365.396 173.319L365.152 174.515 358.389 174.515C357.868 173.067 357.404 171.341 356.998 169.339L355.923 164.164C355.744 163.268 355.529 162.516 355.276 161.905 355.024 161.295 354.723 160.823 354.373 160.489 354.023 160.156 353.616 159.936 353.152 159.83 352.688 159.724 352.123 159.671 351.456 159.671L348.672 159.671 346.963 167.411C346.817 168.045 346.715 168.55 346.658 168.924 346.601 169.299 346.552 169.693 346.512 170.108 346.471 170.523 346.451 170.894 346.451 171.219 346.451 171.724 346.532 172.118 346.695 172.403 346.858 172.688 347.102 172.896 347.427 173.026 347.753 173.156 348.314 173.254 349.112 173.319L348.843 174.515 338.809 174.515 339.078 173.319C339.696 173.221 340.16 173.062 340.469 172.843 340.778 172.623 341.039 172.318 341.25 171.927 341.462 171.537 341.657 171.061 341.836 170.499 342.015 169.937 342.284 168.851 342.642 167.24L346.792 148.441C347.151 146.813 347.33 145.527 347.33 144.583 347.33 143.786 347.142 143.233 346.768 142.923 346.394 142.614 345.783 142.435 344.937 142.386ZM325.999 140.799 329.685 140.799 331.443 168.021C331.524 169.307 331.671 170.312 331.882 171.036 332.094 171.76 332.383 172.298 332.749 172.647 333.115 172.997 333.648 173.221 334.348 173.319L334.08 174.515 323.923 174.515 324.192 173.319C325.152 173.237 325.868 172.863 326.34 172.196 326.812 171.528 327.048 170.357 327.048 168.68 327.048 168.045 327.024 167.354 326.975 166.605L326.804 163.456 316.062 163.456 314.719 165.848C314.084 166.971 313.621 167.936 313.328 168.741 313.035 169.547 312.888 170.259 312.888 170.877 312.888 172.245 313.71 173.058 315.354 173.319L315.085 174.515 305.1 174.515 305.369 173.319C305.873 173.254 306.349 173.054 306.797 172.721 307.244 172.387 307.721 171.882 308.225 171.207 308.73 170.532 309.438 169.413 310.349 167.85Z" fill-rule="evenodd"/><text fill="#000000" fill-opacity="0" font-family="Arial,Arial_MSFontService,sans-serif" font-size="33.7158" x="305.1" y="170.301">𝐴𝑅</text><path d="M381.722 132.648C382.974 132.648 384.043 132.79 384.929 133.073 385.814 133.356 386.534 133.738 387.088 134.22 387.642 134.702 388.042 135.28 388.289 135.954 388.536 136.629 388.659 137.358 388.659 138.14 388.659 138.61 388.626 139.047 388.56 139.45 388.494 139.854 388.379 140.251 388.217 140.643 388.054 141.034 387.84 141.429 387.575 141.826 387.31 142.223 386.979 142.645 386.582 143.091 386.281 143.476 385.889 143.922 385.407 144.428 384.926 144.933 384.399 145.475 383.827 146.054 383.254 146.632 382.655 147.234 382.029 147.86 381.403 148.486 380.794 149.107 380.204 149.721 379.614 150.335 379.072 150.931 378.578 151.51 378.084 152.088 377.681 152.618 377.368 153.099L384.052 153.099C384.618 153.099 385.07 153.078 385.407 153.036 385.745 152.994 386.025 152.901 386.247 152.756 386.47 152.612 386.66 152.392 386.817 152.097 386.973 151.802 387.154 151.395 387.359 150.877L389.039 150.877C388.979 151.732 388.921 152.594 388.867 153.461 388.813 154.328 388.756 155.189 388.695 156.044L373.393 156.044 373.393 155.105C373.682 154.454 374.02 153.813 374.405 153.181 374.79 152.548 375.224 151.907 375.706 151.257 376.188 150.606 376.736 149.935 377.35 149.242 377.964 148.55 378.645 147.83 379.391 147.083 380.523 145.951 381.445 144.985 382.155 144.184 382.866 143.383 383.426 142.669 383.836 142.043 384.245 141.417 384.525 140.838 384.676 140.308 384.826 139.778 384.902 139.212 384.902 138.61 384.902 137.996 384.814 137.43 384.64 136.912 384.465 136.394 384.215 135.954 383.89 135.593 383.565 135.232 383.152 134.949 382.652 134.744 382.152 134.539 381.577 134.437 380.927 134.437 379.807 134.437 378.867 134.741 378.109 135.349 377.35 135.957 376.76 136.84 376.338 137.996L373.971 137.996 373.971 134.473C375.513 133.835 376.931 133.371 378.226 133.082 379.521 132.793 380.686 132.648 381.722 132.648Z" fill-rule="evenodd"/><text fill="#000000" fill-opacity="0" font-family="Arial,Arial_MSFontService,sans-serif" font-size="23.396" x="373.393" y="153.12">2</text><path d="M406.426 130.191 409.226 130.191 396.182 163.813 393.346 163.813Z" fill-rule="evenodd"/><text fill="#000000" fill-opacity="0" font-family="Arial,Arial_MSFontService,sans-serif" font-size="33.6216" x="393.346" y="159.61">/</text><path d="M421.011 132.648C421.974 132.648 422.875 132.751 423.712 132.955 424.549 133.16 425.274 133.47 425.889 133.886 426.503 134.301 426.982 134.819 427.325 135.44 427.668 136.06 427.84 136.779 427.84 137.598 427.84 138.369 427.731 139.05 427.515 139.64 427.298 140.23 426.964 140.766 426.512 141.248 426.06 141.73 425.506 142.166 424.85 142.558 424.193 142.949 423.438 143.326 422.582 143.687L422.582 143.904C423.389 144.048 424.142 144.28 424.841 144.599 425.539 144.918 426.151 145.322 426.675 145.81 427.198 146.297 427.611 146.861 427.912 147.499 428.213 148.137 428.364 148.842 428.364 149.613 428.364 150.576 428.183 151.47 427.822 152.295 427.46 153.121 426.918 153.834 426.196 154.436 425.473 155.039 424.582 155.508 423.522 155.846 422.462 156.183 421.221 156.351 419.8 156.351 418.68 156.351 417.542 156.24 416.386 156.017 415.229 155.794 414.133 155.502 413.098 155.141L413.098 151.239 415.428 151.239C415.621 151.841 415.85 152.356 416.115 152.783 416.38 153.211 416.69 153.56 417.045 153.831 417.4 154.102 417.81 154.298 418.274 154.418 418.737 154.539 419.264 154.599 419.854 154.599 421.408 154.599 422.586 154.229 423.386 153.488 424.187 152.747 424.588 151.624 424.588 150.118 424.588 148.517 424.061 147.303 423.007 146.478 421.953 145.653 420.39 145.241 418.319 145.241L416.729 145.241 416.729 143.506C417.994 143.446 419.087 143.268 420.008 142.973 420.929 142.678 421.697 142.296 422.311 141.826 422.926 141.356 423.383 140.808 423.685 140.182 423.986 139.556 424.136 138.887 424.136 138.177 424.136 137.02 423.793 136.108 423.106 135.44 422.42 134.771 421.426 134.437 420.125 134.437 419.029 134.437 418.111 134.738 417.37 135.34 416.63 135.942 416.061 136.84 415.663 138.032L413.369 138.032 413.369 134.473C414.79 133.871 416.13 133.416 417.388 133.109 418.647 132.802 419.854 132.648 421.011 132.648Z" fill-rule="evenodd"/><text fill="#000000" fill-opacity="0" font-family="Arial,Arial_MSFontService,sans-serif" font-size="23.7031" x="413.098" y="153.389">3</text><path d="M462.062 140.799C463.559 140.799 464.947 140.901 466.224 141.104 467.502 141.308 468.914 141.654 470.46 142.142L469.093 148.416 466.749 148.416C466.684 147.033 466.473 145.947 466.115 145.157 465.757 144.368 465.244 143.802 464.576 143.46 463.909 143.119 463.022 142.948 461.915 142.948 460.564 142.948 459.376 143.224 458.351 143.778 457.326 144.331 456.544 145.084 456.007 146.036 455.47 146.988 455.201 148.05 455.201 149.222 455.201 150.443 455.523 151.513 456.166 152.433 456.809 153.352 458.042 154.439 459.865 155.692 461.46 156.799 462.676 157.787 463.514 158.658 464.353 159.529 464.971 160.453 465.37 161.429 465.769 162.406 465.968 163.537 465.968 164.823 465.968 166.808 465.492 168.57 464.54 170.108 463.588 171.646 462.245 172.835 460.512 173.673 458.778 174.511 456.805 174.93 454.591 174.93 453.094 174.93 451.478 174.808 449.745 174.564 448.012 174.32 446.461 174.011 445.094 173.636L446.559 166.922 448.903 166.922C448.903 168.908 449.362 170.385 450.282 171.353 451.202 172.322 452.622 172.806 454.542 172.806 456.756 172.806 458.497 172.204 459.767 170.999 461.036 169.795 461.671 168.119 461.671 165.97 461.671 164.977 461.496 164.103 461.146 163.346 460.796 162.589 460.267 161.865 459.559 161.173 458.851 160.481 457.83 159.688 456.495 158.792 455.291 157.979 454.29 157.177 453.492 156.388 452.695 155.598 452.06 154.715 451.588 153.739 451.116 152.762 450.88 151.672 450.88 150.467 450.88 148.547 451.344 146.854 452.272 145.389 453.2 143.924 454.51 142.793 456.202 141.996 457.895 141.198 459.848 140.799 462.062 140.799Z" fill-rule="evenodd"/><text fill="#000000" fill-opacity="0" font-family="Arial,Arial_MSFontService,sans-serif" font-size="34.1309" x="445.094" y="170.664">𝑆</text><path d="M485.11 132.775 486.212 132.775C486.188 133.437 486.17 134.03 486.158 134.554 486.146 135.078 486.137 135.587 486.131 136.081 486.125 136.575 486.122 137.062 486.122 137.544L486.122 151.275C486.122 151.648 486.134 151.97 486.158 152.241 486.182 152.512 486.221 152.741 486.275 152.928 486.33 153.115 486.402 153.274 486.492 153.407 486.583 153.539 486.688 153.653 486.808 153.75 486.953 153.894 487.146 154.006 487.387 154.084 487.627 154.162 487.935 154.229 488.308 154.283 488.681 154.337 489.13 154.379 489.654 154.409 490.178 154.439 490.807 154.46 491.542 154.472L491.542 156.044 477.215 156.044 477.215 154.472C477.926 154.448 478.528 154.421 479.022 154.391 479.516 154.361 479.937 154.319 480.286 154.265 480.636 154.211 480.916 154.15 481.127 154.084 481.337 154.018 481.521 153.937 481.678 153.84 481.846 153.732 481.991 153.614 482.111 153.488 482.232 153.361 482.328 153.202 482.4 153.009 482.472 152.816 482.53 152.582 482.572 152.305 482.614 152.027 482.635 151.684 482.635 151.275L482.635 138.321C482.635 137.851 482.545 137.52 482.364 137.327 482.183 137.135 481.924 137.038 481.587 137.038 481.214 137.038 480.66 137.231 479.925 137.617 479.19 138.002 478.239 138.574 477.071 139.333 476.914 139.056 476.77 138.779 476.637 138.502 476.505 138.225 476.366 137.942 476.221 137.653 477.715 136.834 479.193 136.018 480.657 135.205 482.12 134.392 483.605 133.582 485.11 132.775Z" fill-rule="evenodd"/><text fill="#000000" fill-opacity="0" font-family="Arial,Arial_MSFontService,sans-serif" font-size="23.2695" x="476.221" y="153.136">1</text><path d="M508.405 130.191 511.205 130.191 498.161 163.813 495.325 163.813Z" fill-rule="evenodd"/><text fill="#000000" fill-opacity="0" font-family="Arial,Arial_MSFontService,sans-serif" font-size="33.6216" x="495.325" y="159.61">/</text><path d="M523.026 132.648C524.279 132.648 525.348 132.79 526.233 133.073 527.118 133.356 527.838 133.738 528.392 134.22 528.946 134.702 529.346 135.28 529.593 135.954 529.84 136.629 529.964 137.358 529.964 138.14 529.964 138.61 529.93 139.047 529.864 139.45 529.798 139.854 529.683 140.251 529.521 140.643 529.358 141.034 529.144 141.429 528.88 141.826 528.615 142.223 528.283 142.645 527.886 143.091 527.585 143.476 527.193 143.922 526.712 144.428 526.23 144.933 525.703 145.475 525.131 146.054 524.559 146.632 523.959 147.234 523.333 147.86 522.707 148.486 522.099 149.107 521.508 149.721 520.918 150.335 520.376 150.931 519.882 151.51 519.389 152.088 518.985 152.618 518.672 153.099L525.357 153.099C525.923 153.099 526.374 153.078 526.712 153.036 527.049 152.994 527.329 152.901 527.552 152.756 527.774 152.612 527.964 152.392 528.121 152.097 528.277 151.802 528.458 151.395 528.663 150.877L530.343 150.877C530.283 151.732 530.225 152.594 530.171 153.461 530.117 154.328 530.06 155.189 530 156.044L514.697 156.044 514.697 155.105C514.986 154.454 515.324 153.813 515.709 153.181 516.095 152.548 516.528 151.907 517.01 151.257 517.492 150.606 518.04 149.935 518.654 149.242 519.268 148.55 519.949 147.83 520.695 147.083 521.828 145.951 522.749 144.985 523.46 144.184 524.17 143.383 524.73 142.669 525.14 142.043 525.549 141.417 525.829 140.838 525.98 140.308 526.13 139.778 526.206 139.212 526.206 138.61 526.206 137.996 526.118 137.43 525.944 136.912 525.769 136.394 525.519 135.954 525.194 135.593 524.869 135.232 524.456 134.949 523.956 134.744 523.457 134.539 522.881 134.437 522.231 134.437 521.111 134.437 520.172 134.741 519.413 135.349 518.654 135.957 518.064 136.84 517.642 137.996L515.276 137.996 515.276 134.473C516.817 133.835 518.235 133.371 519.53 133.082 520.825 132.793 521.99 132.648 523.026 132.648Z" fill-rule="evenodd"/><text fill="#000000" fill-opacity="0" font-family="Arial,Arial_MSFontService,sans-serif" font-size="23.396" x="514.697" y="153.12">2</text></g></svg>