<svg width="459" height="104" xmlns="http://www.w3.org/2000/svg" xmlns:xlink="http://www.w3.org/1999/xlink" xml:space="preserve" overflow="hidden"><g transform="translate(-158 -106)"><path d="M185.419 142.948C183.661 142.948 182.021 143.574 180.499 144.828 178.977 146.081 177.643 147.871 176.495 150.199 175.348 152.526 174.457 155.082 173.822 157.865 173.187 160.648 172.87 163.106 172.87 165.238 172.87 170.267 174.701 172.782 178.363 172.782 180.625 172.782 182.701 171.728 184.589 169.62 186.477 167.512 187.998 164.595 189.154 160.868 190.31 157.14 190.887 153.657 190.887 150.418 190.887 147.993 190.44 146.142 189.545 144.864 188.649 143.587 187.274 142.948 185.419 142.948ZM185.687 140.799C188.829 140.799 191.25 141.711 192.95 143.534 194.651 145.357 195.502 147.993 195.502 151.444 195.502 153.722 195.144 156.27 194.427 159.085 193.711 161.901 192.727 164.387 191.473 166.544 190.22 168.7 188.767 170.438 187.115 171.756 185.463 173.075 183.669 173.986 181.732 174.491 182.107 175.679 182.456 176.659 182.782 177.433 183.107 178.206 183.421 178.832 183.722 179.312 184.023 179.793 184.32 180.151 184.613 180.387 184.906 180.623 185.199 180.781 185.492 180.863 185.785 180.944 186.127 180.985 186.517 180.985 187.136 180.985 187.762 180.806 188.397 180.448 189.032 180.09 189.74 179.471 190.521 178.592L191.791 179.959C190.489 181.375 189.276 182.376 188.153 182.962 187.03 183.548 185.874 183.841 184.686 183.841 183.335 183.841 182.233 183.54 181.378 182.938 180.524 182.336 179.783 181.375 179.156 180.057 178.53 178.739 177.924 177.013 177.338 174.881 174.392 174.719 172.146 173.742 170.599 171.952 169.053 170.161 168.28 167.638 168.28 164.383 168.28 161.942 168.691 159.183 169.513 156.107 170.335 153.031 171.523 150.317 173.077 147.965 174.632 145.613 176.487 143.831 178.644 142.618 180.8 141.406 183.148 140.799 185.687 140.799Z" fill-rule="evenodd"/><text fill="#000000" fill-opacity="0" font-family="Arial,Arial_MSFontService,sans-serif" font-size="43.042" x="168.28" y="178.461">𝑄</text><path d="M218.191 163.675 248.269 163.675 248.269 166.922 218.191 166.922ZM218.191 153.543 248.269 153.543 248.269 156.79 218.191 156.79Z" fill-rule="evenodd"/><text fill="#000000" fill-opacity="0" font-family="Arial,Arial_MSFontService,sans-serif" font-size="13.3789" x="218.191" y="165.25">=</text><path d="M284.89 112.628C287.055 112.628 289.048 112.873 290.871 113.361L289.675 118.878 287.112 118.878C287.079 117.641 286.977 116.746 286.806 116.193 286.636 115.639 286.359 115.224 285.976 114.948 285.594 114.671 285.053 114.533 284.353 114.533 282.709 114.533 281.232 115.188 279.922 116.498 278.611 117.808 277.541 119.664 276.711 122.064 275.881 124.465 275.466 126.772 275.466 128.986 275.466 130.646 275.792 131.879 276.443 132.685 277.094 133.49 278.07 133.893 279.372 133.893 280.853 133.893 282.135 133.612 283.218 133.051 284.3 132.489 285.443 131.606 286.648 130.402L288.137 131.891C286.607 133.584 285.065 134.821 283.511 135.602 281.956 136.383 280.284 136.774 278.493 136.774 276.133 136.774 274.343 136.074 273.122 134.674 271.902 133.275 271.291 131.24 271.291 128.571 271.291 126.829 271.617 124.917 272.268 122.833 272.919 120.75 273.871 118.919 275.124 117.34 276.378 115.762 277.842 114.582 279.519 113.8 281.195 113.019 282.986 112.628 284.89 112.628Z" fill-rule="evenodd"/><text fill="#000000" fill-opacity="0" font-family="Arial,Arial_MSFontService,sans-serif" font-size="24.1455" x="271.291" y="133.756">𝑐</text><path d="M273.92 184.494C274.946 184.494 275.755 184.831 276.35 185.507 276.944 186.182 277.241 187.065 277.241 188.156 277.241 189.018 277.045 189.979 276.655 191.037L276.948 191.134C278.543 188.888 280.061 187.224 281.501 186.141 282.941 185.059 284.427 184.518 285.957 184.518 287.47 184.518 288.634 184.953 289.448 185.824 290.262 186.695 290.668 187.903 290.668 189.45 290.668 190.475 290.432 191.932 289.96 193.82L288.374 200.216C287.934 201.99 287.714 203.244 287.714 203.976 287.714 204.627 287.82 205.099 288.032 205.392 288.243 205.685 288.577 205.831 289.033 205.831 289.521 205.831 290.042 205.632 290.595 205.233 291.149 204.835 291.93 204.074 292.939 202.951L294.331 204.318C292.931 205.815 291.71 206.91 290.668 207.601 289.627 208.293 288.439 208.639 287.104 208.639 286.046 208.639 285.2 208.261 284.565 207.504 283.93 206.747 283.613 205.783 283.613 204.611 283.613 203.553 283.881 201.998 284.418 199.948L285.493 195.724C285.883 194.194 286.14 193.063 286.262 192.33 286.384 191.598 286.445 191.004 286.445 190.548 286.445 189.425 286.258 188.615 285.883 188.119 285.509 187.623 284.899 187.374 284.052 187.374 283.369 187.374 282.632 187.647 281.843 188.192 281.053 188.738 280.215 189.559 279.328 190.658 278.441 191.757 277.729 192.823 277.192 193.856 276.655 194.89 276.215 196.163 275.874 197.677L273.554 208.248 269.331 208.248 272.895 192.77C273.253 191.207 273.432 190.003 273.432 189.157 273.432 188.506 273.326 188.034 273.115 187.741 272.903 187.448 272.569 187.301 272.114 187.301 271.609 187.301 271.076 187.509 270.515 187.924 269.953 188.339 269.184 189.092 268.207 190.182L266.816 188.815C268.313 187.252 269.558 186.141 270.551 185.482 271.544 184.823 272.667 184.494 273.92 184.494Z" fill-rule="evenodd"/><text fill="#000000" fill-opacity="0" font-family="Arial,Arial_MSFontService,sans-serif" font-size="24.1455" x="266.816" y="205.621">𝑛</text><path d="M266.063 158.513 296.063 158.513 296.063 161.513 266.063 161.513Z" fill-rule="evenodd"/><path d="M325.261 156.717C325.895 156.717 326.469 156.868 326.982 157.169 327.494 157.47 327.889 157.889 328.166 158.426 328.443 158.963 328.581 159.566 328.581 160.233 328.581 160.916 328.438 161.527 328.154 162.064 327.869 162.601 327.47 163.016 326.957 163.309 326.445 163.602 325.879 163.749 325.261 163.749 324.642 163.749 324.077 163.602 323.564 163.309 323.051 163.016 322.652 162.601 322.368 162.064 322.083 161.527 321.94 160.916 321.94 160.233 321.94 159.566 322.079 158.963 322.355 158.426 322.632 157.889 323.027 157.47 323.539 157.169 324.052 156.868 324.626 156.717 325.261 156.717Z" fill-rule="evenodd"/><text fill="#000000" fill-opacity="0" font-family="Arial,Arial_MSFontService,sans-serif" font-size="7.03125" x="321.94" y="162.87">∙</text><path d="M364.077 145.951 355.386 161.332 364.931 161.332 364.516 153.47C364.468 152.396 364.427 151.053 364.394 149.442 364.362 147.831 364.346 146.667 364.346 145.951ZM393.221 143.338C392.358 143.338 391.446 143.371 390.486 143.436L387.361 157.572 390.242 157.572C392.602 157.572 394.466 157.254 395.833 156.62 397.2 155.985 398.282 154.943 399.08 153.495 399.877 152.046 400.276 150.484 400.276 148.807 400.276 148.107 400.211 147.485 400.081 146.939 399.951 146.394 399.78 145.943 399.568 145.584 399.357 145.226 399.088 144.909 398.763 144.632 398.437 144.356 398.03 144.116 397.542 143.912 397.054 143.709 396.488 143.562 395.845 143.473 395.202 143.383 394.327 143.338 393.221 143.338ZM383.431 141.19 394.295 141.19C396.02 141.19 397.428 141.292 398.518 141.495 399.609 141.699 400.541 142.004 401.314 142.411 402.087 142.818 402.734 143.342 403.255 143.985 403.776 144.628 404.166 145.353 404.427 146.158 404.687 146.964 404.817 147.822 404.817 148.734 404.817 151.24 404.052 153.373 402.522 155.13 400.992 156.888 398.738 158.223 395.76 159.134L395.76 159.403C396.541 159.989 397.172 160.689 397.652 161.502 398.132 162.316 398.518 163.447 398.811 164.896L399.373 167.728C399.552 168.623 399.755 169.429 399.983 170.145 400.211 170.861 400.484 171.431 400.801 171.854 401.118 172.277 401.477 172.595 401.875 172.806 402.274 173.018 402.856 173.189 403.621 173.319L403.377 174.515 396.614 174.515C396.093 173.067 395.629 171.341 395.223 169.339L394.148 164.164C393.969 163.268 393.754 162.516 393.501 161.905 393.249 161.295 392.948 160.823 392.598 160.489 392.248 160.156 391.841 159.936 391.377 159.83 390.913 159.724 390.348 159.671 389.681 159.671L386.897 159.671 385.188 167.411C385.042 168.045 384.94 168.55 384.883 168.924 384.826 169.299 384.777 169.693 384.737 170.108 384.696 170.523 384.676 170.894 384.676 171.219 384.676 171.724 384.757 172.118 384.92 172.403 385.083 172.688 385.327 172.896 385.652 173.026 385.978 173.156 386.539 173.254 387.337 173.319L387.068 174.515 377.034 174.515 377.303 173.319C377.921 173.221 378.385 173.062 378.694 172.843 379.003 172.623 379.264 172.318 379.475 171.927 379.687 171.537 379.882 171.061 380.061 170.499 380.24 169.937 380.509 168.851 380.867 167.24L385.017 148.441C385.375 146.813 385.555 145.527 385.555 144.583 385.555 143.786 385.367 143.233 384.993 142.923 384.619 142.614 384.008 142.435 383.162 142.386ZM364.223 140.799 367.91 140.799 369.668 168.021C369.749 169.307 369.896 170.312 370.107 171.036 370.319 171.76 370.608 172.298 370.974 172.647 371.34 172.997 371.873 173.221 372.573 173.319L372.305 174.515 362.148 174.515 362.417 173.319C363.377 173.237 364.093 172.863 364.565 172.196 365.037 171.528 365.273 170.357 365.273 168.68 365.273 168.045 365.249 167.354 365.2 166.605L365.029 163.456 354.287 163.456 352.944 165.848C352.309 166.971 351.846 167.936 351.553 168.741 351.26 169.547 351.113 170.259 351.113 170.877 351.113 172.245 351.935 173.058 353.579 173.319L353.31 174.515 343.325 174.515 343.594 173.319C344.098 173.254 344.574 173.054 345.022 172.721 345.469 172.387 345.945 171.882 346.45 171.207 346.955 170.532 347.663 169.413 348.574 167.85Z" fill-rule="evenodd"/><text fill="#000000" fill-opacity="0" font-family="Arial,Arial_MSFontService,sans-serif" font-size="33.7158" x="343.325" y="170.301">𝐴𝑅</text><path d="M419.947 132.648C421.199 132.648 422.268 132.79 423.154 133.073 424.039 133.356 424.759 133.738 425.313 134.22 425.867 134.702 426.267 135.28 426.514 135.954 426.761 136.629 426.884 137.358 426.884 138.14 426.884 138.61 426.851 139.047 426.785 139.45 426.719 139.854 426.604 140.251 426.442 140.643 426.279 141.034 426.065 141.429 425.8 141.826 425.535 142.223 425.204 142.645 424.807 143.091 424.506 143.476 424.114 143.922 423.632 144.428 423.151 144.933 422.624 145.475 422.052 146.054 421.479 146.632 420.88 147.234 420.254 147.86 419.628 148.486 419.019 149.107 418.429 149.721 417.839 150.335 417.297 150.931 416.803 151.51 416.309 152.088 415.906 152.618 415.593 153.099L422.277 153.099C422.843 153.099 423.295 153.078 423.632 153.036 423.97 152.994 424.25 152.901 424.472 152.756 424.695 152.612 424.885 152.392 425.042 152.097 425.198 151.802 425.379 151.395 425.584 150.877L427.264 150.877C427.204 151.732 427.146 152.594 427.092 153.461 427.038 154.328 426.981 155.189 426.92 156.044L411.618 156.044 411.618 155.105C411.907 154.454 412.245 153.813 412.63 153.181 413.015 152.548 413.449 151.907 413.931 151.257 414.413 150.606 414.961 149.935 415.575 149.242 416.189 148.55 416.87 147.83 417.616 147.083 418.748 145.951 419.67 144.985 420.38 144.184 421.091 143.383 421.651 142.669 422.061 142.043 422.47 141.417 422.75 140.838 422.901 140.308 423.051 139.778 423.127 139.212 423.127 138.61 423.127 137.996 423.039 137.43 422.865 136.912 422.69 136.394 422.44 135.954 422.115 135.593 421.79 135.232 421.377 134.949 420.877 134.744 420.377 134.539 419.802 134.437 419.152 134.437 418.032 134.437 417.092 134.741 416.334 135.349 415.575 135.957 414.985 136.84 414.563 137.996L412.196 137.996 412.196 134.473C413.738 133.835 415.156 133.371 416.451 133.082 417.746 132.793 418.911 132.648 419.947 132.648Z" fill-rule="evenodd"/><text fill="#000000" fill-opacity="0" font-family="Arial,Arial_MSFontService,sans-serif" font-size="23.396" x="411.618" y="153.12">2</text><path d="M444.651 130.191 447.451 130.191 434.407 163.813 431.571 163.813Z" fill-rule="evenodd"/><text fill="#000000" fill-opacity="0" font-family="Arial,Arial_MSFontService,sans-serif" font-size="33.6216" x="431.571" y="159.61">/</text><path d="M459.236 132.648C460.199 132.648 461.1 132.751 461.937 132.955 462.774 133.16 463.499 133.47 464.114 133.886 464.728 134.301 465.207 134.819 465.55 135.44 465.893 136.06 466.065 136.779 466.065 137.598 466.065 138.369 465.956 139.05 465.74 139.64 465.523 140.23 465.189 140.766 464.737 141.248 464.285 141.73 463.731 142.166 463.075 142.558 462.418 142.949 461.663 143.326 460.807 143.687L460.807 143.904C461.614 144.048 462.367 144.28 463.066 144.599 463.764 144.918 464.376 145.322 464.9 145.81 465.423 146.297 465.836 146.861 466.137 147.499 466.438 148.137 466.589 148.842 466.589 149.613 466.589 150.576 466.408 151.47 466.047 152.295 465.685 153.121 465.143 153.834 464.421 154.436 463.698 155.039 462.807 155.508 461.747 155.846 460.687 156.183 459.446 156.351 458.025 156.351 456.905 156.351 455.767 156.24 454.611 156.017 453.454 155.794 452.358 155.502 451.323 155.141L451.323 151.239 453.653 151.239C453.846 151.841 454.075 152.356 454.34 152.783 454.605 153.211 454.915 153.56 455.27 153.831 455.625 154.102 456.035 154.298 456.499 154.418 456.962 154.539 457.489 154.599 458.079 154.599 459.633 154.599 460.81 154.229 461.611 153.488 462.412 152.747 462.813 151.624 462.813 150.118 462.813 148.517 462.286 147.303 461.232 146.478 460.178 145.653 458.615 145.241 456.544 145.241L454.954 145.241 454.954 143.506C456.219 143.446 457.312 143.268 458.233 142.973 459.154 142.678 459.922 142.296 460.536 141.826 461.151 141.356 461.608 140.808 461.91 140.182 462.211 139.556 462.361 138.887 462.361 138.177 462.361 137.02 462.018 136.108 461.331 135.44 460.645 134.771 459.651 134.437 458.35 134.437 457.254 134.437 456.336 134.738 455.595 135.34 454.855 135.942 454.285 136.84 453.888 138.032L451.594 138.032 451.594 134.473C453.015 133.871 454.355 133.416 455.613 133.109 456.872 132.802 458.079 132.648 459.236 132.648Z" fill-rule="evenodd"/><text fill="#000000" fill-opacity="0" font-family="Arial,Arial_MSFontService,sans-serif" font-size="23.7031" x="451.323" y="153.389">3</text><path d="M490.009 156.717C490.643 156.717 491.217 156.868 491.73 157.169 492.242 157.47 492.637 157.889 492.914 158.426 493.19 158.963 493.329 159.566 493.329 160.233 493.329 160.916 493.186 161.527 492.902 162.064 492.617 162.601 492.218 163.016 491.705 163.309 491.193 163.602 490.627 163.749 490.009 163.749 489.39 163.749 488.824 163.602 488.312 163.309 487.799 163.016 487.4 162.601 487.115 162.064 486.831 161.527 486.688 160.916 486.688 160.233 486.688 159.566 486.827 158.963 487.103 158.426 487.38 157.889 487.775 157.47 488.287 157.169 488.8 156.868 489.374 156.717 490.009 156.717Z" fill-rule="evenodd"/><text fill="#000000" fill-opacity="0" font-family="Arial,Arial_MSFontService,sans-serif" font-size="7.03125" x="486.688" y="162.87">∙</text><path d="M536.816 140.799C538.313 140.799 539.701 140.901 540.979 141.104 542.256 141.308 543.668 141.654 545.214 142.142L543.847 148.416 541.503 148.416C541.438 147.033 541.227 145.947 540.869 145.157 540.511 144.368 539.998 143.802 539.331 143.46 538.663 143.119 537.776 142.948 536.669 142.948 535.319 142.948 534.13 143.224 533.105 143.778 532.08 144.331 531.298 145.084 530.761 146.036 530.224 146.988 529.956 148.05 529.956 149.222 529.956 150.443 530.277 151.513 530.92 152.433 531.563 153.352 532.796 154.439 534.619 155.692 536.214 156.799 537.43 157.787 538.269 158.658 539.107 159.529 539.725 160.453 540.124 161.429 540.523 162.406 540.722 163.537 540.722 164.823 540.722 166.808 540.246 168.57 539.294 170.108 538.342 171.646 536.999 172.835 535.266 173.673 533.532 174.511 531.559 174.93 529.345 174.93 527.848 174.93 526.232 174.808 524.499 174.564 522.766 174.32 521.215 174.011 519.848 173.636L521.313 166.922 523.657 166.922C523.657 168.908 524.117 170.385 525.036 171.353 525.956 172.322 527.376 172.806 529.296 172.806 531.51 172.806 533.252 172.204 534.521 170.999 535.791 169.795 536.425 168.119 536.425 165.97 536.425 164.977 536.25 164.103 535.9 163.346 535.551 162.589 535.022 161.865 534.314 161.173 533.606 160.481 532.584 159.688 531.25 158.792 530.045 157.979 529.044 157.177 528.247 156.388 527.449 155.598 526.814 154.715 526.342 153.739 525.87 152.762 525.634 151.672 525.634 150.467 525.634 148.547 526.098 146.854 527.026 145.389 527.954 143.924 529.264 142.793 530.957 141.996 532.649 141.198 534.602 140.799 536.816 140.799Z" fill-rule="evenodd"/><text fill="#000000" fill-opacity="0" font-family="Arial,Arial_MSFontService,sans-serif" font-size="34.1309" x="519.848" y="170.664">𝑆</text><path d="M559.864 132.775 560.966 132.775C560.942 133.437 560.924 134.03 560.912 134.554 560.9 135.078 560.891 135.587 560.885 136.081 560.879 136.575 560.876 137.062 560.876 137.544L560.876 151.275C560.876 151.648 560.888 151.97 560.912 152.241 560.936 152.512 560.975 152.741 561.03 152.928 561.084 153.115 561.156 153.274 561.246 153.407 561.337 153.539 561.442 153.653 561.563 153.75 561.707 153.894 561.9 154.006 562.141 154.084 562.382 154.162 562.689 154.229 563.062 154.283 563.435 154.337 563.884 154.379 564.408 154.409 564.932 154.439 565.561 154.46 566.296 154.472L566.296 156.044 551.969 156.044 551.969 154.472C552.68 154.448 553.282 154.421 553.776 154.391 554.27 154.361 554.691 154.319 555.041 154.265 555.39 154.211 555.67 154.15 555.881 154.084 556.091 154.018 556.275 153.937 556.432 153.84 556.6 153.732 556.745 153.614 556.865 153.488 556.986 153.361 557.082 153.202 557.154 153.009 557.227 152.816 557.284 152.582 557.326 152.305 557.368 152.027 557.389 151.684 557.389 151.275L557.389 138.321C557.389 137.851 557.299 137.52 557.118 137.327 556.938 137.135 556.679 137.038 556.341 137.038 555.968 137.038 555.414 137.231 554.679 137.617 553.945 138.002 552.993 138.574 551.825 139.333 551.668 139.056 551.524 138.779 551.391 138.502 551.259 138.225 551.12 137.942 550.976 137.653 552.469 136.834 553.948 136.018 555.411 135.205 556.874 134.392 558.359 133.582 559.864 132.775Z" fill-rule="evenodd"/><text fill="#000000" fill-opacity="0" font-family="Arial,Arial_MSFontService,sans-serif" font-size="23.2695" x="550.976" y="153.136">1</text><path d="M583.159 130.191 585.96 130.191 572.916 163.813 570.079 163.813Z" fill-rule="evenodd"/><text fill="#000000" fill-opacity="0" font-family="Arial,Arial_MSFontService,sans-serif" font-size="33.6216" x="570.079" y="159.61">/</text><path d="M597.78 132.648C599.033 132.648 600.102 132.79 600.987 133.073 601.872 133.356 602.592 133.738 603.146 134.22 603.7 134.702 604.1 135.28 604.347 135.954 604.594 136.629 604.718 137.358 604.718 138.14 604.718 138.61 604.685 139.047 604.618 139.45 604.552 139.854 604.438 140.251 604.275 140.643 604.112 141.034 603.899 141.429 603.634 141.826 603.369 142.223 603.037 142.645 602.64 143.091 602.339 143.476 601.947 143.922 601.466 144.428 600.984 144.933 600.457 145.475 599.885 146.054 599.313 146.632 598.714 147.234 598.087 147.86 597.461 148.486 596.853 149.107 596.263 149.721 595.672 150.335 595.13 150.931 594.637 151.51 594.143 152.088 593.739 152.618 593.426 153.099L600.111 153.099C600.677 153.099 601.128 153.078 601.466 153.036 601.803 152.994 602.083 152.901 602.306 152.756 602.529 152.612 602.718 152.392 602.875 152.097 603.031 151.802 603.212 151.395 603.417 150.877L605.097 150.877C605.037 151.732 604.98 152.594 604.925 153.461 604.871 154.328 604.814 155.189 604.754 156.044L589.452 156.044 589.452 155.105C589.741 154.454 590.078 153.813 590.463 153.181 590.849 152.548 591.282 151.907 591.764 151.257 592.246 150.606 592.794 149.935 593.408 149.242 594.022 148.55 594.703 147.83 595.45 147.083 596.582 145.951 597.503 144.985 598.214 144.184 598.924 143.383 599.484 142.669 599.894 142.043 600.303 141.417 600.583 140.838 600.734 140.308 600.885 139.778 600.96 139.212 600.96 138.61 600.96 137.996 600.872 137.43 600.698 136.912 600.523 136.394 600.273 135.954 599.948 135.593 599.623 135.232 599.21 134.949 598.711 134.744 598.211 134.539 597.636 134.437 596.985 134.437 595.865 134.437 594.926 134.741 594.167 135.349 593.408 135.957 592.818 136.84 592.396 137.996L590.03 137.996 590.03 134.473C591.571 133.835 592.99 133.371 594.284 133.082 595.579 132.793 596.744 132.648 597.78 132.648Z" fill-rule="evenodd"/><text fill="#000000" fill-opacity="0" font-family="Arial,Arial_MSFontService,sans-serif" font-size="23.396" x="589.452" y="153.12">2</text></g></svg>