<?xml version="1.0" encoding="UTF-8"?>
<!DOCTYPE svg PUBLIC "-//W3C//DTD SVG 1.1//EN" "http://www.w3.org/Graphics/SVG/1.1/DTD/svg11.dtd">
<!-- Creator: CorelDRAW -->
<svg xmlns="http://www.w3.org/2000/svg" xml:space="preserve" width="131.105mm" height="131.105mm" version="1.1" style="shape-rendering:geometricPrecision; text-rendering:geometricPrecision; image-rendering:optimizeQuality; fill-rule:evenodd; clip-rule:evenodd"
viewBox="0 0 11193.25 11193.25"
 xmlns:xlink="http://www.w3.org/1999/xlink"
 xmlns:xodm="http://www.corel.com/coreldraw/odm/2003"
 enable-background="new 0 0 703 703">
 <defs>
  <style type="text/css">
   <![CDATA[
    .str0 {stroke:#FEFEFE;stroke-width:17.08;stroke-miterlimit:22.9256}
    .fil4 {fill:none}
    .fil3 {fill:none;fill-rule:nonzero}
    .fil0 {fill:#FEFEFE}
    .fil2 {fill:black;fill-rule:nonzero}
    .fil1 {fill:white;fill-rule:nonzero}
   ]]>
  </style>
   <clipPath id="id0">
    <path d="M5596.62 8.54c3086.22,0 5588.09,2501.86 5588.09,5588.08 0,3086.22 -2501.87,5588.09 -5588.09,5588.09 -3086.22,0 -5588.08,-2501.87 -5588.08,-5588.09 0,-3086.22 2501.86,-5588.08 5588.08,-5588.08z"/>
   </clipPath>
 </defs>
 <g id="Layer_x0020_1">
  <metadata id="CorelCorpID_0Corel-Layer"/>
  <path class="fil0" d="M5596.62 8.54c3086.22,0 5588.09,2501.86 5588.09,5588.08 0,3086.22 -2501.87,5588.09 -5588.09,5588.09 -3086.22,0 -5588.08,-2501.87 -5588.08,-5588.09 0,-3086.22 2501.86,-5588.08 5588.08,-5588.08z"/>
  <g style="clip-path:url(#id0)">
   <g id="_2484444259728">
    <g id="qr_code.svg">
     <rect class="fil1" x="1154" y="1185.34" width="8737.32" height="8737.32"/>
     <g>
      <g>
       <g>
        <path class="fil2" d="M3633.5 1657.63c65.21,0 118.08,52.87 118.08,118.08 0,65.21 -52.87,118.07 -118.08,118.07 -65.2,0.01 -118.07,-52.86 -118.07,-118.07 0,-65.21 52.87,-118.08 118.07,-118.08z"/>
       </g>
      </g>
      <g>
       <g>
        <path class="fil2" d="M5050.36 1657.63c27.53,0 118.08,0 118.08,0 0,0 0,80.37 0,118.08 0,29.42 0,118.07 0,118.07 0,0 -82.29,0 -118.08,0 -65.23,0.01 -118.07,-52.88 -118.07,-118.07 0,-65.19 52.84,-118.08 118.07,-118.08z"/>
       </g>
      </g>
      <g>
       <g>
        <rect class="fil2" x="5168.44" y="1657.63" width="236.14" height="236.14"/>
       </g>
      </g>
      <g>
       <g>
        <rect class="fil2" x="5404.58" y="1657.63" width="236.14" height="236.14"/>
       </g>
      </g>
      <g>
       <g>
        <rect class="fil2" x="5640.73" y="1657.63" width="236.14" height="236.14"/>
       </g>
      </g>
      <g>
       <g>
        <path class="fil2" d="M5994.94 1893.78c-27.52,0 -118.07,0 -118.07,0 0,0 0,-80.39 0,-118.08 -0.01,-29.43 -0.01,-118.08 -0.01,-118.08 0,0 82.3,0 118.08,0 65.2,0 118.07,52.87 118.07,118.08 0.01,65.21 -52.86,118.08 -118.07,118.08z"/>
       </g>
      </g>
      <g>
       <g>
        <path class="fil2" d="M6821.45 1775.7c0,27.52 0,118.08 0,118.08 0,0 -80.38,0 -118.07,-0.01 -29.44,0.01 -118.07,0 -118.07,0 0,0 0,-82.29 0,-118.07 -0.01,-65.21 52.85,-118.08 118.06,-118.08 65.21,0 118.08,52.87 118.08,118.08z"/>
       </g>
      </g>
      <g>
       <g>
        <path class="fil2" d="M7175.67 1657.63c65.21,0 118.07,52.87 118.07,118.08 0,65.21 -52.86,118.07 -118.07,118.07 -65.21,0.01 -118.08,-52.86 -118.08,-118.07 0,-65.21 52.87,-118.08 118.08,-118.08z"/>
       </g>
      </g>
      <g>
       <g>
        <path class="fil2" d="M4105.79 1893.78c65.21,0 118.07,52.87 118.07,118.07 0,65.21 -52.86,118.07 -118.07,118.07 -65.21,0.01 -118.07,-52.86 -118.07,-118.07 0,-65.2 52.86,-118.07 118.07,-118.07z"/>
       </g>
      </g>
      <g>
       <g>
        <path class="fil2" d="M4696.16 2011.84c0,27.52 0,118.07 0,118.07 0,0 -80.38,0 -118.08,0 -29.43,0 -118.07,0 -118.07,0 0,0 0,-82.29 0,-118.08 0,-65.19 52.86,-118.06 118.07,-118.06 65.21,0 118.08,52.87 118.08,118.07z"/>
       </g>
      </g>
      <g>
       <g>
        <path class="fil2" d="M6231.09 1893.78c27.52,0 118.07,0 118.07,0 0,0 0,80.37 0,118.07 0,29.42 0,118.07 0,118.07 0,0 -82.28,0 -118.07,0 -65.23,0.01 -118.07,-52.88 -118.07,-118.07 0,-65.19 52.84,-118.07 118.07,-118.07z"/>
       </g>
      </g>
      <g>
       <g>
        <rect class="fil2" x="6349.16" y="1893.77" width="236.14" height="236.14"/>
       </g>
      </g>
      <g>
       <g>
        <rect class="fil2" x="6585.3" y="1893.77" width="236.14" height="236.14"/>
       </g>
      </g>
      <g>
       <g>
        <g>
         <path class="fil2" d="M6821.45 1893.78l0 236.14 236.14 0c0,-130.42 -105.73,-236.14 -236.14,-236.14z"/>
        </g>
       </g>
      </g>
      <g>
       <g>
        <path class="fil2" d="M7529.88 2011.84c0,27.52 0,118.07 0,118.07 0,0 -80.38,0 -118.07,0 -29.44,0 -118.07,0 -118.07,0 0,0 0,-82.29 0,-118.08 0,-65.19 52.86,-118.06 118.06,-118.06 65.21,0 118.08,52.87 118.08,118.07z"/>
       </g>
      </g>
      <g>
       <g>
        <path class="fil2" d="M3987.73 2247.99c0,27.52 0,118.08 0,118.08 0,0 -80.38,0 -118.08,-0.01 -29.43,0.01 -118.07,0 -118.07,0 0,0 0,-82.29 0,-118.07 -0.01,-65.2 52.86,-118.07 118.07,-118.07 65.2,0 118.08,52.87 118.08,118.07z"/>
       </g>
      </g>
      <g>
       <g>
        <rect class="fil2" x="4460.01" y="2129.92" width="236.14" height="236.14"/>
       </g>
      </g>
      <g>
       <g>
        <path class="fil2" d="M4814.22 2366.06c-27.53,0 -118.07,0 -118.07,0 0,0 0,-80.38 0,-118.07 0,-29.44 0,-118.08 0,-118.08 0,0 82.29,0 118.07,0 65.2,0 118.07,52.87 118.07,118.07 0.01,65.21 -52.86,118.08 -118.07,118.08z"/>
       </g>
      </g>
      <g>
       <g>
        <path class="fil2" d="M5522.66 2129.92c27.52,0 118.07,0 118.07,0 0,0 0,80.37 0,118.07 0,29.43 0,118.08 0,118.08 0,0 -82.28,0 -118.07,0 -65.24,0 -118.08,-52.89 -118.08,-118.08 0,-65.18 52.84,-118.07 118.08,-118.07z"/>
       </g>
      </g>
      <g>
       <g>
        <rect class="fil2" x="5640.73" y="2129.92" width="236.14" height="236.14"/>
       </g>
      </g>
      <g>
       <g>
        <path class="fil2" d="M5994.94 2366.06c-27.52,0 -118.07,0 -118.07,0 0,0 0,-80.38 0,-118.07 -0.01,-29.44 -0.01,-118.08 -0.01,-118.08 0,0 82.3,0 118.08,0 65.2,0 118.07,52.87 118.07,118.07 0.01,65.21 -52.86,118.08 -118.07,118.08z"/>
       </g>
      </g>
      <g>
       <g>
        <g>
         <path class="fil2" d="M6585.3 2366.06l0 -236.14 -236.14 0c0,130.42 105.72,236.14 236.14,236.14z"/>
        </g>
       </g>
      </g>
      <g>
       <g>
        <rect class="fil2" x="6585.3" y="2129.92" width="236.14" height="236.14"/>
       </g>
      </g>
      <g>
       <g>
        <rect class="fil2" x="6821.45" y="2129.92" width="236.14" height="236.14"/>
       </g>
      </g>
      <g>
       <g>
        <rect class="fil2" x="7057.59" y="2129.92" width="236.14" height="236.14"/>
       </g>
      </g>
      <g>
       <g>
        <g>
         <path class="fil2" d="M7529.88 2129.92l-236.14 0 0 236.14c130.42,0 236.14,-105.72 236.14,-236.14z"/>
        </g>
       </g>
      </g>
      <g>
       <g>
        <g>
         <path class="fil2" d="M3515.43 2602.2l236.14 0 0 -236.14c-130.41,0 -236.14,105.72 -236.14,236.14z"/>
        </g>
       </g>
      </g>
      <g>
       <g>
        <g>
         <path class="fil2" d="M3987.73 2366.06l-236.15 0 0 236.14c130.42,0 236.15,-105.72 236.15,-236.14z"/>
        </g>
       </g>
      </g>
      <g>
       <g>
        <path class="fil2" d="M4460 2484.13c0,-27.52 0,-118.07 0,-118.07 0,0 80.39,0 118.08,0 29.43,0 118.07,0 118.07,0 0,0 0,82.3 0,118.07 0,65.21 -52.87,118.08 -118.07,118.08 -65.21,0 -118.08,-52.87 -118.08,-118.08z"/>
       </g>
      </g>
      <g>
       <g>
        <g>
         <path class="fil2" d="M4932.3 2602.2l236.14 0 0 -236.14c-130.42,0 -236.14,105.72 -236.14,236.14z"/>
        </g>
       </g>
      </g>
      <g>
       <g>
        <path class="fil2" d="M5286.52 2602.2c-27.53,0 -118.08,0 -118.08,0 0,0 0,-80.38 0,-118.07 0,-29.44 0,-118.08 0,-118.08 0,0 82.3,0 118.08,0 65.2,0 118.07,52.87 118.07,118.07 0,65.21 -52.87,118.08 -118.07,118.08z"/>
       </g>
      </g>
      <g>
       <g>
        <rect class="fil2" x="7057.59" y="2366.06" width="236.14" height="236.14"/>
       </g>
      </g>
      <g>
       <g>
        <rect class="fil2" x="3515.43" y="2602.21" width="236.14" height="236.14"/>
       </g>
      </g>
      <g>
       <g>
        <path class="fil2" d="M4105.79 2602.2c65.21,0 118.07,52.87 118.07,118.08 0,65.21 -52.86,118.07 -118.07,118.07 -65.21,0 -118.07,-52.86 -118.07,-118.07 0,-65.21 52.86,-118.08 118.07,-118.08z"/>
       </g>
      </g>
      <g>
       <g>
        <path class="fil2" d="M4814.22 2602.2c27.53,0 118.07,0 118.07,0 0,0 0,80.37 0,118.08 0,29.42 0,118.07 0,118.07 0,0 -82.28,0 -118.07,0 -65.23,0 -118.07,-52.88 -118.07,-118.07 0,-65.19 52.84,-118.08 118.07,-118.08z"/>
       </g>
      </g>
      <g>
       <g>
        <rect class="fil2" x="4932.3" y="2602.21" width="236.14" height="236.14"/>
       </g>
      </g>
      <g>
       <g>
        <path class="fil2" d="M5758.8 2602.2c27.53,0 118.07,0 118.07,0 0,0 0,80.37 0,118.08 0,29.42 0,118.07 0,118.07 0,0 -82.28,0 -118.07,0 -65.24,0 -118.08,-52.88 -118.08,-118.07 0,-65.19 52.84,-118.08 118.08,-118.08z"/>
       </g>
      </g>
      <g>
       <g>
        <g>
         <path class="fil2" d="M5876.87 2602.2l0 236.15 236.15 -0.01c0,-130.42 -105.73,-236.14 -236.15,-236.14z"/>
        </g>
       </g>
      </g>
      <g>
       <g>
        <g>
         <path class="fil2" d="M6585.3 2838.35l236.14 0 0 -236.14c-130.42,0 -236.14,105.72 -236.14,236.14z"/>
        </g>
       </g>
      </g>
      <g>
       <g>
        <rect class="fil2" x="6821.45" y="2602.21" width="236.14" height="236.14"/>
       </g>
      </g>
      <g>
       <g>
        <g>
         <path class="fil2" d="M7293.73 2602.2l-236.14 0 0 236.15c130.42,-0.01 236.14,-105.73 236.14,-236.15z"/>
        </g>
       </g>
      </g>
      <g>
       <g>
        <rect class="fil2" x="3515.43" y="2838.35" width="236.14" height="236.14"/>
       </g>
      </g>
      <g>
       <g>
        <path class="fil2" d="M3869.65 3074.49c-27.53,0 -118.08,0 -118.08,0 0,0 0,-80.38 0,-118.07 0,-29.44 0,-118.08 0,-118.08 0,0 82.3,0 118.08,0 65.2,0 118.07,52.87 118.07,118.07 0.01,65.21 -52.87,118.08 -118.07,118.08z"/>
       </g>
      </g>
      <g>
       <g>
        <rect class="fil2" x="4932.3" y="2838.35" width="236.14" height="236.14"/>
       </g>
      </g>
      <g>
       <g>
        <path class="fil2" d="M5640.73 2956.42c0,27.52 0,118.07 0,118.07 0,0 -80.38,0 -118.07,0 -29.44,0 -118.08,0 -118.08,0 0,0 0,-82.29 0,-118.08 0,-65.2 52.87,-118.07 118.07,-118.07 65.21,0 118.08,52.87 118.08,118.08z"/>
       </g>
      </g>
      <g>
       <g>
        <rect class="fil2" x="5876.87" y="2838.35" width="236.14" height="236.14"/>
       </g>
      </g>
      <g>
       <g>
        <path class="fil2" d="M6231.09 3074.49c-27.53,0 -118.07,0 -118.07,0 0,0 0,-80.38 0,-118.07 0,-29.44 0,-118.08 0,-118.08 0,0 82.29,0 118.07,0 65.2,0 118.07,52.87 118.07,118.07 0.01,65.21 -52.86,118.08 -118.07,118.08z"/>
       </g>
      </g>
      <g>
       <g>
        <g>
         <path class="fil2" d="M6821.45 3074.49l0 -236.14 -236.14 0c0,130.42 105.72,236.14 236.14,236.14z"/>
        </g>
       </g>
      </g>
      <g>
       <g>
        <rect class="fil2" x="6821.45" y="2838.35" width="236.14" height="236.14"/>
       </g>
      </g>
      <g>
       <g>
        <rect class="fil2" x="3515.43" y="3074.49" width="236.14" height="236.14"/>
       </g>
      </g>
      <g>
       <g>
        <path class="fil2" d="M4105.79 3074.49c65.21,0 118.07,52.87 118.07,118.08 0,65.2 -52.86,118.07 -118.07,118.07 -65.21,0 -118.07,-52.86 -118.07,-118.07 0,-65.21 52.86,-118.08 118.07,-118.08z"/>
       </g>
      </g>
      <g>
       <g>
        <path class="fil2" d="M4578.08 3074.49c65.21,0 118.08,52.87 118.08,118.08 0,65.2 -52.87,118.07 -118.08,118.07 -65.21,0 -118.08,-52.86 -118.08,-118.07 0,-65.21 52.87,-118.08 118.08,-118.08z"/>
       </g>
      </g>
      <g>
       <g>
        <rect class="fil2" x="4932.3" y="3074.49" width="236.14" height="236.14"/>
       </g>
      </g>
      <g>
       <g>
        <rect class="fil2" x="5404.58" y="3074.49" width="236.14" height="236.14"/>
       </g>
      </g>
      <g>
       <g>
        <path class="fil2" d="M5876.87 3192.57c0,-27.53 0,-118.08 0,-118.08 0,0 80.38,0 118.08,0 29.43,0 118.07,0 118.07,0 0,0 0,82.3 0,118.08 0,65.2 -52.87,118.07 -118.07,118.07 -65.21,0 -118.08,-52.87 -118.08,-118.07z"/>
       </g>
      </g>
      <g>
       <g>
        <path class="fil2" d="M6467.23 3074.49c65.21,0 118.07,52.87 118.07,118.08 0,65.2 -52.86,118.07 -118.07,118.07 -65.2,0 -118.07,-52.86 -118.07,-118.07 0,-65.21 52.87,-118.08 118.07,-118.08z"/>
       </g>
      </g>
      <g>
       <g>
        <path class="fil2" d="M6821.45 3192.57c0,-27.53 0,-118.08 0,-118.08 0,0 80.38,0 118.08,0 29.43,0 118.07,0 118.07,0 0,0 0,82.3 0,118.08 0,65.2 -52.87,118.07 -118.07,118.07 -65.21,0 -118.08,-52.87 -118.08,-118.07z"/>
       </g>
      </g>
      <g>
       <g>
        <path class="fil2" d="M7411.81 3074.49c65.21,0 118.07,52.87 118.07,118.08 0,65.2 -52.86,118.07 -118.07,118.07 -65.21,0 -118.08,-52.86 -118.08,-118.07 0,-65.21 52.87,-118.08 118.08,-118.08z"/>
       </g>
      </g>
      <g>
       <g>
        <rect class="fil2" x="3515.43" y="3310.64" width="236.14" height="236.14"/>
       </g>
      </g>
      <g>
       <g>
        <path class="fil2" d="M4341.94 3310.63c65.21,0 118.07,52.87 118.07,118.08 0,65.21 -52.86,118.07 -118.07,118.07 -65.21,0.01 -118.08,-52.86 -118.08,-118.07 0,-65.21 52.87,-118.08 118.08,-118.08z"/>
       </g>
      </g>
      <g>
       <g>
        <g>
         <path class="fil2" d="M5168.44 3546.78l0 -236.15 -236.14 0c0,130.42 105.72,236.15 236.14,236.15z"/>
        </g>
       </g>
      </g>
      <g>
       <g>
        <rect class="fil2" x="5168.44" y="3310.64" width="236.14" height="236.14"/>
       </g>
      </g>
      <g>
       <g>
        <rect class="fil2" x="5404.58" y="3310.64" width="236.14" height="236.14"/>
       </g>
      </g>
      <g>
       <g>
        <g>
         <path class="fil2" d="M5640.73 3310.63l0 236.15 236.14 0c0,-130.42 -105.72,-236.15 -236.14,-236.15z"/>
        </g>
       </g>
      </g>
      <g>
       <g>
        <path class="fil2" d="M6349.16 3428.71c0,27.52 0,118.07 0,118.07 0,0 -80.38,0 -118.08,0 -29.43,0 -118.07,0 -118.07,0 0,0 0,-82.29 0,-118.08 0,-65.2 52.86,-118.07 118.07,-118.07 65.21,0 118.08,52.87 118.08,118.08z"/>
       </g>
      </g>
      <g>
       <g>
        <path class="fil2" d="M6821.45 3428.71c0,27.52 0,118.07 0,118.07 0,0 -80.38,0 -118.07,0 -29.44,0 -118.07,0 -118.07,0 0,0 0,-82.29 0,-118.08 -0.01,-65.2 52.85,-118.07 118.06,-118.07 65.21,0 118.08,52.87 118.08,118.08z"/>
       </g>
      </g>
      <g>
       <g>
        <path class="fil2" d="M7293.73 3428.71c0,27.52 0,118.07 0,118.07 0,0 -80.38,0 -118.07,0 -29.44,0 -118.08,0 -118.08,0 0,0 0,-82.29 0,-118.08 0,-65.2 52.87,-118.07 118.07,-118.07 65.21,0 118.08,52.87 118.08,118.08z"/>
       </g>
      </g>
      <g>
       <g>
        <path class="fil2" d="M1862.43 3664.85c0,27.52 0,118.07 0,118.07 0,0 -80.38,0 -118.07,0 -29.44,0 -118.08,0 -118.08,0 0,0 0,-82.29 0,-118.08 0,-65.19 52.87,-118.06 118.07,-118.06 65.21,0 118.08,52.87 118.08,118.07z"/>
       </g>
      </g>
      <g>
       <g>
        <path class="fil2" d="M2807 3664.85c0,27.52 0,118.07 0,118.07 0,0 -80.38,0 -118.07,0 -29.43,0 -118.07,0 -118.07,0 0,0 0,-82.29 0,-118.08 0,-65.19 52.86,-118.06 118.07,-118.06 65.2,0 118.07,52.87 118.07,118.07z"/>
       </g>
      </g>
      <g>
       <g>
        <path class="fil2" d="M3161.22 3546.78c27.52,0 118.07,0 118.07,0 0,0 0,80.37 0,118.07 0,29.42 0,118.07 0,118.07 0,0 -82.28,0 -118.07,0 -65.24,0.01 -118.08,-52.88 -118.08,-118.07 0,-65.19 52.84,-118.07 118.08,-118.07z"/>
       </g>
      </g>
      <g>
       <g>
        <rect class="fil2" x="3279.29" y="3546.78" width="236.14" height="236.14"/>
       </g>
      </g>
      <g>
       <g>
        <rect class="fil2" x="3515.43" y="3546.78" width="236.14" height="236.14"/>
       </g>
      </g>
      <g>
       <g>
        <rect class="fil2" x="3751.58" y="3546.78" width="236.14" height="236.14"/>
       </g>
      </g>
      <g>
       <g>
        <g>
         <path class="fil2" d="M3987.73 3546.78l0 236.14 236.13 0c0,-130.42 -105.72,-236.14 -236.13,-236.14z"/>
        </g>
       </g>
      </g>
      <g>
       <g>
        <path class="fil2" d="M4696.16 3664.85c0,27.52 0,118.07 0,118.07 0,0 -80.38,0 -118.08,0 -29.43,0 -118.07,0 -118.07,0 0,0 0,-82.29 0,-118.08 0,-65.19 52.86,-118.06 118.07,-118.06 65.21,0 118.08,52.87 118.08,118.07z"/>
       </g>
      </g>
      <g>
       <g>
        <rect class="fil2" x="5404.58" y="3546.78" width="236.14" height="236.14"/>
       </g>
      </g>
      <g>
       <g>
        <rect class="fil2" x="5640.73" y="3546.78" width="236.14" height="236.14"/>
       </g>
      </g>
      <g>
       <g>
        <path class="fil2" d="M6113.02 3664.85c0,-27.52 0,-118.07 0,-118.07 0,0 80.38,0 118.07,0 29.43,0 118.07,0 118.07,0 0,0 0,82.29 0,118.07 0,65.2 -52.87,118.07 -118.07,118.07 -65.21,0.01 -118.07,-52.86 -118.07,-118.07z"/>
       </g>
      </g>
      <g>
       <g>
        <rect class="fil2" x="6585.3" y="3546.78" width="236.14" height="236.14"/>
       </g>
      </g>
      <g>
       <g>
        <rect class="fil2" x="6821.45" y="3546.78" width="236.14" height="236.14"/>
       </g>
      </g>
      <g>
       <g>
        <rect class="fil2" x="7057.59" y="3546.78" width="236.14" height="236.14"/>
       </g>
      </g>
      <g>
       <g>
        <g>
         <path class="fil2" d="M7529.88 3782.93l236.15 0 0 -236.14c-130.42,0 -236.15,105.72 -236.15,236.14z"/>
        </g>
       </g>
      </g>
      <g>
       <g>
        <rect class="fil2" x="7766.02" y="3546.78" width="236.14" height="236.14"/>
       </g>
      </g>
      <g>
       <g>
        <rect class="fil2" x="8002.17" y="3546.78" width="236.14" height="236.14"/>
       </g>
      </g>
      <g>
       <g>
        <rect class="fil2" x="8238.31" y="3546.78" width="236.14" height="236.14"/>
       </g>
      </g>
      <g>
       <g>
        <g>
         <path class="fil2" d="M8474.45 3546.78l0 236.14 236.14 0c0,-130.42 -105.73,-236.14 -236.14,-236.14z"/>
        </g>
       </g>
      </g>
      <g>
       <g>
        <path class="fil2" d="M9300.96 3546.78c65.21,0 118.07,52.87 118.07,118.07 0,65.21 -52.86,118.07 -118.07,118.07 -65.21,0.01 -118.08,-52.86 -118.08,-118.07 0,-65.2 52.87,-118.07 118.08,-118.07z"/>
       </g>
      </g>
      <g>
       <g>
        <rect class="fil2" x="1626.28" y="3782.92" width="236.14" height="236.14"/>
       </g>
      </g>
      <g>
       <g>
        <rect class="fil2" x="1862.43" y="3782.92" width="236.14" height="236.14"/>
       </g>
      </g>
      <g>
       <g>
        <path class="fil2" d="M2216.64 4019.07c-27.53,0 -118.08,0 -118.08,0 0,0 0,-80.38 0,-118.07 0,-29.44 0,-118.08 0,-118.08 0,0 82.3,0 118.08,0 65.2,0 118.07,52.87 118.07,118.07 0.01,65.21 -52.86,118.08 -118.07,118.08z"/>
       </g>
      </g>
      <g>
       <g>
        <g>
         <path class="fil2" d="M2807 4019.07l0 -236.14 -236.13 0c0,130.42 105.72,236.14 236.13,236.14z"/>
        </g>
       </g>
      </g>
      <g>
       <g>
        <g>
         <path class="fil2" d="M2807 3782.93l0 236.14 236.15 0c0,-130.42 -105.73,-236.14 -236.15,-236.14z"/>
        </g>
       </g>
      </g>
      <g>
       <g>
        <path class="fil2" d="M3279.29 3900.99c0,-27.52 0,-118.07 0,-118.07 0,0 80.38,0 118.07,0 29.44,0 118.08,0 118.08,0 0,0 0,82.29 0,118.07 0,65.21 -52.87,118.08 -118.08,118.08 -65.2,0 -118.07,-52.87 -118.07,-118.08z"/>
       </g>
      </g>
      <g>
       <g>
        <path class="fil2" d="M3987.73 3900.99c0,-27.52 0,-118.07 0,-118.07 0,0 80.38,0 118.07,0 29.43,0 118.07,0 118.07,0 0,0 0,82.29 0,118.07 0,65.21 -52.87,118.08 -118.07,118.08 -65.21,0 -118.07,-52.87 -118.07,-118.08z"/>
       </g>
      </g>
      <g>
       <g>
        <rect class="fil2" x="4460.01" y="3782.92" width="236.14" height="236.14"/>
       </g>
      </g>
      <g>
       <g>
        <rect class="fil2" x="4696.15" y="3782.92" width="236.14" height="236.14"/>
       </g>
      </g>
      <g>
       <g>
        <rect class="fil2" x="4932.3" y="3782.92" width="236.14" height="236.14"/>
       </g>
      </g>
      <g>
       <g>
        <rect class="fil2" x="5168.44" y="3782.92" width="236.14" height="236.14"/>
       </g>
      </g>
      <g>
       <g>
        <rect class="fil2" x="5404.58" y="3782.92" width="236.14" height="236.14"/>
       </g>
      </g>
      <g>
       <g>
        <g>
         <path class="fil2" d="M5876.87 3782.93l-236.14 0 0 236.14c130.42,0 236.14,-105.72 236.14,-236.14z"/>
        </g>
       </g>
      </g>
      <g>
       <g>
        <rect class="fil2" x="6585.3" y="3782.92" width="236.14" height="236.14"/>
       </g>
      </g>
      <g>
       <g>
        <rect class="fil2" x="7057.59" y="3782.92" width="236.14" height="236.14"/>
       </g>
      </g>
      <g>
       <g>
        <rect class="fil2" x="7529.88" y="3782.92" width="236.14" height="236.14"/>
       </g>
      </g>
      <g>
       <g>
        <rect class="fil2" x="8474.45" y="3782.92" width="236.14" height="236.14"/>
       </g>
      </g>
      <g>
       <g>
        <rect class="fil2" x="8710.6" y="3782.92" width="236.14" height="236.14"/>
       </g>
      </g>
      <g>
       <g>
        <g>
         <path class="fil2" d="M8946.74 3782.93l0 236.14 236.14 0c0,-130.42 -105.72,-236.14 -236.14,-236.14z"/>
        </g>
       </g>
      </g>
      <g>
       <g>
        <rect class="fil2" x="1626.28" y="4019.07" width="236.14" height="236.14"/>
       </g>
      </g>
      <g>
       <g>
        <g>
         <path class="fil2" d="M2098.57 4019.07l-236.14 0 0 236.14c130.42,0 236.14,-105.73 236.14,-236.14z"/>
        </g>
       </g>
      </g>
      <g>
       <g>
        <rect class="fil2" x="2807" y="4019.07" width="236.14" height="236.14"/>
       </g>
      </g>
      <g>
       <g>
        <path class="fil2" d="M3161.22 4255.21c-27.53,0 -118.08,0 -118.08,0 0,0 0,-80.39 0,-118.08 0,-29.43 0,-118.07 0,-118.07 0,0 82.29,0 118.07,0 65.2,0 118.07,52.87 118.07,118.07 0.01,65.21 -52.86,118.08 -118.06,118.08z"/>
       </g>
      </g>
      <g>
       <g>
        <g>
         <path class="fil2" d="M3515.43 4255.21l236.14 0 0 -236.14c-130.41,0 -236.14,105.72 -236.14,236.14z"/>
        </g>
       </g>
      </g>
      <g>
       <g>
        <g>
         <path class="fil2" d="M3751.58 4019.07l0 236.14 236.15 0c0,-130.42 -105.73,-236.14 -236.15,-236.14z"/>
        </g>
       </g>
      </g>
      <g>
       <g>
        <path class="fil2" d="M4341.94 4019.07c27.53,0 118.07,0 118.07,0 0,0 0,80.37 0,118.07 0,29.43 0,118.08 0,118.08 0,0 -82.28,0 -118.07,0 -65.24,0 -118.08,-52.88 -118.08,-118.08 0,-65.18 52.84,-118.07 118.08,-118.07z"/>
       </g>
      </g>
      <g>
       <g>
        <g>
         <path class="fil2" d="M4696.16 4019.07l-236.15 0 0 236.14c130.42,0 236.15,-105.73 236.15,-236.14z"/>
        </g>
       </g>
      </g>
      <g>
       <g>
        <path class="fil2" d="M5168.44 4137.14c0,-27.52 0,-118.07 0,-118.07 0,0 80.38,0 118.08,0 29.43,0 118.07,0 118.07,0 0,0 0,82.3 0,118.07 0,65.21 -52.87,118.08 -118.07,118.08 -65.21,0 -118.08,-52.87 -118.08,-118.08z"/>
       </g>
      </g>
      <g>
       <g>
        <path class="fil2" d="M6113.02 4137.14c0,27.53 0,118.08 0,118.08 0,0 -80.39,0 -118.08,-0.01 -29.43,0.01 -118.07,0 -118.07,0 0,0 0,-82.29 0,-118.07 0,-65.2 52.86,-118.07 118.07,-118.07 65.21,0 118.08,52.87 118.08,118.07z"/>
       </g>
      </g>
      <g>
       <g>
        <path class="fil2" d="M6467.23 4019.07c27.53,0 118.07,0 118.07,0 0,0 0,80.37 0,118.07 0,29.43 0,118.08 0,118.08 0,0 -82.28,0 -118.07,0 -65.23,0 -118.07,-52.88 -118.07,-118.08 0,-65.18 52.84,-118.07 118.07,-118.07z"/>
       </g>
      </g>
      <g>
       <g>
        <rect class="fil2" x="6585.3" y="4019.07" width="236.14" height="236.14"/>
       </g>
      </g>
      <g>
       <g>
        <rect class="fil2" x="6821.45" y="4019.07" width="236.14" height="236.14"/>
       </g>
      </g>
      <g>
       <g>
        <rect class="fil2" x="7057.59" y="4019.07" width="236.14" height="236.14"/>
       </g>
      </g>
      <g>
       <g>
        <path class="fil2" d="M7529.88 4137.14c0,-27.52 0,-118.07 0,-118.07 0,0 80.38,0 118.08,0 29.43,0 118.07,0 118.07,0 0,0 0,82.3 0,118.07 0,65.21 -52.87,118.08 -118.07,118.08 -65.21,0 -118.08,-52.87 -118.08,-118.08z"/>
       </g>
      </g>
      <g>
       <g>
        <path class="fil2" d="M8474.45 4137.14c0,-27.52 0,-118.07 0,-118.07 0,0 80.38,0 118.07,0 29.44,0 118.07,0 118.07,0 0,0 0,82.3 0,118.07 0,65.21 -52.87,118.08 -118.07,118.08 -65.2,0 -118.07,-52.87 -118.07,-118.08z"/>
       </g>
      </g>
      <g>
       <g>
        <path class="fil2" d="M8946.74 4137.14c0,-27.52 0,-118.07 0,-118.07 0,0 80.38,0 118.07,0 29.44,0 118.08,0 118.08,0 0,0 0,82.3 0,118.07 0,65.21 -52.87,118.08 -118.08,118.08 -65.2,0 -118.07,-52.87 -118.07,-118.08z"/>
       </g>
      </g>
      <g>
       <g>
        <path class="fil2" d="M1626.28 4373.29c0,-27.53 0,-118.08 0,-118.08 0,0 80.38,0 118.07,0 29.44,0 118.08,0 118.08,0 0,0 0,82.29 0,118.07 0,65.21 -52.87,118.07 -118.08,118.07 -65.2,0.01 -118.07,-52.86 -118.07,-118.06z"/>
       </g>
      </g>
      <g>
       <g>
        <g>
         <path class="fil2" d="M2334.72 4491.35l236.14 0 0 -236.14c-130.42,0 -236.14,105.72 -236.14,236.14z"/>
        </g>
       </g>
      </g>
      <g>
       <g>
        <rect class="fil2" x="2570.86" y="4255.21" width="236.14" height="236.14"/>
       </g>
      </g>
      <g>
       <g>
        <rect class="fil2" x="2807" y="4255.21" width="236.14" height="236.14"/>
       </g>
      </g>
      <g>
       <g>
        <g>
         <path class="fil2" d="M3279.29 4491.35l236.14 0 0 -236.14c-130.42,0 -236.14,105.72 -236.14,236.14z"/>
        </g>
       </g>
      </g>
      <g>
       <g>
        <rect class="fil2" x="3515.43" y="4255.21" width="236.14" height="236.14"/>
       </g>
      </g>
      <g>
       <g>
        <rect class="fil2" x="3751.58" y="4255.21" width="236.14" height="236.14"/>
       </g>
      </g>
      <g>
       <g>
        <path class="fil2" d="M4105.79 4491.35c-27.53,0 -118.07,0 -118.07,0 0,0 0,-80.39 0,-118.07 0,-29.44 0,-118.08 0,-118.08 0,0 82.29,0 118.07,0 65.2,0 118.07,52.87 118.07,118.07 0,65.21 -52.87,118.08 -118.07,118.08z"/>
       </g>
      </g>
      <g>
       <g>
        <path class="fil2" d="M5168.44 4373.29c0,27.52 0,118.07 0,118.07 0,0 -80.38,0 -118.07,-0.01 -29.44,0.01 -118.08,0 -118.08,0 0,0 0,-82.29 0,-118.07 0,-65.2 52.86,-118.07 118.07,-118.07 65.21,0 118.08,52.87 118.08,118.08z"/>
       </g>
      </g>
      <g>
       <g>
        <path class="fil2" d="M5758.8 4255.21c27.53,0 118.07,0 118.07,0 0,0 0,80.37 0,118.07 0,29.43 0,118.07 0,118.07 0,0 -82.28,0 -118.07,0 -65.24,0.01 -118.08,-52.87 -118.08,-118.06 0,-65.2 52.84,-118.08 118.08,-118.08z"/>
       </g>
      </g>
      <g>
       <g>
        <rect class="fil2" x="5876.87" y="4255.21" width="236.14" height="236.14"/>
       </g>
      </g>
      <g>
       <g>
        <rect class="fil2" x="6585.3" y="4255.21" width="236.14" height="236.14"/>
       </g>
      </g>
      <g>
       <g>
        <g>
         <path class="fil2" d="M7293.73 4491.35l0 -236.14 -236.14 0c0,130.42 105.72,236.14 236.14,236.14z"/>
        </g>
       </g>
      </g>
      <g>
       <g>
        <path class="fil2" d="M7411.81 4491.35c-27.53,0 -118.07,0 -118.07,0 0,0 0,-80.39 0,-118.07 -0.01,-29.44 -0.01,-118.08 -0.01,-118.08 0,0 82.3,0 118.07,0 65.21,0 118.08,52.87 118.08,118.07 0,65.21 -52.87,118.08 -118.07,118.08z"/>
       </g>
      </g>
      <g>
       <g>
        <path class="fil2" d="M2098.57 4609.43c0,27.52 0,118.07 0,118.07 0,0 -80.38,0 -118.07,0 -29.44,0 -118.07,0 -118.07,0 0,0 0,-82.29 0,-118.08 0,-65.2 52.86,-118.07 118.06,-118.07 65.21,0 118.08,52.87 118.08,118.08z"/>
       </g>
      </g>
      <g>
       <g>
        <path class="fil2" d="M2334.72 4609.43c0,-27.53 0,-118.08 0,-118.08 0,0 80.38,0 118.07,0 29.43,0 118.07,0 118.07,0 0,0 0,82.3 0,118.07 0,65.21 -52.87,118.08 -118.07,118.08 -65.21,0 -118.07,-52.87 -118.07,-118.07z"/>
       </g>
      </g>
      <g>
       <g>
        <g>
         <path class="fil2" d="M3043.15 4727.5l0 -236.14 -236.15 0c0.01,130.42 105.73,236.14 236.15,236.14z"/>
        </g>
       </g>
      </g>
      <g>
       <g>
        <rect class="fil2" x="3043.15" y="4491.36" width="236.14" height="236.14"/>
       </g>
      </g>
      <g>
       <g>
        <rect class="fil2" x="3279.29" y="4491.36" width="236.14" height="236.14"/>
       </g>
      </g>
      <g>
       <g>
        <path class="fil2" d="M4460 4609.43c0,27.52 0,118.07 0,118.07 0,0 -80.38,0 -118.07,0 -29.43,0 -118.07,0 -118.07,0 0,0 0,-82.29 0,-118.08 0,-65.2 52.86,-118.07 118.07,-118.07 65.21,0 118.07,52.87 118.07,118.08z"/>
       </g>
      </g>
      <g>
       <g>
        <g>
         <path class="fil2" d="M4696.16 4727.5l236.14 0 0 -236.14c-130.42,0 -236.14,105.72 -236.14,236.14z"/>
        </g>
       </g>
      </g>
      <g>
       <g>
        <rect class="fil2" x="4932.3" y="4491.36" width="236.14" height="236.14"/>
       </g>
      </g>
      <g>
       <g>
        <path class="fil2" d="M5286.52 4727.5c-27.53,0 -118.08,0 -118.08,0 0,0 0,-80.38 0,-118.07 0,-29.44 0,-118.08 0,-118.08 0,0 82.3,0 118.08,0 65.2,0 118.07,52.87 118.07,118.07 0,65.21 -52.87,118.08 -118.07,118.08z"/>
       </g>
      </g>
      <g>
       <g>
        <rect class="fil2" x="5876.87" y="4491.36" width="236.14" height="236.14"/>
       </g>
      </g>
      <g>
       <g>
        <rect class="fil2" x="6585.3" y="4491.36" width="236.14" height="236.14"/>
       </g>
      </g>
      <g>
       <g>
        <path class="fil2" d="M6939.52 4727.5c-27.53,0 -118.08,0 -118.08,0 0,0 0,-80.38 0,-118.07 0,-29.44 0,-118.08 0,-118.08 0,0 82.3,0 118.08,0 65.2,0 118.07,52.87 118.07,118.07 0,65.21 -52.87,118.08 -118.07,118.08z"/>
       </g>
      </g>
      <g>
       <g>
        <path class="fil2" d="M7884.09 4491.35c27.53,0 118.07,0 118.07,0 0,0 0,80.37 0,118.07 0,29.43 0,118.08 0,118.08 0,0 -82.28,0 -118.07,0 -65.23,0 -118.07,-52.88 -118.07,-118.07 0,-65.19 52.84,-118.08 118.07,-118.08z"/>
       </g>
      </g>
      <g>
       <g>
        <rect class="fil2" x="8002.17" y="4491.36" width="236.14" height="236.14"/>
       </g>
      </g>
      <g>
       <g>
        <rect class="fil2" x="8238.31" y="4491.36" width="236.14" height="236.14"/>
       </g>
      </g>
      <g>
       <g>
        <g>
         <path class="fil2" d="M8474.45 4491.35l0 236.14 236.14 0c0,-130.42 -105.73,-236.14 -236.14,-236.14z"/>
        </g>
       </g>
      </g>
      <g>
       <g>
        <path class="fil2" d="M9300.96 4491.35c65.21,0 118.07,52.87 118.07,118.07 0,65.21 -52.86,118.08 -118.07,118.08 -65.21,0 -118.08,-52.86 -118.08,-118.07 0,-65.21 52.87,-118.08 118.08,-118.08z"/>
       </g>
      </g>
      <g>
       <g>
        <g>
         <path class="fil2" d="M2098.57 4963.64l0 -236.14 -236.14 0c0,130.42 105.73,236.14 236.14,236.14z"/>
        </g>
       </g>
      </g>
      <g>
       <g>
        <path class="fil2" d="M2216.64 4963.64c-27.53,0 -118.08,0 -118.08,0 0,0 0,-80.38 0,-118.07 0,-29.44 0,-118.08 0,-118.08 0,0 82.3,0 118.08,0 65.2,0 118.07,52.87 118.07,118.08 0.01,65.21 -52.86,118.07 -118.07,118.07z"/>
       </g>
      </g>
      <g>
       <g>
        <path class="fil2" d="M3279.29 4845.57c0,-27.52 0,-118.08 0,-118.08 0,0 80.38,0 118.07,0 29.44,0 118.08,0 118.08,0 0,0 0,82.3 0,118.08 0,65.2 -52.87,118.07 -118.08,118.07 -65.2,0 -118.07,-52.86 -118.07,-118.07z"/>
       </g>
      </g>
      <g>
       <g>
        <path class="fil2" d="M3987.73 4845.57c0,27.52 0,118.07 0,118.07 0,0 -80.38,0 -118.08,-0.01 -29.43,0.01 -118.07,0 -118.07,0 0,0 0,-82.29 0,-118.07 -0.01,-65.2 52.86,-118.07 118.07,-118.07 65.2,0 118.08,52.87 118.08,118.08z"/>
       </g>
      </g>
      <g>
       <g>
        <path class="fil2" d="M4223.86 4845.57c0,-27.52 0,-118.08 0,-118.08 0,0 80.38,0 118.08,0 29.43,0 118.07,0 118.07,0 0,0 0,82.3 0,118.08 0,65.2 -52.87,118.07 -118.07,118.07 -65.21,0 -118.08,-52.86 -118.08,-118.07z"/>
       </g>
      </g>
      <g>
       <g>
        <rect class="fil2" x="4696.15" y="4727.5" width="236.14" height="236.14"/>
       </g>
      </g>
      <g>
       <g>
        <path class="fil2" d="M5640.73 4845.57c0,27.52 0,118.07 0,118.07 0,0 -80.38,0 -118.07,-0.01 -29.44,0.01 -118.08,0 -118.08,0 0,0 0,-82.29 0,-118.07 0,-65.2 52.87,-118.07 118.07,-118.07 65.21,0 118.08,52.87 118.08,118.08z"/>
       </g>
      </g>
      <g>
       <g>
        <rect class="fil2" x="5876.87" y="4727.5" width="236.14" height="236.14"/>
       </g>
      </g>
      <g>
       <g>
        <path class="fil2" d="M6585.3 4845.57c0,-27.52 0,-118.08 0,-118.08 0,0 80.38,0 118.07,0 29.44,0 118.08,0 118.08,0 0,0 0,82.3 0,118.08 0,65.2 -52.87,118.07 -118.08,118.07 -65.21,0 -118.07,-52.86 -118.07,-118.07z"/>
       </g>
      </g>
      <g>
       <g>
        <path class="fil2" d="M7293.73 4845.57c0,27.52 0,118.07 0,118.07 0,0 -80.38,0 -118.07,-0.01 -29.44,0.01 -118.08,0 -118.08,0 0,0 0,-82.29 0,-118.07 0,-65.2 52.87,-118.07 118.07,-118.07 65.21,0 118.08,52.87 118.08,118.08z"/>
       </g>
      </g>
      <g>
       <g>
        <path class="fil2" d="M7766.03 4845.57c0,27.52 0,118.07 0,118.07 0,0 -80.39,0 -118.08,-0.01 -29.43,0.01 -118.07,0 -118.07,0 0,0 0,-82.29 0,-118.07 0,-65.2 52.86,-118.07 118.07,-118.07 65.21,0 118.08,52.87 118.08,118.08z"/>
       </g>
      </g>
      <g>
       <g>
        <path class="fil2" d="M8002.17 4845.57c0,-27.52 0,-118.08 0,-118.08 0,0 80.38,0 118.07,0 29.44,0 118.07,0 118.07,0 0,0 0,82.3 0,118.08 0,65.2 -52.87,118.07 -118.07,118.07 -65.21,0 -118.07,-52.86 -118.07,-118.07z"/>
       </g>
      </g>
      <g>
       <g>
        <path class="fil2" d="M8474.45 4845.57c0,-27.52 0,-118.08 0,-118.08 0,0 80.38,0 118.07,0 29.44,0 118.07,0 118.07,0 0,0 0,82.3 0,118.08 0,65.2 -52.87,118.07 -118.07,118.07 -65.2,0 -118.07,-52.86 -118.07,-118.07z"/>
       </g>
      </g>
      <g>
       <g>
        <path class="fil2" d="M2807 5081.71c0,27.52 0,118.07 0,118.07 0,0 -80.38,0 -118.07,0 -29.43,0 -118.07,0 -118.07,0 0,0 0,-82.29 0,-118.08 0,-65.2 52.86,-118.07 118.07,-118.07 65.2,0 118.07,52.87 118.07,118.08z"/>
       </g>
      </g>
      <g>
       <g>
        <path class="fil2" d="M3161.22 4963.64c65.2,0 118.07,52.87 118.07,118.08 0,65.21 -52.87,118.07 -118.07,118.07 -65.21,0.01 -118.08,-52.86 -118.08,-118.07 0,-65.21 52.87,-118.08 118.08,-118.08z"/>
       </g>
      </g>
      <g>
       <g>
        <rect class="fil2" x="3751.58" y="4963.64" width="236.14" height="236.14"/>
       </g>
      </g>
      <g>
       <g>
        <g>
         <path class="fil2" d="M3987.73 4963.64l0 236.15 236.13 0c0,-130.43 -105.72,-236.15 -236.13,-236.15z"/>
        </g>
       </g>
      </g>
      <g>
       <g>
        <path class="fil2" d="M4578.08 4963.64c27.53,0 118.08,0 118.08,0 0,0 0,80.37 0,118.08 0,29.42 0,118.07 0,118.07 0,0 -82.29,0 -118.08,0 -65.23,0.01 -118.08,-52.88 -118.08,-118.07 0,-65.19 52.85,-118.08 118.08,-118.08z"/>
       </g>
      </g>
      <g>
       <g>
        <rect class="fil2" x="4696.15" y="4963.64" width="236.14" height="236.14"/>
       </g>
      </g>
      <g>
       <g>
        <path class="fil2" d="M5050.36 5199.79c-27.52,0 -118.07,0 -118.07,0 0,0 0,-80.39 0,-118.08 0,-29.44 0,-118.08 0,-118.08 0,0 82.29,0 118.07,0 65.21,0 118.08,52.87 118.08,118.08 0,65.21 -52.87,118.08 -118.08,118.08z"/>
       </g>
      </g>
      <g>
       <g>
        <g>
         <path class="fil2" d="M5640.73 5199.79l0 -236.15 -236.14 0c0,130.42 105.72,236.15 236.14,236.15z"/>
        </g>
       </g>
      </g>
      <g>
       <g>
        <rect class="fil2" x="5640.73" y="4963.64" width="236.14" height="236.14"/>
       </g>
      </g>
      <g>
       <g>
        <rect class="fil2" x="5876.87" y="4963.64" width="236.14" height="236.14"/>
       </g>
      </g>
      <g>
       <g>
        <path class="fil2" d="M6467.23 4963.64c65.21,0 118.07,52.87 118.07,118.08 0,65.21 -52.86,118.07 -118.07,118.07 -65.2,0.01 -118.07,-52.86 -118.07,-118.07 0,-65.21 52.87,-118.08 118.07,-118.08z"/>
       </g>
      </g>
      <g>
       <g>
        <g>
         <path class="fil2" d="M7293.73 5199.79l0 -236.15 -236.14 0c0,130.42 105.72,236.15 236.14,236.15z"/>
        </g>
       </g>
      </g>
      <g>
       <g>
        <rect class="fil2" x="7293.73" y="4963.64" width="236.14" height="236.14"/>
       </g>
      </g>
      <g>
       <g>
        <rect class="fil2" x="7529.88" y="4963.64" width="236.14" height="236.14"/>
       </g>
      </g>
      <g>
       <g>
        <g>
         <path class="fil2" d="M7766.03 4963.64l0 236.15 236.14 0c0,-130.43 -105.73,-236.15 -236.14,-236.15z"/>
        </g>
       </g>
      </g>
      <g>
       <g>
        <path class="fil2" d="M8828.67 4963.64c27.52,0 118.07,0 118.07,0 0,0 0,80.37 0,118.08 0,29.42 0,118.07 0,118.07 0,0 -82.28,0 -118.07,0 -65.24,0.01 -118.08,-52.88 -118.08,-118.07 0,-65.19 52.84,-118.08 118.08,-118.08z"/>
       </g>
      </g>
      <g>
       <g>
        <path class="fil2" d="M9064.81 5199.79c-27.53,0 -118.07,0 -118.07,0 0,0 0,-80.39 0,-118.08 -0.01,-29.44 -0.01,-118.08 -0.01,-118.08 0,0 82.3,0 118.07,0 65.21,0 118.08,52.87 118.08,118.08 0,65.21 -52.87,118.08 -118.07,118.08z"/>
       </g>
      </g>
      <g>
       <g>
        <path class="fil2" d="M1744.36 5199.79c27.52,0 118.07,0 118.07,0 0,0 0,80.37 0,118.07 0,29.43 0,118.07 0,118.07 0,0 -82.28,0 -118.07,0 -65.24,0.01 -118.08,-52.88 -118.08,-118.07 0,-65.19 52.84,-118.07 118.08,-118.07z"/>
       </g>
      </g>
      <g>
       <g>
        <path class="fil2" d="M1980.49 5435.93c-27.52,0 -118.07,0 -118.07,0 0,0 0,-80.39 0,-118.07 0,-29.45 0,-118.08 0,-118.08 0,0 82.3,0 118.07,0 65.21,0 118.08,52.87 118.08,118.07 0,65.2 -52.87,118.08 -118.08,118.08z"/>
       </g>
      </g>
      <g>
       <g>
        <rect class="fil2" x="2570.86" y="5199.79" width="236.14" height="236.14"/>
       </g>
      </g>
      <g>
       <g>
        <g>
         <path class="fil2" d="M2807 5199.79l0 236.14 236.15 0c0,-130.42 -105.73,-236.14 -236.15,-236.14z"/>
        </g>
       </g>
      </g>
      <g>
       <g>
        <g>
         <path class="fil2" d="M3987.73 5435.93l0 -236.14 -236.15 0c0,130.42 105.72,236.14 236.15,236.14z"/>
        </g>
       </g>
      </g>
      <g>
       <g>
        <rect class="fil2" x="3987.72" y="5199.79" width="236.14" height="236.14"/>
       </g>
      </g>
      <g>
       <g>
        <rect class="fil2" x="5640.73" y="5199.79" width="236.14" height="236.14"/>
       </g>
      </g>
      <g>
       <g>
        <g>
         <path class="fil2" d="M6113.02 5199.79l-236.15 0 0 236.14c130.42,0 236.15,-105.72 236.15,-236.14z"/>
        </g>
       </g>
      </g>
      <g>
       <g>
        <path class="fil2" d="M6821.45 5317.86c0,27.52 0,118.07 0,118.07 0,0 -80.38,0 -118.07,0 -29.44,0 -118.07,0 -118.07,0 0,0 0,-82.29 0,-118.07 -0.01,-65.21 52.85,-118.07 118.06,-118.07 65.21,0 118.08,52.86 118.08,118.07z"/>
       </g>
      </g>
      <g>
       <g>
        <rect class="fil2" x="7293.73" y="5199.79" width="236.14" height="236.14"/>
       </g>
      </g>
      <g>
       <g>
        <rect class="fil2" x="7529.88" y="5199.79" width="236.14" height="236.14"/>
       </g>
      </g>
      <g>
       <g>
        <rect class="fil2" x="7766.02" y="5199.79" width="236.14" height="236.14"/>
       </g>
      </g>
      <g>
       <g>
        <g>
         <path class="fil2" d="M2334.72 5672.08l236.14 0 0 -236.14c-130.42,0 -236.14,105.72 -236.14,236.14z"/>
        </g>
       </g>
      </g>
      <g>
       <g>
        <rect class="fil2" x="2570.86" y="5435.93" width="236.14" height="236.14"/>
       </g>
      </g>
      <g>
       <g>
        <rect class="fil2" x="2807" y="5435.93" width="236.14" height="236.14"/>
       </g>
      </g>
      <g>
       <g>
        <rect class="fil2" x="3043.15" y="5435.93" width="236.14" height="236.14"/>
       </g>
      </g>
      <g>
       <g>
        <g>
         <path class="fil2" d="M3279.29 5435.93l0 236.14 236.14 0c0,-130.42 -105.72,-236.14 -236.14,-236.14z"/>
        </g>
       </g>
      </g>
      <g>
       <g>
        <rect class="fil2" x="3987.72" y="5435.93" width="236.14" height="236.14"/>
       </g>
      </g>
      <g>
       <g>
        <rect class="fil2" x="4223.87" y="5435.93" width="236.14" height="236.14"/>
       </g>
      </g>
      <g>
       <g>
        <g>
         <path class="fil2" d="M4460 5435.93l0 236.14 236.15 0c0,-130.42 -105.73,-236.14 -236.15,-236.14z"/>
        </g>
       </g>
      </g>
      <g>
       <g>
        <path class="fil2" d="M5404.58 5554c0,27.52 0,118.08 0,118.08 0,0 -80.38,0 -118.07,-0.01 -29.44,0.01 -118.07,0 -118.07,0 0,0 0,-82.29 0,-118.07 -0.01,-65.21 52.86,-118.07 118.07,-118.07 65.2,0 118.07,52.86 118.07,118.07z"/>
       </g>
      </g>
      <g>
       <g>
        <rect class="fil2" x="5640.73" y="5435.93" width="236.14" height="236.14"/>
       </g>
      </g>
      <g>
       <g>
        <path class="fil2" d="M6467.23 5435.93c27.53,0 118.07,0 118.07,0 0,0 0,80.37 0,118.07 0,29.43 0,118.08 0,118.08 0,0 -82.28,0 -118.07,0 -65.23,0 -118.07,-52.89 -118.07,-118.08 0,-65.18 52.84,-118.07 118.07,-118.07z"/>
       </g>
      </g>
      <g>
       <g>
        <rect class="fil2" x="6585.3" y="5435.93" width="236.14" height="236.14"/>
       </g>
      </g>
      <g>
       <g>
        <rect class="fil2" x="6821.45" y="5435.93" width="236.14" height="236.14"/>
       </g>
      </g>
      <g>
       <g>
        <rect class="fil2" x="7057.59" y="5435.93" width="236.14" height="236.14"/>
       </g>
      </g>
      <g>
       <g>
        <g>
         <path class="fil2" d="M7529.88 5435.93l-236.14 0 0 236.14c130.42,0 236.14,-105.73 236.14,-236.14z"/>
        </g>
       </g>
      </g>
      <g>
       <g>
        <path class="fil2" d="M7766.03 5554c0,-27.52 0,-118.07 0,-118.07 0,0 80.38,0 118.07,0 29.43,0 118.07,0 118.07,0 0,0 0,82.29 0,118.07 0,65.21 -52.87,118.08 -118.07,118.08 -65.21,0 -118.07,-52.87 -118.07,-118.08z"/>
       </g>
      </g>
      <g>
       <g>
        <path class="fil2" d="M8356.38 5435.93c65.21,0 118.08,52.87 118.08,118.07 0,65.21 -52.87,118.08 -118.08,118.08 -65.21,0 -118.07,-52.87 -118.07,-118.08 0,-65.21 52.86,-118.07 118.07,-118.07z"/>
       </g>
      </g>
      <g>
       <g>
        <path class="fil2" d="M9064.81 5435.93c65.21,0 118.07,52.87 118.07,118.07 0,65.21 -52.86,118.08 -118.07,118.08 -65.21,0 -118.08,-52.87 -118.08,-118.08 0,-65.21 52.87,-118.07 118.08,-118.07z"/>
       </g>
      </g>
      <g>
       <g>
        <rect class="fil2" x="2334.72" y="5672.07" width="236.14" height="236.14"/>
       </g>
      </g>
      <g>
       <g>
        <rect class="fil2" x="2570.86" y="5672.07" width="236.14" height="236.14"/>
       </g>
      </g>
      <g>
       <g>
        <rect class="fil2" x="2807" y="5672.07" width="236.14" height="236.14"/>
       </g>
      </g>
      <g>
       <g>
        <rect class="fil2" x="3279.29" y="5672.07" width="236.14" height="236.14"/>
       </g>
      </g>
      <g>
       <g>
        <path class="fil2" d="M3633.5 5908.22c-27.52,0 -118.07,0 -118.07,0 0,0 0,-80.39 0,-118.08 0,-29.43 0,-118.07 0,-118.07 0,0 82.3,0 118.07,0 65.21,0 118.08,52.87 118.08,118.07 0,65.21 -52.87,118.08 -118.08,118.08z"/>
       </g>
      </g>
      <g>
       <g>
        <g>
         <path class="fil2" d="M4223.86 5908.22l0 -236.14 -236.13 0c0,130.41 105.71,236.14 236.13,236.14z"/>
        </g>
       </g>
      </g>
      <g>
       <g>
        <rect class="fil2" x="4223.87" y="5672.07" width="236.14" height="236.14"/>
       </g>
      </g>
      <g>
       <g>
        <rect class="fil2" x="4460.01" y="5672.07" width="236.14" height="236.14"/>
       </g>
      </g>
      <g>
       <g>
        <rect class="fil2" x="4696.15" y="5672.07" width="236.14" height="236.14"/>
       </g>
      </g>
      <g>
       <g>
        <rect class="fil2" x="4932.3" y="5672.07" width="236.14" height="236.14"/>
       </g>
      </g>
      <g>
       <g>
        <rect class="fil2" x="5168.44" y="5672.07" width="236.14" height="236.14"/>
       </g>
      </g>
      <g>
       <g>
        <g>
         <path class="fil2" d="M5876.87 5908.22l0 -236.14 -236.14 0c0.01,130.41 105.72,236.14 236.14,236.14z"/>
        </g>
       </g>
      </g>
      <g>
       <g>
        <g>
         <path class="fil2" d="M5876.87 5672.08l0 236.14 236.15 0c0,-130.42 -105.73,-236.14 -236.15,-236.14z"/>
        </g>
       </g>
      </g>
      <g>
       <g>
        <rect class="fil2" x="7057.59" y="5672.07" width="236.14" height="236.14"/>
       </g>
      </g>
      <g>
       <g>
        <g>
         <path class="fil2" d="M8474.45 5908.22l236.14 0 0 -236.14c-130.41,0 -236.14,105.72 -236.14,236.14z"/>
        </g>
       </g>
      </g>
      <g>
       <g>
        <path class="fil2" d="M8828.67 5908.22c-27.53,0 -118.08,0 -118.08,0 0,0 0,-80.39 0,-118.08 0,-29.43 0,-118.07 0,-118.07 0,0 82.29,0 118.07,0 65.21,0 118.08,52.87 118.08,118.07 0,65.21 -52.87,118.08 -118.07,118.08z"/>
       </g>
      </g>
      <g>
       <g>
        <path class="fil2" d="M1744.36 5908.22c27.52,0 118.07,0 118.07,0 0,0 0,80.37 0,118.07 0,29.43 0,118.08 0,118.08 0,0 -82.28,0 -118.07,0 -65.24,0 -118.08,-52.88 -118.08,-118.07 0,-65.2 52.84,-118.08 118.08,-118.08z"/>
       </g>
      </g>
      <g>
       <g>
        <path class="fil2" d="M1980.49 6144.36c-27.52,0 -118.07,0 -118.07,0 0,0 0,-80.39 0,-118.07 0,-29.44 0,-118.08 0,-118.08 0,0 82.3,0 118.07,0 65.21,0 118.08,52.87 118.08,118.07 0,65.21 -52.87,118.08 -118.08,118.08z"/>
       </g>
      </g>
      <g>
       <g>
        <path class="fil2" d="M2334.72 6026.29c0,-27.53 0,-118.08 0,-118.08 0,0 80.38,0 118.07,0 29.43,0 118.07,0 118.07,0 0,0 0,82.29 0,118.07 0,65.21 -52.87,118.08 -118.07,118.08 -65.21,0 -118.07,-52.87 -118.07,-118.07z"/>
       </g>
      </g>
      <g>
       <g>
        <g>
         <path class="fil2" d="M3043.15 6144.36l0 -236.14 -236.15 0c0.01,130.42 105.73,236.14 236.15,236.14z"/>
        </g>
       </g>
      </g>
      <g>
       <g>
        <rect class="fil2" x="3043.15" y="5908.22" width="236.14" height="236.14"/>
       </g>
      </g>
      <g>
       <g>
        <rect class="fil2" x="3279.29" y="5908.22" width="236.14" height="236.14"/>
       </g>
      </g>
      <g>
       <g>
        <path class="fil2" d="M3869.65 5908.22c65.21,0 118.07,52.87 118.07,118.07 0,65.21 -52.86,118.08 -118.07,118.08 -65.21,0 -118.08,-52.86 -118.08,-118.07 0,-65.21 52.87,-118.08 118.08,-118.08z"/>
       </g>
      </g>
      <g>
       <g>
        <rect class="fil2" x="4460.01" y="5908.22" width="236.14" height="236.14"/>
       </g>
      </g>
      <g>
       <g>
        <path class="fil2" d="M5168.44 6026.29c0,-27.53 0,-118.08 0,-118.08 0,0 80.38,0 118.08,0 29.43,0 118.07,0 118.07,0 0,0 0,82.29 0,118.07 0,65.21 -52.87,118.08 -118.07,118.08 -65.21,0 -118.08,-52.87 -118.08,-118.07z"/>
       </g>
      </g>
      <g>
       <g>
        <path class="fil2" d="M5876.87 6026.29c0,-27.53 0,-118.08 0,-118.08 0,0 80.38,0 118.08,0 29.43,0 118.07,0 118.07,0 0,0 0,82.29 0,118.07 0,65.21 -52.87,118.08 -118.07,118.08 -65.21,0 -118.08,-52.87 -118.08,-118.07z"/>
       </g>
      </g>
      <g>
       <g>
        <path class="fil2" d="M6585.3 6026.29c0,27.52 0,118.07 0,118.07 0,0 -80.38,0 -118.07,0 -29.44,0 -118.08,0 -118.08,0 0,0 0,-82.29 0,-118.08 0,-65.2 52.86,-118.07 118.07,-118.07 65.21,0 118.08,52.87 118.08,118.08z"/>
       </g>
      </g>
      <g>
       <g>
        <path class="fil2" d="M6939.52 5908.22c27.52,0 118.07,0 118.07,0 0,0 0,80.37 0,118.07 0,29.43 0,118.08 0,118.08 0,0 -82.28,0 -118.07,0 -65.24,0 -118.08,-52.88 -118.08,-118.07 0,-65.2 52.84,-118.08 118.08,-118.08z"/>
       </g>
      </g>
      <g>
       <g>
        <g>
         <path class="fil2" d="M7293.73 5908.22l-236.14 0 0 236.14c130.42,0 236.14,-105.72 236.14,-236.14z"/>
        </g>
       </g>
      </g>
      <g>
       <g>
        <g>
         <path class="fil2" d="M7529.88 6144.36l236.15 0 0 -236.14c-130.42,0 -236.15,105.72 -236.15,236.14z"/>
        </g>
       </g>
      </g>
      <g>
       <g>
        <rect class="fil2" x="7766.02" y="5908.22" width="236.14" height="236.14"/>
       </g>
      </g>
      <g>
       <g>
        <g>
         <path class="fil2" d="M8002.17 5908.22l0 236.14 236.14 0c0,-130.42 -105.72,-236.14 -236.14,-236.14z"/>
        </g>
       </g>
      </g>
      <g>
       <g>
        <path class="fil2" d="M8474.45 6026.29c0,-27.53 0,-118.08 0,-118.08 0,0 80.38,0 118.07,0 29.44,0 118.07,0 118.07,0 0,0 0,82.29 0,118.07 0,65.21 -52.87,118.08 -118.07,118.08 -65.2,0 -118.07,-52.87 -118.07,-118.07z"/>
       </g>
      </g>
      <g>
       <g>
        <path class="fil2" d="M9064.81 5908.22c65.21,0 118.07,52.87 118.07,118.07 0,65.21 -52.86,118.08 -118.07,118.08 -65.21,0 -118.08,-52.86 -118.08,-118.07 0,-65.21 52.87,-118.08 118.08,-118.08z"/>
       </g>
      </g>
      <g>
       <g>
        <path class="fil2" d="M2216.64 6144.36c65.21,0 118.07,52.87 118.07,118.07 0,65.21 -52.86,118.08 -118.07,118.08 -65.21,0 -118.08,-52.86 -118.08,-118.08 0,-65.2 52.87,-118.07 118.08,-118.07z"/>
       </g>
      </g>
      <g>
       <g>
        <path class="fil2" d="M2688.93 6144.36c65.21,0 118.07,52.87 118.07,118.07 0,65.21 -52.86,118.08 -118.07,118.08 -65.21,0 -118.07,-52.86 -118.07,-118.08 0,-65.2 52.86,-118.07 118.07,-118.07z"/>
       </g>
      </g>
      <g>
       <g>
        <path class="fil2" d="M3279.29 6262.43c0,-27.52 0,-118.07 0,-118.07 0,0 80.38,0 118.07,0 29.44,0 118.08,0 118.08,0 0,0 0,82.3 0,118.07 0,65.21 -52.87,118.08 -118.08,118.08 -65.2,0 -118.07,-52.87 -118.07,-118.08z"/>
       </g>
      </g>
      <g>
       <g>
        <g>
         <path class="fil2" d="M4223.86 6380.5l236.14 0 0 -236.14c-130.41,0 -236.14,105.72 -236.14,236.14z"/>
        </g>
       </g>
      </g>
      <g>
       <g>
        <rect class="fil2" x="4460.01" y="6144.36" width="236.14" height="236.14"/>
       </g>
      </g>
      <g>
       <g>
        <rect class="fil2" x="4696.15" y="6144.36" width="236.14" height="236.14"/>
       </g>
      </g>
      <g>
       <g>
        <g>
         <path class="fil2" d="M4932.3 6144.36l0 236.14 236.14 0c0,-130.42 -105.72,-236.14 -236.14,-236.14z"/>
        </g>
       </g>
      </g>
      <g>
       <g>
        <g>
         <path class="fil2" d="M6113.02 6380.5l236.14 0 0 -236.14c-130.42,0 -236.14,105.72 -236.14,236.14z"/>
        </g>
       </g>
      </g>
      <g>
       <g>
        <rect class="fil2" x="6349.16" y="6144.36" width="236.14" height="236.14"/>
       </g>
      </g>
      <g>
       <g>
        <path class="fil2" d="M6703.37 6380.5c-27.52,0 -118.07,0 -118.07,0 0,0 0,-80.38 0,-118.07 0,-29.44 0,-118.08 0,-118.08 0,0 82.3,0 118.07,0 65.21,0 118.08,52.87 118.08,118.07 0,65.21 -52.87,118.08 -118.08,118.08z"/>
       </g>
      </g>
      <g>
       <g>
        <g>
         <path class="fil2" d="M7293.73 6380.5l236.14 0 0 -236.14c-130.41,0 -236.14,105.72 -236.14,236.14z"/>
        </g>
       </g>
      </g>
      <g>
       <g>
        <rect class="fil2" x="7529.88" y="6144.36" width="236.14" height="236.14"/>
       </g>
      </g>
      <g>
       <g>
        <rect class="fil2" x="7766.02" y="6144.36" width="236.14" height="236.14"/>
       </g>
      </g>
      <g>
       <g>
        <g>
         <path class="fil2" d="M8238.31 6144.36l-236.14 0 0 236.14c130.42,0 236.14,-105.72 236.14,-236.14z"/>
        </g>
       </g>
      </g>
      <g>
       <g>
        <path class="fil2" d="M1862.43 6498.58c0,27.52 0,118.07 0,118.07 0,0 -80.38,0 -118.07,-0.01 -29.44,0.01 -118.08,0 -118.08,0 0,0 0,-82.29 0,-118.07 0,-65.2 52.87,-118.07 118.07,-118.07 65.21,0 118.08,52.87 118.08,118.08z"/>
       </g>
      </g>
      <g>
       <g>
        <path class="fil2" d="M2452.79 6380.5c65.21,0 118.07,52.87 118.07,118.08 0,65.21 -52.86,118.07 -118.07,118.07 -65.21,0.01 -118.07,-52.86 -118.07,-118.07 0,-65.21 52.86,-118.08 118.07,-118.08z"/>
       </g>
      </g>
      <g>
       <g>
        <path class="fil2" d="M3161.22 6380.5c65.2,0 118.07,52.87 118.07,118.08 0,65.21 -52.87,118.07 -118.07,118.07 -65.21,0.01 -118.08,-52.86 -118.08,-118.07 0,-65.21 52.87,-118.08 118.08,-118.08z"/>
       </g>
      </g>
      <g>
       <g>
        <g>
         <path class="fil2" d="M3515.43 6616.65l236.14 0 0 -236.15c-130.41,0 -236.14,105.73 -236.14,236.15z"/>
        </g>
       </g>
      </g>
      <g>
       <g>
        <path class="fil2" d="M3869.65 6616.65c-27.53,0 -118.08,0 -118.08,0 0,0 0,-80.39 0,-118.08 0,-29.44 0,-118.08 0,-118.08 0,0 82.3,0 118.08,0 65.2,0 118.07,52.87 118.07,118.08 0.01,65.21 -52.87,118.08 -118.07,118.08z"/>
       </g>
      </g>
      <g>
       <g>
        <rect class="fil2" x="4223.87" y="6380.51" width="236.14" height="236.14"/>
       </g>
      </g>
      <g>
       <g>
        <rect class="fil2" x="4932.3" y="6380.51" width="236.14" height="236.14"/>
       </g>
      </g>
      <g>
       <g>
        <rect class="fil2" x="5168.44" y="6380.51" width="236.14" height="236.14"/>
       </g>
      </g>
      <g>
       <g>
        <path class="fil2" d="M5522.66 6616.65c-27.53,0 -118.08,0 -118.08,0 0,0 0,-80.39 0,-118.08 0,-29.44 0,-118.08 0,-118.08 0,0 82.3,0 118.08,0 65.2,0 118.07,52.87 118.07,118.08 0,65.21 -52.87,118.08 -118.07,118.08z"/>
       </g>
      </g>
      <g>
       <g>
        <g>
         <path class="fil2" d="M6349.16 6616.65l0 -236.15 -236.14 0c0,130.42 105.72,236.15 236.14,236.15z"/>
        </g>
       </g>
      </g>
      <g>
       <g>
        <g>
         <path class="fil2" d="M6585.3 6380.5l-236.14 0 0 236.15c130.42,0 236.14,-105.73 236.14,-236.15z"/>
        </g>
       </g>
      </g>
      <g>
       <g>
        <path class="fil2" d="M7057.59 6498.58c0,27.52 0,118.07 0,118.07 0,0 -80.38,0 -118.07,-0.01 -29.44,0.01 -118.08,0 -118.08,0 0,0 0,-82.29 0,-118.07 0,-65.2 52.87,-118.07 118.07,-118.07 65.21,0 118.08,52.87 118.08,118.08z"/>
       </g>
      </g>
      <g>
       <g>
        <rect class="fil2" x="7293.73" y="6380.51" width="236.14" height="236.14"/>
       </g>
      </g>
      <g>
       <g>
        <path class="fil2" d="M7766.03 6498.58c0,-27.52 0,-118.08 0,-118.08 0,0 80.38,0 118.07,0 29.43,0 118.07,0 118.07,0 0,0 0,82.3 0,118.08 0,65.2 -52.87,118.07 -118.07,118.07 -65.21,0.01 -118.07,-52.86 -118.07,-118.07z"/>
       </g>
      </g>
      <g>
       <g>
        <path class="fil2" d="M8356.38 6380.5c27.53,0 118.08,0 118.08,0 0,0 0,80.37 0,118.08 0,29.42 0,118.07 0,118.07 0,0 -82.29,0 -118.08,0 -65.23,0.01 -118.07,-52.88 -118.07,-118.07 0,-65.19 52.84,-118.08 118.07,-118.08z"/>
       </g>
      </g>
      <g>
       <g>
        <g>
         <path class="fil2" d="M8474.45 6380.5l0 236.15 236.14 0c0,-130.43 -105.73,-236.15 -236.14,-236.15z"/>
        </g>
       </g>
      </g>
      <g>
       <g>
        <path class="fil2" d="M9300.96 6380.5c65.21,0 118.07,52.87 118.07,118.08 0,65.21 -52.86,118.07 -118.07,118.07 -65.21,0.01 -118.08,-52.86 -118.08,-118.07 0,-65.21 52.87,-118.08 118.08,-118.08z"/>
       </g>
      </g>
      <g>
       <g>
        <g>
         <path class="fil2" d="M1862.43 6852.8l0 -236.14 -236.14 0c0,130.41 105.72,236.14 236.14,236.14z"/>
        </g>
       </g>
      </g>
      <g>
       <g>
        <rect class="fil2" x="1862.43" y="6616.65" width="236.14" height="236.14"/>
       </g>
      </g>
      <g>
       <g>
        <path class="fil2" d="M2216.64 6852.8c-27.53,0 -118.08,0 -118.08,0 0,0 0,-80.39 0,-118.08 0,-29.44 0,-118.07 0,-118.07 0,0 82.3,0 118.08,0 65.2,0 118.07,52.86 118.07,118.07 0.01,65.2 -52.86,118.08 -118.07,118.08z"/>
       </g>
      </g>
      <g>
       <g>
        <g>
         <path class="fil2" d="M3279.29 6852.8l236.14 0 0 -236.14c-130.42,0 -236.14,105.71 -236.14,236.14z"/>
        </g>
       </g>
      </g>
      <g>
       <g>
        <rect class="fil2" x="3515.43" y="6616.65" width="236.14" height="236.14"/>
       </g>
      </g>
      <g>
       <g>
        <rect class="fil2" x="4223.87" y="6616.65" width="236.14" height="236.14"/>
       </g>
      </g>
      <g>
       <g>
        <path class="fil2" d="M4578.08 6852.8c-27.52,0 -118.07,0 -118.07,0 0,0 0,-80.39 0,-118.08 -0.01,-29.44 -0.01,-118.07 -0.01,-118.07 0,0 82.3,0 118.08,0 65.2,0 118.07,52.86 118.07,118.07 0.01,65.2 -52.86,118.08 -118.07,118.08z"/>
       </g>
      </g>
      <g>
       <g>
        <rect class="fil2" x="4932.3" y="6616.65" width="236.14" height="236.14"/>
       </g>
      </g>
      <g>
       <g>
        <path class="fil2" d="M5994.94 6616.65c65.21,0 118.08,52.86 118.08,118.07 0,65.21 -52.87,118.07 -118.08,118.07 -65.21,0.01 -118.08,-52.86 -118.08,-118.07 0,-65.21 52.87,-118.07 118.08,-118.07z"/>
       </g>
      </g>
      <g>
       <g>
        <g>
         <path class="fil2" d="M6585.3 6852.8l236.14 0 0 -236.14c-130.42,0 -236.14,105.71 -236.14,236.14z"/>
        </g>
       </g>
      </g>
      <g>
       <g>
        <rect class="fil2" x="6821.45" y="6616.65" width="236.14" height="236.14"/>
       </g>
      </g>
      <g>
       <g>
        <rect class="fil2" x="7057.59" y="6616.65" width="236.14" height="236.14"/>
       </g>
      </g>
      <g>
       <g>
        <rect class="fil2" x="7293.73" y="6616.65" width="236.14" height="236.14"/>
       </g>
      </g>
      <g>
       <g>
        <path class="fil2" d="M7647.95 6852.8c-27.52,0 -118.07,0 -118.07,0 0,0 0,-80.39 0,-118.08 -0.01,-29.44 -0.01,-118.07 -0.01,-118.07 0,0 82.3,0 118.08,0 65.2,0 118.07,52.86 118.07,118.07 0.01,65.2 -52.86,118.08 -118.07,118.08z"/>
       </g>
      </g>
      <g>
       <g>
        <path class="fil2" d="M8474.45 6734.72c0,-27.52 0,-118.07 0,-118.07 0,0 80.38,0 118.07,0 29.44,0 118.07,0 118.07,0 0,0 0,82.29 0,118.07 0,65.2 -52.87,118.07 -118.07,118.07 -65.2,0.01 -118.07,-52.87 -118.07,-118.07z"/>
       </g>
      </g>
      <g>
       <g>
        <path class="fil2" d="M9182.88 6734.72c0,27.52 0,118.07 0,118.07 0,0 -80.38,0 -118.07,0 -29.44,0 -118.07,0 -118.07,0 0,0 0,-82.29 0,-118.08 0,-65.2 52.86,-118.06 118.06,-118.06 65.21,0 118.08,52.86 118.08,118.07z"/>
       </g>
      </g>
      <g>
       <g>
        <path class="fil2" d="M2452.79 6852.8c65.21,0 118.07,52.87 118.07,118.07 0,65.21 -52.86,118.07 -118.07,118.07 -65.21,0 -118.07,-52.86 -118.07,-118.07 0,-65.21 52.86,-118.07 118.07,-118.07z"/>
       </g>
      </g>
      <g>
       <g>
        <path class="fil2" d="M2925.07 6852.8c27.53,0 118.08,0 118.08,0 0,0 0,80.37 0,118.07 0,29.43 0,118.07 0,118.07 0,0 -82.29,0 -118.08,0 -65.23,0 -118.08,-52.88 -118.08,-118.07 0,-65.19 52.85,-118.07 118.08,-118.07z"/>
       </g>
      </g>
      <g>
       <g>
        <rect class="fil2" x="3043.15" y="6852.79" width="236.14" height="236.14"/>
       </g>
      </g>
      <g>
       <g>
        <rect class="fil2" x="3279.29" y="6852.79" width="236.14" height="236.14"/>
       </g>
      </g>
      <g>
       <g>
        <rect class="fil2" x="3515.43" y="6852.79" width="236.14" height="236.14"/>
       </g>
      </g>
      <g>
       <g>
        <g>
         <path class="fil2" d="M3751.58 6852.8l0 236.14 236.15 -0.01c0,-130.41 -105.73,-236.13 -236.15,-236.13z"/>
        </g>
       </g>
      </g>
      <g>
       <g>
        <rect class="fil2" x="4223.87" y="6852.79" width="236.14" height="236.14"/>
       </g>
      </g>
      <g>
       <g>
        <path class="fil2" d="M4814.22 6852.8c27.53,0 118.07,0 118.07,0 0,0 0,80.37 0,118.07 0,29.43 0,118.07 0,118.07 0,0 -82.28,0 -118.07,0 -65.23,0 -118.07,-52.88 -118.07,-118.07 0,-65.19 52.84,-118.07 118.07,-118.07z"/>
       </g>
      </g>
      <g>
       <g>
        <rect class="fil2" x="4932.3" y="6852.79" width="236.14" height="236.14"/>
       </g>
      </g>
      <g>
       <g>
        <g>
         <path class="fil2" d="M5168.44 6852.8l0 236.14 236.14 -0.01c0,-130.41 -105.72,-236.13 -236.14,-236.13z"/>
        </g>
       </g>
      </g>
      <g>
       <g>
        <rect class="fil2" x="6585.3" y="6852.79" width="236.14" height="236.14"/>
       </g>
      </g>
      <g>
       <g>
        <rect class="fil2" x="7057.59" y="6852.79" width="236.14" height="236.14"/>
       </g>
      </g>
      <g>
       <g>
        <path class="fil2" d="M8828.67 6852.8c27.52,0 118.07,0 118.07,0 0,0 0,80.37 0,118.07 0,29.43 0,118.07 0,118.07 0,0 -82.28,0 -118.07,0 -65.24,0 -118.08,-52.88 -118.08,-118.07 0,-65.19 52.84,-118.07 118.08,-118.07z"/>
       </g>
      </g>
      <g>
       <g>
        <g>
         <path class="fil2" d="M9182.88 6852.8l-236.14 0 0 236.14c130.42,-0.01 236.14,-105.73 236.14,-236.14z"/>
        </g>
       </g>
      </g>
      <g>
       <g>
        <path class="fil2" d="M2334.72 7207.01c0,27.52 0,118.08 0,118.08 0,0 -80.38,0 -118.08,-0.01 -29.43,0.01 -118.07,0 -118.07,0 0,0 0,-82.29 0,-118.07 0,-65.21 52.86,-118.08 118.07,-118.08 65.21,0 118.08,52.87 118.08,118.08z"/>
       </g>
      </g>
      <g>
       <g>
        <path class="fil2" d="M3279.29 7207.01c0,-27.52 0,-118.08 0,-118.08 0,0 80.38,0 118.07,0 29.44,0 118.08,0 118.08,0 0,0 0,82.3 0,118.08 0,65.2 -52.87,118.07 -118.08,118.07 -65.2,0.01 -118.07,-52.86 -118.07,-118.07z"/>
       </g>
      </g>
      <g>
       <g>
        <path class="fil2" d="M3751.58 7207.01c0,-27.52 0,-118.08 0,-118.08 0,0 80.38,0 118.08,0 29.43,0 118.07,0 118.07,0 0,0 0,82.3 0,118.08 0,65.2 -52.87,118.07 -118.07,118.07 -65.21,0.01 -118.08,-52.86 -118.08,-118.07z"/>
       </g>
      </g>
      <g>
       <g>
        <rect class="fil2" x="4223.87" y="7088.94" width="236.14" height="236.14"/>
       </g>
      </g>
      <g>
       <g>
        <rect class="fil2" x="4932.3" y="7088.94" width="236.14" height="236.14"/>
       </g>
      </g>
      <g>
       <g>
        <rect class="fil2" x="5168.44" y="7088.94" width="236.14" height="236.14"/>
       </g>
      </g>
      <g>
       <g>
        <rect class="fil2" x="5404.58" y="7088.94" width="236.14" height="236.14"/>
       </g>
      </g>
      <g>
       <g>
        <g>
         <path class="fil2" d="M5640.73 7088.93l0 236.15 236.14 0c0,-130.42 -105.72,-236.15 -236.14,-236.15z"/>
        </g>
       </g>
      </g>
      <g>
       <g>
        <path class="fil2" d="M6349.16 7207.01c0,27.52 0,118.08 0,118.08 0,0 -80.38,0 -118.08,-0.01 -29.43,0.01 -118.07,0 -118.07,0 0,0 0,-82.29 0,-118.07 0,-65.21 52.86,-118.08 118.07,-118.08 65.21,0 118.08,52.87 118.08,118.08z"/>
       </g>
      </g>
      <g>
       <g>
        <rect class="fil2" x="6585.3" y="7088.94" width="236.14" height="236.14"/>
       </g>
      </g>
      <g>
       <g>
        <rect class="fil2" x="6821.45" y="7088.94" width="236.14" height="236.14"/>
       </g>
      </g>
      <g>
       <g>
        <rect class="fil2" x="7057.59" y="7088.94" width="236.14" height="236.14"/>
       </g>
      </g>
      <g>
       <g>
        <g>
         <path class="fil2" d="M7293.73 7088.93l0 236.15 236.14 0c0,-130.42 -105.72,-236.15 -236.14,-236.15z"/>
        </g>
       </g>
      </g>
      <g>
       <g>
        <g>
         <path class="fil2" d="M7766.03 7325.08l236.14 0 0 -236.15c-130.42,0.01 -236.14,105.73 -236.14,236.15z"/>
        </g>
       </g>
      </g>
      <g>
       <g>
        <rect class="fil2" x="8002.17" y="7088.94" width="236.14" height="236.14"/>
       </g>
      </g>
      <g>
       <g>
        <g>
         <path class="fil2" d="M8238.31 7088.93l0 236.15 236.14 0c0,-130.42 -105.73,-236.15 -236.14,-236.15z"/>
        </g>
       </g>
      </g>
      <g>
       <g>
        <path class="fil2" d="M9419.03 7207.01c0,27.52 0,118.08 0,118.08 0,0 -80.39,0 -118.08,-0.01 -29.43,0.01 -118.07,0 -118.07,0 0,0 0,-82.29 0,-118.07 0,-65.21 52.86,-118.08 118.07,-118.08 65.21,0 118.08,52.87 118.08,118.08z"/>
       </g>
      </g>
      <g>
       <g>
        <path class="fil2" d="M1744.36 7325.08c27.52,0 118.07,0 118.07,0 0,0 0,80.37 0,118.07 0,29.42 0,118.07 0,118.07 0,0 -82.28,0 -118.07,0 -65.24,0.01 -118.08,-52.87 -118.08,-118.06 0,-65.2 52.84,-118.08 118.08,-118.08z"/>
       </g>
      </g>
      <g>
       <g>
        <rect class="fil2" x="1862.43" y="7325.08" width="236.14" height="236.14"/>
       </g>
      </g>
      <g>
       <g>
        <g>
         <path class="fil2" d="M2334.72 7325.08l-236.15 0 0 236.14c130.42,0 236.15,-105.73 236.15,-236.14z"/>
        </g>
       </g>
      </g>
      <g>
       <g>
        <path class="fil2" d="M2688.93 7325.08c27.53,0 118.07,0 118.07,0 0,0 0,80.37 0,118.07 0,29.42 0,118.07 0,118.07 0,0 -82.28,0 -118.07,0 -65.24,0.01 -118.07,-52.87 -118.07,-118.06 0,-65.2 52.83,-118.08 118.07,-118.08z"/>
       </g>
      </g>
      <g>
       <g>
        <rect class="fil2" x="2807" y="7325.08" width="236.14" height="236.14"/>
       </g>
      </g>
      <g>
       <g>
        <path class="fil2" d="M3161.22 7561.23c-27.53,0 -118.08,0 -118.08,0 0,0 0,-80.39 0,-118.07 0,-29.44 0,-118.08 0,-118.08 0,0 82.29,0 118.07,0 65.2,0 118.07,52.87 118.07,118.07 0.01,65.21 -52.86,118.08 -118.06,118.08z"/>
       </g>
      </g>
      <g>
       <g>
        <path class="fil2" d="M3751.58 7443.16c0,27.52 0,118.07 0,118.07 0,0 -80.38,0 -118.07,-0.01 -29.44,0.01 -118.07,0 -118.07,0 0,0 0,-82.29 0,-118.07 0,-65.2 52.86,-118.07 118.06,-118.07 65.21,0 118.08,52.87 118.08,118.08z"/>
       </g>
      </g>
      <g>
       <g>
        <rect class="fil2" x="4223.87" y="7325.08" width="236.14" height="236.14"/>
       </g>
      </g>
      <g>
       <g>
        <path class="fil2" d="M4578.08 7561.23c-27.52,0 -118.07,0 -118.07,0 0,0 0,-80.39 0,-118.07 -0.01,-29.44 -0.01,-118.08 -0.01,-118.08 0,0 82.3,0 118.08,0 65.2,0 118.07,52.87 118.07,118.07 0.01,65.21 -52.86,118.08 -118.07,118.08z"/>
       </g>
      </g>
      <g>
       <g>
        <rect class="fil2" x="4932.3" y="7325.08" width="236.14" height="236.14"/>
       </g>
      </g>
      <g>
       <g>
        <g>
         <path class="fil2" d="M5876.87 7561.23l0 -236.14 -236.14 0c0.01,130.41 105.72,236.14 236.14,236.14z"/>
        </g>
       </g>
      </g>
      <g>
       <g>
        <rect class="fil2" x="5876.87" y="7325.08" width="236.14" height="236.14"/>
       </g>
      </g>
      <g>
       <g>
        <rect class="fil2" x="6113.02" y="7325.08" width="236.14" height="236.14"/>
       </g>
      </g>
      <g>
       <g>
        <rect class="fil2" x="6349.16" y="7325.08" width="236.14" height="236.14"/>
       </g>
      </g>
      <g>
       <g>
        <rect class="fil2" x="6585.3" y="7325.08" width="236.14" height="236.14"/>
       </g>
      </g>
      <g>
       <g>
        <rect class="fil2" x="6821.45" y="7325.08" width="236.14" height="236.14"/>
       </g>
      </g>
      <g>
       <g>
        <rect class="fil2" x="7057.59" y="7325.08" width="236.14" height="236.14"/>
       </g>
      </g>
      <g>
       <g>
        <rect class="fil2" x="7293.73" y="7325.08" width="236.14" height="236.14"/>
       </g>
      </g>
      <g>
       <g>
        <rect class="fil2" x="7529.88" y="7325.08" width="236.14" height="236.14"/>
       </g>
      </g>
      <g>
       <g>
        <rect class="fil2" x="7766.02" y="7325.08" width="236.14" height="236.14"/>
       </g>
      </g>
      <g>
       <g>
        <rect class="fil2" x="8002.17" y="7325.08" width="236.14" height="236.14"/>
       </g>
      </g>
      <g>
       <g>
        <rect class="fil2" x="8238.31" y="7325.08" width="236.14" height="236.14"/>
       </g>
      </g>
      <g>
       <g>
        <path class="fil2" d="M9182.88 7443.16c0,-27.53 0,-118.08 0,-118.08 0,0 80.38,0 118.08,0 29.43,0 118.07,0 118.07,0 0,0 0,82.29 0,118.07 0,65.2 -52.87,118.07 -118.07,118.07 -65.21,0.01 -118.08,-52.86 -118.08,-118.06z"/>
       </g>
      </g>
      <g>
       <g>
        <rect class="fil2" x="3515.43" y="7561.22" width="236.14" height="236.14"/>
       </g>
      </g>
      <g>
       <g>
        <path class="fil2" d="M4105.79 7561.23c27.53,0 118.07,0 118.07,0 0,0 0,80.37 0,118.07 0,29.43 0,118.08 0,118.08 0,0 -82.28,0 -118.07,0 -65.24,0 -118.07,-52.89 -118.07,-118.07 0,-65.2 52.83,-118.08 118.07,-118.08z"/>
       </g>
      </g>
      <g>
       <g>
        <rect class="fil2" x="4223.87" y="7561.22" width="236.14" height="236.14"/>
       </g>
      </g>
      <g>
       <g>
        <g>
         <path class="fil2" d="M5168.44 7797.37l0 -236.14 -236.14 0c0,130.42 105.72,236.14 236.14,236.14z"/>
        </g>
       </g>
      </g>
      <g>
       <g>
        <rect class="fil2" x="5168.44" y="7561.22" width="236.14" height="236.14"/>
       </g>
      </g>
      <g>
       <g>
        <path class="fil2" d="M5522.66 7797.37c-27.53,0 -118.08,0 -118.08,0 0,0 0,-80.39 0,-118.07 0,-29.44 0,-118.08 0,-118.08 0,0 82.3,0 118.08,0 65.2,0 118.07,52.87 118.07,118.07 0,65.21 -52.87,118.08 -118.07,118.08z"/>
       </g>
      </g>
      <g>
       <g>
        <path class="fil2" d="M5876.87 7679.3c0,-27.53 0,-118.08 0,-118.08 0,0 80.38,0 118.08,0 29.43,0 118.07,0 118.07,0 0,0 0,82.29 0,118.07 0,65.21 -52.87,118.08 -118.07,118.08 -65.21,0 -118.08,-52.87 -118.08,-118.07z"/>
       </g>
      </g>
      <g>
       <g>
        <g>
         <path class="fil2" d="M6821.45 7797.37l0 -236.14 -236.14 0c0,130.42 105.72,236.14 236.14,236.14z"/>
        </g>
       </g>
      </g>
      <g>
       <g>
        <g>
         <path class="fil2" d="M7057.59 7561.23l-236.14 0 0 236.14c130.41,0 236.14,-105.72 236.14,-236.14z"/>
        </g>
       </g>
      </g>
      <g>
       <g>
        <rect class="fil2" x="7293.73" y="7561.22" width="236.14" height="236.14"/>
       </g>
      </g>
      <g>
       <g>
        <rect class="fil2" x="8238.31" y="7561.22" width="236.14" height="236.14"/>
       </g>
      </g>
      <g>
       <g>
        <path class="fil2" d="M8828.67 7561.23c27.52,0 118.07,0 118.07,0 0,0 0,80.37 0,118.07 0,29.43 0,118.08 0,118.08 0,0 -82.28,0 -118.07,0 -65.24,0 -118.08,-52.89 -118.08,-118.07 0,-65.2 52.84,-118.08 118.08,-118.08z"/>
       </g>
      </g>
      <g>
       <g>
        <g>
         <path class="fil2" d="M8946.74 7561.23l0 236.14 236.14 0c0,-130.42 -105.72,-236.14 -236.14,-236.14z"/>
        </g>
       </g>
      </g>
      <g>
       <g>
        <g>
         <path class="fil2" d="M3751.58 8033.51l0 -236.14 -236.14 0c0,130.42 105.72,236.14 236.14,236.14z"/>
        </g>
       </g>
      </g>
      <g>
       <g>
        <path class="fil2" d="M3869.65 8033.51c-27.53,0 -118.08,0 -118.08,0 0,0 0,-80.38 0,-118.07 0,-29.44 0,-118.08 0,-118.08 0,0 82.3,0 118.08,0 65.2,0 118.07,52.87 118.07,118.07 0.01,65.21 -52.87,118.08 -118.07,118.08z"/>
       </g>
      </g>
      <g>
       <g>
        <path class="fil2" d="M4223.86 7915.43c0,-27.52 0,-118.07 0,-118.07 0,0 80.38,0 118.08,0 29.43,0 118.07,0 118.07,0 0,0 0,82.3 0,118.07 0,65.21 -52.87,118.08 -118.07,118.08 -65.21,0 -118.08,-52.87 -118.08,-118.08z"/>
       </g>
      </g>
      <g>
       <g>
        <rect class="fil2" x="5168.44" y="7797.37" width="236.14" height="236.14"/>
       </g>
      </g>
      <g>
       <g>
        <path class="fil2" d="M5876.87 7915.43c0,27.53 0,118.08 0,118.08 0,0 -80.38,0 -118.07,-0.01 -29.44,0.01 -118.07,0 -118.07,0 0,0 0,-82.29 0,-118.07 0,-65.2 52.86,-118.07 118.06,-118.07 65.21,0 118.08,52.87 118.08,118.07z"/>
       </g>
      </g>
      <g>
       <g>
        <rect class="fil2" x="7293.73" y="7797.37" width="236.14" height="236.14"/>
       </g>
      </g>
      <g>
       <g>
        <path class="fil2" d="M7884.09 7797.37c65.21,0 118.07,52.87 118.07,118.07 0,65.21 -52.86,118.08 -118.07,118.08 -65.2,0 -118.07,-52.86 -118.07,-118.08 0,-65.2 52.87,-118.07 118.07,-118.07z"/>
       </g>
      </g>
      <g>
       <g>
        <rect class="fil2" x="8238.31" y="7797.37" width="236.14" height="236.14"/>
       </g>
      </g>
      <g>
       <g>
        <path class="fil2" d="M8592.53 8033.51c-27.53,0 -118.08,0 -118.08,0 0,0 0,-80.38 0,-118.07 0,-29.44 0,-118.08 0,-118.08 0,0 82.29,0 118.07,0 65.2,0 118.07,52.87 118.07,118.07 0.01,65.21 -52.86,118.08 -118.06,118.08z"/>
       </g>
      </g>
      <g>
       <g>
        <path class="fil2" d="M8946.74 7915.43c0,-27.52 0,-118.07 0,-118.07 0,0 80.38,0 118.07,0 29.44,0 118.08,0 118.08,0 0,0 0,82.3 0,118.07 0,65.21 -52.87,118.08 -118.08,118.08 -65.2,0 -118.07,-52.87 -118.07,-118.08z"/>
       </g>
      </g>
      <g>
       <g>
        <rect class="fil2" x="5168.44" y="8033.51" width="236.14" height="236.14"/>
       </g>
      </g>
      <g>
       <g>
        <rect class="fil2" x="5404.58" y="8033.51" width="236.14" height="236.14"/>
       </g>
      </g>
      <g>
       <g>
        <rect class="fil2" x="5640.73" y="8033.51" width="236.14" height="236.14"/>
       </g>
      </g>
      <g>
       <g>
        <rect class="fil2" x="5876.87" y="8033.51" width="236.14" height="236.14"/>
       </g>
      </g>
      <g>
       <g>
        <rect class="fil2" x="6113.02" y="8033.51" width="236.14" height="236.14"/>
       </g>
      </g>
      <g>
       <g>
        <rect class="fil2" x="6349.16" y="8033.51" width="236.14" height="236.14"/>
       </g>
      </g>
      <g>
       <g>
        <g>
         <path class="fil2" d="M6585.3 8033.51l0 236.15 236.14 0c0,-130.43 -105.72,-236.15 -236.14,-236.15z"/>
        </g>
       </g>
      </g>
      <g>
       <g>
        <rect class="fil2" x="7293.73" y="8033.51" width="236.14" height="236.14"/>
       </g>
      </g>
      <g>
       <g>
        <rect class="fil2" x="8238.31" y="8033.51" width="236.14" height="236.14"/>
       </g>
      </g>
      <g>
       <g>
        <path class="fil2" d="M9419.03 8151.59c0,27.52 0,118.07 0,118.07 0,0 -80.39,0 -118.08,-0.01 -29.43,0.01 -118.07,0 -118.07,0 0,0 0,-82.29 0,-118.07 0,-65.2 52.86,-118.07 118.07,-118.07 65.21,0 118.08,52.87 118.08,118.08z"/>
       </g>
      </g>
      <g>
       <g>
        <path class="fil2" d="M3633.5 8269.66c27.53,0 118.08,0 118.08,0 0,0 0,80.36 0,118.07 0,29.42 0,118.07 0,118.07 0,0 -82.29,0 -118.08,0 -65.23,0 -118.07,-52.88 -118.07,-118.07 0,-65.19 52.84,-118.07 118.07,-118.07z"/>
       </g>
      </g>
      <g>
       <g>
        <path class="fil2" d="M3869.65 8505.8c-27.53,0 -118.08,0 -118.08,0 0,0 0,-80.38 0,-118.07 0,-29.44 0,-118.07 0,-118.07 0,0 82.3,0 118.08,0 65.2,0 118.07,52.87 118.07,118.07 0.01,65.2 -52.87,118.07 -118.07,118.07z"/>
       </g>
      </g>
      <g>
       <g>
        <path class="fil2" d="M4460 8387.73c0,27.52 0,118.07 0,118.07 0,0 -80.38,0 -118.07,0 -29.43,0 -118.07,0 -118.07,0 0,0 0,-82.29 0,-118.08 0,-65.2 52.86,-118.06 118.07,-118.06 65.21,0 118.07,52.86 118.07,118.07z"/>
       </g>
      </g>
      <g>
       <g>
        <g>
         <path class="fil2" d="M4932.3 8505.8l236.14 0 0 -236.13c-130.42,0 -236.14,105.71 -236.14,236.13z"/>
        </g>
       </g>
      </g>
      <g>
       <g>
        <g>
         <path class="fil2" d="M5404.58 8269.66l-236.14 0 0 236.14c130.42,-0.01 236.14,-105.73 236.14,-236.14z"/>
        </g>
       </g>
      </g>
      <g>
       <g>
        <path class="fil2" d="M5876.87 8387.73c0,-27.53 0,-118.07 0,-118.07 0,0 80.38,0 118.08,0 29.43,0 118.07,0 118.07,0 0,0 0,82.29 0,118.07 0,65.2 -52.87,118.07 -118.07,118.07 -65.21,0 -118.08,-52.87 -118.08,-118.07z"/>
       </g>
      </g>
      <g>
       <g>
        <g>
         <path class="fil2" d="M6821.45 8505.8l0 -236.13 -236.14 0c0,130.41 105.72,236.13 236.14,236.13z"/>
        </g>
       </g>
      </g>
      <g>
       <g>
        <g>
         <path class="fil2" d="M6821.45 8269.66l0 236.14 236.14 -0.01c0,-130.42 -105.73,-236.13 -236.14,-236.13z"/>
        </g>
       </g>
      </g>
      <g>
       <g>
        <g>
         <path class="fil2" d="M7529.88 8505.8l0 -236.13 -236.14 0c0,130.41 105.72,236.13 236.14,236.13z"/>
        </g>
       </g>
      </g>
      <g>
       <g>
        <rect class="fil2" x="7529.88" y="8269.66" width="236.14" height="236.14"/>
       </g>
      </g>
      <g>
       <g>
        <rect class="fil2" x="7766.02" y="8269.66" width="236.14" height="236.14"/>
       </g>
      </g>
      <g>
       <g>
        <rect class="fil2" x="8002.17" y="8269.66" width="236.14" height="236.14"/>
       </g>
      </g>
      <g>
       <g>
        <rect class="fil2" x="8238.31" y="8269.66" width="236.14" height="236.14"/>
       </g>
      </g>
      <g>
       <g>
        <g>
         <path class="fil2" d="M8474.45 8269.66l0 236.14 236.14 -0.01c0,-130.42 -105.73,-236.13 -236.14,-236.13z"/>
        </g>
       </g>
      </g>
      <g>
       <g>
        <path class="fil2" d="M9182.88 8387.73c0,-27.53 0,-118.07 0,-118.07 0,0 80.38,0 118.08,0 29.43,0 118.07,0 118.07,0 0,0 0,82.29 0,118.07 0,65.2 -52.87,118.07 -118.07,118.07 -65.21,0 -118.08,-52.87 -118.08,-118.07z"/>
       </g>
      </g>
      <g>
       <g>
        <g>
         <path class="fil2" d="M3987.73 8741.94l236.13 0 0 -236.14c-130.41,0.01 -236.13,105.73 -236.13,236.14z"/>
        </g>
       </g>
      </g>
      <g>
       <g>
        <rect class="fil2" x="4223.87" y="8505.8" width="236.14" height="236.14"/>
       </g>
      </g>
      <g>
       <g>
        <rect class="fil2" x="4460.01" y="8505.8" width="236.14" height="236.14"/>
       </g>
      </g>
      <g>
       <g>
        <rect class="fil2" x="4696.15" y="8505.8" width="236.14" height="236.14"/>
       </g>
      </g>
      <g>
       <g>
        <rect class="fil2" x="4932.3" y="8505.8" width="236.14" height="236.14"/>
       </g>
      </g>
      <g>
       <g>
        <g>
         <path class="fil2" d="M5404.58 8741.94l236.14 0 0 -236.14c-130.41,0.01 -236.14,105.73 -236.14,236.14z"/>
        </g>
       </g>
      </g>
      <g>
       <g>
        <path class="fil2" d="M5758.8 8741.94c-27.53,0 -118.07,0 -118.07,0 0,0 0,-80.38 0,-118.07 -0.01,-29.43 -0.01,-118.08 -0.01,-118.08 0,0 82.3,0 118.07,0 65.21,0 118.08,52.87 118.08,118.08 0,65.2 -52.87,118.07 -118.07,118.07z"/>
       </g>
      </g>
      <g>
       <g>
        <rect class="fil2" x="6821.45" y="8505.8" width="236.14" height="236.14"/>
       </g>
      </g>
      <g>
       <g>
        <g>
         <path class="fil2" d="M7057.59 8505.8l0 236.14 236.14 0c0,-130.41 -105.72,-236.14 -236.14,-236.14z"/>
        </g>
       </g>
      </g>
      <g>
       <g>
        <rect class="fil2" x="7766.02" y="8505.8" width="236.14" height="236.14"/>
       </g>
      </g>
      <g>
       <g>
        <rect class="fil2" x="8002.17" y="8505.8" width="236.14" height="236.14"/>
       </g>
      </g>
      <g>
       <g>
        <rect class="fil2" x="8238.31" y="8505.8" width="236.14" height="236.14"/>
       </g>
      </g>
      <g>
       <g>
        <rect class="fil2" x="8474.45" y="8505.8" width="236.14" height="236.14"/>
       </g>
      </g>
      <g>
       <g>
        <path class="fil2" d="M3869.65 8741.94c27.52,0 118.07,0 118.07,0 0,0 0,80.37 0,118.08 0,29.42 0,118.07 0,118.07 0,0 -82.28,0 -118.07,0 -65.24,0.01 -118.08,-52.88 -118.08,-118.07 0,-65.19 52.84,-118.08 118.08,-118.08z"/>
       </g>
      </g>
      <g>
       <g>
        <rect class="fil2" x="3987.72" y="8741.94" width="236.14" height="236.14"/>
       </g>
      </g>
      <g>
       <g>
        <g>
         <path class="fil2" d="M4460 8741.94l-236.14 0 0 236.15c130.42,0 236.14,-105.73 236.14,-236.15z"/>
        </g>
       </g>
      </g>
      <g>
       <g>
        <g>
         <path class="fil2" d="M4932.3 8978.09l0 -236.15 -236.14 0c0,130.42 105.72,236.15 236.14,236.15z"/>
        </g>
       </g>
      </g>
      <g>
       <g>
        <rect class="fil2" x="4932.3" y="8741.94" width="236.14" height="236.14"/>
       </g>
      </g>
      <g>
       <g>
        <path class="fil2" d="M5404.58 8860.01c0,-27.52 0,-118.08 0,-118.08 0,0 80.38,0 118.08,0 29.43,0 118.07,0 118.07,0 0,0 0,82.3 0,118.08 0,65.2 -52.87,118.07 -118.07,118.07 -65.21,0.01 -118.08,-52.86 -118.08,-118.07z"/>
       </g>
      </g>
      <g>
       <g>
        <path class="fil2" d="M5994.94 8741.94c65.21,0 118.08,52.87 118.08,118.08 0,65.21 -52.87,118.07 -118.08,118.07 -65.21,0.01 -118.08,-52.86 -118.08,-118.07 0,-65.21 52.87,-118.08 118.08,-118.08z"/>
       </g>
      </g>
      <g>
       <g>
        <g>
         <path class="fil2" d="M7057.59 8978.09l0 -236.15 -236.14 0c0,130.42 105.72,236.15 236.14,236.15z"/>
        </g>
       </g>
      </g>
      <g>
       <g>
        <rect class="fil2" x="7057.59" y="8741.94" width="236.14" height="236.14"/>
       </g>
      </g>
      <g>
       <g>
        <rect class="fil2" x="7766.02" y="8741.94" width="236.14" height="236.14"/>
       </g>
      </g>
      <g>
       <g>
        <rect class="fil2" x="8002.17" y="8741.94" width="236.14" height="236.14"/>
       </g>
      </g>
      <g>
       <g>
        <rect class="fil2" x="8238.31" y="8741.94" width="236.14" height="236.14"/>
       </g>
      </g>
      <g>
       <g>
        <g>
         <path class="fil2" d="M8710.6 8741.94l-236.14 0 0 236.15c130.41,0 236.14,-105.73 236.14,-236.15z"/>
        </g>
       </g>
      </g>
      <g>
       <g>
        <path class="fil2" d="M3987.73 9096.17c0,-27.53 0,-118.08 0,-118.08 0,0 80.38,0 118.07,0 29.43,0 118.07,0 118.07,0 0,0 0,82.29 0,118.07 0,65.2 -52.87,118.07 -118.07,118.07 -65.21,0.01 -118.07,-52.86 -118.07,-118.06z"/>
       </g>
      </g>
      <g>
       <g>
        <path class="fil2" d="M4932.3 9096.17c0,-27.53 0,-118.08 0,-118.08 0,0 80.38,0 118.07,0 29.44,0 118.08,0 118.08,0 0,0 0,82.29 0,118.07 0,65.2 -52.87,118.07 -118.08,118.07 -65.21,0.01 -118.07,-52.86 -118.07,-118.06z"/>
       </g>
      </g>
      <g>
       <g>
        <path class="fil2" d="M5876.87 9096.17c0,27.52 0,118.07 0,118.07 0,0 -80.38,0 -118.07,-0.01 -29.44,0.01 -118.07,0 -118.07,0 0,0 0,-82.29 0,-118.07 0,-65.2 52.86,-118.07 118.06,-118.07 65.21,0 118.08,52.87 118.08,118.08z"/>
       </g>
      </g>
      <g>
       <g>
        <path class="fil2" d="M6821.45 9096.17c0,27.52 0,118.07 0,118.07 0,0 -80.38,0 -118.07,-0.01 -29.44,0.01 -118.07,0 -118.07,0 0,0 0,-82.29 0,-118.07 -0.01,-65.2 52.85,-118.07 118.06,-118.07 65.21,0 118.08,52.87 118.08,118.08z"/>
       </g>
      </g>
      <g>
       <g>
        <rect class="fil2" x="7057.59" y="8978.09" width="236.14" height="236.14"/>
       </g>
      </g>
      <g>
       <g>
        <rect class="fil2" x="7293.73" y="8978.09" width="236.14" height="236.14"/>
       </g>
      </g>
      <g>
       <g>
        <rect class="fil2" x="7529.88" y="8978.09" width="236.14" height="236.14"/>
       </g>
      </g>
      <g>
       <g>
        <g>
         <path class="fil2" d="M8002.17 8978.09l-236.14 0 0 236.14c130.41,0 236.14,-105.73 236.14,-236.14z"/>
        </g>
       </g>
      </g>
      <g>
       <g>
        <path class="fil2" d="M3633.5 9214.23c27.53,0 118.08,0 118.08,0 0,0 0,80.37 0,118.07 0,29.43 0,118.08 0,118.08 0,0 -82.29,0 -118.08,0 -65.23,0 -118.07,-52.89 -118.07,-118.08 0,-65.18 52.84,-118.07 118.07,-118.07z"/>
       </g>
      </g>
      <g>
       <g>
        <path class="fil2" d="M3869.65 9450.37c-27.53,0 -118.08,0 -118.08,0 0,0 0,-80.39 0,-118.07 0,-29.44 0,-118.08 0,-118.08 0,0 82.3,0 118.08,0 65.2,0 118.07,52.87 118.07,118.07 0.01,65.21 -52.87,118.08 -118.07,118.08z"/>
       </g>
      </g>
      <g>
       <g>
        <path class="fil2" d="M4341.94 9214.23c27.53,0 118.07,0 118.07,0 0,0 0,80.37 0,118.07 0,29.43 0,118.08 0,118.08 0,0 -82.28,0 -118.07,0 -65.24,0 -118.08,-52.89 -118.08,-118.08 0,-65.18 52.84,-118.07 118.08,-118.07z"/>
       </g>
      </g>
      <g>
       <g>
        <rect class="fil2" x="4460.01" y="9214.23" width="236.14" height="236.14"/>
       </g>
      </g>
      <g>
       <g>
        <path class="fil2" d="M4814.22 9450.37c-27.53,0 -118.07,0 -118.07,0 0,0 0,-80.39 0,-118.07 0,-29.44 0,-118.08 0,-118.08 0,0 82.29,0 118.07,0 65.2,0 118.07,52.87 118.07,118.07 0.01,65.21 -52.86,118.08 -118.07,118.08z"/>
       </g>
      </g>
      <g>
       <g>
        <path class="fil2" d="M5286.52 9214.23c65.2,0 118.07,52.87 118.07,118.07 0,65.21 -52.87,118.08 -118.07,118.08 -65.21,0 -118.08,-52.86 -118.08,-118.08 0,-65.2 52.87,-118.07 118.08,-118.07z"/>
       </g>
      </g>
      <g>
       <g>
        <path class="fil2" d="M5640.73 9332.3c0,-27.52 0,-118.07 0,-118.07 0,0 80.38,0 118.07,0 29.44,0 118.08,0 118.08,0 0,0 0,82.29 0,118.07 0,65.21 -52.87,118.08 -118.08,118.08 -65.2,0 -118.07,-52.87 -118.07,-118.08z"/>
       </g>
      </g>
      <g>
       <g>
        <path class="fil2" d="M6231.09 9214.23c27.52,0 118.07,0 118.07,0 0,0 0,80.37 0,118.07 0,29.43 0,118.08 0,118.08 0,0 -82.28,0 -118.07,0 -65.23,0 -118.07,-52.89 -118.07,-118.08 0,-65.18 52.84,-118.07 118.07,-118.07z"/>
       </g>
      </g>
      <g>
       <g>
        <rect class="fil2" x="6349.16" y="9214.23" width="236.14" height="236.14"/>
       </g>
      </g>
      <g>
       <g>
        <g>
         <path class="fil2" d="M6821.45 9214.23l-236.14 0 0 236.14c130.42,0 236.14,-105.72 236.14,-236.14z"/>
        </g>
       </g>
      </g>
      <g>
       <g>
        <g>
         <path class="fil2" d="M7293.73 9450.37l0 -236.14 -236.14 0c0,130.42 105.72,236.14 236.14,236.14z"/>
        </g>
       </g>
      </g>
      <g>
       <g>
        <g>
         <path class="fil2" d="M7529.88 9214.23l-236.14 0 0 236.14c130.42,0 236.14,-105.72 236.14,-236.14z"/>
        </g>
       </g>
      </g>
      <g>
       <g>
        <path class="fil2" d="M8592.53 9214.23c65.2,0 118.07,52.87 118.07,118.07 0,65.21 -52.87,118.08 -118.07,118.08 -65.21,0 -118.08,-52.86 -118.08,-118.08 0,-65.2 52.87,-118.07 118.08,-118.07z"/>
       </g>
      </g>
      <g>
       <g>
        <path class="fil2" d="M9300.96 9214.23c65.21,0 118.07,52.87 118.07,118.07 0,65.21 -52.86,118.08 -118.07,118.08 -65.21,0 -118.08,-52.86 -118.08,-118.08 0,-65.2 52.87,-118.07 118.08,-118.07z"/>
       </g>
      </g>
      <g>
       <g>
        <g>
         <path class="fil3" d="M2452.79 1916.93c-312.76,0 -567.21,254.45 -567.21,567.21 0,312.76 254.45,567.21 567.21,567.21 312.76,0 567.21,-254.45 567.21,-567.21 0,-312.76 -254.45,-567.21 -567.21,-567.21z"/>
         <path class="fil2" d="M2452.79 1673.84c-447.5,0 -810.3,362.8 -810.3,810.29 0,447.5 362.8,810.3 810.3,810.3 447.49,0 810.3,-362.8 810.3,-810.3 0,-447.49 -362.81,-810.29 -810.3,-810.29zm0 1377.51c-312.76,0 -567.21,-254.46 -567.21,-567.22 0,-312.76 254.45,-567.21 567.21,-567.21 312.76,0 567.21,254.45 567.21,567.21 0,312.76 -254.45,567.22 -567.21,567.22z"/>
        </g>
       </g>
      </g>
      <g>
       <g>
        <g>
         <path class="fil3" d="M8592.53 1916.93c-312.76,0 -567.22,254.45 -567.22,567.21 0,312.76 254.46,567.21 567.22,567.21 312.76,0 567.21,-254.45 567.21,-567.21 0,-312.76 -254.45,-567.21 -567.21,-567.21z"/>
         <path class="fil2" d="M8592.53 1673.84c-447.5,0 -810.3,362.8 -810.3,810.29 0,447.5 362.8,810.3 810.3,810.3 447.49,0 810.29,-362.8 810.29,-810.3 0,-447.49 -362.8,-810.29 -810.29,-810.29zm0 1377.51c-312.76,0 -567.22,-254.46 -567.22,-567.22 0,-312.76 254.46,-567.21 567.22,-567.21 312.76,0 567.21,254.45 567.21,567.21 0,312.76 -254.45,567.22 -567.21,567.22z"/>
        </g>
       </g>
      </g>
      <g>
       <g>
        <g>
         <path class="fil3" d="M2452.79 8056.66c-312.76,0 -567.21,254.45 -567.21,567.21 0,312.76 254.45,567.21 567.21,567.21 312.76,0 567.21,-254.45 567.21,-567.21 0,-312.76 -254.45,-567.21 -567.21,-567.21z"/>
         <path class="fil2" d="M2452.79 7813.57c-447.5,0 -810.3,362.81 -810.3,810.3 0,447.5 362.8,810.3 810.3,810.3 447.49,0 810.3,-362.8 810.3,-810.3 0,-447.49 -362.81,-810.3 -810.3,-810.3zm0 1377.51c-312.76,0 -567.21,-254.45 -567.21,-567.21 0,-312.76 254.45,-567.22 567.21,-567.22 312.76,0 567.21,254.46 567.21,567.22 0,312.76 -254.45,567.21 -567.21,567.21z"/>
        </g>
       </g>
      </g>
      <g>
       <g>
        <circle class="fil2" cx="2445.84" cy="2477.19" r="347.27"/>
       </g>
      </g>
      <g>
       <g>
        <circle class="fil2" cx="8585.58" cy="2477.19" r="347.27"/>
       </g>
      </g>
      <g>
       <g>
        <circle class="fil2" cx="2445.84" cy="8616.93" r="347.27"/>
       </g>
      </g>
     </g>
    </g>
   </g>
  </g>
  <path class="fil4 str0" d="M5596.62 8.54c3086.22,0 5588.09,2501.86 5588.09,5588.08 0,3086.22 -2501.87,5588.09 -5588.09,5588.09 -3086.22,0 -5588.08,-2501.87 -5588.08,-5588.09 0,-3086.22 2501.86,-5588.08 5588.08,-5588.08z"/>
 </g>
</svg>
